<svg width="500" height="500" viewBox="0 0 500 500" fill="none" xmlns="http://www.w3.org/2000/svg">
<g filter="url(#filter0_d)">
<rect x="50" y="157" width="32" height="100" rx="3" fill="#C6E5EF"/>
<rect x="50.5" y="157.5" width="31" height="99" rx="2.5" stroke="#90C8DA"/>
</g>
<path d="M63.5985 165.63L61.2085 171.2L58.8185 165.63H57.6985L60.6485 172.5H61.7685L64.7185 165.63H63.5985ZM65.8475 172.5H66.8575V167.61L69.2675 172.1L71.6775 167.61V172.5H72.6875V165.63H71.6775L69.2675 170.12L66.8575 165.63H65.8475V172.5Z" fill="#313131"/>
<g filter="url(#filter1_d)">
<rect x="88" y="157" width="32" height="100" rx="3" fill="#C6E5EF"/>
<rect x="88.5" y="157.5" width="31" height="99" rx="2.5" stroke="#90C8DA"/>
</g>
<path d="M101.598 165.63L99.2085 171.2L96.8185 165.63H95.6985L98.6485 172.5H99.7685L102.718 165.63H101.598ZM103.848 172.5H104.858V167.61L107.268 172.1L109.678 167.61V172.5H110.688V165.63H109.678L107.268 170.12L104.858 165.63H103.848V172.5Z" fill="#313131"/>
<g filter="url(#filter2_d)">
<rect x="126" y="157" width="83" height="100" rx="3" fill="#C6E5EF"/>
<rect x="126.5" y="157.5" width="82" height="99" rx="2.5" stroke="#90C8DA"/>
</g>
<path d="M165.598 165.63L163.208 171.2L160.818 165.63H159.698L162.648 172.5H163.768L166.718 165.63H165.598ZM167.848 172.5H168.858V167.61L171.268 172.1L173.678 167.61V172.5H174.688V165.63H173.678L171.268 170.12L168.858 165.63H167.848V172.5Z" fill="#313131"/>
<g filter="url(#filter3_d)">
<rect x="49" y="283" width="160" height="60" rx="3" fill="#D9E4EA"/>
<rect x="49.5" y="283.5" width="159" height="59" rx="2.5" stroke="#B3C7D1"/>
</g>
<path d="M61.38 311.477V310.443H55.825V318H61.38V316.966H56.947V314.667H60.951V313.633H56.947V311.477H61.38ZM65.4812 318.121C67.2632 318.121 68.2312 317.153 68.2312 315.877C68.2312 314.524 67.1862 314.018 65.6792 313.666C64.4362 313.369 63.7872 313.127 63.7872 312.423C63.7872 311.818 64.3812 311.279 65.2282 311.279C65.9982 311.279 66.7572 311.62 67.3952 312.203L68.0332 311.367C67.3072 310.729 66.4382 310.3 65.2722 310.3C63.7542 310.3 62.6542 311.257 62.6542 312.522C62.6542 313.886 63.6772 314.348 65.2172 314.711C66.4822 314.997 67.1092 315.272 67.1092 315.987C67.1092 316.592 66.5702 317.142 65.5252 317.142C64.5022 317.142 63.7102 316.724 63.0392 316.086L62.3682 316.911C63.1712 317.681 64.2162 318.121 65.4812 318.121ZM76.1525 310.443H74.8215L72.6325 313.336L70.4545 310.443H69.1125L71.9615 314.227L69.1125 318H70.4435L72.6215 315.107L74.7995 318H76.1525L73.3035 314.216L76.1525 310.443ZM77.8261 311.367C78.1781 311.367 78.4751 311.059 78.4751 310.707C78.4751 310.366 78.1781 310.058 77.8261 310.058C77.4521 310.058 77.1661 310.366 77.1661 310.707C77.1661 311.059 77.4521 311.367 77.8261 311.367ZM77.2761 318H78.3651V312.313H77.2761V318ZM85.0004 313.842H82.9324V311.752H81.9204V313.842H79.8634V314.821H81.9204V316.889H82.9324V314.821H85.0004V313.842ZM89.6502 312.181C88.7702 312.181 88.0662 312.599 87.6262 313.292V312.313H86.5482V319.892H87.6262V317.01C88.0662 317.714 88.7702 318.132 89.6502 318.132C91.1462 318.132 92.2682 316.9 92.2682 315.151C92.2682 313.413 91.1462 312.181 89.6502 312.181ZM89.3862 317.186C88.3632 317.186 87.6262 316.339 87.6262 315.151C87.6262 313.963 88.3632 313.127 89.3862 313.127C90.4312 313.127 91.1682 313.963 91.1682 315.151C91.1682 316.339 90.4312 317.186 89.3862 317.186ZM96.476 312.181C95.695 312.181 95.002 312.588 94.661 313.16V310.311H93.583V318H94.661V314.469C94.661 313.732 95.376 313.127 96.234 313.127C97.004 313.127 97.543 313.721 97.543 314.568V318H98.61V314.381C98.61 313.094 97.73 312.181 96.476 312.181ZM101.169 319.98C101.983 319.969 102.588 319.54 102.995 318.517L105.503 312.313H104.37L102.643 316.801L100.817 312.313H99.651L102.093 318.033L101.807 318.638C101.62 318.968 101.378 319.078 101.026 319.078C100.806 319.078 100.553 319.023 100.333 318.902L100.091 319.738C100.388 319.892 100.784 319.98 101.169 319.98ZM108.778 318.132C110.021 318.132 110.934 317.45 110.934 316.372C110.934 315.239 109.933 314.931 108.998 314.656C108.041 314.359 107.689 314.227 107.689 313.787C107.689 313.358 108.129 313.116 108.69 313.116C109.185 313.116 109.757 313.303 110.307 313.644L110.791 312.841C110.175 312.434 109.427 312.181 108.69 312.181C107.48 312.181 106.611 312.863 106.622 313.908C106.622 314.832 107.271 315.206 108.58 315.569C109.284 315.767 109.867 315.932 109.867 316.46C109.867 316.9 109.427 317.197 108.789 317.197C108.118 317.197 107.469 316.944 106.864 316.504L106.347 317.285C107.029 317.835 107.942 318.132 108.778 318.132ZM112.738 311.367C113.09 311.367 113.387 311.059 113.387 310.707C113.387 310.366 113.09 310.058 112.738 310.058C112.364 310.058 112.078 310.366 112.078 310.707C112.078 311.059 112.364 311.367 112.738 311.367ZM112.188 318H113.277V312.313H112.188V318ZM117.537 318.132C118.384 318.132 119.121 317.78 119.671 317.219L118.934 316.548C118.582 316.944 118.076 317.186 117.548 317.186C116.503 317.186 115.645 316.262 115.645 315.151C115.645 314.051 116.503 313.127 117.537 313.127C118.065 313.127 118.56 313.358 118.901 313.743L119.638 313.061C119.099 312.522 118.362 312.181 117.548 312.181C115.92 312.181 114.545 313.534 114.545 315.151C114.545 316.768 115.92 318.132 117.537 318.132ZM123.223 312.181C122.596 312.181 121.881 312.346 121.067 312.753L121.463 313.556C121.958 313.303 122.508 313.083 123.069 313.083C124.202 313.083 124.532 313.842 124.532 314.557V314.733C123.982 314.546 123.377 314.425 122.816 314.425C121.562 314.425 120.539 315.184 120.539 316.317C120.539 317.428 121.43 318.132 122.64 318.132C123.333 318.132 124.114 317.813 124.532 317.219V318H125.599V314.557C125.599 313.149 124.752 312.181 123.223 312.181ZM122.849 317.274C122.134 317.274 121.584 316.9 121.584 316.284C121.584 315.668 122.222 315.239 122.981 315.239C123.542 315.239 124.07 315.316 124.532 315.459V316.218C124.345 316.922 123.553 317.274 122.849 317.274ZM127.174 318H128.252V310.311H127.174V318ZM133.524 311.367C133.876 311.367 134.173 311.059 134.173 310.707C134.173 310.366 133.876 310.058 133.524 310.058C133.15 310.058 132.864 310.366 132.864 310.707C132.864 311.059 133.15 311.367 133.524 311.367ZM132.974 318H134.063V312.313H132.974V318ZM138.532 312.181C137.762 312.181 137.069 312.577 136.728 313.138V312.313H135.639V318H136.728V314.315C136.816 313.644 137.498 313.127 138.29 313.127C139.06 313.127 139.599 313.721 139.599 314.568V318H140.666V314.381C140.666 313.094 139.786 312.181 138.532 312.181ZM143.72 311.686C143.72 311.29 143.984 311.004 144.303 311.004C144.545 311.004 144.765 311.092 144.886 311.213L145.282 310.487C144.974 310.234 144.556 310.08 144.149 310.08C143.269 310.08 142.653 310.718 142.653 311.631V312.313H141.795V313.237H142.653V318H143.72V313.237H145.062V312.313H143.72V311.686ZM147.332 313.402V312.313H146.243V318H147.332V314.766C147.431 313.776 148.267 313.127 149.444 313.127V312.181C148.465 312.181 147.695 312.654 147.332 313.402ZM152.893 312.181C152.266 312.181 151.551 312.346 150.737 312.753L151.133 313.556C151.628 313.303 152.178 313.083 152.739 313.083C153.872 313.083 154.202 313.842 154.202 314.557V314.733C153.652 314.546 153.047 314.425 152.486 314.425C151.232 314.425 150.209 315.184 150.209 316.317C150.209 317.428 151.1 318.132 152.31 318.132C153.003 318.132 153.784 317.813 154.202 317.219V318H155.269V314.557C155.269 313.149 154.422 312.181 152.893 312.181ZM152.519 317.274C151.804 317.274 151.254 316.9 151.254 316.284C151.254 315.668 151.892 315.239 152.651 315.239C153.212 315.239 153.74 315.316 154.202 315.459V316.218C154.015 316.922 153.223 317.274 152.519 317.274ZM158.901 318.132C160.144 318.132 161.057 317.45 161.057 316.372C161.057 315.239 160.056 314.931 159.121 314.656C158.164 314.359 157.812 314.227 157.812 313.787C157.812 313.358 158.252 313.116 158.813 313.116C159.308 313.116 159.88 313.303 160.43 313.644L160.914 312.841C160.298 312.434 159.55 312.181 158.813 312.181C157.603 312.181 156.734 312.863 156.745 313.908C156.745 314.832 157.394 315.206 158.703 315.569C159.407 315.767 159.99 315.932 159.99 316.46C159.99 316.9 159.55 317.197 158.912 317.197C158.241 317.197 157.592 316.944 156.987 316.504L156.47 317.285C157.152 317.835 158.065 318.132 158.901 318.132ZM164.984 316.977C164.863 317.098 164.643 317.186 164.401 317.186C164.082 317.186 163.818 316.9 163.818 316.504V313.237H165.16V312.313H163.818V310.751H162.751V312.313H161.893V313.237H162.751V316.581C162.751 317.494 163.367 318.132 164.247 318.132C164.654 318.132 165.072 317.978 165.38 317.725L164.984 316.977ZM167.634 313.402V312.313H166.545V318H167.634V314.766C167.733 313.776 168.569 313.127 169.746 313.127V312.181C168.767 312.181 167.997 312.654 167.634 313.402ZM174.725 312.313V315.998C174.637 316.669 173.955 317.186 173.163 317.186C172.393 317.186 171.854 316.592 171.854 315.745V312.313H170.787V315.932C170.787 317.219 171.667 318.132 172.921 318.132C173.691 318.132 174.384 317.736 174.725 317.175V318H175.814V312.313H174.725ZM180.078 318.132C180.925 318.132 181.662 317.78 182.212 317.219L181.475 316.548C181.123 316.944 180.617 317.186 180.089 317.186C179.044 317.186 178.186 316.262 178.186 315.151C178.186 314.051 179.044 313.127 180.078 313.127C180.606 313.127 181.101 313.358 181.442 313.743L182.179 313.061C181.64 312.522 180.903 312.181 180.089 312.181C178.461 312.181 177.086 313.534 177.086 315.151C177.086 316.768 178.461 318.132 180.078 318.132ZM186.039 316.977C185.918 317.098 185.698 317.186 185.456 317.186C185.137 317.186 184.873 316.9 184.873 316.504V313.237H186.215V312.313H184.873V310.751H183.806V312.313H182.948V313.237H183.806V316.581C183.806 317.494 184.422 318.132 185.302 318.132C185.709 318.132 186.127 317.978 186.435 317.725L186.039 316.977ZM191.461 312.313V315.998C191.373 316.669 190.691 317.186 189.899 317.186C189.129 317.186 188.59 316.592 188.59 315.745V312.313H187.523V315.932C187.523 317.219 188.403 318.132 189.657 318.132C190.427 318.132 191.12 317.736 191.461 317.175V318H192.55V312.313H191.461ZM195.274 313.402V312.313H194.185V318H195.274V314.766C195.373 313.776 196.209 313.127 197.386 313.127V312.181C196.407 312.181 195.637 312.654 195.274 313.402ZM201.055 317.164C200.076 317.164 199.383 316.482 199.24 315.536H203.717C203.717 313.501 202.716 312.181 200.978 312.181C199.405 312.181 198.14 313.435 198.14 315.14C198.14 316.889 199.482 318.132 201.066 318.132C201.869 318.132 202.859 317.791 203.365 317.252L202.683 316.548C202.342 316.9 201.649 317.164 201.055 317.164ZM201.022 313.149C202.001 313.149 202.54 313.787 202.661 314.667H199.251C199.427 313.743 200.142 313.149 201.022 313.149Z" fill="#313131"/>
<rect x="134.5" y="190.5" width="65" height="19" rx="2.5" fill="#A2D6E7" stroke="#5A8BA7"/>
<path d="M146.22 199.798H148.244V201.382C147.727 201.778 147.012 202.009 146.374 202.009C144.856 202.009 143.58 200.689 143.58 199.116C143.58 197.554 144.856 196.234 146.374 196.234C147.155 196.234 148.046 196.586 148.563 197.147L149.344 196.399C148.629 195.662 147.441 195.211 146.374 195.211C144.251 195.211 142.436 196.993 142.436 199.116C142.436 201.239 144.251 203.032 146.374 203.032C147.441 203.032 148.629 202.57 149.344 201.844V198.83H146.22V199.798ZM154.802 197.213V200.898C154.714 201.569 154.032 202.086 153.24 202.086C152.47 202.086 151.931 201.492 151.931 200.645V197.213H150.864V200.832C150.864 202.119 151.744 203.032 152.998 203.032C153.768 203.032 154.461 202.636 154.802 202.075V202.9H155.891V197.213H154.802ZM160.078 202.064C159.099 202.064 158.406 201.382 158.263 200.436H162.74C162.74 198.401 161.739 197.081 160.001 197.081C158.428 197.081 157.163 198.335 157.163 200.04C157.163 201.789 158.505 203.032 160.089 203.032C160.892 203.032 161.882 202.691 162.388 202.152L161.706 201.448C161.365 201.8 160.672 202.064 160.078 202.064ZM160.045 198.049C161.024 198.049 161.563 198.687 161.684 199.567H158.274C158.45 198.643 159.165 198.049 160.045 198.049ZM166.059 203.032C167.302 203.032 168.215 202.35 168.215 201.272C168.215 200.139 167.214 199.831 166.279 199.556C165.322 199.259 164.97 199.127 164.97 198.687C164.97 198.258 165.41 198.016 165.971 198.016C166.466 198.016 167.038 198.203 167.588 198.544L168.072 197.741C167.456 197.334 166.708 197.081 165.971 197.081C164.761 197.081 163.892 197.763 163.903 198.808C163.903 199.732 164.552 200.106 165.861 200.469C166.565 200.667 167.148 200.832 167.148 201.36C167.148 201.8 166.708 202.097 166.07 202.097C165.399 202.097 164.75 201.844 164.145 201.404L163.628 202.185C164.31 202.735 165.223 203.032 166.059 203.032ZM172.142 201.877C172.021 201.998 171.801 202.086 171.559 202.086C171.24 202.086 170.976 201.8 170.976 201.404V198.137H172.318V197.213H170.976V195.651H169.909V197.213H169.051V198.137H169.909V201.481C169.909 202.394 170.525 203.032 171.405 203.032C171.812 203.032 172.23 202.878 172.538 202.625L172.142 201.877ZM180.459 203.032C182.582 203.032 184.364 201.239 184.364 199.116C184.364 196.993 182.582 195.211 180.459 195.211C178.336 195.211 176.532 196.993 176.532 199.116C176.532 201.239 178.336 203.032 180.459 203.032ZM180.459 202.009C178.952 202.009 177.676 200.689 177.676 199.116C177.676 197.554 178.952 196.234 180.459 196.234C181.966 196.234 183.231 197.554 183.231 199.116C183.231 200.689 181.966 202.009 180.459 202.009ZM188.429 203.021C190.211 203.021 191.179 202.053 191.179 200.777C191.179 199.424 190.134 198.918 188.627 198.566C187.384 198.269 186.735 198.027 186.735 197.323C186.735 196.718 187.329 196.179 188.176 196.179C188.946 196.179 189.705 196.52 190.343 197.103L190.981 196.267C190.255 195.629 189.386 195.2 188.22 195.2C186.702 195.2 185.602 196.157 185.602 197.422C185.602 198.786 186.625 199.248 188.165 199.611C189.43 199.897 190.057 200.172 190.057 200.887C190.057 201.492 189.518 202.042 188.473 202.042C187.45 202.042 186.658 201.624 185.987 200.986L185.316 201.811C186.119 202.581 187.164 203.021 188.429 203.021Z" fill="#313131"/>
<path fill-rule="evenodd" clip-rule="evenodd" d="M168.227 258L176.455 264.75H172.728V276.25H176.454L168.227 283L160 276.25H163.728V264.75H160L168.227 258Z" fill="#0095D3"/>
<path fill-rule="evenodd" clip-rule="evenodd" d="M66.2274 258L74.4547 264.75H70.7275V276.25H74.4545L66.2272 283L58 276.25H61.7275V264.75H58.0002L66.2274 258Z" fill="#0095D3"/>
<path fill-rule="evenodd" clip-rule="evenodd" d="M104.227 258L112.455 264.75H108.728V276.25H112.454L104.227 283L96 276.25H99.7275V264.75H96.0002L104.227 258Z" fill="#0095D3"/>
<path d="M213 159H217.686C220.999 159 223.686 161.686 223.686 165V175.856C223.686 178.04 224.872 180.051 226.784 181.107L229.029 182.348L230 182.884L229.029 183.421" stroke="#5A8BA7" stroke-width="3"/>
<path d="M213 207L217.667 207C220.98 207 223.667 204.314 223.667 201L223.667 189.922C223.667 187.749 224.842 185.745 226.739 184.685L229 183.421" stroke="#5A8BA7" stroke-width="3"/>
<path d="M213 207H217.686C220.999 207 223.686 209.686 223.686 213V223.856C223.686 226.04 224.872 228.051 226.784 229.107L229.029 230.348L230 230.884L229.029 231.421" stroke="#5A8BA7" stroke-width="3"/>
<path d="M213 255L217.667 255C220.98 255 223.667 252.314 223.667 249L223.667 237.922C223.667 235.749 224.842 233.745 226.739 232.685L229 231.421" stroke="#5A8BA7" stroke-width="3"/>
<path d="M213 255H217.686C220.999 255 223.686 257.686 223.686 261V262.527C223.686 265.132 225.366 267.439 227.845 268.238L229.029 268.619L230 268.933L229.029 269.246" stroke="#5A8BA7" stroke-width="3"/>
<path d="M213 283L217.667 283C220.98 283 223.667 280.314 223.667 277L223.667 275.339C223.667 272.742 225.338 270.44 227.807 269.635L229 269.246" stroke="#5A8BA7" stroke-width="3"/>
<path d="M213 283H217.686C220.999 283 223.686 285.686 223.686 289V305.346C223.686 307.318 224.654 309.163 226.276 310.283L229.029 312.184L230 312.855L229.029 313.526" stroke="#5A8BA7" stroke-width="3"/>
<path d="M213 343L217.667 343C220.98 343 223.667 340.314 223.667 337L223.667 320.38C223.667 318.42 224.624 316.584 226.23 315.462L229 313.526" stroke="#5A8BA7" stroke-width="3"/>
<path d="M239.92 182.18H241.76V183.62C241.29 183.98 240.64 184.19 240.06 184.19C238.68 184.19 237.52 182.99 237.52 181.56C237.52 180.14 238.68 178.94 240.06 178.94C240.77 178.94 241.58 179.26 242.05 179.77L242.76 179.09C242.11 178.42 241.03 178.01 240.06 178.01C238.13 178.01 236.48 179.63 236.48 181.56C236.48 183.49 238.13 185.12 240.06 185.12C241.03 185.12 242.11 184.7 242.76 184.04V181.3H239.92V182.18ZM247.721 179.83V183.18C247.641 183.79 247.021 184.26 246.301 184.26C245.601 184.26 245.111 183.72 245.111 182.95V179.83H244.141V183.12C244.141 184.29 244.941 185.12 246.081 185.12C246.781 185.12 247.411 184.76 247.721 184.25V185H248.711V179.83H247.721ZM252.518 184.24C251.628 184.24 250.998 183.62 250.868 182.76H254.938C254.938 180.91 254.028 179.71 252.448 179.71C251.018 179.71 249.868 180.85 249.868 182.4C249.868 183.99 251.088 185.12 252.528 185.12C253.258 185.12 254.158 184.81 254.618 184.32L253.998 183.68C253.688 184 253.058 184.24 252.518 184.24ZM252.488 180.59C253.378 180.59 253.868 181.17 253.978 181.97H250.878C251.038 181.13 251.688 180.59 252.488 180.59ZM257.955 185.12C259.085 185.12 259.915 184.5 259.915 183.52C259.915 182.49 259.005 182.21 258.155 181.96C257.285 181.69 256.965 181.57 256.965 181.17C256.965 180.78 257.365 180.56 257.875 180.56C258.325 180.56 258.845 180.73 259.345 181.04L259.785 180.31C259.225 179.94 258.545 179.71 257.875 179.71C256.775 179.71 255.985 180.33 255.995 181.28C255.995 182.12 256.585 182.46 257.775 182.79C258.415 182.97 258.945 183.12 258.945 183.6C258.945 184 258.545 184.27 257.965 184.27C257.355 184.27 256.765 184.04 256.215 183.64L255.745 184.35C256.365 184.85 257.195 185.12 257.955 185.12ZM263.486 184.07C263.376 184.18 263.176 184.26 262.956 184.26C262.666 184.26 262.426 184 262.426 183.64V180.67H263.646V179.83H262.426V178.41H261.456V179.83H260.676V180.67H261.456V183.71C261.456 184.54 262.016 185.12 262.816 185.12C263.186 185.12 263.566 184.98 263.846 184.75L263.486 184.07ZM271.046 185.12C272.026 185.12 272.926 184.7 273.576 184.04L272.866 183.36C272.406 183.86 271.756 184.19 271.046 184.19C269.676 184.19 268.516 182.99 268.516 181.56C268.516 180.14 269.676 178.94 271.046 178.94C271.756 178.94 272.406 179.27 272.866 179.77L273.576 179.09C272.926 178.42 272.026 178.01 271.046 178.01C269.116 178.01 267.476 179.63 267.476 181.56C267.476 183.49 269.116 185.12 271.046 185.12ZM277.012 185.12C278.482 185.12 279.722 183.88 279.722 182.41C279.722 180.94 278.482 179.71 277.012 179.71C275.532 179.71 274.282 180.94 274.282 182.41C274.282 183.88 275.532 185.12 277.012 185.12ZM277.012 184.26C276.062 184.26 275.272 183.42 275.272 182.41C275.272 181.41 276.062 180.57 277.012 180.57C277.942 180.57 278.732 181.41 278.732 182.41C278.732 183.42 277.942 184.26 277.012 184.26ZM283.51 179.71C282.81 179.71 282.18 180.07 281.87 180.58V179.83H280.88V185H281.87V181.65C281.95 181.04 282.57 180.57 283.29 180.57C283.99 180.57 284.48 181.11 284.48 181.88V185H285.45V181.71C285.45 180.54 284.65 179.71 283.51 179.71ZM289.286 184.07C289.176 184.18 288.976 184.26 288.756 184.26C288.466 184.26 288.226 184 288.226 183.64V180.67H289.446V179.83H288.226V178.41H287.256V179.83H286.476V180.67H287.256V183.71C287.256 184.54 287.816 185.12 288.616 185.12C288.986 185.12 289.366 184.98 289.646 184.75L289.286 184.07ZM293.026 184.24C292.136 184.24 291.506 183.62 291.376 182.76H295.446C295.446 180.91 294.536 179.71 292.956 179.71C291.526 179.71 290.376 180.85 290.376 182.4C290.376 183.99 291.596 185.12 293.036 185.12C293.766 185.12 294.666 184.81 295.126 184.32L294.506 183.68C294.196 184 293.566 184.24 293.026 184.24ZM292.996 180.59C293.886 180.59 294.376 181.17 294.486 181.97H291.386C291.546 181.13 292.196 180.59 292.996 180.59ZM299.223 179.71C298.523 179.71 297.893 180.07 297.583 180.58V179.83H296.593V185H297.583V181.65C297.663 181.04 298.283 180.57 299.003 180.57C299.703 180.57 300.193 181.11 300.193 181.88V185H301.163V181.71C301.163 180.54 300.363 179.71 299.223 179.71ZM304.999 184.07C304.889 184.18 304.689 184.26 304.469 184.26C304.179 184.26 303.939 184 303.939 183.64V180.67H305.159V179.83H303.939V178.41H302.969V179.83H302.189V180.67H302.969V183.71C302.969 184.54 303.529 185.12 304.329 185.12C304.699 185.12 305.079 184.98 305.359 184.75L304.999 184.07ZM306.858 178.97C307.178 178.97 307.448 178.69 307.448 178.37C307.448 178.06 307.178 177.78 306.858 177.78C306.518 177.78 306.258 178.06 306.258 178.37C306.258 178.69 306.518 178.97 306.858 178.97ZM306.358 185H307.348V179.83H306.358V185ZM311.231 185.12C312.701 185.12 313.941 183.88 313.941 182.41C313.941 180.94 312.701 179.71 311.231 179.71C309.751 179.71 308.501 180.94 308.501 182.41C308.501 183.88 309.751 185.12 311.231 185.12ZM311.231 184.26C310.281 184.26 309.491 183.42 309.491 182.41C309.491 181.41 310.281 180.57 311.231 180.57C312.161 180.57 312.951 181.41 312.951 182.41C312.951 183.42 312.161 184.26 311.231 184.26ZM317.729 179.71C317.029 179.71 316.399 180.07 316.089 180.58V179.83H315.099V185H316.089V181.65C316.169 181.04 316.789 180.57 317.509 180.57C318.209 180.57 318.699 181.11 318.699 181.88V185H319.669V181.71C319.669 180.54 318.869 179.71 317.729 179.71Z" fill="black"/>
<path d="M359.92 182.18H361.76V183.62C361.29 183.98 360.64 184.19 360.06 184.19C358.68 184.19 357.52 182.99 357.52 181.56C357.52 180.14 358.68 178.94 360.06 178.94C360.77 178.94 361.58 179.26 362.05 179.77L362.76 179.09C362.11 178.42 361.03 178.01 360.06 178.01C358.13 178.01 356.48 179.63 356.48 181.56C356.48 183.49 358.13 185.12 360.06 185.12C361.03 185.12 362.11 184.7 362.76 184.04V181.3H359.92V182.18ZM367.721 179.83V183.18C367.641 183.79 367.021 184.26 366.301 184.26C365.601 184.26 365.111 183.72 365.111 182.95V179.83H364.141V183.12C364.141 184.29 364.941 185.12 366.081 185.12C366.781 185.12 367.411 184.76 367.721 184.25V185H368.711V179.83H367.721ZM372.518 184.24C371.628 184.24 370.998 183.62 370.868 182.76H374.938C374.938 180.91 374.028 179.71 372.448 179.71C371.018 179.71 369.868 180.85 369.868 182.4C369.868 183.99 371.088 185.12 372.528 185.12C373.258 185.12 374.158 184.81 374.618 184.32L373.998 183.68C373.688 184 373.058 184.24 372.518 184.24ZM372.488 180.59C373.378 180.59 373.868 181.17 373.978 181.97H370.878C371.038 181.13 371.688 180.59 372.488 180.59ZM377.955 185.12C379.085 185.12 379.915 184.5 379.915 183.52C379.915 182.49 379.005 182.21 378.155 181.96C377.285 181.69 376.965 181.57 376.965 181.17C376.965 180.78 377.365 180.56 377.875 180.56C378.325 180.56 378.845 180.73 379.345 181.04L379.785 180.31C379.225 179.94 378.545 179.71 377.875 179.71C376.775 179.71 375.985 180.33 375.995 181.28C375.995 182.12 376.585 182.46 377.775 182.79C378.415 182.97 378.945 183.12 378.945 183.6C378.945 184 378.545 184.27 377.965 184.27C377.355 184.27 376.765 184.04 376.215 183.64L375.745 184.35C376.365 184.85 377.195 185.12 377.955 185.12ZM383.486 184.07C383.376 184.18 383.176 184.26 382.956 184.26C382.666 184.26 382.426 184 382.426 183.64V180.67H383.646V179.83H382.426V178.41H381.456V179.83H380.676V180.67H381.456V183.71C381.456 184.54 382.016 185.12 382.816 185.12C383.186 185.12 383.566 184.98 383.846 184.75L383.486 184.07ZM387.746 185H388.756V182.61H390.636C392.086 182.61 393.186 181.68 393.186 180.37C393.186 179.06 392.086 178.13 390.636 178.13H387.746V185ZM388.756 181.67V179.07H390.496C391.486 179.07 392.156 179.56 392.156 180.37C392.156 181.18 391.486 181.67 390.496 181.67H388.756ZM396.58 184.24C395.69 184.24 395.06 183.62 394.93 182.76H399C399 180.91 398.09 179.71 396.51 179.71C395.08 179.71 393.93 180.85 393.93 182.4C393.93 183.99 395.15 185.12 396.59 185.12C397.32 185.12 398.22 184.81 398.68 184.32L398.06 183.68C397.75 184 397.12 184.24 396.58 184.24ZM396.55 180.59C397.44 180.59 397.93 181.17 398.04 181.97H394.94C395.1 181.13 395.75 180.59 396.55 180.59ZM401.188 180.82V179.83H400.198V185H401.188V182.06C401.278 181.16 402.038 180.57 403.108 180.57V179.71C402.218 179.71 401.518 180.14 401.188 180.82ZM405.434 179.26C405.434 178.9 405.674 178.64 405.964 178.64C406.184 178.64 406.384 178.72 406.494 178.83L406.854 178.17C406.574 177.94 406.194 177.8 405.824 177.8C405.024 177.8 404.464 178.38 404.464 179.21V179.83H403.684V180.67H404.464V185H405.434V180.67H406.654V179.83H405.434V179.26ZM410.127 185.12C411.597 185.12 412.837 183.88 412.837 182.41C412.837 180.94 411.597 179.71 410.127 179.71C408.647 179.71 407.397 180.94 407.397 182.41C407.397 183.88 408.647 185.12 410.127 185.12ZM410.127 184.26C409.177 184.26 408.387 183.42 408.387 182.41C408.387 181.41 409.177 180.57 410.127 180.57C411.057 180.57 411.847 181.41 411.847 182.41C411.847 183.42 411.057 184.26 410.127 184.26ZM415.035 180.82V179.83H414.045V185H415.035V182.06C415.125 181.16 415.885 180.57 416.955 180.57V179.71C416.065 179.71 415.365 180.14 415.035 180.82ZM423.701 179.71C422.921 179.71 422.261 180.11 422.021 180.75C421.721 180.11 421.111 179.71 420.361 179.71C419.701 179.71 419.161 180.04 418.901 180.55V179.83H417.911V185H418.901V181.77C418.901 181.06 419.421 180.57 420.161 180.57C420.811 180.57 421.261 181.1 421.261 181.86V185H422.231V181.77C422.231 181.06 422.751 180.57 423.491 180.57C424.141 180.57 424.591 181.1 424.591 181.86V185H425.561V181.71C425.561 180.54 424.781 179.71 423.701 179.71ZM429.154 179.71C428.584 179.71 427.934 179.86 427.194 180.23L427.554 180.96C428.004 180.73 428.504 180.53 429.014 180.53C430.044 180.53 430.344 181.22 430.344 181.87V182.03C429.844 181.86 429.294 181.75 428.784 181.75C427.644 181.75 426.714 182.44 426.714 183.47C426.714 184.48 427.524 185.12 428.624 185.12C429.254 185.12 429.964 184.83 430.344 184.29V185H431.314V181.87C431.314 180.59 430.544 179.71 429.154 179.71ZM428.814 184.34C428.164 184.34 427.664 184 427.664 183.44C427.664 182.88 428.244 182.49 428.934 182.49C429.444 182.49 429.924 182.56 430.344 182.69V183.38C430.174 184.02 429.454 184.34 428.814 184.34ZM435.375 179.71C434.675 179.71 434.045 180.07 433.735 180.58V179.83H432.745V185H433.735V181.65C433.815 181.04 434.435 180.57 435.155 180.57C435.855 180.57 436.345 181.11 436.345 181.88V185H437.315V181.71C437.315 180.54 436.515 179.71 435.375 179.71ZM441.172 185.12C441.942 185.12 442.612 184.8 443.112 184.29L442.442 183.68C442.122 184.04 441.662 184.26 441.182 184.26C440.232 184.26 439.452 183.42 439.452 182.41C439.452 181.41 440.232 180.57 441.172 180.57C441.652 180.57 442.102 180.78 442.412 181.13L443.082 180.51C442.592 180.02 441.922 179.71 441.182 179.71C439.702 179.71 438.452 180.94 438.452 182.41C438.452 183.88 439.702 185.12 441.172 185.12ZM446.541 184.24C445.651 184.24 445.021 183.62 444.891 182.76H448.961C448.961 180.91 448.051 179.71 446.471 179.71C445.041 179.71 443.891 180.85 443.891 182.4C443.891 183.99 445.111 185.12 446.551 185.12C447.281 185.12 448.181 184.81 448.641 184.32L448.021 183.68C447.711 184 447.081 184.24 446.541 184.24ZM446.511 180.59C447.401 180.59 447.891 181.17 448.001 181.97H444.901C445.061 181.13 445.711 180.59 446.511 180.59Z" fill="black"/>
<path d="M362.16 226.13L359.77 231.7L357.38 226.13H356.26L359.21 233H360.33L363.28 226.13H362.16ZM364.409 233H365.419V228.11L367.829 232.6L370.239 228.11V233H371.249V226.13H370.239L367.829 230.62L365.419 226.13H364.409V233ZM379.034 233.12C380.014 233.12 380.914 232.7 381.564 232.04L380.854 231.36C380.394 231.86 379.744 232.19 379.034 232.19C377.664 232.19 376.504 230.99 376.504 229.56C376.504 228.14 377.664 226.94 379.034 226.94C379.744 226.94 380.394 227.27 380.854 227.77L381.564 227.09C380.914 226.42 380.014 226.01 379.034 226.01C377.104 226.01 375.464 227.63 375.464 229.56C375.464 231.49 377.104 233.12 379.034 233.12ZM384.72 227.71C384.15 227.71 383.5 227.86 382.76 228.23L383.12 228.96C383.57 228.73 384.07 228.53 384.58 228.53C385.61 228.53 385.91 229.22 385.91 229.87V230.03C385.41 229.86 384.86 229.75 384.35 229.75C383.21 229.75 382.28 230.44 382.28 231.47C382.28 232.48 383.09 233.12 384.19 233.12C384.82 233.12 385.53 232.83 385.91 232.29V233H386.88V229.87C386.88 228.59 386.11 227.71 384.72 227.71ZM384.38 232.34C383.73 232.34 383.23 232 383.23 231.44C383.23 230.88 383.81 230.49 384.5 230.49C385.01 230.49 385.49 230.56 385.91 230.69V231.38C385.74 232.02 385.02 232.34 384.38 232.34ZM391.182 227.71C390.382 227.71 389.742 228.09 389.342 228.72V227.83H388.362V234.72H389.342V232.1C389.742 232.74 390.382 233.12 391.182 233.12C392.542 233.12 393.562 232 393.562 230.41C393.562 228.83 392.542 227.71 391.182 227.71ZM390.942 232.26C390.012 232.26 389.342 231.49 389.342 230.41C389.342 229.33 390.012 228.57 390.942 228.57C391.892 228.57 392.562 229.33 392.562 230.41C392.562 231.49 391.892 232.26 390.942 232.26ZM396.927 227.71C396.357 227.71 395.707 227.86 394.967 228.23L395.327 228.96C395.777 228.73 396.277 228.53 396.787 228.53C397.817 228.53 398.117 229.22 398.117 229.87V230.03C397.617 229.86 397.067 229.75 396.557 229.75C395.417 229.75 394.487 230.44 394.487 231.47C394.487 232.48 395.297 233.12 396.397 233.12C397.027 233.12 397.737 232.83 398.117 232.29V233H399.087V229.87C399.087 228.59 398.317 227.71 396.927 227.71ZM396.587 232.34C395.937 232.34 395.437 232 395.437 231.44C395.437 230.88 396.017 230.49 396.707 230.49C397.217 230.49 397.697 230.56 398.117 230.69V231.38C397.947 232.02 397.227 232.34 396.587 232.34ZM402.959 233.12C403.729 233.12 404.399 232.8 404.899 232.29L404.229 231.68C403.909 232.04 403.449 232.26 402.969 232.26C402.019 232.26 401.239 231.42 401.239 230.41C401.239 229.41 402.019 228.57 402.959 228.57C403.439 228.57 403.889 228.78 404.199 229.13L404.869 228.51C404.379 228.02 403.709 227.71 402.969 227.71C401.489 227.71 400.239 228.94 400.239 230.41C400.239 231.88 401.489 233.12 402.959 233.12ZM406.448 226.97C406.768 226.97 407.038 226.69 407.038 226.37C407.038 226.06 406.768 225.78 406.448 225.78C406.108 225.78 405.848 226.06 405.848 226.37C405.848 226.69 406.108 226.97 406.448 226.97ZM405.948 233H406.938V227.83H405.948V233ZM410.79 232.07C410.68 232.18 410.48 232.26 410.26 232.26C409.97 232.26 409.73 232 409.73 231.64V228.67H410.95V227.83H409.73V226.41H408.76V227.83H407.98V228.67H408.76V231.71C408.76 232.54 409.32 233.12 410.12 233.12C410.49 233.12 410.87 232.98 411.15 232.75L410.79 232.07ZM413.069 234.8C413.809 234.79 414.359 234.4 414.729 233.47L417.009 227.83H415.979L414.409 231.91L412.749 227.83H411.689L413.909 233.03L413.649 233.58C413.479 233.88 413.259 233.98 412.939 233.98C412.739 233.98 412.509 233.93 412.309 233.82L412.089 234.58C412.359 234.72 412.719 234.8 413.069 234.8Z" fill="black"/>
<path d="M356.76 266H357.77V259.13H356.76V266ZM361.419 260.71C360.849 260.71 360.199 260.86 359.459 261.23L359.819 261.96C360.269 261.73 360.769 261.53 361.279 261.53C362.309 261.53 362.609 262.22 362.609 262.87V263.03C362.109 262.86 361.559 262.75 361.049 262.75C359.909 262.75 358.979 263.44 358.979 264.47C358.979 265.48 359.789 266.12 360.889 266.12C361.519 266.12 362.229 265.83 362.609 265.29V266H363.579V262.87C363.579 261.59 362.809 260.71 361.419 260.71ZM361.079 265.34C360.429 265.34 359.929 265 359.929 264.44C359.929 263.88 360.509 263.49 361.199 263.49C361.709 263.49 362.189 263.56 362.609 263.69V264.38C362.439 265.02 361.719 265.34 361.079 265.34ZM367.181 260.71C366.611 260.71 365.961 260.86 365.221 261.23L365.581 261.96C366.031 261.73 366.531 261.53 367.041 261.53C368.071 261.53 368.371 262.22 368.371 262.87V263.03C367.871 262.86 367.321 262.75 366.811 262.75C365.671 262.75 364.741 263.44 364.741 264.47C364.741 265.48 365.551 266.12 366.651 266.12C367.281 266.12 367.991 265.83 368.371 265.29V266H369.341V262.87C369.341 261.59 368.571 260.71 367.181 260.71ZM366.841 265.34C366.191 265.34 365.691 265 365.691 264.44C365.691 263.88 366.271 263.49 366.961 263.49C367.471 263.49 367.951 263.56 368.371 263.69V264.38C368.201 265.02 367.481 265.34 366.841 265.34ZM372.643 266.12C373.773 266.12 374.603 265.5 374.603 264.52C374.603 263.49 373.693 263.21 372.843 262.96C371.973 262.69 371.653 262.57 371.653 262.17C371.653 261.78 372.053 261.56 372.563 261.56C373.013 261.56 373.533 261.73 374.033 262.04L374.473 261.31C373.913 260.94 373.233 260.71 372.563 260.71C371.463 260.71 370.673 261.33 370.683 262.28C370.683 263.12 371.273 263.46 372.463 263.79C373.103 263.97 373.633 264.12 373.633 264.6C373.633 265 373.233 265.27 372.653 265.27C372.043 265.27 371.453 265.04 370.903 264.64L370.433 265.35C371.053 265.85 371.883 266.12 372.643 266.12ZM378.645 266H379.655V263.61H381.535C382.985 263.61 384.085 262.68 384.085 261.37C384.085 260.06 382.985 259.13 381.535 259.13H378.645V266ZM379.655 262.67V260.07H381.395C382.385 260.07 383.055 260.56 383.055 261.37C383.055 262.18 382.385 262.67 381.395 262.67H379.655ZM387.479 265.24C386.589 265.24 385.959 264.62 385.829 263.76H389.899C389.899 261.91 388.989 260.71 387.409 260.71C385.979 260.71 384.829 261.85 384.829 263.4C384.829 264.99 386.049 266.12 387.489 266.12C388.219 266.12 389.119 265.81 389.579 265.32L388.959 264.68C388.649 265 388.019 265.24 387.479 265.24ZM387.449 261.59C388.339 261.59 388.829 262.17 388.939 262.97H385.839C385.999 262.13 386.649 261.59 387.449 261.59ZM392.086 261.82V260.83H391.096V266H392.086V263.06C392.176 262.16 392.936 261.57 394.006 261.57V260.71C393.116 260.71 392.416 261.14 392.086 261.82ZM396.332 260.26C396.332 259.9 396.572 259.64 396.862 259.64C397.082 259.64 397.282 259.72 397.392 259.83L397.752 259.17C397.472 258.94 397.092 258.8 396.722 258.8C395.922 258.8 395.362 259.38 395.362 260.21V260.83H394.582V261.67H395.362V266H396.332V261.67H397.552V260.83H396.332V260.26ZM401.025 266.12C402.495 266.12 403.735 264.88 403.735 263.41C403.735 261.94 402.495 260.71 401.025 260.71C399.545 260.71 398.295 261.94 398.295 263.41C398.295 264.88 399.545 266.12 401.025 266.12ZM401.025 265.26C400.075 265.26 399.285 264.42 399.285 263.41C399.285 262.41 400.075 261.57 401.025 261.57C401.955 261.57 402.745 262.41 402.745 263.41C402.745 264.42 401.955 265.26 401.025 265.26ZM405.934 261.82V260.83H404.944V266H405.934V263.06C406.024 262.16 406.784 261.57 407.854 261.57V260.71C406.964 260.71 406.264 261.14 405.934 261.82ZM414.6 260.71C413.82 260.71 413.16 261.11 412.92 261.75C412.62 261.11 412.01 260.71 411.26 260.71C410.6 260.71 410.06 261.04 409.8 261.55V260.83H408.81V266H409.8V262.77C409.8 262.06 410.32 261.57 411.06 261.57C411.71 261.57 412.16 262.1 412.16 262.86V266H413.13V262.77C413.13 262.06 413.65 261.57 414.39 261.57C415.04 261.57 415.49 262.1 415.49 262.86V266H416.46V262.71C416.46 261.54 415.68 260.71 414.6 260.71ZM420.052 260.71C419.482 260.71 418.832 260.86 418.092 261.23L418.452 261.96C418.902 261.73 419.402 261.53 419.912 261.53C420.942 261.53 421.242 262.22 421.242 262.87V263.03C420.742 262.86 420.192 262.75 419.682 262.75C418.542 262.75 417.612 263.44 417.612 264.47C417.612 265.48 418.422 266.12 419.522 266.12C420.152 266.12 420.862 265.83 421.242 265.29V266H422.212V262.87C422.212 261.59 421.442 260.71 420.052 260.71ZM419.712 265.34C419.062 265.34 418.562 265 418.562 264.44C418.562 263.88 419.142 263.49 419.832 263.49C420.342 263.49 420.822 263.56 421.242 263.69V264.38C421.072 265.02 420.352 265.34 419.712 265.34ZM426.274 260.71C425.574 260.71 424.944 261.07 424.634 261.58V260.83H423.644V266H424.634V262.65C424.714 262.04 425.334 261.57 426.054 261.57C426.754 261.57 427.244 262.11 427.244 262.88V266H428.214V262.71C428.214 261.54 427.414 260.71 426.274 260.71ZM432.07 266.12C432.84 266.12 433.51 265.8 434.01 265.29L433.34 264.68C433.02 265.04 432.56 265.26 432.08 265.26C431.13 265.26 430.35 264.42 430.35 263.41C430.35 262.41 431.13 261.57 432.07 261.57C432.55 261.57 433 261.78 433.31 262.13L433.98 261.51C433.49 261.02 432.82 260.71 432.08 260.71C430.6 260.71 429.35 261.94 429.35 263.41C429.35 264.88 430.6 266.12 432.07 266.12ZM437.44 265.24C436.55 265.24 435.92 264.62 435.79 263.76H439.86C439.86 261.91 438.95 260.71 437.37 260.71C435.94 260.71 434.79 261.85 434.79 263.4C434.79 264.99 436.01 266.12 437.45 266.12C438.18 266.12 439.08 265.81 439.54 265.32L438.92 264.68C438.61 265 437.98 265.24 437.44 265.24ZM437.41 261.59C438.3 261.59 438.79 262.17 438.9 262.97H435.8C435.96 262.13 436.61 261.59 437.41 261.59Z" fill="black"/>
<path d="M359.071 280H360.081L360.591 277.61H362.441C364.111 277.61 365.501 276.45 365.501 275.03C365.501 273.91 364.621 273.13 363.351 273.13H360.501L359.071 280ZM360.781 276.67L361.321 274.07H363.141C363.941 274.07 364.491 274.48 364.491 275.07C364.491 275.93 363.611 276.67 362.581 276.67H360.781ZM368.335 277.76C369.885 277.78 370.805 277.12 370.805 276.13C370.805 275.26 369.945 274.71 368.925 274.71C367.265 274.71 365.745 276.21 365.745 277.96C365.745 279.25 366.625 280.12 367.895 280.12C368.645 280.12 369.615 279.83 370.165 279.35L369.625 278.65C369.245 278.99 368.585 279.24 367.995 279.24C367.175 279.24 366.695 278.74 366.695 277.91V277.76H368.335ZM368.865 275.58C369.425 275.58 369.835 275.84 369.835 276.25C369.835 276.7 369.345 276.97 368.485 276.97H366.885C367.205 276.18 367.935 275.58 368.865 275.58ZM373.12 275.77L373.32 274.83H372.33L371.25 280H372.24L372.84 277.11C373.12 276.21 374.03 275.57 375.11 275.57L375.23 274.71C374.34 274.71 373.58 275.11 373.12 275.77ZM378.413 272.8C377.663 272.8 377.023 273.34 376.843 274.17L376.703 274.83H375.933L375.763 275.67H376.532L375.633 280H376.603L377.503 275.67H378.723L378.903 274.83H377.683L377.793 274.3C377.863 273.95 378.183 273.64 378.563 273.64C378.713 273.64 378.893 273.69 378.983 273.81L379.433 273.2C379.183 272.97 378.833 272.8 378.413 272.8ZM381.266 280.12C383.036 280.12 384.586 278.67 384.586 276.94C384.586 275.72 383.576 274.71 382.346 274.71C380.596 274.71 379.056 276.16 379.056 277.89C379.056 279.11 380.046 280.12 381.266 280.12ZM381.396 279.26C380.656 279.26 380.036 278.62 380.036 277.85C380.036 276.63 381.046 275.57 382.216 275.57C382.976 275.57 383.606 276.21 383.606 276.99C383.606 278.21 382.586 279.26 381.396 279.26ZM387.084 275.77L387.284 274.83H386.294L385.214 280H386.204L386.804 277.11C387.084 276.21 387.994 275.57 389.074 275.57L389.194 274.71C388.304 274.71 387.544 275.11 387.084 275.77ZM396.017 274.71C395.267 274.71 394.527 275.1 394.177 275.75C393.987 275.11 393.447 274.71 392.697 274.71C392.067 274.71 391.487 275 391.127 275.5L391.267 274.83H390.277L389.197 280H390.187L390.887 276.67C391.087 276.02 391.757 275.57 392.417 275.57C392.987 275.57 393.247 275.92 393.257 276.48C393.257 276.67 393.197 276.9 392.547 280H393.517C393.937 277.99 394.117 277.15 394.197 276.73C394.367 276.05 395.067 275.57 395.747 275.57C396.307 275.57 396.587 275.91 396.587 276.48C396.587 276.67 396.527 276.9 395.877 280H396.847C397.517 276.81 397.587 276.58 397.587 276.26C397.587 275.34 396.977 274.71 396.017 274.71ZM403.35 274.83L403.14 275.85C402.86 275.18 402.25 274.71 401.54 274.71C399.88 274.71 398.52 276.25 398.52 278.05C398.52 279.2 399.38 280.12 400.47 280.12C401.24 280.12 401.94 279.74 402.45 279.13L402.27 280H403.26L404.34 274.83H403.35ZM400.72 279.26C400.05 279.26 399.51 278.68 399.51 277.97C399.51 276.67 400.44 275.57 401.53 275.57C402.27 275.57 402.87 276.15 402.87 276.86C402.87 278.15 401.89 279.26 400.72 279.26ZM408.404 274.71C407.744 274.71 407.074 275.04 406.674 275.52L406.814 274.83H405.824L404.744 280H405.734L406.414 276.75C406.594 276.11 407.354 275.57 408.144 275.57C408.694 275.57 409.024 275.91 409.024 276.48C409.024 276.76 408.964 276.96 408.334 280H409.304C409.944 276.9 410.024 276.65 410.024 276.27C410.024 275.35 409.404 274.71 408.404 274.71ZM413.171 280.12C413.961 280.12 414.661 279.85 415.281 279.32L414.691 278.65C414.271 279.05 413.791 279.26 413.291 279.26C412.551 279.26 411.941 278.62 411.941 277.85C411.941 276.63 412.941 275.57 414.111 275.57C414.551 275.57 415.021 275.78 415.251 276.1L416.001 275.54C415.611 275.05 414.921 274.71 414.251 274.71C412.491 274.71 410.951 276.16 410.951 277.89C410.951 279.11 411.941 280.12 413.171 280.12ZM418.99 277.76C420.54 277.78 421.46 277.12 421.46 276.13C421.46 275.26 420.6 274.71 419.58 274.71C417.92 274.71 416.4 276.21 416.4 277.96C416.4 279.25 417.28 280.12 418.55 280.12C419.3 280.12 420.27 279.83 420.82 279.35L420.28 278.65C419.9 278.99 419.24 279.24 418.65 279.24C417.83 279.24 417.35 278.74 417.35 277.91V277.76H418.99ZM419.52 275.58C420.08 275.58 420.49 275.84 420.49 276.25C420.49 276.7 420 276.97 419.14 276.97H417.54C417.86 276.18 418.59 275.58 419.52 275.58ZM427.235 280.11C428.915 280.11 430.135 279.14 430.135 277.74C430.135 276.86 429.545 276.41 428.125 276.07C427.075 275.81 426.675 275.57 426.675 275.17C426.675 274.44 427.335 273.89 428.315 273.89C428.895 273.89 429.615 274.21 430.065 274.71L430.745 274C430.185 273.4 429.255 273 428.415 273C426.775 273 425.635 274 425.635 275.37C425.635 276.26 426.285 276.66 427.655 276.99C428.705 277.26 429.095 277.5 429.095 277.91C429.095 278.66 428.375 279.22 427.305 279.22C426.595 279.22 425.785 278.85 425.305 278.29L424.595 278.98C425.165 279.65 426.225 280.11 427.235 280.11ZM432.096 279.06L433.316 273.13H432.296L430.866 280H435.526L435.726 279.06H432.096ZM442.081 280H443.171L441.651 273.14L441.661 273.13H440.531L436.151 280H437.291L438.201 278.57H441.761L442.081 280ZM438.761 277.69L440.841 274.42L441.571 277.69H438.761Z" fill="#A32100"/>
<path d="M242.16 226.13L239.77 231.7L237.38 226.13H236.26L239.21 233H240.33L243.28 226.13H242.16ZM244.409 233H245.419V228.11L247.829 232.6L250.239 228.11V233H251.249V226.13H250.239L247.829 230.62L245.419 226.13H244.409V233ZM258.734 233.12C260.454 233.12 261.684 231.87 261.684 230.11V226.13H260.664V230.09C260.664 231.32 259.864 232.2 258.734 232.2C257.594 232.2 256.794 231.32 256.794 230.09V226.13H255.784V230.11C255.784 231.87 257.004 233.12 258.734 233.12ZM265.615 232.07C265.505 232.18 265.305 232.26 265.085 232.26C264.795 232.26 264.555 232 264.555 231.64V228.67H265.775V227.83H264.555V226.41H263.585V227.83H262.805V228.67H263.585V231.71C263.585 232.54 264.145 233.12 264.945 233.12C265.315 233.12 265.695 232.98 265.975 232.75L265.615 232.07ZM267.474 226.97C267.794 226.97 268.064 226.69 268.064 226.37C268.064 226.06 267.794 225.78 267.474 225.78C267.134 225.78 266.874 226.06 266.874 226.37C266.874 226.69 267.134 226.97 267.474 226.97ZM266.974 233H267.964V227.83H266.974V233ZM269.396 233H270.376V226.01H269.396V233ZM272.308 226.97C272.628 226.97 272.898 226.69 272.898 226.37C272.898 226.06 272.628 225.78 272.308 225.78C271.968 225.78 271.708 226.06 271.708 226.37C271.708 226.69 271.968 226.97 272.308 226.97ZM271.808 233H272.798V227.83H271.808V233ZM274.01 233H278.23V232.11H275.31L278.21 228.57V227.83H274.07V228.72H276.91L274.01 232.26V233ZM281.595 227.71C281.025 227.71 280.375 227.86 279.635 228.23L279.995 228.96C280.445 228.73 280.945 228.53 281.455 228.53C282.485 228.53 282.785 229.22 282.785 229.87V230.03C282.285 229.86 281.735 229.75 281.225 229.75C280.085 229.75 279.155 230.44 279.155 231.47C279.155 232.48 279.965 233.12 281.065 233.12C281.695 233.12 282.405 232.83 282.785 232.29V233H283.755V229.87C283.755 228.59 282.985 227.71 281.595 227.71ZM281.255 232.34C280.605 232.34 280.105 232 280.105 231.44C280.105 230.88 280.685 230.49 281.375 230.49C281.885 230.49 282.365 230.56 282.785 230.69V231.38C282.615 232.02 281.895 232.34 281.255 232.34ZM287.607 232.07C287.497 232.18 287.297 232.26 287.077 232.26C286.787 232.26 286.547 232 286.547 231.64V228.67H287.767V227.83H286.547V226.41H285.577V227.83H284.797V228.67H285.577V231.71C285.577 232.54 286.137 233.12 286.937 233.12C287.307 233.12 287.687 232.98 287.967 232.75L287.607 232.07ZM289.466 226.97C289.786 226.97 290.056 226.69 290.056 226.37C290.056 226.06 289.786 225.78 289.466 225.78C289.126 225.78 288.866 226.06 288.866 226.37C288.866 226.69 289.126 226.97 289.466 226.97ZM288.966 233H289.956V227.83H288.966V233ZM293.838 233.12C295.308 233.12 296.548 231.88 296.548 230.41C296.548 228.94 295.308 227.71 293.838 227.71C292.358 227.71 291.108 228.94 291.108 230.41C291.108 231.88 292.358 233.12 293.838 233.12ZM293.838 232.26C292.888 232.26 292.098 231.42 292.098 230.41C292.098 229.41 292.888 228.57 293.838 228.57C294.768 228.57 295.558 229.41 295.558 230.41C295.558 231.42 294.768 232.26 293.838 232.26ZM300.336 227.71C299.636 227.71 299.006 228.07 298.696 228.58V227.83H297.706V233H298.696V229.65C298.776 229.04 299.396 228.57 300.116 228.57C300.816 228.57 301.306 229.11 301.306 229.88V233H302.276V229.71C302.276 228.54 301.476 227.71 300.336 227.71Z" fill="black"/>
<path d="M236.76 315H237.77V308.13H236.76V315ZM241.419 309.71C240.849 309.71 240.199 309.86 239.459 310.23L239.819 310.96C240.269 310.73 240.769 310.53 241.279 310.53C242.309 310.53 242.609 311.22 242.609 311.87V312.03C242.109 311.86 241.559 311.75 241.049 311.75C239.909 311.75 238.979 312.44 238.979 313.47C238.979 314.48 239.789 315.12 240.889 315.12C241.519 315.12 242.229 314.83 242.609 314.29V315H243.579V311.87C243.579 310.59 242.809 309.71 241.419 309.71ZM241.079 314.34C240.429 314.34 239.929 314 239.929 313.44C239.929 312.88 240.509 312.49 241.199 312.49C241.709 312.49 242.189 312.56 242.609 312.69V313.38C242.439 314.02 241.719 314.34 241.079 314.34ZM247.181 309.71C246.611 309.71 245.961 309.86 245.221 310.23L245.581 310.96C246.031 310.73 246.531 310.53 247.041 310.53C248.071 310.53 248.371 311.22 248.371 311.87V312.03C247.871 311.86 247.321 311.75 246.811 311.75C245.671 311.75 244.741 312.44 244.741 313.47C244.741 314.48 245.551 315.12 246.651 315.12C247.281 315.12 247.991 314.83 248.371 314.29V315H249.341V311.87C249.341 310.59 248.571 309.71 247.181 309.71ZM246.841 314.34C246.191 314.34 245.691 314 245.691 313.44C245.691 312.88 246.271 312.49 246.961 312.49C247.471 312.49 247.951 312.56 248.371 312.69V313.38C248.201 314.02 247.481 314.34 246.841 314.34ZM253.263 315.11C254.883 315.11 255.763 314.23 255.763 313.07C255.763 311.84 254.813 311.38 253.443 311.06C252.313 310.79 251.723 310.57 251.723 309.93C251.723 309.38 252.263 308.89 253.033 308.89C253.733 308.89 254.423 309.2 255.003 309.73L255.583 308.97C254.923 308.39 254.133 308 253.073 308C251.693 308 250.693 308.87 250.693 310.02C250.693 311.26 251.623 311.68 253.023 312.01C254.173 312.27 254.743 312.52 254.743 313.17C254.743 313.72 254.253 314.22 253.303 314.22C252.373 314.22 251.653 313.84 251.043 313.26L250.433 314.01C251.163 314.71 252.113 315.11 253.263 315.11ZM262.865 315.12C264.585 315.12 265.815 313.87 265.815 312.11V308.13H264.795V312.09C264.795 313.32 263.995 314.2 262.865 314.2C261.725 314.2 260.925 313.32 260.925 312.09V308.13H259.915V312.11C259.915 313.87 261.135 315.12 262.865 315.12ZM269.745 314.07C269.635 314.18 269.435 314.26 269.215 314.26C268.925 314.26 268.685 314 268.685 313.64V310.67H269.905V309.83H268.685V308.41H267.715V309.83H266.935V310.67H267.715V313.71C267.715 314.54 268.275 315.12 269.075 315.12C269.445 315.12 269.825 314.98 270.105 314.75L269.745 314.07ZM271.605 308.97C271.925 308.97 272.195 308.69 272.195 308.37C272.195 308.06 271.925 307.78 271.605 307.78C271.265 307.78 271.005 308.06 271.005 308.37C271.005 308.69 271.265 308.97 271.605 308.97ZM271.105 315H272.095V309.83H271.105V315ZM273.527 315H274.507V308.01H273.527V315ZM276.439 308.97C276.759 308.97 277.029 308.69 277.029 308.37C277.029 308.06 276.759 307.78 276.439 307.78C276.099 307.78 275.839 308.06 275.839 308.37C275.839 308.69 276.099 308.97 276.439 308.97ZM275.939 315H276.929V309.83H275.939V315ZM278.141 315H282.361V314.11H279.441L282.341 310.57V309.83H278.201V310.72H281.041L278.141 314.26V315ZM285.726 309.71C285.156 309.71 284.506 309.86 283.766 310.23L284.126 310.96C284.576 310.73 285.076 310.53 285.586 310.53C286.616 310.53 286.916 311.22 286.916 311.87V312.03C286.416 311.86 285.866 311.75 285.356 311.75C284.216 311.75 283.286 312.44 283.286 313.47C283.286 314.48 284.096 315.12 285.196 315.12C285.826 315.12 286.536 314.83 286.916 314.29V315H287.886V311.87C287.886 310.59 287.116 309.71 285.726 309.71ZM285.386 314.34C284.736 314.34 284.236 314 284.236 313.44C284.236 312.88 284.816 312.49 285.506 312.49C286.016 312.49 286.496 312.56 286.916 312.69V313.38C286.746 314.02 286.026 314.34 285.386 314.34ZM291.738 314.07C291.628 314.18 291.428 314.26 291.208 314.26C290.918 314.26 290.678 314 290.678 313.64V310.67H291.898V309.83H290.678V308.41H289.708V309.83H288.928V310.67H289.708V313.71C289.708 314.54 290.268 315.12 291.068 315.12C291.438 315.12 291.818 314.98 292.098 314.75L291.738 314.07ZM293.597 308.97C293.917 308.97 294.187 308.69 294.187 308.37C294.187 308.06 293.917 307.78 293.597 307.78C293.257 307.78 292.997 308.06 292.997 308.37C292.997 308.69 293.257 308.97 293.597 308.97ZM293.097 315H294.087V309.83H293.097V315ZM297.969 315.12C299.439 315.12 300.679 313.88 300.679 312.41C300.679 310.94 299.439 309.71 297.969 309.71C296.489 309.71 295.239 310.94 295.239 312.41C295.239 313.88 296.489 315.12 297.969 315.12ZM297.969 314.26C297.019 314.26 296.229 313.42 296.229 312.41C296.229 311.41 297.019 310.57 297.969 310.57C298.899 310.57 299.689 311.41 299.689 312.41C299.689 313.42 298.899 314.26 297.969 314.26ZM304.467 309.71C303.767 309.71 303.137 310.07 302.827 310.58V309.83H301.837V315H302.827V311.65C302.907 311.04 303.527 310.57 304.247 310.57C304.947 310.57 305.437 311.11 305.437 311.88V315H306.407V311.71C306.407 310.54 305.607 309.71 304.467 309.71Z" fill="black"/>
<path d="M356.76 315H357.77V308.13H356.76V315ZM361.419 309.71C360.849 309.71 360.199 309.86 359.459 310.23L359.819 310.96C360.269 310.73 360.769 310.53 361.279 310.53C362.309 310.53 362.609 311.22 362.609 311.87V312.03C362.109 311.86 361.559 311.75 361.049 311.75C359.909 311.75 358.979 312.44 358.979 313.47C358.979 314.48 359.789 315.12 360.889 315.12C361.519 315.12 362.229 314.83 362.609 314.29V315H363.579V311.87C363.579 310.59 362.809 309.71 361.419 309.71ZM361.079 314.34C360.429 314.34 359.929 314 359.929 313.44C359.929 312.88 360.509 312.49 361.199 312.49C361.709 312.49 362.189 312.56 362.609 312.69V313.38C362.439 314.02 361.719 314.34 361.079 314.34ZM367.181 309.71C366.611 309.71 365.961 309.86 365.221 310.23L365.581 310.96C366.031 310.73 366.531 310.53 367.041 310.53C368.071 310.53 368.371 311.22 368.371 311.87V312.03C367.871 311.86 367.321 311.75 366.811 311.75C365.671 311.75 364.741 312.44 364.741 313.47C364.741 314.48 365.551 315.12 366.651 315.12C367.281 315.12 367.991 314.83 368.371 314.29V315H369.341V311.87C369.341 310.59 368.571 309.71 367.181 309.71ZM366.841 314.34C366.191 314.34 365.691 314 365.691 313.44C365.691 312.88 366.271 312.49 366.961 312.49C367.471 312.49 367.951 312.56 368.371 312.69V313.38C368.201 314.02 367.481 314.34 366.841 314.34ZM373.263 315.11C374.883 315.11 375.763 314.23 375.763 313.07C375.763 311.84 374.813 311.38 373.443 311.06C372.313 310.79 371.723 310.57 371.723 309.93C371.723 309.38 372.263 308.89 373.033 308.89C373.733 308.89 374.423 309.2 375.003 309.73L375.583 308.97C374.923 308.39 374.133 308 373.073 308C371.693 308 370.693 308.87 370.693 310.02C370.693 311.26 371.623 311.68 373.023 312.01C374.173 312.27 374.743 312.52 374.743 313.17C374.743 313.72 374.253 314.22 373.303 314.22C372.373 314.22 371.653 313.84 371.043 313.26L370.433 314.01C371.163 314.71 372.113 315.11 373.263 315.11ZM383.165 315.12C384.145 315.12 385.045 314.7 385.695 314.04L384.985 313.36C384.525 313.86 383.875 314.19 383.165 314.19C381.795 314.19 380.635 312.99 380.635 311.56C380.635 310.14 381.795 308.94 383.165 308.94C383.875 308.94 384.525 309.27 384.985 309.77L385.695 309.09C385.045 308.42 384.145 308.01 383.165 308.01C381.235 308.01 379.595 309.63 379.595 311.56C379.595 313.49 381.235 315.12 383.165 315.12ZM388.851 309.71C388.281 309.71 387.631 309.86 386.891 310.23L387.251 310.96C387.701 310.73 388.201 310.53 388.711 310.53C389.741 310.53 390.041 311.22 390.041 311.87V312.03C389.541 311.86 388.991 311.75 388.481 311.75C387.341 311.75 386.411 312.44 386.411 313.47C386.411 314.48 387.221 315.12 388.321 315.12C388.951 315.12 389.661 314.83 390.041 314.29V315H391.011V311.87C391.011 310.59 390.241 309.71 388.851 309.71ZM388.511 314.34C387.861 314.34 387.361 314 387.361 313.44C387.361 312.88 387.941 312.49 388.631 312.49C389.141 312.49 389.621 312.56 390.041 312.69V313.38C389.871 314.02 389.151 314.34 388.511 314.34ZM395.313 309.71C394.513 309.71 393.873 310.09 393.473 310.72V309.83H392.493V316.72H393.473V314.1C393.873 314.74 394.513 315.12 395.313 315.12C396.673 315.12 397.693 314 397.693 312.41C397.693 310.83 396.673 309.71 395.313 309.71ZM395.073 314.26C394.143 314.26 393.473 313.49 393.473 312.41C393.473 311.33 394.143 310.57 395.073 310.57C396.023 310.57 396.693 311.33 396.693 312.41C396.693 313.49 396.023 314.26 395.073 314.26ZM401.058 309.71C400.488 309.71 399.838 309.86 399.098 310.23L399.458 310.96C399.908 310.73 400.408 310.53 400.918 310.53C401.948 310.53 402.248 311.22 402.248 311.87V312.03C401.748 311.86 401.198 311.75 400.688 311.75C399.548 311.75 398.618 312.44 398.618 313.47C398.618 314.48 399.428 315.12 400.528 315.12C401.158 315.12 401.868 314.83 402.248 314.29V315H403.218V311.87C403.218 310.59 402.448 309.71 401.058 309.71ZM400.718 314.34C400.068 314.34 399.568 314 399.568 313.44C399.568 312.88 400.148 312.49 400.838 312.49C401.348 312.49 401.828 312.56 402.248 312.69V313.38C402.078 314.02 401.358 314.34 400.718 314.34ZM407.09 315.12C407.86 315.12 408.53 314.8 409.03 314.29L408.36 313.68C408.04 314.04 407.58 314.26 407.1 314.26C406.15 314.26 405.37 313.42 405.37 312.41C405.37 311.41 406.15 310.57 407.09 310.57C407.57 310.57 408.02 310.78 408.33 311.13L409 310.51C408.51 310.02 407.84 309.71 407.1 309.71C405.62 309.71 404.37 310.94 404.37 312.41C404.37 313.88 405.62 315.12 407.09 315.12ZM410.579 308.97C410.899 308.97 411.169 308.69 411.169 308.37C411.169 308.06 410.899 307.78 410.579 307.78C410.239 307.78 409.979 308.06 409.979 308.37C409.979 308.69 410.239 308.97 410.579 308.97ZM410.079 315H411.069V309.83H410.079V315ZM414.921 314.07C414.811 314.18 414.611 314.26 414.391 314.26C414.101 314.26 413.861 314 413.861 313.64V310.67H415.081V309.83H413.861V308.41H412.891V309.83H412.111V310.67H412.891V313.71C412.891 314.54 413.451 315.12 414.251 315.12C414.621 315.12 415.001 314.98 415.281 314.75L414.921 314.07ZM417.2 316.8C417.94 316.79 418.49 316.4 418.86 315.47L421.14 309.83H420.11L418.54 313.91L416.88 309.83H415.82L418.04 315.03L417.78 315.58C417.61 315.88 417.39 315.98 417.07 315.98C416.87 315.98 416.64 315.93 416.44 315.82L416.22 316.58C416.49 316.72 416.85 316.8 417.2 316.8Z" fill="black"/>
<path d="M242.16 263.13L239.77 268.7L237.38 263.13H236.26L239.21 270H240.33L243.28 263.13H242.16ZM244.409 270H245.419V265.11L247.829 269.6L250.239 265.11V270H251.249V263.13H250.239L247.829 267.62L245.419 263.13H244.409V270ZM259.034 270.12C260.014 270.12 260.914 269.7 261.564 269.04L260.854 268.36C260.394 268.86 259.744 269.19 259.034 269.19C257.664 269.19 256.504 267.99 256.504 266.56C256.504 265.14 257.664 263.94 259.034 263.94C259.744 263.94 260.394 264.27 260.854 264.77L261.564 264.09C260.914 263.42 260.014 263.01 259.034 263.01C257.104 263.01 255.464 264.63 255.464 266.56C255.464 268.49 257.104 270.12 259.034 270.12ZM265 270.12C266.47 270.12 267.71 268.88 267.71 267.41C267.71 265.94 266.47 264.71 265 264.71C263.52 264.71 262.27 265.94 262.27 267.41C262.27 268.88 263.52 270.12 265 270.12ZM265 269.26C264.05 269.26 263.26 268.42 263.26 267.41C263.26 266.41 264.05 265.57 265 265.57C265.93 265.57 266.72 266.41 266.72 267.41C266.72 268.42 265.93 269.26 265 269.26ZM271.498 264.71C270.798 264.71 270.168 265.07 269.858 265.58V264.83H268.868V270H269.858V266.65C269.938 266.04 270.558 265.57 271.278 265.57C271.978 265.57 272.468 266.11 272.468 266.88V270H273.438V266.71C273.438 265.54 272.638 264.71 271.498 264.71ZM277.275 269.07C277.165 269.18 276.965 269.26 276.745 269.26C276.455 269.26 276.215 269 276.215 268.64V265.67H277.435V264.83H276.215V263.41H275.245V264.83H274.465V265.67H275.245V268.71C275.245 269.54 275.805 270.12 276.605 270.12C276.975 270.12 277.355 269.98 277.635 269.75L277.275 269.07ZM281.014 269.24C280.124 269.24 279.494 268.62 279.364 267.76H283.434C283.434 265.91 282.524 264.71 280.944 264.71C279.514 264.71 278.364 265.85 278.364 267.4C278.364 268.99 279.584 270.12 281.024 270.12C281.754 270.12 282.654 269.81 283.114 269.32L282.494 268.68C282.184 269 281.554 269.24 281.014 269.24ZM280.984 265.59C281.874 265.59 282.364 266.17 282.474 266.97H279.374C279.534 266.13 280.184 265.59 280.984 265.59ZM287.211 264.71C286.511 264.71 285.881 265.07 285.571 265.58V264.83H284.581V270H285.571V266.65C285.651 266.04 286.271 265.57 286.991 265.57C287.691 265.57 288.181 266.11 288.181 266.88V270H289.151V266.71C289.151 265.54 288.351 264.71 287.211 264.71ZM292.988 269.07C292.878 269.18 292.678 269.26 292.458 269.26C292.168 269.26 291.928 269 291.928 268.64V265.67H293.148V264.83H291.928V263.41H290.958V264.83H290.178V265.67H290.958V268.71C290.958 269.54 291.518 270.12 292.318 270.12C292.688 270.12 293.068 269.98 293.348 269.75L292.988 269.07ZM294.847 263.97C295.167 263.97 295.437 263.69 295.437 263.37C295.437 263.06 295.167 262.78 294.847 262.78C294.507 262.78 294.247 263.06 294.247 263.37C294.247 263.69 294.507 263.97 294.847 263.97ZM294.347 270H295.337V264.83H294.347V270ZM299.219 270.12C300.689 270.12 301.929 268.88 301.929 267.41C301.929 265.94 300.689 264.71 299.219 264.71C297.739 264.71 296.489 265.94 296.489 267.41C296.489 268.88 297.739 270.12 299.219 270.12ZM299.219 269.26C298.269 269.26 297.479 268.42 297.479 267.41C297.479 266.41 298.269 265.57 299.219 265.57C300.149 265.57 300.939 266.41 300.939 267.41C300.939 268.42 300.149 269.26 299.219 269.26ZM305.717 264.71C305.017 264.71 304.387 265.07 304.077 265.58V264.83H303.087V270H304.077V266.65C304.157 266.04 304.777 265.57 305.497 265.57C306.197 265.57 306.687 266.11 306.687 266.88V270H307.657V266.71C307.657 265.54 306.857 264.71 305.717 264.71Z" fill="#A32100"/>
<path fill-rule="evenodd" clip-rule="evenodd" d="M339.25 191.455L346 183.227L339.25 175L339.25 178.728L326 178.728L326 187.728L339.25 187.728L339.25 191.455Z" fill="#76C75D"/>
<path fill-rule="evenodd" clip-rule="evenodd" d="M339.25 239.455L346 231.227L339.25 223L339.25 226.728L326 226.728L326 235.728L339.25 235.728L339.25 239.455Z" fill="#76C75D"/>
<path fill-rule="evenodd" clip-rule="evenodd" d="M339.25 273.455L346 265.227L339.25 257L339.25 260.728L326 260.728L326 269.728L339.25 269.728L339.25 273.455Z" fill="#76C75D"/>
<path fill-rule="evenodd" clip-rule="evenodd" d="M339.25 320.455L346 312.227L339.25 304L339.25 307.728L326 307.728L326 316.728L339.25 316.728L339.25 320.455Z" fill="#76C75D"/>
<defs>
<filter id="filter0_d" x="48" y="156" width="36" height="104" filterUnits="userSpaceOnUse" color-interpolation-filters="sRGB">
<feFlood flood-opacity="0" result="BackgroundImageFix"/>
<feColorMatrix in="SourceAlpha" type="matrix" values="0 0 0 0 0 0 0 0 0 0 0 0 0 0 0 0 0 0 127 0"/>
<feOffset dy="1"/>
<feGaussianBlur stdDeviation="1"/>
<feColorMatrix type="matrix" values="0 0 0 0 0 0 0 0 0 0 0 0 0 0 0 0 0 0 0.2 0"/>
<feBlend mode="normal" in2="BackgroundImageFix" result="effect1_dropShadow"/>
<feBlend mode="normal" in="SourceGraphic" in2="effect1_dropShadow" result="shape"/>
</filter>
<filter id="filter1_d" x="86" y="156" width="36" height="104" filterUnits="userSpaceOnUse" color-interpolation-filters="sRGB">
<feFlood flood-opacity="0" result="BackgroundImageFix"/>
<feColorMatrix in="SourceAlpha" type="matrix" values="0 0 0 0 0 0 0 0 0 0 0 0 0 0 0 0 0 0 127 0"/>
<feOffset dy="1"/>
<feGaussianBlur stdDeviation="1"/>
<feColorMatrix type="matrix" values="0 0 0 0 0 0 0 0 0 0 0 0 0 0 0 0 0 0 0.2 0"/>
<feBlend mode="normal" in2="BackgroundImageFix" result="effect1_dropShadow"/>
<feBlend mode="normal" in="SourceGraphic" in2="effect1_dropShadow" result="shape"/>
</filter>
<filter id="filter2_d" x="124" y="156" width="87" height="104" filterUnits="userSpaceOnUse" color-interpolation-filters="sRGB">
<feFlood flood-opacity="0" result="BackgroundImageFix"/>
<feColorMatrix in="SourceAlpha" type="matrix" values="0 0 0 0 0 0 0 0 0 0 0 0 0 0 0 0 0 0 127 0"/>
<feOffset dy="1"/>
<feGaussianBlur stdDeviation="1"/>
<feColorMatrix type="matrix" values="0 0 0 0 0 0 0 0 0 0 0 0 0 0 0 0 0 0 0.2 0"/>
<feBlend mode="normal" in2="BackgroundImageFix" result="effect1_dropShadow"/>
<feBlend mode="normal" in="SourceGraphic" in2="effect1_dropShadow" result="shape"/>
</filter>
<filter id="filter3_d" x="47" y="282" width="164" height="64" filterUnits="userSpaceOnUse" color-interpolation-filters="sRGB">
<feFlood flood-opacity="0" result="BackgroundImageFix"/>
<feColorMatrix in="SourceAlpha" type="matrix" values="0 0 0 0 0 0 0 0 0 0 0 0 0 0 0 0 0 0 127 0"/>
<feOffset dy="1"/>
<feGaussianBlur stdDeviation="1"/>
<feColorMatrix type="matrix" values="0 0 0 0 0 0 0 0 0 0 0 0 0 0 0 0 0 0 0.2 0"/>
<feBlend mode="normal" in2="BackgroundImageFix" result="effect1_dropShadow"/>
<feBlend mode="normal" in="SourceGraphic" in2="effect1_dropShadow" result="shape"/>
</filter>
</defs>
</svg>
