<svg width="500" height="500" viewBox="0 0 500 500" fill="none" xmlns="http://www.w3.org/2000/svg">
<path d="M43.8461 139.896C45.0701 139.896 45.9101 138.972 45.9101 137.784C45.9101 136.62 45.1061 135.672 43.8581 135.672C42.6221 135.672 41.7941 136.608 41.7941 137.796C41.7941 138.972 42.6221 139.896 43.8461 139.896ZM42.8741 144H44.1461L49.8821 135.756H48.6101L42.8741 144ZM43.8581 138.864C43.3661 138.864 42.9821 138.432 42.9821 137.784C42.9821 137.136 43.3421 136.716 43.8461 136.716C44.3621 136.716 44.7341 137.148 44.7341 137.784C44.7341 138.444 44.3621 138.864 43.8581 138.864ZM48.8861 144.132C50.0861 144.132 50.9381 143.208 50.9381 142.02C50.9381 140.856 50.1221 139.908 48.8861 139.908C47.6621 139.908 46.8221 140.844 46.8221 142.02C46.8221 143.196 47.6501 144.132 48.8861 144.132ZM48.8861 143.088C48.3701 143.088 47.9981 142.656 47.9981 142.02C47.9981 141.36 48.3581 140.94 48.8861 140.94C49.3781 140.94 49.7621 141.372 49.7621 142.02C49.7621 142.668 49.4021 143.088 48.8861 143.088ZM59.6166 144.144C60.8646 144.144 62.0166 143.604 62.8206 142.764L61.5366 141.612C61.0566 142.164 60.3726 142.536 59.6166 142.536C58.2366 142.536 57.0606 141.312 57.0606 139.872C57.0606 138.444 58.2366 137.22 59.6166 137.22C60.3726 137.22 61.0566 137.592 61.5366 138.144L62.8206 136.992C62.0166 136.14 60.8646 135.612 59.6166 135.612C57.2526 135.612 55.2366 137.556 55.2366 139.872C55.2366 142.188 57.2526 144.144 59.6166 144.144ZM63.8681 144H65.6201V135.612H63.8681V144ZM71.2653 137.796V141.504L71.2533 141.468C71.2533 142.14 70.6893 142.668 69.9573 142.668C69.2613 142.668 68.7813 142.14 68.7813 141.372V137.796H67.0893V141.744C67.0893 143.148 68.0493 144.144 69.3933 144.144C70.1973 144.144 70.8933 143.784 71.2653 143.22V144H73.0173V137.796H71.2653ZM76.8484 144.144C78.3724 144.144 79.3684 143.364 79.3684 142.14C79.3684 140.784 78.1804 140.424 77.1124 140.148C76.2724 139.92 76.0204 139.824 76.0204 139.488C76.0204 139.272 76.3204 139.116 76.7524 139.116C77.2804 139.116 77.9284 139.32 78.4924 139.668L79.2004 138.42C78.5164 137.964 77.6404 137.652 76.7524 137.652C75.2884 137.652 74.3164 138.492 74.3284 139.668C74.3404 140.892 75.3244 141.24 76.5964 141.552C77.2324 141.72 77.6884 141.84 77.6884 142.224C77.6884 142.5 77.3524 142.692 76.8844 142.692C76.0564 142.692 75.3604 142.392 74.8084 141.996L74.0524 143.208C74.7964 143.808 75.8524 144.144 76.8484 144.144ZM83.8079 142.464C83.6879 142.584 83.4479 142.668 83.2079 142.668C82.8839 142.668 82.6199 142.38 82.6199 141.972V139.212H83.9639V137.796H82.6199V136.092H80.9399V137.796H80.0879V139.212H80.9399V142.248C80.9399 143.364 81.7079 144.144 82.7999 144.144C83.3039 144.144 83.8679 143.928 84.2279 143.604L83.8079 142.464ZM88.2531 142.596C87.5211 142.596 86.9811 142.14 86.7771 141.468H91.2531C91.2531 139.128 90.1131 137.652 88.1691 137.652C86.3571 137.652 84.9771 139.008 84.9771 140.88C84.9771 142.788 86.4171 144.144 88.2651 144.144C89.1771 144.144 90.2451 143.76 90.7971 143.184L89.6811 142.044C89.3451 142.368 88.7451 142.596 88.2531 142.596ZM88.2411 139.2C88.9491 139.2 89.4051 139.596 89.5731 140.208H86.8011C87.0291 139.584 87.5811 139.2 88.2411 139.2ZM94.1904 138.948V137.796H92.4384V144H94.1904V141.036C94.1904 139.872 95.0184 139.128 96.3144 139.128V137.652C95.3664 137.652 94.5984 138.144 94.1904 138.948ZM104.445 144.144C106.629 144.144 108.177 142.608 108.177 140.436V135.756H106.401V140.364C106.401 141.636 105.585 142.536 104.445 142.536C103.293 142.536 102.477 141.636 102.477 140.364V135.756H100.713V140.436C100.713 142.608 102.249 144.144 104.445 144.144ZM112.999 142.464C112.879 142.584 112.639 142.668 112.399 142.668C112.075 142.668 111.811 142.38 111.811 141.972V139.212H113.155V137.796H111.811V136.092H110.131V137.796H109.279V139.212H110.131V142.248C110.131 143.364 110.899 144.144 111.991 144.144C112.495 144.144 113.059 143.928 113.419 143.604L112.999 142.464ZM115.393 136.944C115.909 136.944 116.329 136.512 116.329 135.984C116.329 135.492 115.909 135.048 115.393 135.048C114.853 135.048 114.433 135.492 114.433 135.984C114.433 136.512 114.853 136.944 115.393 136.944ZM114.505 144H116.257V137.796H114.505V144ZM117.786 144H119.538V135.612H117.786V144ZM121.943 136.944C122.459 136.944 122.879 136.512 122.879 135.984C122.879 135.492 122.459 135.048 121.943 135.048C121.403 135.048 120.983 135.492 120.983 135.984C120.983 136.512 121.403 136.944 121.943 136.944ZM121.055 144H122.807V137.796H121.055V144ZM124.061 144H129.485V142.512H126.341L129.461 139.032V137.796H124.145V139.284H127.181L124.061 142.764V144ZM133.496 137.652C132.632 137.652 131.78 137.892 130.904 138.336L131.492 139.5C131.984 139.248 132.524 139.056 133.1 139.056C134.12 139.056 134.528 139.632 134.528 140.292V140.412C134 140.208 133.448 140.1 132.944 140.1C131.504 140.1 130.364 140.94 130.364 142.164C130.364 143.352 131.384 144.144 132.704 144.144C133.376 144.144 134.084 143.88 134.528 143.376V144H136.22V140.292C136.22 138.672 135.116 137.652 133.496 137.652ZM133.1 142.932C132.5 142.932 132.056 142.62 132.056 142.116C132.056 141.612 132.56 141.24 133.196 141.24C133.676 141.24 134.132 141.324 134.528 141.468V142.044C134.408 142.62 133.772 142.932 133.1 142.932ZM140.96 142.464C140.84 142.584 140.6 142.668 140.36 142.668C140.036 142.668 139.772 142.38 139.772 141.972V139.212H141.116V137.796H139.772V136.092H138.092V137.796H137.24V139.212H138.092V142.248C138.092 143.364 138.86 144.144 139.952 144.144C140.456 144.144 141.02 143.928 141.38 143.604L140.96 142.464ZM143.353 136.944C143.869 136.944 144.289 136.512 144.289 135.984C144.289 135.492 143.869 135.048 143.353 135.048C142.813 135.048 142.393 135.492 142.393 135.984C142.393 136.512 142.813 136.944 143.353 136.944ZM142.465 144H144.217V137.796H142.465V144ZM148.795 144.144C150.631 144.144 152.167 142.656 152.167 140.892C152.167 139.128 150.631 137.652 148.795 137.652C146.947 137.652 145.399 139.128 145.399 140.892C145.399 142.656 146.947 144.144 148.795 144.144ZM148.795 142.668C147.859 142.668 147.079 141.852 147.079 140.892C147.079 139.932 147.859 139.128 148.795 139.128C149.719 139.128 150.499 139.932 150.499 140.892C150.499 141.852 149.719 142.668 148.795 142.668ZM156.94 137.652C156.136 137.652 155.44 138.012 155.068 138.576V137.796H153.316V144H155.068V140.292L155.08 140.328C155.08 139.656 155.644 139.128 156.376 139.128C157.072 139.128 157.552 139.656 157.552 140.424V144H159.244V140.052C159.244 138.648 158.284 137.652 156.94 137.652Z" fill="black"/>
<path opacity="0.5" d="M42.27 163.2H216.47" stroke="#C92100" stroke-miterlimit="10"/>
<path opacity="0.5" d="M42.27 179.04H216.47" stroke="#00AB9A" stroke-miterlimit="10"/>
<path d="M218.13 246.43H41.3901V158.95" stroke="#61717D" stroke-miterlimit="10"/>
<path d="M217.65 250.07V242.78L221.29 246.43L217.65 250.07Z" fill="#61717D"/>
<path d="M11.9571 165.44H12.8751V159.257H12.1371L10.5081 160.364L10.8861 161.021L11.9571 160.337V165.44ZM16.8083 165.548C18.3473 165.548 19.4453 164.225 19.4453 162.344C19.4453 160.472 18.3473 159.149 16.8083 159.149C15.2513 159.149 14.1623 160.472 14.1623 162.344C14.1623 164.225 15.2513 165.548 16.8083 165.548ZM16.8083 164.711C15.8003 164.711 15.0893 163.73 15.0893 162.344C15.0893 160.958 15.8003 159.986 16.8083 159.986C17.8073 159.986 18.5093 160.958 18.5093 162.344C18.5093 163.73 17.8073 164.711 16.8083 164.711ZM23.0661 165.548C24.6051 165.548 25.7031 164.225 25.7031 162.344C25.7031 160.472 24.6051 159.149 23.0661 159.149C21.5091 159.149 20.4201 160.472 20.4201 162.344C20.4201 164.225 21.5091 165.548 23.0661 165.548ZM23.0661 164.711C22.0581 164.711 21.3471 163.73 21.3471 162.344C21.3471 160.958 22.0581 159.986 23.0661 159.986C24.0651 159.986 24.7671 160.958 24.7671 162.344C24.7671 163.73 24.0651 164.711 23.0661 164.711ZM28.0549 162.317C28.9189 162.317 29.5309 161.642 29.5309 160.76C29.5309 159.896 28.9459 159.203 28.0639 159.203C27.1909 159.203 26.5879 159.887 26.5879 160.778C26.5879 161.624 27.1729 162.317 28.0549 162.317ZM27.3619 165.44H28.0729L32.3299 159.257H31.6099L27.3619 165.44ZM28.0639 161.741C27.6049 161.741 27.2629 161.327 27.2629 160.769C27.2629 160.193 27.5869 159.788 28.0549 159.788C28.5139 159.788 28.8559 160.202 28.8559 160.769C28.8559 161.336 28.5229 161.741 28.0639 161.741ZM31.6009 165.53C32.4649 165.53 33.0769 164.855 33.0769 163.964C33.0769 163.118 32.4919 162.416 31.6099 162.416C30.7369 162.416 30.1339 163.118 30.1339 163.973C30.1339 164.855 30.7459 165.53 31.6009 165.53ZM31.6099 164.945C31.1419 164.945 30.8089 164.531 30.8089 163.964C30.8089 163.415 31.1329 162.992 31.6009 162.992C32.0599 162.992 32.4019 163.406 32.4019 163.973C32.4019 164.54 32.0779 164.945 31.6099 164.945Z" fill="#C92100"/>
<path d="M17.986 174.599C16.681 174.599 15.745 175.49 15.745 176.678C15.745 177.902 16.69 178.613 17.824 178.613C18.508 178.613 19.129 178.307 19.507 177.794C19.48 179.162 18.769 180.179 17.824 180.179C17.257 180.179 16.87 179.936 16.483 179.585L16.015 180.287C16.492 180.71 17.059 180.998 17.815 180.998C19.327 180.998 20.434 179.576 20.434 177.704C20.434 175.94 19.705 174.599 17.986 174.599ZM18.04 177.848C17.284 177.848 16.681 177.389 16.681 176.633C16.681 176.012 17.185 175.373 18.022 175.373C18.832 175.373 19.273 175.967 19.435 176.849C19.273 177.452 18.724 177.848 18.04 177.848ZM23.6099 180.998C24.9509 180.998 25.8959 180.179 25.8959 178.928C25.8959 177.695 24.9599 176.993 23.8529 176.993C23.3039 176.993 22.8899 177.173 22.5659 177.389L22.6199 175.553H25.5629V174.707H21.7559L21.6659 177.938L22.3049 178.226C22.6739 177.947 23.1149 177.776 23.6279 177.776C24.4289 177.776 24.9779 178.253 24.9779 178.964C24.9779 179.657 24.4379 180.197 23.6369 180.197C22.9799 180.197 22.4039 179.873 21.9269 179.378L21.3599 180.026C21.8909 180.602 22.6289 180.998 23.6099 180.998ZM28.2312 177.767C29.0952 177.767 29.7072 177.092 29.7072 176.21C29.7072 175.346 29.1222 174.653 28.2402 174.653C27.3672 174.653 26.7642 175.337 26.7642 176.228C26.7642 177.074 27.3492 177.767 28.2312 177.767ZM27.5382 180.89H28.2492L32.5062 174.707H31.7862L27.5382 180.89ZM28.2402 177.191C27.7812 177.191 27.4392 176.777 27.4392 176.219C27.4392 175.643 27.7632 175.238 28.2312 175.238C28.6902 175.238 29.0322 175.652 29.0322 176.219C29.0322 176.786 28.6992 177.191 28.2402 177.191ZM31.7772 180.98C32.6412 180.98 33.2532 180.305 33.2532 179.414C33.2532 178.568 32.6682 177.866 31.7862 177.866C30.9132 177.866 30.3102 178.568 30.3102 179.423C30.3102 180.305 30.9222 180.98 31.7772 180.98ZM31.7862 180.395C31.3182 180.395 30.9852 179.981 30.9852 179.414C30.9852 178.865 31.3092 178.442 31.7772 178.442C32.2362 178.442 32.5782 178.856 32.5782 179.423C32.5782 179.99 32.2542 180.395 31.7862 180.395Z" fill="#007064"/>
<path d="M23.1623 244.358C24.7013 244.358 25.7993 243.035 25.7993 241.154C25.7993 239.282 24.7013 237.959 23.1623 237.959C21.6053 237.959 20.5163 239.282 20.5163 241.154C20.5163 243.035 21.6053 244.358 23.1623 244.358ZM23.1623 243.521C22.1543 243.521 21.4433 242.54 21.4433 241.154C21.4433 239.768 22.1543 238.796 23.1623 238.796C24.1613 238.796 24.8633 239.768 24.8633 241.154C24.8633 242.54 24.1613 243.521 23.1623 243.521ZM28.1511 241.127C29.0151 241.127 29.6271 240.452 29.6271 239.57C29.6271 238.706 29.0421 238.013 28.1601 238.013C27.2871 238.013 26.6841 238.697 26.6841 239.588C26.6841 240.434 27.2691 241.127 28.1511 241.127ZM27.4581 244.25H28.1691L32.4261 238.067H31.7061L27.4581 244.25ZM28.1601 240.551C27.7011 240.551 27.3591 240.137 27.3591 239.579C27.3591 239.003 27.6831 238.598 28.1511 238.598C28.6101 238.598 28.9521 239.012 28.9521 239.579C28.9521 240.146 28.6191 240.551 28.1601 240.551ZM31.6971 244.34C32.5611 244.34 33.1731 243.665 33.1731 242.774C33.1731 241.928 32.5881 241.226 31.7061 241.226C30.8331 241.226 30.2301 241.928 30.2301 242.783C30.2301 243.665 30.8421 244.34 31.6971 244.34ZM31.7061 243.755C31.2381 243.755 30.9051 243.341 30.9051 242.774C30.9051 242.225 31.2291 241.802 31.6971 241.802C32.1561 241.802 32.4981 242.216 32.4981 242.783C32.4981 243.35 32.1741 243.755 31.7061 243.755Z" fill="#495A67"/>
<path d="M48.0698 238.91L211.01 169.29" stroke="#F52F22" stroke-width="2" stroke-linecap="round" stroke-linejoin="round" stroke-dasharray="0.1 4"/>
<path d="M213.21 171.61L216.8 166.82L210.86 166.11L213.21 171.61Z" fill="#F52F22"/>
<path d="M42.5601 238.37C42.5601 238.37 46.3901 228.19 53.6401 225.69C60.2801 223.41 66.6401 224.94 72.3601 223.48C78.3601 221.95 76.12 217.15 82 215.13C83.76 214.52 88.0801 215.66 89.8701 215.13C94.5001 213.76 98.27 204.55 102 201.5C106.81 197.5 111.68 196.41 117.67 198.09C121.8 199.24 128.24 205.23 138.93 200.88C144.08 198.78 147.37 184.97 152.85 184.01C155.96 183.47 158.91 185.29 161.85 186.37C168.85 188.91 174.95 191.79 180.49 184.25C182.31 181.77 186.35 176.99 188.95 175.35C194.36 171.93 201.95 171.64 207.29 175.27" stroke="#0079B8" stroke-width="2" stroke-miterlimit="10"/>
<path d="M61 284H41V296H61V284Z" fill="#9A9A9A"/>
<path d="M61 272H41V284H61V272Z" fill="#444444"/>
<path d="M73.3989 274.817V277.427H70.0239V274.817H69.1149V281H70.0239V278.273H73.3989V281H74.3079V274.817H73.3989ZM80.469 281H81.477L78.822 274.817H77.814L75.159 281H76.167L76.707 279.74H79.929L80.469 281ZM77.058 278.921L78.318 275.987L79.578 278.921H77.058Z" fill="#495A67"/>
<path d="M69.2229 292H72.2739C73.3809 292 74.1729 291.307 74.1729 290.317C74.1729 289.633 73.7589 289.075 73.0389 288.724C73.5969 288.409 73.9209 288.004 73.9209 287.356C73.9209 286.456 73.1919 285.817 72.1569 285.817H69.2229V292ZM70.1319 288.391V286.618H71.9319C72.5529 286.618 72.9939 286.996 72.9939 287.509C72.9939 288.022 72.5529 288.391 71.9319 288.391H70.1319ZM70.1319 291.199V289.165H72.0669C72.7599 289.165 73.2459 289.588 73.2459 290.182C73.2459 290.776 72.7599 291.199 72.0669 291.199H70.1319ZM78.4342 287.347V290.362C78.3622 290.911 77.8042 291.334 77.1562 291.334C76.5262 291.334 76.0852 290.848 76.0852 290.155V287.347H75.2122V290.308C75.2122 291.361 75.9322 292.108 76.9582 292.108C77.5882 292.108 78.1552 291.784 78.4342 291.325V292H79.3252V287.347H78.4342ZM81.7879 286.834C81.7879 286.51 82.0039 286.276 82.2649 286.276C82.4629 286.276 82.6429 286.348 82.7419 286.447L83.0659 285.853C82.8139 285.646 82.4719 285.52 82.1389 285.52C81.4189 285.52 80.9149 286.042 80.9149 286.789V287.347H80.2129V288.103H80.9149V292H81.7879V288.103H82.8859V287.347H81.7879V286.834ZM84.9771 286.834C84.9771 286.51 85.1931 286.276 85.4541 286.276C85.6521 286.276 85.8321 286.348 85.9311 286.447L86.2551 285.853C86.0031 285.646 85.6611 285.52 85.3281 285.52C84.6081 285.52 84.1041 286.042 84.1041 286.789V287.347H83.4021V288.103H84.1041V292H84.9771V288.103H86.0751V287.347H84.9771V286.834ZM89.0753 291.316C88.2743 291.316 87.7073 290.758 87.5903 289.984H91.2533C91.2533 288.319 90.4343 287.239 89.0123 287.239C87.7253 287.239 86.6903 288.265 86.6903 289.66C86.6903 291.091 87.7883 292.108 89.0843 292.108C89.7413 292.108 90.5513 291.829 90.9653 291.388L90.4073 290.812C90.1283 291.1 89.5613 291.316 89.0753 291.316ZM89.0483 288.031C89.8493 288.031 90.2903 288.553 90.3893 289.273H87.5993C87.7433 288.517 88.3283 288.031 89.0483 288.031ZM93.168 288.238V287.347H92.277V292H93.168V289.354C93.249 288.544 93.933 288.013 94.896 288.013V287.239C94.095 287.239 93.465 287.626 93.168 288.238Z" fill="#495A67"/>
<path d="M71.1759 297.709C69.8709 297.709 68.9349 298.6 68.9349 299.788C68.9349 301.012 69.8799 301.723 71.0139 301.723C71.6979 301.723 72.3189 301.417 72.6969 300.904C72.6699 302.272 71.9589 303.289 71.0139 303.289C70.4469 303.289 70.0599 303.046 69.6729 302.695L69.2049 303.397C69.6819 303.82 70.2489 304.108 71.0049 304.108C72.5169 304.108 73.6239 302.686 73.6239 300.814C73.6239 299.05 72.8949 297.709 71.1759 297.709ZM71.2299 300.958C70.4739 300.958 69.8709 300.499 69.8709 299.743C69.8709 299.122 70.3749 298.483 71.2119 298.483C72.0219 298.483 72.4629 299.077 72.6249 299.959C72.4629 300.562 71.9139 300.958 71.2299 300.958ZM76.7909 297.709C75.4859 297.709 74.5499 298.6 74.5499 299.788C74.5499 301.012 75.4949 301.723 76.6289 301.723C77.3129 301.723 77.9339 301.417 78.3119 300.904C78.2849 302.272 77.5739 303.289 76.6289 303.289C76.0619 303.289 75.6749 303.046 75.2879 302.695L74.8199 303.397C75.2969 303.82 75.8639 304.108 76.6199 304.108C78.1319 304.108 79.2389 302.686 79.2389 300.814C79.2389 299.05 78.5099 297.709 76.7909 297.709ZM76.8449 300.958C76.0889 300.958 75.4859 300.499 75.4859 299.743C75.4859 299.122 75.9899 298.483 76.8269 298.483C77.6369 298.483 78.0779 299.077 78.2399 299.959C78.0779 300.562 77.5289 300.958 76.8449 300.958ZM82.659 301.948H85.035V301.138H82.659V301.948ZM89.6275 304H90.5455V297.817H89.8075L88.1785 298.924L88.5565 299.581L89.6275 298.897V304ZM94.4247 304.108C95.9637 304.108 97.0617 302.785 97.0617 300.904C97.0617 299.032 95.9637 297.709 94.4247 297.709C92.8677 297.709 91.7787 299.032 91.7787 300.904C91.7787 302.785 92.8677 304.108 94.4247 304.108ZM94.4247 303.271C93.4167 303.271 92.7057 302.29 92.7057 300.904C92.7057 299.518 93.4167 298.546 94.4247 298.546C95.4237 298.546 96.1257 299.518 96.1257 300.904C96.1257 302.29 95.4237 303.271 94.4247 303.271ZM100.629 304.108C102.168 304.108 103.266 302.785 103.266 300.904C103.266 299.032 102.168 297.709 100.629 297.709C99.0715 297.709 97.9825 299.032 97.9825 300.904C97.9825 302.785 99.0715 304.108 100.629 304.108ZM100.629 303.271C99.6205 303.271 98.9095 302.29 98.9095 300.904C98.9095 299.518 99.6205 298.546 100.629 298.546C101.628 298.546 102.33 299.518 102.33 300.904C102.33 302.29 101.628 303.271 100.629 303.271Z" fill="#495A67"/>
<path d="M71.1759 309.709C69.8709 309.709 68.9349 310.6 68.9349 311.788C68.9349 313.012 69.8799 313.723 71.0139 313.723C71.6979 313.723 72.3189 313.417 72.6969 312.904C72.6699 314.272 71.9589 315.289 71.0139 315.289C70.4469 315.289 70.0599 315.046 69.6729 314.695L69.2049 315.397C69.6819 315.82 70.2489 316.108 71.0049 316.108C72.5169 316.108 73.6239 314.686 73.6239 312.814C73.6239 311.05 72.8949 309.709 71.1759 309.709ZM71.2299 312.958C70.4739 312.958 69.8709 312.499 69.8709 311.743C69.8709 311.122 70.3749 310.483 71.2119 310.483C72.0219 310.483 72.4629 311.077 72.6249 311.959C72.4629 312.562 71.9139 312.958 71.2299 312.958ZM75.2249 316H76.2689L78.8699 310.501V309.817H74.5499V310.663H77.7989L75.2249 316ZM82.3954 313.948H84.7714V313.138H82.3954V313.948ZM90.4528 309.709C89.1478 309.709 88.2118 310.6 88.2118 311.788C88.2118 313.012 89.1568 313.723 90.2908 313.723C90.9748 313.723 91.5958 313.417 91.9738 312.904C91.9468 314.272 91.2358 315.289 90.2908 315.289C89.7238 315.289 89.3368 315.046 88.9498 314.695L88.4818 315.397C88.9588 315.82 89.5258 316.108 90.2818 316.108C91.7938 316.108 92.9008 314.686 92.9008 312.814C92.9008 311.05 92.1718 309.709 90.4528 309.709ZM90.5068 312.958C89.7508 312.958 89.1478 312.499 89.1478 311.743C89.1478 311.122 89.6518 310.483 90.4888 310.483C91.2988 310.483 91.7398 311.077 91.9018 311.959C91.7398 312.562 91.1908 312.958 90.5068 312.958ZM96.0678 309.709C94.7628 309.709 93.8268 310.6 93.8268 311.788C93.8268 313.012 94.7718 313.723 95.9058 313.723C96.5898 313.723 97.2108 313.417 97.5888 312.904C97.5618 314.272 96.8508 315.289 95.9058 315.289C95.3388 315.289 94.9518 315.046 94.5648 314.695L94.0968 315.397C94.5738 315.82 95.1408 316.108 95.8968 316.108C97.4088 316.108 98.5158 314.686 98.5158 312.814C98.5158 311.05 97.7868 309.709 96.0678 309.709ZM96.1218 312.958C95.3658 312.958 94.7628 312.499 94.7628 311.743C94.7628 311.122 95.2668 310.483 96.1038 310.483C96.9138 310.483 97.3548 311.077 97.5168 311.959C97.3548 312.562 96.8058 312.958 96.1218 312.958Z" fill="#495A67"/>
<path d="M71.1759 321.709C69.8709 321.709 68.9349 322.6 68.9349 323.788C68.9349 325.012 69.8799 325.723 71.0139 325.723C71.6979 325.723 72.3189 325.417 72.6969 324.904C72.6699 326.272 71.9589 327.289 71.0139 327.289C70.4469 327.289 70.0599 327.046 69.6729 326.695L69.2049 327.397C69.6819 327.82 70.2489 328.108 71.0049 328.108C72.5169 328.108 73.6239 326.686 73.6239 324.814C73.6239 323.05 72.8949 321.709 71.1759 321.709ZM71.2299 324.958C70.4739 324.958 69.8709 324.499 69.8709 323.743C69.8709 323.122 70.3749 322.483 71.2119 322.483C72.0219 322.483 72.4629 323.077 72.6249 323.959C72.4629 324.562 71.9139 324.958 71.2299 324.958ZM76.7459 328.108C78.0869 328.108 79.0319 327.289 79.0319 326.038C79.0319 324.805 78.0959 324.103 76.9889 324.103C76.4399 324.103 76.0259 324.283 75.7019 324.499L75.7559 322.663H78.6989V321.817H74.8919L74.8019 325.048L75.4409 325.336C75.8099 325.057 76.2509 324.886 76.7639 324.886C77.5649 324.886 78.1139 325.363 78.1139 326.074C78.1139 326.767 77.5739 327.307 76.7729 327.307C76.1159 327.307 75.5399 326.983 75.0629 326.488L74.4959 327.136C75.0269 327.712 75.7649 328.108 76.7459 328.108ZM82.4393 325.948H84.8153V325.138H82.4393V325.948ZM90.4968 321.709C89.1918 321.709 88.2558 322.6 88.2558 323.788C88.2558 325.012 89.2008 325.723 90.3348 325.723C91.0188 325.723 91.6398 325.417 92.0178 324.904C91.9908 326.272 91.2798 327.289 90.3348 327.289C89.7678 327.289 89.3808 327.046 88.9938 326.695L88.5258 327.397C89.0028 327.82 89.5698 328.108 90.3258 328.108C91.8378 328.108 92.9448 326.686 92.9448 324.814C92.9448 323.05 92.2158 321.709 90.4968 321.709ZM90.5508 324.958C89.7948 324.958 89.1918 324.499 89.1918 323.743C89.1918 323.122 89.6958 322.483 90.5328 322.483C91.3428 322.483 91.7838 323.077 91.9458 323.959C91.7838 324.562 91.2348 324.958 90.5508 324.958ZM94.5457 328H95.5897L98.1907 322.501V321.817H93.8707V322.663H97.1197L94.5457 328Z" fill="#495A67"/>
<path d="M71.0661 333.709C69.7611 333.709 68.8251 334.6 68.8251 335.788C68.8251 337.012 69.7701 337.723 70.9041 337.723C71.5881 337.723 72.2091 337.417 72.5871 336.904C72.5601 338.272 71.8491 339.289 70.9041 339.289C70.3371 339.289 69.9501 339.046 69.5631 338.695L69.0951 339.397C69.5721 339.82 70.1391 340.108 70.8951 340.108C72.4071 340.108 73.5141 338.686 73.5141 336.814C73.5141 335.05 72.7851 333.709 71.0661 333.709ZM71.1201 336.958C70.3641 336.958 69.7611 336.499 69.7611 335.743C69.7611 335.122 70.2651 334.483 71.1021 334.483C71.9121 334.483 72.3531 335.077 72.5151 335.959C72.3531 336.562 71.8041 336.958 71.1201 336.958ZM77.077 340.108C78.616 340.108 79.714 338.785 79.714 336.904C79.714 335.032 78.616 333.709 77.077 333.709C75.52 333.709 74.431 335.032 74.431 336.904C74.431 338.785 75.52 340.108 77.077 340.108ZM77.077 339.271C76.069 339.271 75.358 338.29 75.358 336.904C75.358 335.518 76.069 334.546 77.077 334.546C78.076 334.546 78.778 335.518 78.778 336.904C78.778 338.29 78.076 339.271 77.077 339.271ZM83.138 337.948H85.514V337.138H83.138V337.948ZM91.1955 333.709C89.8905 333.709 88.9545 334.6 88.9545 335.788C88.9545 337.012 89.8995 337.723 91.0335 337.723C91.7175 337.723 92.3385 337.417 92.7165 336.904C92.6895 338.272 91.9785 339.289 91.0335 339.289C90.4665 339.289 90.0795 339.046 89.6925 338.695L89.2245 339.397C89.7015 339.82 90.2685 340.108 91.0245 340.108C92.5365 340.108 93.6435 338.686 93.6435 336.814C93.6435 335.05 92.9145 333.709 91.1955 333.709ZM91.2495 336.958C90.4935 336.958 89.8905 336.499 89.8905 335.743C89.8905 335.122 90.3945 334.483 91.2315 334.483C92.0415 334.483 92.4825 335.077 92.6445 335.959C92.4825 336.562 91.9335 336.958 91.2495 336.958ZM96.7654 340.108C98.1064 340.108 99.0514 339.289 99.0514 338.038C99.0514 336.805 98.1154 336.103 97.0084 336.103C96.4594 336.103 96.0454 336.283 95.7214 336.499L95.7754 334.663H98.7184V333.817H94.9114L94.8214 337.048L95.4604 337.336C95.8294 337.057 96.2704 336.886 96.7834 336.886C97.5844 336.886 98.1334 337.363 98.1334 338.074C98.1334 338.767 97.5934 339.307 96.7924 339.307C96.1354 339.307 95.5594 338.983 95.0824 338.488L94.5154 339.136C95.0464 339.712 95.7844 340.108 96.7654 340.108Z" fill="#495A67"/>
<path d="M71.5719 358.108C73.1109 358.108 74.2089 356.785 74.2089 354.904C74.2089 353.032 73.1109 351.709 71.5719 351.709C70.0149 351.709 68.9259 353.032 68.9259 354.904C68.9259 356.785 70.0149 358.108 71.5719 358.108ZM71.5719 357.271C70.5639 357.271 69.8529 356.29 69.8529 354.904C69.8529 353.518 70.5639 352.546 71.5719 352.546C72.5709 352.546 73.2729 353.518 73.2729 354.904C73.2729 356.29 72.5709 357.271 71.5719 357.271ZM77.6329 355.948H80.0089V355.138H77.6329V355.948ZM85.7084 358.108C87.0044 358.108 88.0394 357.442 88.0394 356.371C88.0394 355.615 87.4724 355.066 86.7344 354.805C87.3644 354.562 87.8864 354.103 87.8864 353.365C87.8864 352.339 86.8604 351.709 85.7084 351.709C84.5924 351.709 83.5394 352.312 83.5394 353.365C83.5394 354.067 84.0164 354.535 84.6914 354.805C83.9534 355.057 83.3774 355.606 83.3774 356.371C83.3774 357.433 84.4034 358.108 85.7084 358.108ZM85.7084 354.463C85.1594 354.427 84.4484 354.103 84.4484 353.464C84.4484 352.915 84.9974 352.51 85.7084 352.51C86.4194 352.51 86.9774 352.915 86.9774 353.464C86.9774 354.085 86.2754 354.427 85.7084 354.463ZM85.7084 357.307C84.9164 357.307 84.2954 356.893 84.2954 356.29C84.2954 355.633 85.1054 355.237 85.7084 355.219C86.3204 355.237 87.1214 355.633 87.1214 356.29C87.1214 356.893 86.5004 357.307 85.7084 357.307ZM91.5432 358.108C93.0822 358.108 94.1802 356.785 94.1802 354.904C94.1802 353.032 93.0822 351.709 91.5432 351.709C89.9862 351.709 88.8972 353.032 88.8972 354.904C88.8972 356.785 89.9862 358.108 91.5432 358.108ZM91.5432 357.271C90.5352 357.271 89.8242 356.29 89.8242 354.904C89.8242 353.518 90.5352 352.546 91.5432 352.546C92.5422 352.546 93.2442 353.518 93.2442 354.904C93.2442 356.29 92.5422 357.271 91.5432 357.271Z" fill="#C92100"/>
<path d="M61 296H41V308H61V296Z" fill="#E62700"/>
<path d="M61 308H41V320H61V308Z" fill="#FF8400"/>
<path d="M61 320H41V332H61V320Z" fill="#FDD006"/>
<path d="M61 332H41V344H61V332Z" fill="#79CEC6"/>
<path d="M61 344H41V368H61V344Z" fill="#444444"/>
<path d="M309 284H289V296H309V284Z" fill="#FDD006"/>
<path d="M309 272H289V284H309V272Z" fill="#79CEC6"/>
<path d="M316.306 274.709C315.001 274.709 314.065 275.6 314.065 276.788C314.065 278.012 315.01 278.723 316.144 278.723C316.828 278.723 317.449 278.417 317.827 277.904C317.8 279.272 317.089 280.289 316.144 280.289C315.577 280.289 315.19 280.046 314.803 279.695L314.335 280.397C314.812 280.82 315.379 281.108 316.135 281.108C317.647 281.108 318.754 279.686 318.754 277.814C318.754 276.05 318.025 274.709 316.306 274.709ZM316.36 277.958C315.604 277.958 315.001 277.499 315.001 276.743C315.001 276.122 315.505 275.483 316.342 275.483C317.152 275.483 317.593 276.077 317.755 276.959C317.593 277.562 317.044 277.958 316.36 277.958ZM321.921 274.709C320.616 274.709 319.68 275.6 319.68 276.788C319.68 278.012 320.625 278.723 321.759 278.723C322.443 278.723 323.064 278.417 323.442 277.904C323.415 279.272 322.704 280.289 321.759 280.289C321.192 280.289 320.805 280.046 320.418 279.695L319.95 280.397C320.427 280.82 320.994 281.108 321.75 281.108C323.262 281.108 324.369 279.686 324.369 277.814C324.369 276.05 323.64 274.709 321.921 274.709ZM321.975 277.958C321.219 277.958 320.616 277.499 320.616 276.743C320.616 276.122 321.12 275.483 321.957 275.483C322.767 275.483 323.208 276.077 323.37 276.959C323.208 277.562 322.659 277.958 321.975 277.958ZM327.789 278.948H330.165V278.138H327.789V278.948ZM334.758 281H335.676V274.817H334.938L333.309 275.924L333.687 276.581L334.758 275.897V281ZM339.555 281.108C341.094 281.108 342.192 279.785 342.192 277.904C342.192 276.032 341.094 274.709 339.555 274.709C337.998 274.709 336.909 276.032 336.909 277.904C336.909 279.785 337.998 281.108 339.555 281.108ZM339.555 280.271C338.547 280.271 337.836 279.29 337.836 277.904C337.836 276.518 338.547 275.546 339.555 275.546C340.554 275.546 341.256 276.518 341.256 277.904C341.256 279.29 340.554 280.271 339.555 280.271ZM345.759 281.108C347.298 281.108 348.396 279.785 348.396 277.904C348.396 276.032 347.298 274.709 345.759 274.709C344.202 274.709 343.113 276.032 343.113 277.904C343.113 279.785 344.202 281.108 345.759 281.108ZM345.759 280.271C344.751 280.271 344.04 279.29 344.04 277.904C344.04 276.518 344.751 275.546 345.759 275.546C346.758 275.546 347.46 276.518 347.46 277.904C347.46 279.29 346.758 280.271 345.759 280.271Z" fill="#495A67"/>
<path d="M316.306 285.709C315.001 285.709 314.065 286.6 314.065 287.788C314.065 289.012 315.01 289.723 316.144 289.723C316.828 289.723 317.449 289.417 317.827 288.904C317.8 290.272 317.089 291.289 316.144 291.289C315.577 291.289 315.19 291.046 314.803 290.695L314.335 291.397C314.812 291.82 315.379 292.108 316.135 292.108C317.647 292.108 318.754 290.686 318.754 288.814C318.754 287.05 318.025 285.709 316.306 285.709ZM316.36 288.958C315.604 288.958 315.001 288.499 315.001 287.743C315.001 287.122 315.505 286.483 316.342 286.483C317.152 286.483 317.593 287.077 317.755 287.959C317.593 288.562 317.044 288.958 316.36 288.958ZM320.355 292H321.399L324 286.501V285.817H319.68V286.663H322.929L320.355 292ZM327.525 289.948H329.901V289.138H327.525V289.948ZM335.583 285.709C334.278 285.709 333.342 286.6 333.342 287.788C333.342 289.012 334.287 289.723 335.421 289.723C336.105 289.723 336.726 289.417 337.104 288.904C337.077 290.272 336.366 291.289 335.421 291.289C334.854 291.289 334.467 291.046 334.08 290.695L333.612 291.397C334.089 291.82 334.656 292.108 335.412 292.108C336.924 292.108 338.031 290.686 338.031 288.814C338.031 287.05 337.302 285.709 335.583 285.709ZM335.637 288.958C334.881 288.958 334.278 288.499 334.278 287.743C334.278 287.122 334.782 286.483 335.619 286.483C336.429 286.483 336.87 287.077 337.032 287.959C336.87 288.562 336.321 288.958 335.637 288.958ZM341.198 285.709C339.893 285.709 338.957 286.6 338.957 287.788C338.957 289.012 339.902 289.723 341.036 289.723C341.72 289.723 342.341 289.417 342.719 288.904C342.692 290.272 341.981 291.289 341.036 291.289C340.469 291.289 340.082 291.046 339.695 290.695L339.227 291.397C339.704 291.82 340.271 292.108 341.027 292.108C342.539 292.108 343.646 290.686 343.646 288.814C343.646 287.05 342.917 285.709 341.198 285.709ZM341.252 288.958C340.496 288.958 339.893 288.499 339.893 287.743C339.893 287.122 340.397 286.483 341.234 286.483C342.044 286.483 342.485 287.077 342.647 287.959C342.485 288.562 341.936 288.958 341.252 288.958Z" fill="#495A67"/>
<path d="M316.306 297.709C315.001 297.709 314.065 298.6 314.065 299.788C314.065 301.012 315.01 301.723 316.144 301.723C316.828 301.723 317.449 301.417 317.827 300.904C317.8 302.272 317.089 303.289 316.144 303.289C315.577 303.289 315.19 303.046 314.803 302.695L314.335 303.397C314.812 303.82 315.379 304.108 316.135 304.108C317.647 304.108 318.754 302.686 318.754 300.814C318.754 299.05 318.025 297.709 316.306 297.709ZM316.36 300.958C315.604 300.958 315.001 300.499 315.001 299.743C315.001 299.122 315.505 298.483 316.342 298.483C317.152 298.483 317.593 299.077 317.755 299.959C317.593 300.562 317.044 300.958 316.36 300.958ZM321.876 304.108C323.217 304.108 324.162 303.289 324.162 302.038C324.162 300.805 323.226 300.103 322.119 300.103C321.57 300.103 321.156 300.283 320.832 300.499L320.886 298.663H323.829V297.817H320.022L319.932 301.048L320.571 301.336C320.94 301.057 321.381 300.886 321.894 300.886C322.695 300.886 323.244 301.363 323.244 302.074C323.244 302.767 322.704 303.307 321.903 303.307C321.246 303.307 320.67 302.983 320.193 302.488L319.626 303.136C320.157 303.712 320.895 304.108 321.876 304.108ZM327.569 301.948H329.945V301.138H327.569V301.948ZM335.627 297.709C334.322 297.709 333.386 298.6 333.386 299.788C333.386 301.012 334.331 301.723 335.465 301.723C336.149 301.723 336.77 301.417 337.148 300.904C337.121 302.272 336.41 303.289 335.465 303.289C334.898 303.289 334.511 303.046 334.124 302.695L333.656 303.397C334.133 303.82 334.7 304.108 335.456 304.108C336.968 304.108 338.075 302.686 338.075 300.814C338.075 299.05 337.346 297.709 335.627 297.709ZM335.681 300.958C334.925 300.958 334.322 300.499 334.322 299.743C334.322 299.122 334.826 298.483 335.663 298.483C336.473 298.483 336.914 299.077 337.076 299.959C336.914 300.562 336.365 300.958 335.681 300.958ZM339.676 304H340.72L343.321 298.501V297.817H339.001V298.663H342.25L339.676 304Z" fill="#495A67"/>
<path d="M316.702 340.108C318.241 340.108 319.339 338.785 319.339 336.904C319.339 335.032 318.241 333.709 316.702 333.709C315.145 333.709 314.056 335.032 314.056 336.904C314.056 338.785 315.145 340.108 316.702 340.108ZM316.702 339.271C315.694 339.271 314.983 338.29 314.983 336.904C314.983 335.518 315.694 334.546 316.702 334.546C317.701 334.546 318.403 335.518 318.403 336.904C318.403 338.29 317.701 339.271 316.702 339.271ZM322.763 337.948H325.139V337.138H322.763V337.948ZM330.821 333.709C329.516 333.709 328.58 334.6 328.58 335.788C328.58 337.012 329.525 337.723 330.659 337.723C331.343 337.723 331.964 337.417 332.342 336.904C332.315 338.272 331.604 339.289 330.659 339.289C330.092 339.289 329.705 339.046 329.318 338.695L328.85 339.397C329.327 339.82 329.894 340.108 330.65 340.108C332.162 340.108 333.269 338.686 333.269 336.814C333.269 335.05 332.54 333.709 330.821 333.709ZM330.875 336.958C330.119 336.958 329.516 336.499 329.516 335.743C329.516 335.122 330.02 334.483 330.857 334.483C331.667 334.483 332.108 335.077 332.27 335.959C332.108 336.562 331.559 336.958 330.875 336.958ZM336.39 340.108C337.731 340.108 338.676 339.289 338.676 338.038C338.676 336.805 337.74 336.103 336.633 336.103C336.084 336.103 335.67 336.283 335.346 336.499L335.4 334.663H338.343V333.817H334.536L334.446 337.048L335.085 337.336C335.454 337.057 335.895 336.886 336.408 336.886C337.209 336.886 337.758 337.363 337.758 338.074C337.758 338.767 337.218 339.307 336.417 339.307C335.76 339.307 335.184 338.983 334.707 338.488L334.14 339.136C334.671 339.712 335.409 340.108 336.39 340.108Z" fill="#C92100"/>
<path d="M309 296H289V308H309V296Z" fill="#FF8400"/>
<path d="M309 308H289V368H309V308Z" fill="#E12200"/>
<path d="M291.546 139.896C292.77 139.896 293.61 138.972 293.61 137.784C293.61 136.62 292.806 135.672 291.558 135.672C290.322 135.672 289.494 136.608 289.494 137.796C289.494 138.972 290.322 139.896 291.546 139.896ZM290.574 144H291.846L297.582 135.756H296.31L290.574 144ZM291.558 138.864C291.066 138.864 290.682 138.432 290.682 137.784C290.682 137.136 291.042 136.716 291.546 136.716C292.062 136.716 292.434 137.148 292.434 137.784C292.434 138.444 292.062 138.864 291.558 138.864ZM296.586 144.132C297.786 144.132 298.638 143.208 298.638 142.02C298.638 140.856 297.822 139.908 296.586 139.908C295.362 139.908 294.522 140.844 294.522 142.02C294.522 143.196 295.35 144.132 296.586 144.132ZM296.586 143.088C296.07 143.088 295.698 142.656 295.698 142.02C295.698 141.36 296.058 140.94 296.586 140.94C297.078 140.94 297.462 141.372 297.462 142.02C297.462 142.668 297.102 143.088 296.586 143.088ZM307.317 144.144C308.565 144.144 309.717 143.604 310.521 142.764L309.237 141.612C308.757 142.164 308.073 142.536 307.317 142.536C305.937 142.536 304.761 141.312 304.761 139.872C304.761 138.444 305.937 137.22 307.317 137.22C308.073 137.22 308.757 137.592 309.237 138.144L310.521 136.992C309.717 136.14 308.565 135.612 307.317 135.612C304.953 135.612 302.937 137.556 302.937 139.872C302.937 142.188 304.953 144.144 307.317 144.144ZM311.568 144H313.32V135.612H311.568V144ZM318.965 137.796V141.504L318.953 141.468C318.953 142.14 318.389 142.668 317.657 142.668C316.961 142.668 316.481 142.14 316.481 141.372V137.796H314.789V141.744C314.789 143.148 315.749 144.144 317.093 144.144C317.897 144.144 318.593 143.784 318.965 143.22V144H320.717V137.796H318.965ZM324.548 144.144C326.072 144.144 327.068 143.364 327.068 142.14C327.068 140.784 325.88 140.424 324.812 140.148C323.972 139.92 323.72 139.824 323.72 139.488C323.72 139.272 324.02 139.116 324.452 139.116C324.98 139.116 325.628 139.32 326.192 139.668L326.9 138.42C326.216 137.964 325.34 137.652 324.452 137.652C322.988 137.652 322.016 138.492 322.028 139.668C322.04 140.892 323.024 141.24 324.296 141.552C324.932 141.72 325.388 141.84 325.388 142.224C325.388 142.5 325.052 142.692 324.584 142.692C323.756 142.692 323.06 142.392 322.508 141.996L321.752 143.208C322.496 143.808 323.552 144.144 324.548 144.144ZM331.508 142.464C331.388 142.584 331.148 142.668 330.908 142.668C330.584 142.668 330.32 142.38 330.32 141.972V139.212H331.664V137.796H330.32V136.092H328.64V137.796H327.788V139.212H328.64V142.248C328.64 143.364 329.408 144.144 330.5 144.144C331.004 144.144 331.568 143.928 331.928 143.604L331.508 142.464ZM335.953 142.596C335.221 142.596 334.681 142.14 334.477 141.468H338.953C338.953 139.128 337.813 137.652 335.869 137.652C334.057 137.652 332.677 139.008 332.677 140.88C332.677 142.788 334.117 144.144 335.965 144.144C336.877 144.144 337.945 143.76 338.497 143.184L337.381 142.044C337.045 142.368 336.445 142.596 335.953 142.596ZM335.941 139.2C336.649 139.2 337.105 139.596 337.273 140.208H334.501C334.729 139.584 335.281 139.2 335.941 139.2ZM341.89 138.948V137.796H340.138V144H341.89V141.036C341.89 139.872 342.718 139.128 344.014 139.128V137.652C343.066 137.652 342.298 138.144 341.89 138.948ZM348.425 144H350.189V141.324H352.133C353.921 141.324 355.241 140.172 355.241 138.54C355.241 136.908 353.921 135.756 352.133 135.756H348.425V144ZM350.189 139.704V137.376H351.941C352.817 137.376 353.417 137.832 353.417 138.54C353.417 139.248 352.817 139.704 351.941 139.704H350.189ZM359.227 142.596C358.495 142.596 357.955 142.14 357.751 141.468H362.227C362.227 139.128 361.087 137.652 359.143 137.652C357.331 137.652 355.951 139.008 355.951 140.88C355.951 142.788 357.391 144.144 359.239 144.144C360.151 144.144 361.219 143.76 361.771 143.184L360.655 142.044C360.319 142.368 359.719 142.596 359.227 142.596ZM359.215 139.2C359.923 139.2 360.379 139.596 360.547 140.208H357.775C358.003 139.584 358.555 139.2 359.215 139.2ZM365.164 138.948V137.796H363.412V144H365.164V141.036C365.164 139.872 365.992 139.128 367.288 139.128V137.652C366.34 137.652 365.572 138.144 365.164 138.948ZM370.375 137.46C370.375 137.052 370.639 136.764 370.963 136.764C371.203 136.764 371.443 136.848 371.563 136.968L371.983 135.9C371.623 135.576 371.059 135.36 370.555 135.36C369.463 135.36 368.695 136.14 368.695 137.256V137.796H367.843V139.212H368.695V144H370.375V139.212H371.719V137.796H370.375V137.46ZM375.893 144.144C377.729 144.144 379.265 142.656 379.265 140.892C379.265 139.128 377.729 137.652 375.893 137.652C374.045 137.652 372.497 139.128 372.497 140.892C372.497 142.656 374.045 144.144 375.893 144.144ZM375.893 142.668C374.957 142.668 374.177 141.852 374.177 140.892C374.177 139.932 374.957 139.128 375.893 139.128C376.817 139.128 377.597 139.932 377.597 140.892C377.597 141.852 376.817 142.668 375.893 142.668ZM382.203 138.948V137.796H380.451V144H382.203V141.036C382.203 139.872 383.031 139.128 384.327 139.128V137.652C383.379 137.652 382.611 138.144 382.203 138.948ZM392.718 137.652C391.794 137.652 391.026 138.096 390.702 138.78C390.318 138.084 389.586 137.652 388.734 137.652C387.966 137.652 387.354 138.024 387.054 138.612V137.796H385.302V144H387.054V140.256C387.054 139.596 387.546 139.128 388.254 139.128C388.89 139.128 389.346 139.632 389.346 140.352V144.012H391.026V140.256C391.026 139.596 391.53 139.128 392.226 139.128C392.874 139.128 393.33 139.632 393.33 140.352V144.012H395.01V140.052C395.01 138.648 394.014 137.652 392.718 137.652ZM399.254 137.652C398.39 137.652 397.538 137.892 396.662 138.336L397.25 139.5C397.742 139.248 398.282 139.056 398.858 139.056C399.878 139.056 400.286 139.632 400.286 140.292V140.412C399.758 140.208 399.206 140.1 398.702 140.1C397.262 140.1 396.122 140.94 396.122 142.164C396.122 143.352 397.142 144.144 398.462 144.144C399.134 144.144 399.842 143.88 400.286 143.376V144H401.978V140.292C401.978 138.672 400.874 137.652 399.254 137.652ZM398.858 142.932C398.258 142.932 397.814 142.62 397.814 142.116C397.814 141.612 398.318 141.24 398.954 141.24C399.434 141.24 399.89 141.324 400.286 141.468V142.044C400.166 142.62 399.53 142.932 398.858 142.932ZM407.043 137.652C406.239 137.652 405.543 138.012 405.171 138.576V137.796H403.419V144H405.171V140.292L405.183 140.328C405.183 139.656 405.747 139.128 406.479 139.128C407.175 139.128 407.655 139.656 407.655 140.424V144H409.347V140.052C409.347 138.648 408.387 137.652 407.043 137.652ZM413.862 144.144C414.894 144.144 415.734 143.724 416.346 143.052L415.182 142.068C414.858 142.428 414.354 142.668 413.874 142.668C412.95 142.668 412.182 141.852 412.182 140.88C412.182 139.932 412.95 139.128 413.862 139.128C414.342 139.128 414.834 139.356 415.146 139.704L416.31 138.708C415.71 138.06 414.882 137.652 413.874 137.652C412.038 137.652 410.478 139.128 410.478 140.892C410.478 142.656 412.026 144.144 413.862 144.144ZM420.328 142.596C419.596 142.596 419.056 142.14 418.852 141.468H423.328C423.328 139.128 422.188 137.652 420.244 137.652C418.432 137.652 417.052 139.008 417.052 140.88C417.052 142.788 418.492 144.144 420.34 144.144C421.252 144.144 422.32 143.76 422.872 143.184L421.756 142.044C421.42 142.368 420.82 142.596 420.328 142.596ZM420.316 139.2C421.024 139.2 421.48 139.596 421.648 140.208H418.876C419.104 139.584 419.656 139.2 420.316 139.2Z" fill="black"/>
<path opacity="0.15" d="M469.57 164.78H410.41V246.58H469.57V164.78Z" fill="#9A9A9A"/>
<path opacity="0.5" d="M289.97 163.2H470.04" stroke="#00AB9A" stroke-miterlimit="10"/>
<path d="M465.84 246.43H289.1V158.95" stroke="#61717D" stroke-miterlimit="10"/>
<path d="M465 250.29V243L468.64 246.65L465 250.29Z" fill="#61717D"/>
<path d="M259.667 165.44H260.585V159.257H259.847L258.218 160.364L258.596 161.021L259.667 160.337V165.44ZM264.518 165.548C266.057 165.548 267.155 164.225 267.155 162.344C267.155 160.472 266.057 159.149 264.518 159.149C262.961 159.149 261.872 160.472 261.872 162.344C261.872 164.225 262.961 165.548 264.518 165.548ZM264.518 164.711C263.51 164.711 262.799 163.73 262.799 162.344C262.799 160.958 263.51 159.986 264.518 159.986C265.517 159.986 266.219 160.958 266.219 162.344C266.219 163.73 265.517 164.711 264.518 164.711ZM270.776 165.548C272.315 165.548 273.413 164.225 273.413 162.344C273.413 160.472 272.315 159.149 270.776 159.149C269.219 159.149 268.13 160.472 268.13 162.344C268.13 164.225 269.219 165.548 270.776 165.548ZM270.776 164.711C269.768 164.711 269.057 163.73 269.057 162.344C269.057 160.958 269.768 159.986 270.776 159.986C271.775 159.986 272.477 160.958 272.477 162.344C272.477 163.73 271.775 164.711 270.776 164.711ZM275.765 162.317C276.629 162.317 277.241 161.642 277.241 160.76C277.241 159.896 276.656 159.203 275.774 159.203C274.901 159.203 274.298 159.887 274.298 160.778C274.298 161.624 274.883 162.317 275.765 162.317ZM275.072 165.44H275.783L280.04 159.257H279.32L275.072 165.44ZM275.774 161.741C275.315 161.741 274.973 161.327 274.973 160.769C274.973 160.193 275.297 159.788 275.765 159.788C276.224 159.788 276.566 160.202 276.566 160.769C276.566 161.336 276.233 161.741 275.774 161.741ZM279.311 165.53C280.175 165.53 280.787 164.855 280.787 163.964C280.787 163.118 280.202 162.416 279.32 162.416C278.447 162.416 277.844 163.118 277.844 163.973C277.844 164.855 278.456 165.53 279.311 165.53ZM279.32 164.945C278.852 164.945 278.519 164.531 278.519 163.964C278.519 163.415 278.843 162.992 279.311 162.992C279.77 162.992 280.112 163.406 280.112 163.973C280.112 164.54 279.788 164.945 279.32 164.945Z" fill="#007064"/>
<path d="M265.686 237.959C264.381 237.959 263.445 238.85 263.445 240.038C263.445 241.262 264.39 241.973 265.524 241.973C266.208 241.973 266.829 241.667 267.207 241.154C267.18 242.522 266.469 243.539 265.524 243.539C264.957 243.539 264.57 243.296 264.183 242.945L263.715 243.647C264.192 244.07 264.759 244.358 265.515 244.358C267.027 244.358 268.134 242.936 268.134 241.064C268.134 239.3 267.405 237.959 265.686 237.959ZM265.74 241.208C264.984 241.208 264.381 240.749 264.381 239.993C264.381 239.372 264.885 238.733 265.722 238.733C266.532 238.733 266.973 239.327 267.135 240.209C266.973 240.812 266.424 241.208 265.74 241.208ZM271.31 244.358C272.651 244.358 273.596 243.539 273.596 242.288C273.596 241.055 272.66 240.353 271.553 240.353C271.004 240.353 270.59 240.533 270.266 240.749L270.32 238.913H273.263V238.067H269.456L269.366 241.298L270.005 241.586C270.374 241.307 270.815 241.136 271.328 241.136C272.129 241.136 272.678 241.613 272.678 242.324C272.678 243.017 272.138 243.557 271.337 243.557C270.68 243.557 270.104 243.233 269.627 242.738L269.06 243.386C269.591 243.962 270.329 244.358 271.31 244.358ZM275.931 241.127C276.795 241.127 277.407 240.452 277.407 239.57C277.407 238.706 276.822 238.013 275.94 238.013C275.067 238.013 274.464 238.697 274.464 239.588C274.464 240.434 275.049 241.127 275.931 241.127ZM275.238 244.25H275.949L280.206 238.067H279.486L275.238 244.25ZM275.94 240.551C275.481 240.551 275.139 240.137 275.139 239.579C275.139 239.003 275.463 238.598 275.931 238.598C276.39 238.598 276.732 239.012 276.732 239.579C276.732 240.146 276.399 240.551 275.94 240.551ZM279.477 244.34C280.341 244.34 280.953 243.665 280.953 242.774C280.953 241.928 280.368 241.226 279.486 241.226C278.613 241.226 278.01 241.928 278.01 242.783C278.01 243.665 278.622 244.34 279.477 244.34ZM279.486 243.755C279.018 243.755 278.685 243.341 278.685 242.774C278.685 242.225 279.009 241.802 279.477 241.802C279.936 241.802 280.278 242.216 280.278 242.783C280.278 243.35 279.954 243.755 279.486 243.755Z" fill="#C92100"/>
<path d="M293.59 166.27L461.16 237.77" stroke="#F52F22" stroke-width="2" stroke-linecap="round" stroke-linejoin="round" stroke-dasharray="0.1 4"/>
<path d="M462 241.5L467.94 240.78L464.35 236L462 241.5Z" fill="#F52F22"/>
<path d="M290 163.001H409.534C416.96 162.947 424.235 164.984 430.429 168.854C436.624 172.723 441.457 178.249 444.312 184.725L465 233" stroke="#0079B8" stroke-width="2" stroke-miterlimit="10"/>
<path d="M411 243L411 251" stroke="#61717D" stroke-miterlimit="10"/>
<path d="M396.05 263.81C397.98 263.81 399.6 262.18 399.6 260.25C399.6 258.32 397.98 256.7 396.05 256.7C394.12 256.7 392.48 258.32 392.48 260.25C392.48 262.18 394.12 263.81 396.05 263.81ZM396.05 262.88C394.68 262.88 393.52 261.68 393.52 260.25C393.52 258.83 394.68 257.63 396.05 257.63C397.42 257.63 398.57 258.83 398.57 260.25C398.57 261.68 397.42 262.88 396.05 262.88ZM402.526 263.69H403.456L405.636 258.52H404.566L402.986 262.54L401.376 258.52H400.306L402.526 263.69ZM408.606 262.93C407.716 262.93 407.086 262.31 406.956 261.45H411.026C411.026 259.6 410.116 258.4 408.536 258.4C407.106 258.4 405.956 259.54 405.956 261.09C405.956 262.68 407.176 263.81 408.616 263.81C409.346 263.81 410.246 263.5 410.706 263.01L410.086 262.37C409.776 262.69 409.146 262.93 408.606 262.93ZM408.576 259.28C409.466 259.28 409.956 259.86 410.066 260.66H406.966C407.126 259.82 407.776 259.28 408.576 259.28ZM413.213 259.51V258.52H412.223V263.69H413.213V260.75C413.303 259.85 414.063 259.26 415.133 259.26V258.4C414.243 258.4 413.543 258.83 413.213 259.51ZM418.539 263.81C419.309 263.81 419.979 263.49 420.479 262.98L419.809 262.37C419.489 262.73 419.029 262.95 418.549 262.95C417.599 262.95 416.819 262.11 416.819 261.1C416.819 260.1 417.599 259.26 418.539 259.26C419.019 259.26 419.469 259.47 419.779 259.82L420.449 259.2C419.959 258.71 419.289 258.4 418.549 258.4C417.069 258.4 415.819 259.63 415.819 261.1C415.819 262.57 417.069 263.81 418.539 263.81ZM423.881 263.81C425.351 263.81 426.591 262.57 426.591 261.1C426.591 259.63 425.351 258.4 423.881 258.4C422.401 258.4 421.151 259.63 421.151 261.1C421.151 262.57 422.401 263.81 423.881 263.81ZM423.881 262.95C422.931 262.95 422.141 262.11 422.141 261.1C422.141 260.1 422.931 259.26 423.881 259.26C424.811 259.26 425.601 260.1 425.601 261.1C425.601 262.11 424.811 262.95 423.881 262.95ZM433.529 258.4C432.749 258.4 432.089 258.8 431.849 259.44C431.549 258.8 430.939 258.4 430.189 258.4C429.529 258.4 428.989 258.73 428.729 259.24V258.52H427.739V263.69H428.729V260.46C428.729 259.75 429.249 259.26 429.989 259.26C430.639 259.26 431.089 259.79 431.089 260.55V263.69H432.059V260.46C432.059 259.75 432.579 259.26 433.319 259.26C433.969 259.26 434.419 259.79 434.419 260.55V263.69H435.389V260.4C435.389 259.23 434.609 258.4 433.529 258.4ZM442.592 258.4C441.812 258.4 441.152 258.8 440.912 259.44C440.612 258.8 440.002 258.4 439.252 258.4C438.592 258.4 438.052 258.73 437.792 259.24V258.52H436.802V263.69H437.792V260.46C437.792 259.75 438.312 259.26 439.052 259.26C439.702 259.26 440.152 259.79 440.152 260.55V263.69H441.122V260.46C441.122 259.75 441.642 259.26 442.382 259.26C443.032 259.26 443.482 259.79 443.482 260.55V263.69H444.452V260.4C444.452 259.23 443.672 258.4 442.592 258.4ZM446.364 257.66C446.684 257.66 446.954 257.38 446.954 257.06C446.954 256.75 446.684 256.47 446.364 256.47C446.024 256.47 445.764 256.75 445.764 257.06C445.764 257.38 446.024 257.66 446.364 257.66ZM445.864 263.69H446.854V258.52H445.864V263.69ZM450.706 262.76C450.596 262.87 450.396 262.95 450.176 262.95C449.886 262.95 449.646 262.69 449.646 262.33V259.36H450.866V258.52H449.646V257.1H448.676V258.52H447.896V259.36H448.676V262.4C448.676 263.23 449.236 263.81 450.036 263.81C450.406 263.81 450.786 263.67 451.066 263.44L450.706 262.76ZM457.818 262.83L462.408 260.64V259.87L457.818 257.68V258.54L461.528 260.25L457.818 261.96V262.83ZM464.787 263.69H465.807V256.82H464.987L463.177 258.05L463.597 258.78L464.787 258.02V263.69Z" fill="#495A67"/>
</svg>
