<svg width="642" height="521" viewBox="0 0 642 521" fill="none" xmlns="http://www.w3.org/2000/svg">
<path d="M248 317L254.062 327.5H241.938L248 317Z" fill="#A9B6BE"/>
<path d="M248 394.5L248 326.486" stroke="#A9B6BE" stroke-width="4"/>
<path d="M248 410L254.062 420.5H241.938L248 410Z" fill="#A9B6BE"/>
<path d="M248 439L248 419.486" stroke="#A9B6BE" stroke-width="4"/>
<path d="M416 280L422.062 269.5H409.938L416 280Z" fill="#A9B6BE"/>
<path d="M416 202.5L416 270.514" stroke="#A9B6BE" stroke-width="4"/>
<path d="M83 280L89.0622 269.5H76.9378L83 280Z" fill="#A9B6BE"/>
<path d="M83 202.5L83 270.514" stroke="#A9B6BE" stroke-width="4"/>
<path d="M248 280L254.062 269.5H241.938L248 280Z" fill="#A9B6BE"/>
<path d="M248 202.5L248 270.514" stroke="#A9B6BE" stroke-width="4"/>
<path d="M378.506 321.744L372.236 334.774L364.521 325.421L378.506 321.744Z" fill="#A9B6BE"/>
<path d="M303.759 383.401L369.357 329.291" stroke="#A9B6BE" stroke-width="4"/>
<path d="M144 77L346 77" stroke="#A9B6BE" stroke-width="4"/>
<path d="M416 93L422.062 103.5H409.938L416 93Z" fill="#A9B6BE"/>
<path d="M416 170.5L416 102.486" stroke="#A9B6BE" stroke-width="4"/>
<path d="M355 393.5H98.5C89.6634 393.5 82.5 386.337 82.5 377.5V327.5" stroke="#A9B6BE" stroke-width="4"/>
<path d="M83 317L89.0622 327.5H76.9378L83 317Z" fill="#A9B6BE"/>
<path d="M383.778 198.351L258.564 277.208" stroke="#A9B6BE" stroke-width="4"/>
<path d="M251.403 280.172L263.523 279.842L257.177 269.511L251.403 280.172Z" fill="#A9B6BE"/>
<path d="M421.778 198.351L296.564 277.208" stroke="#A9B6BE" stroke-width="4"/>
<path d="M289.403 280.172L301.523 279.842L295.177 269.511L289.403 280.172Z" fill="#A9B6BE"/>
<path d="M251.727 198.687L93 276" stroke="#A9B6BE" stroke-width="4"/>
<path d="M85.5594 280.146L97.6832 280.027L91.5181 269.587L85.5594 280.146Z" fill="#A9B6BE"/>
<path d="M304 296L314.5 302.062L314.5 289.938L304 296Z" fill="#A9B6BE"/>
<path d="M359 296L348.5 302.062L348.5 289.938L359 296Z" fill="#A9B6BE"/>
<path d="M351 296L313.486 296" stroke="#A9B6BE" stroke-width="4"/>
<path d="M355 77L344.5 70.9378L344.5 83.0622L355 77Z" fill="#A9B6BE"/>
<rect x="229" y="228" width="49" height="28" fill="white" fill-opacity="0.7"/>
<path d="M241.955 239H242.963L240.308 232.817H239.3L236.645 239H237.653L238.193 237.74H241.415L241.955 239ZM238.544 236.921L239.804 233.987L241.064 236.921H238.544ZM247.381 234.347V235.094C247.03 234.572 246.436 234.239 245.734 234.239C244.51 234.239 243.619 235.148 243.619 236.444C243.619 237.74 244.51 238.658 245.734 238.658C246.436 238.658 247.012 238.343 247.381 237.812V238.487C247.381 239.297 246.778 239.774 245.779 239.774C245.221 239.774 244.663 239.585 244.321 239.261L243.97 239.927C244.411 240.287 245.131 240.548 245.914 240.548C247.291 240.548 248.272 239.702 248.272 238.505V234.347H247.381ZM245.959 237.884C245.131 237.884 244.546 237.29 244.546 236.444C244.546 235.607 245.131 235.013 245.959 235.013C246.787 235.013 247.381 235.607 247.381 236.444C247.381 237.29 246.787 237.884 245.959 237.884ZM251.554 234.239C251.041 234.239 250.456 234.374 249.79 234.707L250.114 235.364C250.519 235.157 250.969 234.977 251.428 234.977C252.355 234.977 252.625 235.598 252.625 236.183V236.327C252.175 236.174 251.68 236.075 251.221 236.075C250.195 236.075 249.358 236.696 249.358 237.623C249.358 238.532 250.087 239.108 251.077 239.108C251.644 239.108 252.283 238.847 252.625 238.361V239H253.498V236.183C253.498 235.031 252.805 234.239 251.554 234.239ZM251.248 238.406C250.663 238.406 250.213 238.1 250.213 237.596C250.213 237.092 250.735 236.741 251.356 236.741C251.815 236.741 252.247 236.804 252.625 236.921V237.542C252.472 238.118 251.824 238.406 251.248 238.406ZM255.227 233.573C255.515 233.573 255.758 233.321 255.758 233.033C255.758 232.754 255.515 232.502 255.227 232.502C254.921 232.502 254.687 232.754 254.687 233.033C254.687 233.321 254.921 233.573 255.227 233.573ZM254.777 239H255.668V234.347H254.777V239ZM259.324 234.239C258.694 234.239 258.127 234.563 257.848 235.022V234.347H256.957V239H257.848V235.985C257.92 235.436 258.478 235.013 259.126 235.013C259.756 235.013 260.197 235.499 260.197 236.192V239H261.07V236.039C261.07 234.986 260.35 234.239 259.324 234.239ZM264.028 239.108C265.045 239.108 265.792 238.55 265.792 237.668C265.792 236.741 264.973 236.489 264.208 236.264C263.425 236.021 263.137 235.913 263.137 235.553C263.137 235.202 263.497 235.004 263.956 235.004C264.361 235.004 264.829 235.157 265.279 235.436L265.675 234.779C265.171 234.446 264.559 234.239 263.956 234.239C262.966 234.239 262.255 234.797 262.264 235.652C262.264 236.408 262.795 236.714 263.866 237.011C264.442 237.173 264.919 237.308 264.919 237.74C264.919 238.1 264.559 238.343 264.037 238.343C263.488 238.343 262.957 238.136 262.462 237.776L262.039 238.415C262.597 238.865 263.344 239.108 264.028 239.108ZM269.005 238.163C268.906 238.262 268.726 238.334 268.528 238.334C268.267 238.334 268.051 238.1 268.051 237.776V235.103H269.149V234.347H268.051V233.069H267.178V234.347H266.476V235.103H267.178V237.839C267.178 238.586 267.682 239.108 268.402 239.108C268.735 239.108 269.077 238.982 269.329 238.775L269.005 238.163ZM249.25 245.833C249.25 244.654 248.26 243.817 246.955 243.817H244.354V250H245.263V247.849H246.685L248.197 250H249.241L247.666 247.759C248.602 247.516 249.25 246.787 249.25 245.833ZM245.263 244.663H246.829C247.72 244.663 248.323 245.104 248.323 245.833C248.323 246.562 247.72 247.003 246.829 247.003H245.263V244.663ZM252.213 245.239C251.7 245.239 251.115 245.374 250.449 245.707L250.773 246.364C251.178 246.157 251.628 245.977 252.087 245.977C253.014 245.977 253.284 246.598 253.284 247.183V247.327C252.834 247.174 252.339 247.075 251.88 247.075C250.854 247.075 250.017 247.696 250.017 248.623C250.017 249.532 250.746 250.108 251.736 250.108C252.303 250.108 252.942 249.847 253.284 249.361V250H254.157V247.183C254.157 246.031 253.464 245.239 252.213 245.239ZM251.907 249.406C251.322 249.406 250.872 249.1 250.872 248.596C250.872 248.092 251.394 247.741 252.015 247.741C252.474 247.741 252.906 247.804 253.284 247.921V248.542C253.131 249.118 252.483 249.406 251.907 249.406ZM256.624 250H257.443L258.568 246.544L259.684 250H260.503L262.069 245.347H261.16L260.098 248.812L258.946 245.347H258.19L257.038 248.812L255.967 245.347H255.058L256.624 250Z" fill="black"/>
<rect x="286" y="228" width="49" height="16" fill="white" fill-opacity="0.7"/>
<path d="M292.949 237.714H293.858V233.025L297.413 237.714H298.322V231.531H297.413V236.22L293.858 231.531H292.949V237.714ZM301.89 237.03C301.089 237.03 300.522 236.472 300.405 235.698H304.068C304.068 234.033 303.249 232.953 301.827 232.953C300.54 232.953 299.505 233.979 299.505 235.374C299.505 236.805 300.603 237.822 301.899 237.822C302.556 237.822 303.366 237.543 303.78 237.102L303.222 236.526C302.943 236.814 302.376 237.03 301.89 237.03ZM301.863 233.745C302.664 233.745 303.105 234.267 303.204 234.987H300.414C300.558 234.231 301.143 233.745 301.863 233.745ZM306.052 237.714H306.871L307.996 234.258L309.112 237.714H309.931L311.497 233.061H310.588L309.526 236.526L308.374 233.061H307.618L306.466 236.526L305.395 233.061H304.486L306.052 237.714ZM319.867 231.531L317.716 236.544L315.565 231.531H314.557L317.212 237.714H318.22L320.875 231.531H319.867ZM321.891 237.714H322.8V233.313L324.969 237.354L327.138 233.313V237.714H328.047V231.531H327.138L324.969 235.572L322.8 231.531H321.891V237.714Z" fill="black"/>
<rect x="390" y="228" width="52" height="29" fill="white" fill-opacity="0.7"/>
<path d="M396.166 239.107H397.075V236.956H398.767C400.072 236.956 401.062 236.119 401.062 234.94C401.062 233.761 400.072 232.924 398.767 232.924H396.166V239.107ZM397.075 236.11V233.77H398.641C399.532 233.77 400.135 234.211 400.135 234.94C400.135 235.669 399.532 236.11 398.641 236.11H397.075ZM401.983 239.107H402.865V232.816H401.983V239.107ZM406.116 234.346C405.603 234.346 405.018 234.481 404.352 234.814L404.676 235.471C405.081 235.264 405.531 235.084 405.99 235.084C406.917 235.084 407.187 235.705 407.187 236.29V236.434C406.737 236.281 406.242 236.182 405.783 236.182C404.757 236.182 403.92 236.803 403.92 237.73C403.92 238.639 404.649 239.215 405.639 239.215C406.206 239.215 406.845 238.954 407.187 238.468V239.107H408.06V236.29C408.06 235.138 407.367 234.346 406.116 234.346ZM405.81 238.513C405.225 238.513 404.775 238.207 404.775 237.703C404.775 237.199 405.297 236.848 405.918 236.848C406.377 236.848 406.809 236.911 407.187 237.028V237.649C407.034 238.225 406.386 238.513 405.81 238.513ZM411.716 234.346C411.086 234.346 410.519 234.67 410.24 235.129V234.454H409.349V239.107H410.24V236.092C410.312 235.543 410.87 235.12 411.518 235.12C412.148 235.12 412.589 235.606 412.589 236.299V239.107H413.462V236.146C413.462 235.093 412.742 234.346 411.716 234.346ZM417.103 234.346C416.473 234.346 415.906 234.67 415.627 235.129V234.454H414.736V239.107H415.627V236.092C415.699 235.543 416.257 235.12 416.905 235.12C417.535 235.12 417.976 235.606 417.976 236.299V239.107H418.849V236.146C418.849 235.093 418.129 234.346 417.103 234.346ZM420.565 233.68C420.853 233.68 421.096 233.428 421.096 233.14C421.096 232.861 420.853 232.609 420.565 232.609C420.259 232.609 420.025 232.861 420.025 233.14C420.025 233.428 420.259 233.68 420.565 233.68ZM420.115 239.107H421.006V234.454H420.115V239.107ZM424.662 234.346C424.032 234.346 423.465 234.67 423.186 235.129V234.454H422.295V239.107H423.186V236.092C423.258 235.543 423.816 235.12 424.464 235.12C425.094 235.12 425.535 235.606 425.535 236.299V239.107H426.408V236.146C426.408 235.093 425.688 234.346 424.662 234.346ZM431.22 234.454V235.201C430.869 234.679 430.275 234.346 429.573 234.346C428.349 234.346 427.458 235.255 427.458 236.551C427.458 237.847 428.349 238.765 429.573 238.765C430.275 238.765 430.851 238.45 431.22 237.919V238.594C431.22 239.404 430.617 239.881 429.618 239.881C429.06 239.881 428.502 239.692 428.16 239.368L427.809 240.034C428.25 240.394 428.97 240.655 429.753 240.655C431.13 240.655 432.111 239.809 432.111 238.612V234.454H431.22ZM429.798 237.991C428.97 237.991 428.385 237.397 428.385 236.551C428.385 235.714 428.97 235.12 429.798 235.12C430.626 235.12 431.22 235.714 431.22 236.551C431.22 237.397 430.626 237.991 429.798 237.991ZM400.642 245.346C399.922 245.346 399.346 245.688 398.986 246.255V245.454H398.104V251.655H398.986V249.297C399.346 249.873 399.922 250.215 400.642 250.215C401.866 250.215 402.784 249.207 402.784 247.776C402.784 246.354 401.866 245.346 400.642 245.346ZM400.426 249.441C399.589 249.441 398.986 248.748 398.986 247.776C398.986 246.804 399.589 246.12 400.426 246.12C401.281 246.12 401.884 246.804 401.884 247.776C401.884 248.748 401.281 249.441 400.426 249.441ZM407.064 245.454V248.469C406.992 249.018 406.434 249.441 405.786 249.441C405.156 249.441 404.715 248.955 404.715 248.262V245.454H403.842V248.415C403.842 249.468 404.562 250.215 405.588 250.215C406.218 250.215 406.785 249.891 407.064 249.432V250.107H407.955V245.454H407.064ZM410.183 246.345V245.454H409.292V250.107H410.183V247.461C410.264 246.651 410.948 246.12 411.911 246.12V245.346C411.11 245.346 410.48 245.733 410.183 246.345ZM415.364 245.346C414.644 245.346 414.068 245.688 413.708 246.255V245.454H412.826V251.655H413.708V249.297C414.068 249.873 414.644 250.215 415.364 250.215C416.588 250.215 417.506 249.207 417.506 247.776C417.506 246.354 416.588 245.346 415.364 245.346ZM415.148 249.441C414.311 249.441 413.708 248.748 413.708 247.776C413.708 246.804 414.311 246.12 415.148 246.12C416.003 246.12 416.606 246.804 416.606 247.776C416.606 248.748 416.003 249.441 415.148 249.441ZM420.786 250.215C422.109 250.215 423.225 249.099 423.225 247.776C423.225 246.453 422.109 245.346 420.786 245.346C419.454 245.346 418.329 246.453 418.329 247.776C418.329 249.099 419.454 250.215 420.786 250.215ZM420.786 249.441C419.931 249.441 419.22 248.685 419.22 247.776C419.22 246.876 419.931 246.12 420.786 246.12C421.623 246.12 422.334 246.876 422.334 247.776C422.334 248.685 421.623 249.441 420.786 249.441ZM425.951 250.215C426.968 250.215 427.715 249.657 427.715 248.775C427.715 247.848 426.896 247.596 426.131 247.371C425.348 247.128 425.06 247.02 425.06 246.66C425.06 246.309 425.42 246.111 425.879 246.111C426.284 246.111 426.752 246.264 427.202 246.543L427.598 245.886C427.094 245.553 426.482 245.346 425.879 245.346C424.889 245.346 424.178 245.904 424.187 246.759C424.187 247.515 424.718 247.821 425.789 248.118C426.365 248.28 426.842 248.415 426.842 248.847C426.842 249.207 426.482 249.45 425.96 249.45C425.411 249.45 424.88 249.243 424.385 248.883L423.962 249.522C424.52 249.972 425.267 250.215 425.951 250.215ZM430.883 249.423C430.082 249.423 429.515 248.865 429.398 248.091H433.061C433.061 246.426 432.242 245.346 430.82 245.346C429.533 245.346 428.498 246.372 428.498 247.767C428.498 249.198 429.596 250.215 430.892 250.215C431.549 250.215 432.359 249.936 432.773 249.495L432.215 248.919C431.936 249.207 431.369 249.423 430.883 249.423ZM430.856 246.138C431.657 246.138 432.098 246.66 432.197 247.38H429.407C429.551 246.624 430.136 246.138 430.856 246.138Z" fill="black"/>
<path d="M468 183L479.561 190.794L479.561 175.206L468 183Z" fill="#A9B6BE"/>
<line x1="551" y1="182" x2="477.486" y2="182" stroke="#A9B6BE" stroke-width="4"/>
<path fill-rule="evenodd" clip-rule="evenodd" d="M194.414 297L183.914 303.062V299L150.5 299V303.062L140 297L150.5 290.938V295L183.914 295V290.938L194.414 297Z" fill="#EC9191"/>
<g filter="url(#filter0_d)">
<rect x="523" y="167" width="110" height="36" rx="3" fill="#F2F2F2"/>
<rect x="523.5" y="167.5" width="109" height="35" rx="2.5" stroke="#E0DFDF"/>
</g>
<path d="M565.882 175.884V174.756H559.822V183H561.046V179.412H565.414V178.284H561.046V175.884H565.882ZM571.464 176.796V180.816C571.368 181.548 570.624 182.112 569.76 182.112C568.92 182.112 568.332 181.464 568.332 180.54V176.796H567.168V180.744C567.168 182.148 568.128 183.144 569.496 183.144C570.336 183.144 571.092 182.712 571.464 182.1V183H572.652V176.796H571.464ZM577.28 181.884C577.148 182.016 576.908 182.112 576.644 182.112C576.296 182.112 576.008 181.8 576.008 181.368V177.804H577.472V176.796H576.008V175.092H574.844V176.796H573.908V177.804H574.844V181.452C574.844 182.448 575.516 183.144 576.476 183.144C576.92 183.144 577.376 182.976 577.712 182.7L577.28 181.884ZM583.195 176.796V180.816C583.099 181.548 582.355 182.112 581.491 182.112C580.651 182.112 580.063 181.464 580.063 180.54V176.796H578.899V180.744C578.899 182.148 579.859 183.144 581.227 183.144C582.067 183.144 582.823 182.712 583.195 182.1V183H584.383V176.796H583.195ZM587.354 177.984V176.796H586.166V183H587.354V179.472C587.462 178.392 588.374 177.684 589.658 177.684V176.652C588.59 176.652 587.75 177.168 587.354 177.984ZM593.661 182.088C592.593 182.088 591.837 181.344 591.681 180.312H596.565C596.565 178.092 595.473 176.652 593.577 176.652C591.861 176.652 590.481 178.02 590.481 179.88C590.481 181.788 591.945 183.144 593.673 183.144C594.549 183.144 595.629 182.772 596.181 182.184L595.437 181.416C595.065 181.8 594.309 182.088 593.661 182.088ZM593.625 177.708C594.693 177.708 595.281 178.404 595.413 179.364H591.693C591.885 178.356 592.665 177.708 593.625 177.708ZM557.488 195.7L558.008 195.15C556.928 194.06 556.368 192.92 556.368 191.35C556.368 189.77 556.928 188.64 558.008 187.54L557.488 187C556.128 188.09 555.348 189.6 555.348 191.35C555.348 193.09 556.128 194.61 557.488 195.7ZM559.18 194H560.19V191.61H562.07C563.52 191.61 564.62 190.68 564.62 189.37C564.62 188.06 563.52 187.13 562.07 187.13H559.18V194ZM560.19 190.67V188.07H561.93C562.92 188.07 563.59 188.56 563.59 189.37C563.59 190.18 562.92 190.67 561.93 190.67H560.19ZM566.684 189.82V188.83H565.694V194H566.684V191.06C566.774 190.16 567.534 189.57 568.604 189.57V188.71C567.714 188.71 567.014 189.14 566.684 189.82ZM571.863 194.12C573.333 194.12 574.573 192.88 574.573 191.41C574.573 189.94 573.333 188.71 571.863 188.71C570.383 188.71 569.133 189.94 569.133 191.41C569.133 192.88 570.383 194.12 571.863 194.12ZM571.863 193.26C570.913 193.26 570.123 192.42 570.123 191.41C570.123 190.41 570.913 189.57 571.863 189.57C572.793 189.57 573.583 190.41 573.583 191.41C573.583 192.42 572.793 193.26 571.863 193.26ZM576.222 187.97C576.542 187.97 576.812 187.69 576.812 187.37C576.812 187.06 576.542 186.78 576.222 186.78C575.882 186.78 575.622 187.06 575.622 187.37C575.622 187.69 575.882 187.97 576.222 187.97ZM575.332 195.78C576.142 195.78 576.712 195.19 576.712 194.36V188.83H575.722V194.31C575.722 194.67 575.502 194.93 575.182 194.93C574.982 194.93 574.732 194.89 574.582 194.83L574.452 195.6C574.662 195.7 575.022 195.78 575.332 195.78ZM580.514 193.24C579.624 193.24 578.994 192.62 578.864 191.76H582.934C582.934 189.91 582.024 188.71 580.444 188.71C579.014 188.71 577.864 189.85 577.864 191.4C577.864 192.99 579.084 194.12 580.524 194.12C581.254 194.12 582.154 193.81 582.614 193.32L581.994 192.68C581.684 193 581.054 193.24 580.514 193.24ZM580.484 189.59C581.374 189.59 581.864 190.17 581.974 190.97H578.874C579.034 190.13 579.684 189.59 580.484 189.59ZM586.521 194.12C587.291 194.12 587.961 193.8 588.461 193.29L587.791 192.68C587.471 193.04 587.011 193.26 586.531 193.26C585.581 193.26 584.801 192.42 584.801 191.41C584.801 190.41 585.581 189.57 586.521 189.57C587.001 189.57 587.451 189.78 587.761 190.13L588.431 189.51C587.941 189.02 587.271 188.71 586.531 188.71C585.051 188.71 583.801 189.94 583.801 191.41C583.801 192.88 585.051 194.12 586.521 194.12ZM591.941 193.07C591.831 193.18 591.631 193.26 591.411 193.26C591.121 193.26 590.881 193 590.881 192.64V189.67H592.101V188.83H590.881V187.41H589.911V188.83H589.131V189.67H589.911V192.71C589.911 193.54 590.471 194.12 591.271 194.12C591.641 194.12 592.021 193.98 592.301 193.75L591.941 193.07ZM595.18 194.12C596.31 194.12 597.14 193.5 597.14 192.52C597.14 191.49 596.23 191.21 595.38 190.96C594.51 190.69 594.19 190.57 594.19 190.17C594.19 189.78 594.59 189.56 595.1 189.56C595.55 189.56 596.07 189.73 596.57 190.04L597.01 189.31C596.45 188.94 595.77 188.71 595.1 188.71C594 188.71 593.21 189.33 593.22 190.28C593.22 191.12 593.81 191.46 595 191.79C595.64 191.97 596.17 192.12 596.17 192.6C596.17 193 595.77 193.27 595.19 193.27C594.58 193.27 593.99 193.04 593.44 192.64L592.97 193.35C593.59 193.85 594.42 194.12 595.18 194.12ZM598.51 195.7C599.87 194.61 600.65 193.09 600.65 191.35C600.65 189.6 599.87 188.09 598.51 187L597.99 187.54C599.06 188.64 599.63 189.77 599.63 191.35C599.63 192.92 599.06 194.06 597.99 195.15L598.51 195.7Z" fill="#313131"/>
<g filter="url(#filter1_d)">
<rect x="194" y="280" width="110" height="36" rx="3" fill="#F2F2F2"/>
<rect x="194.5" y="280.5" width="109" height="35" rx="2.5" stroke="#E0DFDF"/>
</g>
<path d="M228.413 302.144C229.589 302.144 230.669 301.64 231.449 300.848L230.597 300.032C230.045 300.632 229.265 301.028 228.413 301.028C226.769 301.028 225.377 299.588 225.377 297.872C225.377 296.168 226.769 294.728 228.413 294.728C229.265 294.728 230.045 295.124 230.597 295.724L231.449 294.908C230.669 294.104 229.589 293.612 228.413 293.612C226.097 293.612 224.129 295.556 224.129 297.872C224.129 300.188 226.097 302.144 228.413 302.144ZM235.236 295.652C234.552 295.652 233.772 295.832 232.884 296.276L233.316 297.152C233.856 296.876 234.456 296.636 235.068 296.636C236.304 296.636 236.664 297.464 236.664 298.244V298.436C236.064 298.232 235.404 298.1 234.792 298.1C233.424 298.1 232.308 298.928 232.308 300.164C232.308 301.376 233.28 302.144 234.6 302.144C235.356 302.144 236.208 301.796 236.664 301.148V302H237.828V298.244C237.828 296.708 236.904 295.652 235.236 295.652ZM234.828 301.208C234.048 301.208 233.448 300.8 233.448 300.128C233.448 299.456 234.144 298.988 234.972 298.988C235.584 298.988 236.16 299.072 236.664 299.228V300.056C236.46 300.824 235.596 301.208 234.828 301.208ZM242.99 295.652C242.03 295.652 241.262 296.108 240.782 296.864V295.796H239.606V304.064H240.782V300.92C241.262 301.688 242.03 302.144 242.99 302.144C244.622 302.144 245.846 300.8 245.846 298.892C245.846 296.996 244.622 295.652 242.99 295.652ZM242.702 301.112C241.586 301.112 240.782 300.188 240.782 298.892C240.782 297.596 241.586 296.684 242.702 296.684C243.842 296.684 244.646 297.596 244.646 298.892C244.646 300.188 243.842 301.112 242.702 301.112ZM249.884 295.652C249.2 295.652 248.42 295.832 247.532 296.276L247.964 297.152C248.504 296.876 249.104 296.636 249.716 296.636C250.952 296.636 251.312 297.464 251.312 298.244V298.436C250.712 298.232 250.052 298.1 249.44 298.1C248.072 298.1 246.956 298.928 246.956 300.164C246.956 301.376 247.928 302.144 249.248 302.144C250.004 302.144 250.856 301.796 251.312 301.148V302H252.476V298.244C252.476 296.708 251.552 295.652 249.884 295.652ZM249.476 301.208C248.696 301.208 248.096 300.8 248.096 300.128C248.096 299.456 248.792 298.988 249.62 298.988C250.232 298.988 250.808 299.072 251.312 299.228V300.056C251.108 300.824 250.244 301.208 249.476 301.208ZM257.122 302.144C258.046 302.144 258.85 301.76 259.45 301.148L258.646 300.416C258.262 300.848 257.71 301.112 257.134 301.112C255.994 301.112 255.058 300.104 255.058 298.892C255.058 297.692 255.994 296.684 257.122 296.684C257.698 296.684 258.238 296.936 258.61 297.356L259.414 296.612C258.826 296.024 258.022 295.652 257.134 295.652C255.358 295.652 253.858 297.128 253.858 298.892C253.858 300.656 255.358 302.144 257.122 302.144ZM261.31 294.764C261.694 294.764 262.018 294.428 262.018 294.044C262.018 293.672 261.694 293.336 261.31 293.336C260.902 293.336 260.59 293.672 260.59 294.044C260.59 294.428 260.902 294.764 261.31 294.764ZM260.71 302H261.898V295.796H260.71V302ZM266.52 300.884C266.388 301.016 266.148 301.112 265.884 301.112C265.536 301.112 265.248 300.8 265.248 300.368V296.804H266.712V295.796H265.248V294.092H264.084V295.796H263.148V296.804H264.084V300.452C264.084 301.448 264.756 302.144 265.716 302.144C266.16 302.144 266.616 301.976 266.952 301.7L266.52 300.884ZM269.255 304.16C270.143 304.148 270.803 303.68 271.247 302.564L273.983 295.796H272.747L270.863 300.692L268.871 295.796H267.599L270.263 302.036L269.951 302.696C269.747 303.056 269.483 303.176 269.099 303.176C268.859 303.176 268.583 303.116 268.343 302.984L268.079 303.896C268.403 304.064 268.835 304.16 269.255 304.16Z" fill="#313131"/>
<path d="M358 394L347.5 400.062L347.5 387.938L358 394Z" fill="#A9B6BE"/>
<g filter="url(#filter2_d)">
<rect x="194" y="373" width="110" height="36" rx="3" fill="#F2F2F2"/>
<rect x="194.5" y="373.5" width="109" height="35" rx="2.5" stroke="#E0DFDF"/>
</g>
<path d="M214.415 395.144C215.591 395.144 216.671 394.64 217.451 393.848L216.599 393.032C216.047 393.632 215.267 394.028 214.415 394.028C212.771 394.028 211.379 392.588 211.379 390.872C211.379 389.168 212.771 387.728 214.415 387.728C215.267 387.728 216.047 388.124 216.599 388.724L217.451 387.908C216.671 387.104 215.591 386.612 214.415 386.612C212.099 386.612 210.131 388.556 210.131 390.872C210.131 393.188 212.099 395.144 214.415 395.144ZM221.574 395.144C223.338 395.144 224.826 393.656 224.826 391.892C224.826 390.128 223.338 388.652 221.574 388.652C219.798 388.652 218.298 390.128 218.298 391.892C218.298 393.656 219.798 395.144 221.574 395.144ZM221.574 394.112C220.434 394.112 219.486 393.104 219.486 391.892C219.486 390.692 220.434 389.684 221.574 389.684C222.69 389.684 223.638 390.692 223.638 391.892C223.638 393.104 222.69 394.112 221.574 394.112ZM229.372 388.652C228.532 388.652 227.776 389.084 227.404 389.696V388.796H226.216V395H227.404V390.98C227.5 390.248 228.244 389.684 229.108 389.684C229.948 389.684 230.536 390.332 230.536 391.256V395H231.7V391.052C231.7 389.648 230.74 388.652 229.372 388.652ZM235.031 388.112C235.031 387.68 235.319 387.368 235.667 387.368C235.931 387.368 236.171 387.464 236.303 387.596L236.735 386.804C236.399 386.528 235.943 386.36 235.499 386.36C234.539 386.36 233.867 387.056 233.867 388.052V388.796H232.931V389.804H233.867V395H235.031V389.804H236.495V388.796H235.031V388.112ZM238.311 387.764C238.695 387.764 239.019 387.428 239.019 387.044C239.019 386.672 238.695 386.336 238.311 386.336C237.903 386.336 237.591 386.672 237.591 387.044C237.591 387.428 237.903 387.764 238.311 387.764ZM237.711 395H238.899V388.796H237.711V395ZM245.334 388.796V389.792C244.866 389.096 244.074 388.652 243.138 388.652C241.506 388.652 240.318 389.864 240.318 391.592C240.318 393.32 241.506 394.544 243.138 394.544C244.074 394.544 244.842 394.124 245.334 393.416V394.316C245.334 395.396 244.53 396.032 243.198 396.032C242.454 396.032 241.71 395.78 241.254 395.348L240.786 396.236C241.374 396.716 242.334 397.064 243.378 397.064C245.214 397.064 246.522 395.936 246.522 394.34V388.796H245.334ZM243.438 393.512C242.334 393.512 241.554 392.72 241.554 391.592C241.554 390.476 242.334 389.684 243.438 389.684C244.542 389.684 245.334 390.476 245.334 391.592C245.334 392.72 244.542 393.512 243.438 393.512ZM252.566 388.796V392.816C252.47 393.548 251.726 394.112 250.862 394.112C250.022 394.112 249.434 393.464 249.434 392.54V388.796H248.27V392.744C248.27 394.148 249.23 395.144 250.598 395.144C251.438 395.144 252.194 394.712 252.566 394.1V395H253.754V388.796H252.566ZM256.725 389.984V388.796H255.537V395H256.725V391.472C256.833 390.392 257.745 389.684 259.029 389.684V388.652C257.961 388.652 257.121 389.168 256.725 389.984ZM262.792 388.652C262.108 388.652 261.328 388.832 260.44 389.276L260.872 390.152C261.412 389.876 262.012 389.636 262.624 389.636C263.86 389.636 264.22 390.464 264.22 391.244V391.436C263.62 391.232 262.96 391.1 262.348 391.1C260.98 391.1 259.864 391.928 259.864 393.164C259.864 394.376 260.836 395.144 262.156 395.144C262.912 395.144 263.764 394.796 264.22 394.148V395H265.384V391.244C265.384 389.708 264.46 388.652 262.792 388.652ZM262.384 394.208C261.604 394.208 261.004 393.8 261.004 393.128C261.004 392.456 261.7 391.988 262.528 391.988C263.14 391.988 263.716 392.072 264.22 392.228V393.056C264.016 393.824 263.152 394.208 262.384 394.208ZM270.006 393.884C269.874 394.016 269.634 394.112 269.37 394.112C269.022 394.112 268.734 393.8 268.734 393.368V389.804H270.198V388.796H268.734V387.092H267.57V388.796H266.634V389.804H267.57V393.452C267.57 394.448 268.242 395.144 269.202 395.144C269.646 395.144 270.102 394.976 270.438 394.7L270.006 393.884ZM272.237 387.764C272.621 387.764 272.945 387.428 272.945 387.044C272.945 386.672 272.621 386.336 272.237 386.336C271.829 386.336 271.517 386.672 271.517 387.044C271.517 387.428 271.829 387.764 272.237 387.764ZM271.637 395H272.825V388.796H271.637V395ZM277.484 395.144C279.248 395.144 280.736 393.656 280.736 391.892C280.736 390.128 279.248 388.652 277.484 388.652C275.708 388.652 274.208 390.128 274.208 391.892C274.208 393.656 275.708 395.144 277.484 395.144ZM277.484 394.112C276.344 394.112 275.396 393.104 275.396 391.892C275.396 390.692 276.344 389.684 277.484 389.684C278.6 389.684 279.548 390.692 279.548 391.892C279.548 393.104 278.6 394.112 277.484 394.112ZM285.282 388.652C284.442 388.652 283.686 389.084 283.314 389.696V388.796H282.126V395H283.314V390.98C283.41 390.248 284.154 389.684 285.018 389.684C285.858 389.684 286.446 390.332 286.446 391.256V395H287.61V391.052C287.61 389.648 286.65 388.652 285.282 388.652Z" fill="#313131"/>
<g filter="url(#filter3_d)">
<rect x="194" y="434" width="110" height="36" rx="3" fill="#F2F2F2"/>
<rect x="194.5" y="434.5" width="109" height="35" rx="2.5" stroke="#E0DFDF"/>
</g>
<path d="M222.396 456H223.608V447.756H222.396V456ZM228.54 449.652C227.7 449.652 226.944 450.084 226.572 450.696V449.796H225.384V456H226.572V451.98C226.668 451.248 227.412 450.684 228.276 450.684C229.116 450.684 229.704 451.332 229.704 452.256V456H230.868V452.052C230.868 450.648 229.908 449.652 228.54 449.652ZM234.631 456H235.747L238.363 449.796H237.079L235.183 454.62L233.251 449.796H231.967L234.631 456ZM241.927 455.088C240.859 455.088 240.103 454.344 239.947 453.312H244.831C244.831 451.092 243.739 449.652 241.843 449.652C240.127 449.652 238.747 451.02 238.747 452.88C238.747 454.788 240.211 456.144 241.939 456.144C242.815 456.144 243.895 455.772 244.447 455.184L243.703 454.416C243.331 454.8 242.575 455.088 241.927 455.088ZM241.891 450.708C242.959 450.708 243.547 451.404 243.679 452.364H239.959C240.151 451.356 240.931 450.708 241.891 450.708ZM249.364 449.652C248.524 449.652 247.768 450.084 247.396 450.696V449.796H246.208V456H247.396V451.98C247.492 451.248 248.236 450.684 249.1 450.684C249.94 450.684 250.528 451.332 250.528 452.256V456H251.692V452.052C251.692 450.648 250.732 449.652 249.364 449.652ZM256.295 454.884C256.163 455.016 255.923 455.112 255.659 455.112C255.311 455.112 255.023 454.8 255.023 454.368V450.804H256.487V449.796H255.023V448.092H253.859V449.796H252.923V450.804H253.859V454.452C253.859 455.448 254.531 456.144 255.491 456.144C255.935 456.144 256.391 455.976 256.727 455.7L256.295 454.884ZM260.878 456.144C262.642 456.144 264.13 454.656 264.13 452.892C264.13 451.128 262.642 449.652 260.878 449.652C259.102 449.652 257.602 451.128 257.602 452.892C257.602 454.656 259.102 456.144 260.878 456.144ZM260.878 455.112C259.738 455.112 258.79 454.104 258.79 452.892C258.79 451.692 259.738 450.684 260.878 450.684C261.994 450.684 262.942 451.692 262.942 452.892C262.942 454.104 261.994 455.112 260.878 455.112ZM266.768 450.984V449.796H265.58V456H266.768V452.472C266.876 451.392 267.788 450.684 269.072 450.684V449.652C268.004 449.652 267.164 450.168 266.768 450.984ZM271.323 458.16C272.211 458.148 272.871 457.68 273.315 456.564L276.051 449.796H274.815L272.931 454.692L270.939 449.796H269.667L272.331 456.036L272.019 456.696C271.815 457.056 271.551 457.176 271.167 457.176C270.927 457.176 270.651 457.116 270.411 456.984L270.147 457.896C270.471 458.064 270.903 458.16 271.323 458.16Z" fill="#313131"/>
<g filter="url(#filter4_d)">
<rect x="358" y="280" width="110" height="36" rx="3" fill="#F2F2F2"/>
<rect x="358.5" y="280.5" width="109" height="35" rx="2.5" stroke="#E0DFDF"/>
</g>
<path d="M404.7 302.144C405.876 302.144 406.956 301.64 407.736 300.848L406.884 300.032C406.332 300.632 405.552 301.028 404.7 301.028C403.056 301.028 401.664 299.588 401.664 297.872C401.664 296.168 403.056 294.728 404.7 294.728C405.552 294.728 406.332 295.124 406.884 295.724L407.736 294.908C406.956 294.104 405.876 293.612 404.7 293.612C402.384 293.612 400.416 295.556 400.416 297.872C400.416 300.188 402.384 302.144 404.7 302.144ZM411.859 302.144C413.623 302.144 415.111 300.656 415.111 298.892C415.111 297.128 413.623 295.652 411.859 295.652C410.083 295.652 408.583 297.128 408.583 298.892C408.583 300.656 410.083 302.144 411.859 302.144ZM411.859 301.112C410.719 301.112 409.771 300.104 409.771 298.892C409.771 297.692 410.719 296.684 411.859 296.684C412.975 296.684 413.923 297.692 413.923 298.892C413.923 300.104 412.975 301.112 411.859 301.112ZM418.745 302.144C420.101 302.144 421.097 301.4 421.097 300.224C421.097 298.988 420.005 298.652 418.985 298.352C417.941 298.028 417.557 297.884 417.557 297.404C417.557 296.936 418.037 296.672 418.649 296.672C419.189 296.672 419.813 296.876 420.413 297.248L420.941 296.372C420.269 295.928 419.453 295.652 418.649 295.652C417.329 295.652 416.381 296.396 416.393 297.536C416.393 298.544 417.101 298.952 418.529 299.348C419.297 299.564 419.933 299.744 419.933 300.32C419.933 300.8 419.453 301.124 418.757 301.124C418.025 301.124 417.317 300.848 416.657 300.368L416.093 301.22C416.837 301.82 417.833 302.144 418.745 302.144ZM425.381 300.884C425.249 301.016 425.009 301.112 424.745 301.112C424.397 301.112 424.109 300.8 424.109 300.368V296.804H425.573V295.796H424.109V294.092H422.945V295.796H422.009V296.804H422.945V300.452C422.945 301.448 423.617 302.144 424.577 302.144C425.021 302.144 425.477 301.976 425.813 301.7L425.381 300.884Z" fill="#313131"/>
<g filter="url(#filter5_d)">
<rect x="358" y="56" width="110" height="36" rx="3" fill="#F2F2F2"/>
<rect x="358.5" y="56.5" width="109" height="35" rx="2.5" stroke="#E0DFDF"/>
</g>
<path d="M399.375 78H400.587V75.132H402.843C404.583 75.132 405.903 74.016 405.903 72.444C405.903 70.872 404.583 69.756 402.843 69.756H399.375V78ZM400.587 74.004V70.884H402.675C403.863 70.884 404.667 71.472 404.667 72.444C404.667 73.416 403.863 74.004 402.675 74.004H400.587ZM408.38 72.984V71.796H407.192V78H408.38V74.472C408.488 73.392 409.4 72.684 410.684 72.684V71.652C409.616 71.652 408.776 72.168 408.38 72.984ZM412.431 70.764C412.815 70.764 413.139 70.428 413.139 70.044C413.139 69.672 412.815 69.336 412.431 69.336C412.023 69.336 411.711 69.672 411.711 70.044C411.711 70.428 412.023 70.764 412.431 70.764ZM411.831 78H413.019V71.796H411.831V78ZM417.665 78.144C418.589 78.144 419.393 77.76 419.993 77.148L419.189 76.416C418.805 76.848 418.253 77.112 417.677 77.112C416.537 77.112 415.601 76.104 415.601 74.892C415.601 73.692 416.537 72.684 417.665 72.684C418.241 72.684 418.781 72.936 419.153 73.356L419.957 72.612C419.369 72.024 418.565 71.652 417.677 71.652C415.901 71.652 414.401 73.128 414.401 74.892C414.401 76.656 415.901 78.144 417.665 78.144ZM424.108 77.088C423.04 77.088 422.284 76.344 422.128 75.312H427.012C427.012 73.092 425.92 71.652 424.024 71.652C422.308 71.652 420.928 73.02 420.928 74.88C420.928 76.788 422.392 78.144 424.12 78.144C424.996 78.144 426.076 77.772 426.628 77.184L425.884 76.416C425.512 76.8 424.756 77.088 424.108 77.088ZM424.072 72.708C425.14 72.708 425.728 73.404 425.86 74.364H422.14C422.332 73.356 423.112 72.708 424.072 72.708Z" fill="#313131"/>
<g filter="url(#filter6_d)">
<rect x="30" y="281" width="110" height="36" rx="3" fill="#F2F2F2"/>
<rect x="30.5" y="281.5" width="109" height="35" rx="2.5" stroke="#E0DFDF"/>
</g>
<path d="M48.4645 303H49.6765V300.132H51.9325C53.6725 300.132 54.9925 299.016 54.9925 297.444C54.9925 295.872 53.6725 294.756 51.9325 294.756H48.4645V303ZM49.6765 299.004V295.884H51.7645C52.9525 295.884 53.7565 296.472 53.7565 297.444C53.7565 298.416 52.9525 299.004 51.7645 299.004H49.6765ZM59.0655 302.088C57.9975 302.088 57.2415 301.344 57.0855 300.312H61.9695C61.9695 298.092 60.8775 296.652 58.9815 296.652C57.2655 296.652 55.8855 298.02 55.8855 299.88C55.8855 301.788 57.3495 303.144 59.0775 303.144C59.9535 303.144 61.0335 302.772 61.5855 302.184L60.8415 301.416C60.4695 301.8 59.7135 302.088 59.0655 302.088ZM59.0295 297.708C60.0975 297.708 60.6855 298.404 60.8175 299.364H57.0975C57.2895 298.356 58.0695 297.708 59.0295 297.708ZM64.5945 297.984V296.796H63.4065V303H64.5945V299.472C64.7025 298.392 65.6145 297.684 66.8985 297.684V296.652C65.8305 296.652 64.9905 297.168 64.5945 297.984ZM69.6895 296.112C69.6895 295.68 69.9775 295.368 70.3255 295.368C70.5895 295.368 70.8295 295.464 70.9615 295.596L71.3935 294.804C71.0575 294.528 70.6015 294.36 70.1575 294.36C69.1975 294.36 68.5255 295.056 68.5255 296.052V296.796H67.5895V297.804H68.5255V303H69.6895V297.804H71.1535V296.796H69.6895V296.112ZM75.3217 303.144C77.0857 303.144 78.5737 301.656 78.5737 299.892C78.5737 298.128 77.0857 296.652 75.3217 296.652C73.5457 296.652 72.0457 298.128 72.0457 299.892C72.0457 301.656 73.5457 303.144 75.3217 303.144ZM75.3217 302.112C74.1817 302.112 73.2337 301.104 73.2337 299.892C73.2337 298.692 74.1817 297.684 75.3217 297.684C76.4377 297.684 77.3857 298.692 77.3857 299.892C77.3857 301.104 76.4377 302.112 75.3217 302.112ZM81.2117 297.984V296.796H80.0237V303H81.2117V299.472C81.3197 298.392 82.2317 297.684 83.5157 297.684V296.652C82.4477 296.652 81.6077 297.168 81.2117 297.984ZM91.6106 296.652C90.6746 296.652 89.8826 297.132 89.5946 297.9C89.2346 297.132 88.5026 296.652 87.6026 296.652C86.8106 296.652 86.1626 297.048 85.8506 297.66V296.796H84.6626V303H85.8506V299.124C85.8506 298.272 86.4746 297.684 87.3626 297.684C88.1426 297.684 88.6826 298.32 88.6826 299.232V303H89.8466V299.124C89.8466 298.272 90.4706 297.684 91.3586 297.684C92.1386 297.684 92.6786 298.32 92.6786 299.232V303H93.8426V299.052C93.8426 297.648 92.9066 296.652 91.6106 296.652ZM98.1536 296.652C97.4696 296.652 96.6896 296.832 95.8016 297.276L96.2336 298.152C96.7736 297.876 97.3736 297.636 97.9856 297.636C99.2216 297.636 99.5816 298.464 99.5816 299.244V299.436C98.9816 299.232 98.3216 299.1 97.7096 299.1C96.3416 299.1 95.2256 299.928 95.2256 301.164C95.2256 302.376 96.1976 303.144 97.5176 303.144C98.2736 303.144 99.1256 302.796 99.5816 302.148V303H100.746V299.244C100.746 297.708 99.8216 296.652 98.1536 296.652ZM97.7456 302.208C96.9656 302.208 96.3656 301.8 96.3656 301.128C96.3656 300.456 97.0616 299.988 97.8896 299.988C98.5016 299.988 99.0776 300.072 99.5816 300.228V301.056C99.3776 301.824 98.5136 302.208 97.7456 302.208ZM105.62 296.652C104.78 296.652 104.024 297.084 103.652 297.696V296.796H102.464V303H103.652V298.98C103.748 298.248 104.492 297.684 105.356 297.684C106.196 297.684 106.784 298.332 106.784 299.256V303H107.948V299.052C107.948 297.648 106.988 296.652 105.62 296.652ZM112.575 303.144C113.499 303.144 114.303 302.76 114.903 302.148L114.099 301.416C113.715 301.848 113.163 302.112 112.587 302.112C111.447 302.112 110.511 301.104 110.511 299.892C110.511 298.692 111.447 297.684 112.575 297.684C113.151 297.684 113.691 297.936 114.063 298.356L114.867 297.612C114.279 297.024 113.475 296.652 112.587 296.652C110.811 296.652 109.311 298.128 109.311 299.892C109.311 301.656 110.811 303.144 112.575 303.144ZM119.019 302.088C117.951 302.088 117.195 301.344 117.039 300.312H121.923C121.923 298.092 120.831 296.652 118.935 296.652C117.219 296.652 115.839 298.02 115.839 299.88C115.839 301.788 117.303 303.144 119.031 303.144C119.907 303.144 120.987 302.772 121.539 302.184L120.795 301.416C120.423 301.8 119.667 302.088 119.019 302.088ZM118.983 297.708C120.051 297.708 120.639 298.404 120.771 299.364H117.051C117.243 298.356 118.023 297.708 118.983 297.708Z" fill="#313131"/>
<rect x="21" y="276" width="34" height="14" rx="7" fill="#4E4E4E"/>
<path d="M31.9685 285.096C33.3125 285.096 34.1045 284.4 34.1045 283.352C34.1045 282.336 33.3205 281.984 32.1365 281.72C31.2885 281.528 30.9605 281.4 30.9605 281C30.9605 280.672 31.2645 280.408 31.7685 280.408C32.2965 280.408 32.8485 280.624 33.3365 281.016L33.9525 280.168C33.3925 279.688 32.6965 279.408 31.8005 279.408C30.6005 279.408 29.7685 280.104 29.7685 281.12C29.7685 282.184 30.5925 282.512 31.7525 282.776C32.5925 282.968 32.9125 283.088 32.9125 283.48C32.9125 283.824 32.6085 284.096 32.0165 284.096C31.3205 284.096 30.7285 283.824 30.2085 283.376L29.5285 284.184C30.1685 284.776 31.0165 285.096 31.9685 285.096ZM36.895 283.936V279.504H35.711V285H39.631V283.936H36.895ZM45.2237 285H46.5517L44.3117 279.504H42.9917L40.7517 285H42.0717L42.4237 284.136H44.8717L45.2237 285ZM42.8317 283.136L43.6477 281.128L44.4637 283.136H42.8317Z" fill="white"/>
<g filter="url(#filter7_d)">
<rect x="30" y="59" width="110" height="36" rx="3" fill="#F2F2F2"/>
<rect x="30.5" y="59.5" width="109" height="35" rx="2.5" stroke="#E0DFDF"/>
</g>
<path d="M60.7573 81H62.1013L58.5613 72.756H57.2173L53.6773 81H55.0213L55.7413 79.32H60.0373L60.7573 81ZM56.2093 78.228L57.8893 74.316L59.5693 78.228H56.2093ZM65.3402 81H66.4562L69.0722 74.796H67.7882L65.8922 79.62L63.9602 74.796H62.6762L65.3402 81ZM72.349 74.652C71.665 74.652 70.885 74.832 69.997 75.276L70.429 76.152C70.969 75.876 71.569 75.636 72.181 75.636C73.417 75.636 73.777 76.464 73.777 77.244V77.436C73.177 77.232 72.517 77.1 71.905 77.1C70.537 77.1 69.421 77.928 69.421 79.164C69.421 80.376 70.393 81.144 71.713 81.144C72.469 81.144 73.321 80.796 73.777 80.148V81H74.941V77.244C74.941 75.708 74.017 74.652 72.349 74.652ZM71.941 80.208C71.161 80.208 70.561 79.8 70.561 79.128C70.561 78.456 71.257 77.988 72.085 77.988C72.697 77.988 73.273 78.072 73.777 78.228V79.056C73.573 79.824 72.709 80.208 71.941 80.208ZM77.247 73.764C77.631 73.764 77.955 73.428 77.955 73.044C77.955 72.672 77.631 72.336 77.247 72.336C76.839 72.336 76.527 72.672 76.527 73.044C76.527 73.428 76.839 73.764 77.247 73.764ZM76.647 81H77.835V74.796H76.647V81ZM79.5535 81H80.7295V72.612H79.5535V81ZM85.0638 74.652C84.3798 74.652 83.5998 74.832 82.7118 75.276L83.1438 76.152C83.6838 75.876 84.2838 75.636 84.8958 75.636C86.1318 75.636 86.4918 76.464 86.4918 77.244V77.436C85.8918 77.232 85.2318 77.1 84.6198 77.1C83.2518 77.1 82.1358 77.928 82.1358 79.164C82.1358 80.376 83.1078 81.144 84.4278 81.144C85.1838 81.144 86.0358 80.796 86.4918 80.148V81H87.6558V77.244C87.6558 75.708 86.7318 74.652 85.0638 74.652ZM84.6558 80.208C83.8758 80.208 83.2758 79.8 83.2758 79.128C83.2758 78.456 83.9718 77.988 84.7998 77.988C85.4118 77.988 85.9878 78.072 86.4918 78.228V79.056C86.2878 79.824 85.4238 80.208 84.6558 80.208ZM92.8179 74.652C91.8579 74.652 91.0899 75.108 90.6099 75.864V72.612H89.4339V81H90.6099V79.92C91.0899 80.688 91.8579 81.144 92.8179 81.144C94.4499 81.144 95.6739 79.8 95.6739 77.892C95.6739 75.996 94.4499 74.652 92.8179 74.652ZM92.5299 80.112C91.4139 80.112 90.6099 79.188 90.6099 77.892C90.6099 76.596 91.4139 75.684 92.5299 75.684C93.6699 75.684 94.4739 76.596 94.4739 77.892C94.4739 79.188 93.6699 80.112 92.5299 80.112ZM97.6962 73.764C98.0802 73.764 98.4042 73.428 98.4042 73.044C98.4042 72.672 98.0802 72.336 97.6962 72.336C97.2882 72.336 96.9762 72.672 96.9762 73.044C96.9762 73.428 97.2882 73.764 97.6962 73.764ZM97.0962 81H98.2842V74.796H97.0962V81ZM100.003 81H101.179V72.612H100.003V81ZM103.497 73.764C103.881 73.764 104.205 73.428 104.205 73.044C104.205 72.672 103.881 72.336 103.497 72.336C103.089 72.336 102.777 72.672 102.777 73.044C102.777 73.428 103.089 73.764 103.497 73.764ZM102.897 81H104.085V74.796H102.897V81ZM108.708 79.884C108.576 80.016 108.336 80.112 108.072 80.112C107.724 80.112 107.436 79.8 107.436 79.368V75.804H108.9V74.796H107.436V73.092H106.272V74.796H105.336V75.804H106.272V79.452C106.272 80.448 106.944 81.144 107.904 81.144C108.348 81.144 108.804 80.976 109.14 80.7L108.708 79.884ZM111.442 83.16C112.33 83.148 112.99 82.68 113.434 81.564L116.17 74.796H114.934L113.05 79.692L111.058 74.796H109.786L112.45 81.036L112.138 81.696C111.934 82.056 111.67 82.176 111.286 82.176C111.046 82.176 110.77 82.116 110.53 81.984L110.266 82.896C110.59 83.064 111.022 83.16 111.442 83.16Z" fill="#313131"/>
<rect x="21" y="54" width="34" height="14" rx="7" fill="#4E4E4E"/>
<path d="M31.9685 63.096C33.3125 63.096 34.1045 62.4 34.1045 61.352C34.1045 60.336 33.3205 59.984 32.1365 59.72C31.2885 59.528 30.9605 59.4 30.9605 59C30.9605 58.672 31.2645 58.408 31.7685 58.408C32.2965 58.408 32.8485 58.624 33.3365 59.016L33.9525 58.168C33.3925 57.688 32.6965 57.408 31.8005 57.408C30.6005 57.408 29.7685 58.104 29.7685 59.12C29.7685 60.184 30.5925 60.512 31.7525 60.776C32.5925 60.968 32.9125 61.088 32.9125 61.48C32.9125 61.824 32.6085 62.096 32.0165 62.096C31.3205 62.096 30.7285 61.824 30.2085 61.376L29.5285 62.184C30.1685 62.776 31.0165 63.096 31.9685 63.096ZM36.895 61.936V57.504H35.711V63H39.631V61.936H36.895ZM45.2237 63H46.5517L44.3117 57.504H42.9917L40.7517 63H42.0717L42.4237 62.136H44.8717L45.2237 63ZM42.8317 61.136L43.6477 59.128L44.4637 61.136H42.8317Z" fill="white"/>
<g filter="url(#filter8_d)">
<rect x="357" y="373" width="110" height="36" rx="3" fill="#F2F2F2"/>
<rect x="357.5" y="373.5" width="109" height="35" rx="2.5" stroke="#E0DFDF"/>
</g>
<path d="M382.882 395.144C384.058 395.144 385.138 394.64 385.918 393.848L385.066 393.032C384.514 393.632 383.734 394.028 382.882 394.028C381.238 394.028 379.846 392.588 379.846 390.872C379.846 389.168 381.238 387.728 382.882 387.728C383.734 387.728 384.514 388.124 385.066 388.724L385.918 387.908C385.138 387.104 384.058 386.612 382.882 386.612C380.566 386.612 378.598 388.556 378.598 390.872C378.598 393.188 380.566 395.144 382.882 395.144ZM390.04 395.144C391.804 395.144 393.292 393.656 393.292 391.892C393.292 390.128 391.804 388.652 390.04 388.652C388.264 388.652 386.764 390.128 386.764 391.892C386.764 393.656 388.264 395.144 390.04 395.144ZM390.04 394.112C388.9 394.112 387.952 393.104 387.952 391.892C387.952 390.692 388.9 389.684 390.04 389.684C391.156 389.684 392.104 390.692 392.104 391.892C392.104 393.104 391.156 394.112 390.04 394.112ZM401.618 388.652C400.682 388.652 399.89 389.132 399.602 389.9C399.242 389.132 398.51 388.652 397.61 388.652C396.818 388.652 396.17 389.048 395.858 389.66V388.796H394.67V395H395.858V391.124C395.858 390.272 396.482 389.684 397.37 389.684C398.15 389.684 398.69 390.32 398.69 391.232V395H399.854V391.124C399.854 390.272 400.478 389.684 401.366 389.684C402.146 389.684 402.686 390.32 402.686 391.232V395H403.85V391.052C403.85 389.648 402.914 388.652 401.618 388.652ZM409.001 388.652C408.041 388.652 407.273 389.108 406.793 389.864V388.796H405.617V397.064H406.793V393.92C407.273 394.688 408.041 395.144 409.001 395.144C410.633 395.144 411.857 393.8 411.857 391.892C411.857 389.996 410.633 388.652 409.001 388.652ZM408.713 394.112C407.597 394.112 406.793 393.188 406.793 391.892C406.793 390.596 407.597 389.684 408.713 389.684C409.853 389.684 410.657 390.596 410.657 391.892C410.657 393.188 409.853 394.112 408.713 394.112ZM413.292 395H414.468V386.612H413.292V395ZM416.786 387.764C417.17 387.764 417.494 387.428 417.494 387.044C417.494 386.672 417.17 386.336 416.786 386.336C416.378 386.336 416.066 386.672 416.066 387.044C416.066 387.428 416.378 387.764 416.786 387.764ZM416.186 395H417.374V388.796H416.186V395ZM421.697 388.652C421.013 388.652 420.233 388.832 419.345 389.276L419.777 390.152C420.317 389.876 420.917 389.636 421.529 389.636C422.765 389.636 423.125 390.464 423.125 391.244V391.436C422.525 391.232 421.865 391.1 421.253 391.1C419.885 391.1 418.769 391.928 418.769 393.164C418.769 394.376 419.741 395.144 421.061 395.144C421.817 395.144 422.669 394.796 423.125 394.148V395H424.289V391.244C424.289 389.708 423.365 388.652 421.697 388.652ZM421.289 394.208C420.509 394.208 419.909 393.8 419.909 393.128C419.909 392.456 420.605 391.988 421.433 391.988C422.045 391.988 422.621 392.072 423.125 392.228V393.056C422.921 393.824 422.057 394.208 421.289 394.208ZM429.163 388.652C428.323 388.652 427.567 389.084 427.195 389.696V388.796H426.007V395H427.195V390.98C427.291 390.248 428.035 389.684 428.899 389.684C429.739 389.684 430.327 390.332 430.327 391.256V395H431.491V391.052C431.491 389.648 430.531 388.652 429.163 388.652ZM436.118 395.144C437.042 395.144 437.846 394.76 438.446 394.148L437.642 393.416C437.258 393.848 436.706 394.112 436.13 394.112C434.99 394.112 434.054 393.104 434.054 391.892C434.054 390.692 434.99 389.684 436.118 389.684C436.694 389.684 437.234 389.936 437.606 390.356L438.41 389.612C437.822 389.024 437.018 388.652 436.13 388.652C434.354 388.652 432.854 390.128 432.854 391.892C432.854 393.656 434.354 395.144 436.118 395.144ZM442.562 394.088C441.494 394.088 440.738 393.344 440.582 392.312H445.466C445.466 390.092 444.374 388.652 442.478 388.652C440.762 388.652 439.382 390.02 439.382 391.88C439.382 393.788 440.846 395.144 442.574 395.144C443.45 395.144 444.53 394.772 445.082 394.184L444.338 393.416C443.966 393.8 443.21 394.088 442.562 394.088ZM442.526 389.708C443.594 389.708 444.182 390.404 444.314 391.364H440.594C440.786 390.356 441.566 389.708 442.526 389.708Z" fill="#313131"/>
<g filter="url(#filter9_d)">
<rect x="30" y="168" width="110" height="36" rx="3" fill="#F7FEF4"/>
<rect x="30.5" y="168.5" width="109" height="35" rx="2.5" stroke="#76C75D"/>
</g>
<path d="M30 168V167H29V168H30ZM140 168H141V167H140V168ZM140 204V205H141V204H140ZM30 204H29V205H30V204ZM30 169H140V167H30V169ZM139 168V204H141V168H139ZM140 203H30V205H140V203ZM31 204V168H29V204H31Z" fill="white"/>
<path d="M57.8386 190.144C59.0146 190.144 60.0946 189.64 60.8746 188.848L60.0226 188.032C59.4706 188.632 58.6906 189.028 57.8386 189.028C56.1946 189.028 54.8026 187.588 54.8026 185.872C54.8026 184.168 56.1946 182.728 57.8386 182.728C58.6906 182.728 59.4706 183.124 60.0226 183.724L60.8746 182.908C60.0946 182.104 59.0146 181.612 57.8386 181.612C55.5226 181.612 53.5546 183.556 53.5546 185.872C53.5546 188.188 55.5226 190.144 57.8386 190.144ZM64.9975 190.144C66.7615 190.144 68.2495 188.656 68.2495 186.892C68.2495 185.128 66.7615 183.652 64.9975 183.652C63.2215 183.652 61.7215 185.128 61.7215 186.892C61.7215 188.656 63.2215 190.144 64.9975 190.144ZM64.9975 189.112C63.8575 189.112 62.9095 188.104 62.9095 186.892C62.9095 185.692 63.8575 184.684 64.9975 184.684C66.1135 184.684 67.0615 185.692 67.0615 186.892C67.0615 188.104 66.1135 189.112 64.9975 189.112ZM72.7955 183.652C71.9555 183.652 71.1995 184.084 70.8275 184.696V183.796H69.6395V190H70.8275V185.98C70.9235 185.248 71.6675 184.684 72.5315 184.684C73.3715 184.684 73.9595 185.332 73.9595 186.256V190H75.1235V186.052C75.1235 184.648 74.1635 183.652 72.7955 183.652ZM79.7271 188.884C79.5951 189.016 79.3551 189.112 79.0911 189.112C78.7431 189.112 78.4551 188.8 78.4551 188.368V184.804H79.9191V183.796H78.4551V182.092H77.2911V183.796H76.3551V184.804H77.2911V188.452C77.2911 189.448 77.9631 190.144 78.9231 190.144C79.3671 190.144 79.8231 189.976 80.1591 189.7L79.7271 188.884ZM84.214 189.088C83.146 189.088 82.39 188.344 82.234 187.312H87.118C87.118 185.092 86.026 183.652 84.13 183.652C82.414 183.652 81.034 185.02 81.034 186.88C81.034 188.788 82.498 190.144 84.226 190.144C85.102 190.144 86.182 189.772 86.734 189.184L85.99 188.416C85.618 188.8 84.862 189.088 84.214 189.088ZM84.178 184.708C85.246 184.708 85.834 185.404 85.966 186.364H82.246C82.438 185.356 83.218 184.708 84.178 184.708ZM91.651 183.652C90.811 183.652 90.055 184.084 89.683 184.696V183.796H88.495V190H89.683V185.98C89.779 185.248 90.523 184.684 91.387 184.684C92.227 184.684 92.815 185.332 92.815 186.256V190H93.979V186.052C93.979 184.648 93.019 183.652 91.651 183.652ZM98.5825 188.884C98.4505 189.016 98.2105 189.112 97.9465 189.112C97.5985 189.112 97.3105 188.8 97.3105 188.368V184.804H98.7745V183.796H97.3105V182.092H96.1465V183.796H95.2105V184.804H96.1465V188.452C96.1465 189.448 96.8185 190.144 97.7785 190.144C98.2225 190.144 98.6785 189.976 99.0145 189.7L98.5825 188.884ZM100.813 182.764C101.197 182.764 101.521 182.428 101.521 182.044C101.521 181.672 101.197 181.336 100.813 181.336C100.405 181.336 100.093 181.672 100.093 182.044C100.093 182.428 100.405 182.764 100.813 182.764ZM100.213 190H101.401V183.796H100.213V190ZM106.06 190.144C107.824 190.144 109.312 188.656 109.312 186.892C109.312 185.128 107.824 183.652 106.06 183.652C104.284 183.652 102.784 185.128 102.784 186.892C102.784 188.656 104.284 190.144 106.06 190.144ZM106.06 189.112C104.92 189.112 103.972 188.104 103.972 186.892C103.972 185.692 104.92 184.684 106.06 184.684C107.176 184.684 108.124 185.692 108.124 186.892C108.124 188.104 107.176 189.112 106.06 189.112ZM113.858 183.652C113.018 183.652 112.262 184.084 111.89 184.696V183.796H110.702V190H111.89V185.98C111.986 185.248 112.73 184.684 113.594 184.684C114.434 184.684 115.022 185.332 115.022 186.256V190H116.186V186.052C116.186 184.648 115.226 183.652 113.858 183.652Z" fill="#313131"/>
<g filter="url(#filter10_d)">
<rect x="358" y="168" width="110" height="36" rx="3" fill="#F7FEF4"/>
<rect x="358.5" y="168.5" width="109" height="35" rx="2.5" stroke="#76C75D"/>
</g>
<path d="M358 168V167H357V168H358ZM468 168H469V167H468V168ZM468 204V205H469V204H468ZM358 204H357V205H358V204ZM358 169H468V167H358V169ZM467 168V204H469V168H467ZM468 203H358V205H468V203ZM359 204V168H357V204H359Z" fill="white"/>
<path d="M391.347 184H392.691L389.151 175.756H387.807L384.267 184H385.611L386.331 182.32H390.627L391.347 184ZM386.799 181.228L388.479 177.316L390.159 181.228H386.799ZM393.866 184H395.042V175.612H393.866V184ZM396.772 184H397.948V175.612H396.772V184ZM402.618 184.144C404.382 184.144 405.87 182.656 405.87 180.892C405.87 179.128 404.382 177.652 402.618 177.652C400.842 177.652 399.342 179.128 399.342 180.892C399.342 182.656 400.842 184.144 402.618 184.144ZM402.618 183.112C401.478 183.112 400.53 182.104 400.53 180.892C400.53 179.692 401.478 178.684 402.618 178.684C403.734 178.684 404.682 179.692 404.682 180.892C404.682 182.104 403.734 183.112 402.618 183.112ZM410.188 184.144C411.112 184.144 411.916 183.76 412.516 183.148L411.712 182.416C411.328 182.848 410.776 183.112 410.2 183.112C409.06 183.112 408.124 182.104 408.124 180.892C408.124 179.692 409.06 178.684 410.188 178.684C410.764 178.684 411.304 178.936 411.676 179.356L412.48 178.612C411.892 178.024 411.088 177.652 410.2 177.652C408.424 177.652 406.924 179.128 406.924 180.892C406.924 182.656 408.424 184.144 410.188 184.144ZM416.392 177.652C415.708 177.652 414.928 177.832 414.04 178.276L414.472 179.152C415.012 178.876 415.612 178.636 416.224 178.636C417.46 178.636 417.82 179.464 417.82 180.244V180.436C417.22 180.232 416.56 180.1 415.948 180.1C414.58 180.1 413.464 180.928 413.464 182.164C413.464 183.376 414.436 184.144 415.756 184.144C416.512 184.144 417.364 183.796 417.82 183.148V184H418.984V180.244C418.984 178.708 418.06 177.652 416.392 177.652ZM415.984 183.208C415.204 183.208 414.604 182.8 414.604 182.128C414.604 181.456 415.3 180.988 416.128 180.988C416.74 180.988 417.316 181.072 417.82 181.228V182.056C417.616 182.824 416.752 183.208 415.984 183.208ZM423.606 182.884C423.474 183.016 423.234 183.112 422.97 183.112C422.622 183.112 422.334 182.8 422.334 182.368V178.804H423.798V177.796H422.334V176.092H421.17V177.796H420.234V178.804H421.17V182.452C421.17 183.448 421.842 184.144 422.802 184.144C423.246 184.144 423.702 183.976 424.038 183.7L423.606 182.884ZM425.837 176.764C426.221 176.764 426.545 176.428 426.545 176.044C426.545 175.672 426.221 175.336 425.837 175.336C425.429 175.336 425.117 175.672 425.117 176.044C425.117 176.428 425.429 176.764 425.837 176.764ZM425.237 184H426.425V177.796H425.237V184ZM431.083 184.144C432.847 184.144 434.335 182.656 434.335 180.892C434.335 179.128 432.847 177.652 431.083 177.652C429.307 177.652 427.807 179.128 427.807 180.892C427.807 182.656 429.307 184.144 431.083 184.144ZM431.083 183.112C429.943 183.112 428.995 182.104 428.995 180.892C428.995 179.692 429.943 178.684 431.083 178.684C432.199 178.684 433.147 179.692 433.147 180.892C433.147 182.104 432.199 183.112 431.083 183.112ZM438.881 177.652C438.041 177.652 437.285 178.084 436.913 178.696V177.796H435.725V184H436.913V179.98C437.009 179.248 437.753 178.684 438.617 178.684C439.457 178.684 440.045 179.332 440.045 180.256V184H441.209V180.052C441.209 178.648 440.249 177.652 438.881 177.652Z" fill="#313131"/>
<path d="M375.803 196.7L376.323 196.15C375.243 195.06 374.683 193.92 374.683 192.35C374.683 190.77 375.243 189.64 376.323 188.54L375.803 188C374.443 189.09 373.663 190.6 373.663 192.35C373.663 194.09 374.443 195.61 375.803 196.7ZM378.425 194.06V188.13H377.405V195H382.065V194.06H378.425ZM385.55 195.12C387.02 195.12 388.26 193.88 388.26 192.41C388.26 190.94 387.02 189.71 385.55 189.71C384.07 189.71 382.82 190.94 382.82 192.41C382.82 193.88 384.07 195.12 385.55 195.12ZM385.55 194.26C384.6 194.26 383.81 193.42 383.81 192.41C383.81 191.41 384.6 190.57 385.55 190.57C386.48 190.57 387.27 191.41 387.27 192.41C387.27 193.42 386.48 194.26 385.55 194.26ZM391.588 189.71C391.018 189.71 390.368 189.86 389.628 190.23L389.988 190.96C390.438 190.73 390.938 190.53 391.448 190.53C392.478 190.53 392.778 191.22 392.778 191.87V192.03C392.278 191.86 391.728 191.75 391.218 191.75C390.078 191.75 389.148 192.44 389.148 193.47C389.148 194.48 389.958 195.12 391.058 195.12C391.688 195.12 392.398 194.83 392.778 194.29V195H393.748V191.87C393.748 190.59 392.978 189.71 391.588 189.71ZM391.248 194.34C390.598 194.34 390.098 194 390.098 193.44C390.098 192.88 390.678 192.49 391.368 192.49C391.878 192.49 392.358 192.56 392.778 192.69V193.38C392.608 194.02 391.888 194.34 391.248 194.34ZM399.16 188.01V190.72C398.76 190.09 398.12 189.71 397.32 189.71C395.96 189.71 394.94 190.83 394.94 192.41C394.94 194 395.96 195.12 397.32 195.12C398.12 195.12 398.76 194.74 399.16 194.1V195H400.14V188.01H399.16ZM397.56 194.26C396.61 194.26 395.94 193.49 395.94 192.41C395.94 191.33 396.61 190.57 397.56 190.57C398.49 190.57 399.16 191.33 399.16 192.41C399.16 193.49 398.49 194.26 397.56 194.26ZM404.977 188.97C405.297 188.97 405.567 188.69 405.567 188.37C405.567 188.06 405.297 187.78 404.977 187.78C404.637 187.78 404.377 188.06 404.377 188.37C404.377 188.69 404.637 188.97 404.977 188.97ZM404.477 195H405.467V189.83H404.477V195ZM407.939 190.82V189.83H406.949V195H407.939V192.06C408.029 191.16 408.789 190.57 409.859 190.57V189.71C408.969 189.71 408.269 190.14 407.939 190.82ZM411.864 190.82V189.83H410.874V195H411.864V192.06C411.954 191.16 412.714 190.57 413.784 190.57V189.71C412.894 189.71 412.194 190.14 411.864 190.82ZM417.12 194.24C416.23 194.24 415.6 193.62 415.47 192.76H419.54C419.54 190.91 418.63 189.71 417.05 189.71C415.62 189.71 414.47 190.85 414.47 192.4C414.47 193.99 415.69 195.12 417.13 195.12C417.86 195.12 418.76 194.81 419.22 194.32L418.6 193.68C418.29 194 417.66 194.24 417.12 194.24ZM417.09 190.59C417.98 190.59 418.47 191.17 418.58 191.97H415.48C415.64 191.13 416.29 190.59 417.09 190.59ZM420.688 195H421.668V188.01H420.688V195ZM425.48 194.24C424.59 194.24 423.96 193.62 423.83 192.76H427.9C427.9 190.91 426.99 189.71 425.41 189.71C423.98 189.71 422.83 190.85 422.83 192.4C422.83 193.99 424.05 195.12 425.49 195.12C426.22 195.12 427.12 194.81 427.58 194.32L426.96 193.68C426.65 194 426.02 194.24 425.48 194.24ZM425.45 190.59C426.34 190.59 426.83 191.17 426.94 191.97H423.84C424 191.13 424.65 190.59 425.45 190.59ZM430.767 195H431.697L433.877 189.83H432.807L431.227 193.85L429.617 189.83H428.547L430.767 195ZM436.608 189.71C436.038 189.71 435.388 189.86 434.648 190.23L435.008 190.96C435.458 190.73 435.958 190.53 436.468 190.53C437.498 190.53 437.798 191.22 437.798 191.87V192.03C437.298 191.86 436.748 191.75 436.238 191.75C435.098 191.75 434.168 192.44 434.168 193.47C434.168 194.48 434.978 195.12 436.078 195.12C436.708 195.12 437.418 194.83 437.798 194.29V195H438.768V191.87C438.768 190.59 437.998 189.71 436.608 189.71ZM436.268 194.34C435.618 194.34 435.118 194 435.118 193.44C435.118 192.88 435.698 192.49 436.388 192.49C436.898 192.49 437.378 192.56 437.798 192.69V193.38C437.628 194.02 436.908 194.34 436.268 194.34ZM442.829 189.71C442.129 189.71 441.499 190.07 441.189 190.58V189.83H440.199V195H441.189V191.65C441.269 191.04 441.889 190.57 442.609 190.57C443.309 190.57 443.799 191.11 443.799 191.88V195H444.769V191.71C444.769 190.54 443.969 189.71 442.829 189.71ZM448.606 194.07C448.496 194.18 448.296 194.26 448.076 194.26C447.786 194.26 447.546 194 447.546 193.64V190.67H448.766V189.83H447.546V188.41H446.576V189.83H445.796V190.67H446.576V193.71C446.576 194.54 447.136 195.12 447.936 195.12C448.306 195.12 448.686 194.98 448.966 194.75L448.606 194.07ZM450.195 196.7C451.555 195.61 452.335 194.09 452.335 192.35C452.335 190.6 451.555 189.09 450.195 188L449.675 188.54C450.745 189.64 451.315 190.77 451.315 192.35C451.315 193.92 450.745 195.06 449.675 196.15L450.195 196.7Z" fill="#940A0A"/>
<path d="M393.5 97.5L390.262 127.933C389.166 138.237 382.831 147.245 373.505 151.761L103.5 282.5" stroke="#A9B6BE" stroke-width="4"/>
<rect x="135" y="229" width="49" height="28" fill="white" fill-opacity="0.7"/>
<path d="M147.955 240H148.963L146.308 233.817H145.3L142.645 240H143.653L144.193 238.74H147.415L147.955 240ZM144.544 237.921L145.804 234.987L147.064 237.921H144.544ZM153.381 235.347V236.094C153.03 235.572 152.436 235.239 151.734 235.239C150.51 235.239 149.619 236.148 149.619 237.444C149.619 238.74 150.51 239.658 151.734 239.658C152.436 239.658 153.012 239.343 153.381 238.812V239.487C153.381 240.297 152.778 240.774 151.779 240.774C151.221 240.774 150.663 240.585 150.321 240.261L149.97 240.927C150.411 241.287 151.131 241.548 151.914 241.548C153.291 241.548 154.272 240.702 154.272 239.505V235.347H153.381ZM151.959 238.884C151.131 238.884 150.546 238.29 150.546 237.444C150.546 236.607 151.131 236.013 151.959 236.013C152.787 236.013 153.381 236.607 153.381 237.444C153.381 238.29 152.787 238.884 151.959 238.884ZM157.554 235.239C157.041 235.239 156.456 235.374 155.79 235.707L156.114 236.364C156.519 236.157 156.969 235.977 157.428 235.977C158.355 235.977 158.625 236.598 158.625 237.183V237.327C158.175 237.174 157.68 237.075 157.221 237.075C156.195 237.075 155.358 237.696 155.358 238.623C155.358 239.532 156.087 240.108 157.077 240.108C157.644 240.108 158.283 239.847 158.625 239.361V240H159.498V237.183C159.498 236.031 158.805 235.239 157.554 235.239ZM157.248 239.406C156.663 239.406 156.213 239.1 156.213 238.596C156.213 238.092 156.735 237.741 157.356 237.741C157.815 237.741 158.247 237.804 158.625 237.921V238.542C158.472 239.118 157.824 239.406 157.248 239.406ZM161.227 234.573C161.515 234.573 161.758 234.321 161.758 234.033C161.758 233.754 161.515 233.502 161.227 233.502C160.921 233.502 160.687 233.754 160.687 234.033C160.687 234.321 160.921 234.573 161.227 234.573ZM160.777 240H161.668V235.347H160.777V240ZM165.324 235.239C164.694 235.239 164.127 235.563 163.848 236.022V235.347H162.957V240H163.848V236.985C163.92 236.436 164.478 236.013 165.126 236.013C165.756 236.013 166.197 236.499 166.197 237.192V240H167.07V237.039C167.07 235.986 166.35 235.239 165.324 235.239ZM170.028 240.108C171.045 240.108 171.792 239.55 171.792 238.668C171.792 237.741 170.973 237.489 170.208 237.264C169.425 237.021 169.137 236.913 169.137 236.553C169.137 236.202 169.497 236.004 169.956 236.004C170.361 236.004 170.829 236.157 171.279 236.436L171.675 235.779C171.171 235.446 170.559 235.239 169.956 235.239C168.966 235.239 168.255 235.797 168.264 236.652C168.264 237.408 168.795 237.714 169.866 238.011C170.442 238.173 170.919 238.308 170.919 238.74C170.919 239.1 170.559 239.343 170.037 239.343C169.488 239.343 168.957 239.136 168.462 238.776L168.039 239.415C168.597 239.865 169.344 240.108 170.028 240.108ZM175.005 239.163C174.906 239.262 174.726 239.334 174.528 239.334C174.267 239.334 174.051 239.1 174.051 238.776V236.103H175.149V235.347H174.051V234.069H173.178V235.347H172.476V236.103H173.178V238.839C173.178 239.586 173.682 240.108 174.402 240.108C174.735 240.108 175.077 239.982 175.329 239.775L175.005 239.163ZM155.25 246.833C155.25 245.654 154.26 244.817 152.955 244.817H150.354V251H151.263V248.849H152.685L154.197 251H155.241L153.666 248.759C154.602 248.516 155.25 247.787 155.25 246.833ZM151.263 245.663H152.829C153.72 245.663 154.323 246.104 154.323 246.833C154.323 247.562 153.72 248.003 152.829 248.003H151.263V245.663ZM158.213 246.239C157.7 246.239 157.115 246.374 156.449 246.707L156.773 247.364C157.178 247.157 157.628 246.977 158.087 246.977C159.014 246.977 159.284 247.598 159.284 248.183V248.327C158.834 248.174 158.339 248.075 157.88 248.075C156.854 248.075 156.017 248.696 156.017 249.623C156.017 250.532 156.746 251.108 157.736 251.108C158.303 251.108 158.942 250.847 159.284 250.361V251H160.157V248.183C160.157 247.031 159.464 246.239 158.213 246.239ZM157.907 250.406C157.322 250.406 156.872 250.1 156.872 249.596C156.872 249.092 157.394 248.741 158.015 248.741C158.474 248.741 158.906 248.804 159.284 248.921V249.542C159.131 250.118 158.483 250.406 157.907 250.406ZM162.624 251H163.443L164.568 247.544L165.684 251H166.503L168.069 246.347H167.16L166.098 249.812L164.946 246.347H164.19L163.038 249.812L161.967 246.347H161.058L162.624 251Z" fill="black"/>
<path d="M93.327 287.478L101.996 275.905L107.758 286.572L93.327 287.478Z" fill="#A9B6BE"/>
<path d="M393 89L399.062 102.128H386.938L393 89Z" fill="#A9B6BE"/>
<g filter="url(#filter11_d)">
<rect x="194" y="168" width="110" height="36" rx="3" fill="#F7FEF4"/>
<rect x="194.5" y="168.5" width="109" height="35" rx="2.5" stroke="#76C75D"/>
</g>
<path d="M194 168V167H193V168H194ZM304 168H305V167H304V168ZM304 204V205H305V204H304ZM194 204H193V205H194V204ZM194 169H304V167H194V169ZM303 168V204H305V168H303ZM304 203H194V205H304V203ZM195 204V168H193V204H195Z" fill="white"/>
<path d="M224.707 190.144C226.771 190.144 228.247 188.644 228.247 186.532V181.756H227.023V186.508C227.023 187.984 226.063 189.04 224.707 189.04C223.339 189.04 222.379 187.984 222.379 186.508V181.756H221.167V186.532C221.167 188.644 222.631 190.144 224.707 190.144ZM232.963 188.884C232.831 189.016 232.591 189.112 232.327 189.112C231.979 189.112 231.691 188.8 231.691 188.368V184.804H233.155V183.796H231.691V182.092H230.527V183.796H229.591V184.804H230.527V188.452C230.527 189.448 231.199 190.144 232.159 190.144C232.603 190.144 233.059 189.976 233.395 189.7L232.963 188.884ZM235.194 182.764C235.578 182.764 235.902 182.428 235.902 182.044C235.902 181.672 235.578 181.336 235.194 181.336C234.786 181.336 234.474 181.672 234.474 182.044C234.474 182.428 234.786 182.764 235.194 182.764ZM234.594 190H235.782V183.796H234.594V190ZM237.501 190H238.677V181.612H237.501V190ZM240.995 182.764C241.379 182.764 241.703 182.428 241.703 182.044C241.703 181.672 241.379 181.336 240.995 181.336C240.587 181.336 240.275 181.672 240.275 182.044C240.275 182.428 240.587 182.764 240.995 182.764ZM240.395 190H241.583V183.796H240.395V190ZM243.038 190H248.102V188.932H244.598L248.078 184.684V183.796H243.11V184.864H246.518L243.038 189.112V190ZM252.14 183.652C251.456 183.652 250.676 183.832 249.788 184.276L250.22 185.152C250.76 184.876 251.36 184.636 251.972 184.636C253.208 184.636 253.568 185.464 253.568 186.244V186.436C252.968 186.232 252.308 186.1 251.696 186.1C250.328 186.1 249.212 186.928 249.212 188.164C249.212 189.376 250.184 190.144 251.504 190.144C252.26 190.144 253.112 189.796 253.568 189.148V190H254.732V186.244C254.732 184.708 253.808 183.652 252.14 183.652ZM251.732 189.208C250.952 189.208 250.352 188.8 250.352 188.128C250.352 187.456 251.048 186.988 251.876 186.988C252.488 186.988 253.064 187.072 253.568 187.228V188.056C253.364 188.824 252.5 189.208 251.732 189.208ZM259.354 188.884C259.222 189.016 258.982 189.112 258.718 189.112C258.37 189.112 258.082 188.8 258.082 188.368V184.804H259.546V183.796H258.082V182.092H256.918V183.796H255.982V184.804H256.918V188.452C256.918 189.448 257.59 190.144 258.55 190.144C258.994 190.144 259.45 189.976 259.786 189.7L259.354 188.884ZM261.585 182.764C261.969 182.764 262.293 182.428 262.293 182.044C262.293 181.672 261.969 181.336 261.585 181.336C261.177 181.336 260.865 181.672 260.865 182.044C260.865 182.428 261.177 182.764 261.585 182.764ZM260.985 190H262.173V183.796H260.985V190ZM266.831 190.144C268.595 190.144 270.083 188.656 270.083 186.892C270.083 185.128 268.595 183.652 266.831 183.652C265.055 183.652 263.555 185.128 263.555 186.892C263.555 188.656 265.055 190.144 266.831 190.144ZM266.831 189.112C265.691 189.112 264.743 188.104 264.743 186.892C264.743 185.692 265.691 184.684 266.831 184.684C267.947 184.684 268.895 185.692 268.895 186.892C268.895 188.104 267.947 189.112 266.831 189.112ZM274.629 183.652C273.789 183.652 273.033 184.084 272.661 184.696V183.796H271.473V190H272.661V185.98C272.757 185.248 273.501 184.684 274.365 184.684C275.205 184.684 275.793 185.332 275.793 186.256V190H276.957V186.052C276.957 184.648 275.997 183.652 274.629 183.652Z" fill="#313131"/>
<path d="M459 76L469.5 82.0622L469.5 69.9378L459 76Z" fill="#A9B6BE"/>
<path d="M459 301L469.5 307.062L469.5 294.938L459 301Z" fill="#A9B6BE"/>
<path d="M467 76V76C478.046 76 487 84.9543 487 96V282C487 293.046 478.046 302 467 302V302" stroke="#A9B6BE" stroke-width="4"/>
<rect x="468" y="155" width="49" height="16" fill="white" fill-opacity="0.7"/>
<path d="M478.774 164.822C479.656 164.822 480.466 164.444 481.051 163.85L480.412 163.238C479.998 163.688 479.413 163.985 478.774 163.985C477.541 163.985 476.497 162.905 476.497 161.618C476.497 160.34 477.541 159.26 478.774 159.26C479.413 159.26 479.998 159.557 480.412 160.007L481.051 159.395C480.466 158.792 479.656 158.423 478.774 158.423C477.037 158.423 475.561 159.881 475.561 161.618C475.561 163.355 477.037 164.822 478.774 164.822ZM484.144 164.822C485.467 164.822 486.583 163.706 486.583 162.383C486.583 161.06 485.467 159.953 484.144 159.953C482.812 159.953 481.687 161.06 481.687 162.383C481.687 163.706 482.812 164.822 484.144 164.822ZM484.144 164.048C483.289 164.048 482.578 163.292 482.578 162.383C482.578 161.483 483.289 160.727 484.144 160.727C484.981 160.727 485.692 161.483 485.692 162.383C485.692 163.292 484.981 164.048 484.144 164.048ZM492.827 159.953C492.125 159.953 491.531 160.313 491.315 160.889C491.045 160.313 490.496 159.953 489.821 159.953C489.227 159.953 488.741 160.25 488.507 160.709V160.061H487.616V164.714H488.507V161.807C488.507 161.168 488.975 160.727 489.641 160.727C490.226 160.727 490.631 161.204 490.631 161.888V164.714H491.504V161.807C491.504 161.168 491.972 160.727 492.638 160.727C493.223 160.727 493.628 161.204 493.628 161.888V164.714H494.501V161.753C494.501 160.7 493.799 159.953 492.827 159.953ZM500.983 159.953C500.281 159.953 499.687 160.313 499.471 160.889C499.201 160.313 498.652 159.953 497.977 159.953C497.383 159.953 496.897 160.25 496.663 160.709V160.061H495.772V164.714H496.663V161.807C496.663 161.168 497.131 160.727 497.797 160.727C498.382 160.727 498.787 161.204 498.787 161.888V164.714H499.66V161.807C499.66 161.168 500.128 160.727 500.794 160.727C501.379 160.727 501.784 161.204 501.784 161.888V164.714H502.657V161.753C502.657 160.7 501.955 159.953 500.983 159.953ZM504.379 159.287C504.667 159.287 504.91 159.035 504.91 158.747C504.91 158.468 504.667 158.216 504.379 158.216C504.073 158.216 503.839 158.468 503.839 158.747C503.839 159.035 504.073 159.287 504.379 159.287ZM503.929 164.714H504.82V160.061H503.929V164.714ZM508.286 163.877C508.187 163.976 508.007 164.048 507.809 164.048C507.548 164.048 507.332 163.814 507.332 163.49V160.817H508.43V160.061H507.332V158.783H506.459V160.061H505.757V160.817H506.459V163.553C506.459 164.3 506.963 164.822 507.683 164.822C508.016 164.822 508.358 164.696 508.61 164.489L508.286 163.877Z" fill="black"/>
<defs>
<filter id="filter0_d" x="521" y="166" width="114" height="40" filterUnits="userSpaceOnUse" color-interpolation-filters="sRGB">
<feFlood flood-opacity="0" result="BackgroundImageFix"/>
<feColorMatrix in="SourceAlpha" type="matrix" values="0 0 0 0 0 0 0 0 0 0 0 0 0 0 0 0 0 0 127 0"/>
<feOffset dy="1"/>
<feGaussianBlur stdDeviation="1"/>
<feColorMatrix type="matrix" values="0 0 0 0 0 0 0 0 0 0 0 0 0 0 0 0 0 0 0.2 0"/>
<feBlend mode="normal" in2="BackgroundImageFix" result="effect1_dropShadow"/>
<feBlend mode="normal" in="SourceGraphic" in2="effect1_dropShadow" result="shape"/>
</filter>
<filter id="filter1_d" x="192" y="279" width="114" height="40" filterUnits="userSpaceOnUse" color-interpolation-filters="sRGB">
<feFlood flood-opacity="0" result="BackgroundImageFix"/>
<feColorMatrix in="SourceAlpha" type="matrix" values="0 0 0 0 0 0 0 0 0 0 0 0 0 0 0 0 0 0 127 0"/>
<feOffset dy="1"/>
<feGaussianBlur stdDeviation="1"/>
<feColorMatrix type="matrix" values="0 0 0 0 0 0 0 0 0 0 0 0 0 0 0 0 0 0 0.2 0"/>
<feBlend mode="normal" in2="BackgroundImageFix" result="effect1_dropShadow"/>
<feBlend mode="normal" in="SourceGraphic" in2="effect1_dropShadow" result="shape"/>
</filter>
<filter id="filter2_d" x="192" y="372" width="114" height="40" filterUnits="userSpaceOnUse" color-interpolation-filters="sRGB">
<feFlood flood-opacity="0" result="BackgroundImageFix"/>
<feColorMatrix in="SourceAlpha" type="matrix" values="0 0 0 0 0 0 0 0 0 0 0 0 0 0 0 0 0 0 127 0"/>
<feOffset dy="1"/>
<feGaussianBlur stdDeviation="1"/>
<feColorMatrix type="matrix" values="0 0 0 0 0 0 0 0 0 0 0 0 0 0 0 0 0 0 0.2 0"/>
<feBlend mode="normal" in2="BackgroundImageFix" result="effect1_dropShadow"/>
<feBlend mode="normal" in="SourceGraphic" in2="effect1_dropShadow" result="shape"/>
</filter>
<filter id="filter3_d" x="192" y="433" width="114" height="40" filterUnits="userSpaceOnUse" color-interpolation-filters="sRGB">
<feFlood flood-opacity="0" result="BackgroundImageFix"/>
<feColorMatrix in="SourceAlpha" type="matrix" values="0 0 0 0 0 0 0 0 0 0 0 0 0 0 0 0 0 0 127 0"/>
<feOffset dy="1"/>
<feGaussianBlur stdDeviation="1"/>
<feColorMatrix type="matrix" values="0 0 0 0 0 0 0 0 0 0 0 0 0 0 0 0 0 0 0.2 0"/>
<feBlend mode="normal" in2="BackgroundImageFix" result="effect1_dropShadow"/>
<feBlend mode="normal" in="SourceGraphic" in2="effect1_dropShadow" result="shape"/>
</filter>
<filter id="filter4_d" x="356" y="279" width="114" height="40" filterUnits="userSpaceOnUse" color-interpolation-filters="sRGB">
<feFlood flood-opacity="0" result="BackgroundImageFix"/>
<feColorMatrix in="SourceAlpha" type="matrix" values="0 0 0 0 0 0 0 0 0 0 0 0 0 0 0 0 0 0 127 0"/>
<feOffset dy="1"/>
<feGaussianBlur stdDeviation="1"/>
<feColorMatrix type="matrix" values="0 0 0 0 0 0 0 0 0 0 0 0 0 0 0 0 0 0 0.2 0"/>
<feBlend mode="normal" in2="BackgroundImageFix" result="effect1_dropShadow"/>
<feBlend mode="normal" in="SourceGraphic" in2="effect1_dropShadow" result="shape"/>
</filter>
<filter id="filter5_d" x="356" y="55" width="114" height="40" filterUnits="userSpaceOnUse" color-interpolation-filters="sRGB">
<feFlood flood-opacity="0" result="BackgroundImageFix"/>
<feColorMatrix in="SourceAlpha" type="matrix" values="0 0 0 0 0 0 0 0 0 0 0 0 0 0 0 0 0 0 127 0"/>
<feOffset dy="1"/>
<feGaussianBlur stdDeviation="1"/>
<feColorMatrix type="matrix" values="0 0 0 0 0 0 0 0 0 0 0 0 0 0 0 0 0 0 0.2 0"/>
<feBlend mode="normal" in2="BackgroundImageFix" result="effect1_dropShadow"/>
<feBlend mode="normal" in="SourceGraphic" in2="effect1_dropShadow" result="shape"/>
</filter>
<filter id="filter6_d" x="28" y="280" width="114" height="40" filterUnits="userSpaceOnUse" color-interpolation-filters="sRGB">
<feFlood flood-opacity="0" result="BackgroundImageFix"/>
<feColorMatrix in="SourceAlpha" type="matrix" values="0 0 0 0 0 0 0 0 0 0 0 0 0 0 0 0 0 0 127 0"/>
<feOffset dy="1"/>
<feGaussianBlur stdDeviation="1"/>
<feColorMatrix type="matrix" values="0 0 0 0 0 0 0 0 0 0 0 0 0 0 0 0 0 0 0.2 0"/>
<feBlend mode="normal" in2="BackgroundImageFix" result="effect1_dropShadow"/>
<feBlend mode="normal" in="SourceGraphic" in2="effect1_dropShadow" result="shape"/>
</filter>
<filter id="filter7_d" x="28" y="58" width="114" height="40" filterUnits="userSpaceOnUse" color-interpolation-filters="sRGB">
<feFlood flood-opacity="0" result="BackgroundImageFix"/>
<feColorMatrix in="SourceAlpha" type="matrix" values="0 0 0 0 0 0 0 0 0 0 0 0 0 0 0 0 0 0 127 0"/>
<feOffset dy="1"/>
<feGaussianBlur stdDeviation="1"/>
<feColorMatrix type="matrix" values="0 0 0 0 0 0 0 0 0 0 0 0 0 0 0 0 0 0 0.2 0"/>
<feBlend mode="normal" in2="BackgroundImageFix" result="effect1_dropShadow"/>
<feBlend mode="normal" in="SourceGraphic" in2="effect1_dropShadow" result="shape"/>
</filter>
<filter id="filter8_d" x="355" y="372" width="114" height="40" filterUnits="userSpaceOnUse" color-interpolation-filters="sRGB">
<feFlood flood-opacity="0" result="BackgroundImageFix"/>
<feColorMatrix in="SourceAlpha" type="matrix" values="0 0 0 0 0 0 0 0 0 0 0 0 0 0 0 0 0 0 127 0"/>
<feOffset dy="1"/>
<feGaussianBlur stdDeviation="1"/>
<feColorMatrix type="matrix" values="0 0 0 0 0 0 0 0 0 0 0 0 0 0 0 0 0 0 0.2 0"/>
<feBlend mode="normal" in2="BackgroundImageFix" result="effect1_dropShadow"/>
<feBlend mode="normal" in="SourceGraphic" in2="effect1_dropShadow" result="shape"/>
</filter>
<filter id="filter9_d" x="28" y="167" width="114" height="40" filterUnits="userSpaceOnUse" color-interpolation-filters="sRGB">
<feFlood flood-opacity="0" result="BackgroundImageFix"/>
<feColorMatrix in="SourceAlpha" type="matrix" values="0 0 0 0 0 0 0 0 0 0 0 0 0 0 0 0 0 0 127 0"/>
<feOffset dy="1"/>
<feGaussianBlur stdDeviation="1"/>
<feColorMatrix type="matrix" values="0 0 0 0 0 0 0 0 0 0 0 0 0 0 0 0 0 0 0.2 0"/>
<feBlend mode="normal" in2="BackgroundImageFix" result="effect1_dropShadow"/>
<feBlend mode="normal" in="SourceGraphic" in2="effect1_dropShadow" result="shape"/>
</filter>
<filter id="filter10_d" x="356" y="167" width="114" height="40" filterUnits="userSpaceOnUse" color-interpolation-filters="sRGB">
<feFlood flood-opacity="0" result="BackgroundImageFix"/>
<feColorMatrix in="SourceAlpha" type="matrix" values="0 0 0 0 0 0 0 0 0 0 0 0 0 0 0 0 0 0 127 0"/>
<feOffset dy="1"/>
<feGaussianBlur stdDeviation="1"/>
<feColorMatrix type="matrix" values="0 0 0 0 0 0 0 0 0 0 0 0 0 0 0 0 0 0 0.2 0"/>
<feBlend mode="normal" in2="BackgroundImageFix" result="effect1_dropShadow"/>
<feBlend mode="normal" in="SourceGraphic" in2="effect1_dropShadow" result="shape"/>
</filter>
<filter id="filter11_d" x="192" y="167" width="114" height="40" filterUnits="userSpaceOnUse" color-interpolation-filters="sRGB">
<feFlood flood-opacity="0" result="BackgroundImageFix"/>
<feColorMatrix in="SourceAlpha" type="matrix" values="0 0 0 0 0 0 0 0 0 0 0 0 0 0 0 0 0 0 127 0"/>
<feOffset dy="1"/>
<feGaussianBlur stdDeviation="1"/>
<feColorMatrix type="matrix" values="0 0 0 0 0 0 0 0 0 0 0 0 0 0 0 0 0 0 0.2 0"/>
<feBlend mode="normal" in2="BackgroundImageFix" result="effect1_dropShadow"/>
<feBlend mode="normal" in="SourceGraphic" in2="effect1_dropShadow" result="shape"/>
</filter>
</defs>
</svg>
