<svg width="642" height="521" viewBox="0 0 642 521" fill="none" xmlns="http://www.w3.org/2000/svg">
<path d="M327 280L333.062 290.5H320.938L327 280Z" fill="#A9B6BE"/>
<path d="M327 357.5L327 289.486" stroke="#A9B6BE" stroke-width="4"/>
<path d="M488.86 258.054L482.822 268.568L476.735 258.082L488.86 258.054Z" fill="#A9B6BE"/>
<path d="M327.935 351.471L483 261.377" stroke="#A9B6BE" stroke-width="4"/>
<path d="M165.5 258.062L177.624 258.062L171.562 268.562L165.5 258.062Z" fill="#A9B6BE"/>
<path d="M326.645 351.099L171.3 261.489" stroke="#A9B6BE" stroke-width="4"/>
<path d="M488.874 211.092L476.75 211.092L482.812 200.592L488.874 211.092Z" fill="#A9B6BE"/>
<path d="M327.5 117.062L339.624 117.062L333.562 127.562L327.5 117.062Z" fill="#A9B6BE"/>
<path d="M335 122L483.074 207.665" stroke="#A9B6BE" stroke-width="4"/>
<path d="M164.5 211.092L176.624 211.092L170.562 200.592L164.5 211.092Z" fill="#A9B6BE"/>
<path d="M325.874 117.062L313.75 117.062L319.812 127.562L325.874 117.062Z" fill="#A9B6BE"/>
<path d="M318.374 122L170.3 207.665" stroke="#A9B6BE" stroke-width="4"/>
<path d="M482 371L471.5 377.062L471.5 364.938L482 371Z" fill="#A9B6BE"/>
<path d="M381 371L475 371" stroke="#A9B6BE" stroke-width="4"/>
<path d="M327 389L333.062 399.5H320.938L327 389Z" fill="#A9B6BE"/>
<path d="M327 418L327 398.486" stroke="#A9B6BE" stroke-width="4"/>
<path d="M147 98L157.5 104.062L157.5 91.9378L147 98Z" fill="#A9B6BE"/>
<path d="M272 98L261.5 104.062L261.5 91.9378L272 98Z" fill="#A9B6BE"/>
<path d="M265 98L155 98" stroke="#A9B6BE" stroke-width="4"/>
<path d="M120 119L113.938 129.5L126.062 129.5L120 119Z" fill="#A9B6BE"/>
<path d="M120 211L113.938 200.5L126.062 200.5L120 211Z" fill="#A9B6BE"/>
<path d="M120 204L120 126" stroke="#A9B6BE" stroke-width="4"/>
<path d="M477 232L466.5 225.938L466.5 238.062L477 232Z" fill="#A9B6BE"/>
<path d="M385 232L395.5 225.938L395.5 238.062L385 232Z" fill="#A9B6BE"/>
<path d="M392 232L470 232" stroke="#A9B6BE" stroke-width="4"/>
<path d="M268 232L257.5 225.938L257.5 238.062L268 232Z" fill="#A9B6BE"/>
<path d="M176 232L186.5 225.938L186.5 238.062L176 232Z" fill="#A9B6BE"/>
<path d="M183 232L261 232" stroke="#A9B6BE" stroke-width="4"/>
<g filter="url(#filter0_d)">
<rect x="271" y="214" width="110" height="36" rx="3" fill="white"/>
<rect x="271.5" y="214.5" width="109" height="35" rx="2.5" stroke="#E0DFDF"/>
</g>
<path d="M305.413 236.144C306.589 236.144 307.669 235.64 308.449 234.848L307.597 234.032C307.045 234.632 306.265 235.028 305.413 235.028C303.769 235.028 302.377 233.588 302.377 231.872C302.377 230.168 303.769 228.728 305.413 228.728C306.265 228.728 307.045 229.124 307.597 229.724L308.449 228.908C307.669 228.104 306.589 227.612 305.413 227.612C303.097 227.612 301.129 229.556 301.129 231.872C301.129 234.188 303.097 236.144 305.413 236.144ZM312.236 229.652C311.552 229.652 310.772 229.832 309.884 230.276L310.316 231.152C310.856 230.876 311.456 230.636 312.068 230.636C313.304 230.636 313.664 231.464 313.664 232.244V232.436C313.064 232.232 312.404 232.1 311.792 232.1C310.424 232.1 309.308 232.928 309.308 234.164C309.308 235.376 310.28 236.144 311.6 236.144C312.356 236.144 313.208 235.796 313.664 235.148V236H314.828V232.244C314.828 230.708 313.904 229.652 312.236 229.652ZM311.828 235.208C311.048 235.208 310.448 234.8 310.448 234.128C310.448 233.456 311.144 232.988 311.972 232.988C312.584 232.988 313.16 233.072 313.664 233.228V234.056C313.46 234.824 312.596 235.208 311.828 235.208ZM319.99 229.652C319.03 229.652 318.262 230.108 317.782 230.864V229.796H316.606V238.064H317.782V234.92C318.262 235.688 319.03 236.144 319.99 236.144C321.622 236.144 322.846 234.8 322.846 232.892C322.846 230.996 321.622 229.652 319.99 229.652ZM319.702 235.112C318.586 235.112 317.782 234.188 317.782 232.892C317.782 231.596 318.586 230.684 319.702 230.684C320.842 230.684 321.646 231.596 321.646 232.892C321.646 234.188 320.842 235.112 319.702 235.112ZM326.884 229.652C326.2 229.652 325.42 229.832 324.532 230.276L324.964 231.152C325.504 230.876 326.104 230.636 326.716 230.636C327.952 230.636 328.312 231.464 328.312 232.244V232.436C327.712 232.232 327.052 232.1 326.44 232.1C325.072 232.1 323.956 232.928 323.956 234.164C323.956 235.376 324.928 236.144 326.248 236.144C327.004 236.144 327.856 235.796 328.312 235.148V236H329.476V232.244C329.476 230.708 328.552 229.652 326.884 229.652ZM326.476 235.208C325.696 235.208 325.096 234.8 325.096 234.128C325.096 233.456 325.792 232.988 326.62 232.988C327.232 232.988 327.808 233.072 328.312 233.228V234.056C328.108 234.824 327.244 235.208 326.476 235.208ZM334.122 236.144C335.046 236.144 335.85 235.76 336.45 235.148L335.646 234.416C335.262 234.848 334.71 235.112 334.134 235.112C332.994 235.112 332.058 234.104 332.058 232.892C332.058 231.692 332.994 230.684 334.122 230.684C334.698 230.684 335.238 230.936 335.61 231.356L336.414 230.612C335.826 230.024 335.022 229.652 334.134 229.652C332.358 229.652 330.858 231.128 330.858 232.892C330.858 234.656 332.358 236.144 334.122 236.144ZM338.31 228.764C338.694 228.764 339.018 228.428 339.018 228.044C339.018 227.672 338.694 227.336 338.31 227.336C337.902 227.336 337.59 227.672 337.59 228.044C337.59 228.428 337.902 228.764 338.31 228.764ZM337.71 236H338.898V229.796H337.71V236ZM343.52 234.884C343.388 235.016 343.148 235.112 342.884 235.112C342.536 235.112 342.248 234.8 342.248 234.368V230.804H343.712V229.796H342.248V228.092H341.084V229.796H340.148V230.804H341.084V234.452C341.084 235.448 341.756 236.144 342.716 236.144C343.16 236.144 343.616 235.976 343.952 235.7L343.52 234.884ZM346.255 238.16C347.143 238.148 347.803 237.68 348.247 236.564L350.983 229.796H349.747L347.863 234.692L345.871 229.796H344.599L347.263 236.036L346.951 236.696C346.747 237.056 346.483 237.176 346.099 237.176C345.859 237.176 345.583 237.116 345.343 236.984L345.079 237.896C345.403 238.064 345.835 238.16 346.255 238.16Z" fill="#313131"/>
<g filter="url(#filter1_d)">
<rect x="273" y="352" width="110" height="36" rx="3" fill="white"/>
<rect x="273.5" y="352.5" width="109" height="35" rx="2.5" stroke="#E0DFDF"/>
</g>
<path d="M293.415 374.144C294.591 374.144 295.671 373.64 296.451 372.848L295.599 372.032C295.047 372.632 294.267 373.028 293.415 373.028C291.771 373.028 290.379 371.588 290.379 369.872C290.379 368.168 291.771 366.728 293.415 366.728C294.267 366.728 295.047 367.124 295.599 367.724L296.451 366.908C295.671 366.104 294.591 365.612 293.415 365.612C291.099 365.612 289.131 367.556 289.131 369.872C289.131 372.188 291.099 374.144 293.415 374.144ZM300.574 374.144C302.338 374.144 303.826 372.656 303.826 370.892C303.826 369.128 302.338 367.652 300.574 367.652C298.798 367.652 297.298 369.128 297.298 370.892C297.298 372.656 298.798 374.144 300.574 374.144ZM300.574 373.112C299.434 373.112 298.486 372.104 298.486 370.892C298.486 369.692 299.434 368.684 300.574 368.684C301.69 368.684 302.638 369.692 302.638 370.892C302.638 372.104 301.69 373.112 300.574 373.112ZM308.372 367.652C307.532 367.652 306.776 368.084 306.404 368.696V367.796H305.216V374H306.404V369.98C306.5 369.248 307.244 368.684 308.108 368.684C308.948 368.684 309.536 369.332 309.536 370.256V374H310.7V370.052C310.7 368.648 309.74 367.652 308.372 367.652ZM314.031 367.112C314.031 366.68 314.319 366.368 314.667 366.368C314.931 366.368 315.171 366.464 315.303 366.596L315.735 365.804C315.399 365.528 314.943 365.36 314.499 365.36C313.539 365.36 312.867 366.056 312.867 367.052V367.796H311.931V368.804H312.867V374H314.031V368.804H315.495V367.796H314.031V367.112ZM317.311 366.764C317.695 366.764 318.019 366.428 318.019 366.044C318.019 365.672 317.695 365.336 317.311 365.336C316.903 365.336 316.591 365.672 316.591 366.044C316.591 366.428 316.903 366.764 317.311 366.764ZM316.711 374H317.899V367.796H316.711V374ZM324.334 367.796V368.792C323.866 368.096 323.074 367.652 322.138 367.652C320.506 367.652 319.318 368.864 319.318 370.592C319.318 372.32 320.506 373.544 322.138 373.544C323.074 373.544 323.842 373.124 324.334 372.416V373.316C324.334 374.396 323.53 375.032 322.198 375.032C321.454 375.032 320.71 374.78 320.254 374.348L319.786 375.236C320.374 375.716 321.334 376.064 322.378 376.064C324.214 376.064 325.522 374.936 325.522 373.34V367.796H324.334ZM322.438 372.512C321.334 372.512 320.554 371.72 320.554 370.592C320.554 369.476 321.334 368.684 322.438 368.684C323.542 368.684 324.334 369.476 324.334 370.592C324.334 371.72 323.542 372.512 322.438 372.512ZM331.566 367.796V371.816C331.47 372.548 330.726 373.112 329.862 373.112C329.022 373.112 328.434 372.464 328.434 371.54V367.796H327.27V371.744C327.27 373.148 328.23 374.144 329.598 374.144C330.438 374.144 331.194 373.712 331.566 373.1V374H332.754V367.796H331.566ZM335.725 368.984V367.796H334.537V374H335.725V370.472C335.833 369.392 336.745 368.684 338.029 368.684V367.652C336.961 367.652 336.121 368.168 335.725 368.984ZM341.792 367.652C341.108 367.652 340.328 367.832 339.44 368.276L339.872 369.152C340.412 368.876 341.012 368.636 341.624 368.636C342.86 368.636 343.22 369.464 343.22 370.244V370.436C342.62 370.232 341.96 370.1 341.348 370.1C339.98 370.1 338.864 370.928 338.864 372.164C338.864 373.376 339.836 374.144 341.156 374.144C341.912 374.144 342.764 373.796 343.22 373.148V374H344.384V370.244C344.384 368.708 343.46 367.652 341.792 367.652ZM341.384 373.208C340.604 373.208 340.004 372.8 340.004 372.128C340.004 371.456 340.7 370.988 341.528 370.988C342.14 370.988 342.716 371.072 343.22 371.228V372.056C343.016 372.824 342.152 373.208 341.384 373.208ZM349.006 372.884C348.874 373.016 348.634 373.112 348.37 373.112C348.022 373.112 347.734 372.8 347.734 372.368V368.804H349.198V367.796H347.734V366.092H346.57V367.796H345.634V368.804H346.57V372.452C346.57 373.448 347.242 374.144 348.202 374.144C348.646 374.144 349.102 373.976 349.438 373.7L349.006 372.884ZM351.237 366.764C351.621 366.764 351.945 366.428 351.945 366.044C351.945 365.672 351.621 365.336 351.237 365.336C350.829 365.336 350.517 365.672 350.517 366.044C350.517 366.428 350.829 366.764 351.237 366.764ZM350.637 374H351.825V367.796H350.637V374ZM356.484 374.144C358.248 374.144 359.736 372.656 359.736 370.892C359.736 369.128 358.248 367.652 356.484 367.652C354.708 367.652 353.208 369.128 353.208 370.892C353.208 372.656 354.708 374.144 356.484 374.144ZM356.484 373.112C355.344 373.112 354.396 372.104 354.396 370.892C354.396 369.692 355.344 368.684 356.484 368.684C357.6 368.684 358.548 369.692 358.548 370.892C358.548 372.104 357.6 373.112 356.484 373.112ZM364.282 367.652C363.442 367.652 362.686 368.084 362.314 368.696V367.796H361.126V374H362.314V369.98C362.41 369.248 363.154 368.684 364.018 368.684C364.858 368.684 365.446 369.332 365.446 370.256V374H366.61V370.052C366.61 368.648 365.65 367.652 364.282 367.652Z" fill="#313131"/>
<g filter="url(#filter2_d)">
<rect x="273" y="413" width="110" height="36" rx="3" fill="white"/>
<rect x="273.5" y="413.5" width="109" height="35" rx="2.5" stroke="#E0DFDF"/>
</g>
<path d="M301.396 435H302.608V426.756H301.396V435ZM307.54 428.652C306.7 428.652 305.944 429.084 305.572 429.696V428.796H304.384V435H305.572V430.98C305.668 430.248 306.412 429.684 307.276 429.684C308.116 429.684 308.704 430.332 308.704 431.256V435H309.868V431.052C309.868 429.648 308.908 428.652 307.54 428.652ZM313.631 435H314.747L317.363 428.796H316.079L314.183 433.62L312.251 428.796H310.967L313.631 435ZM320.927 434.088C319.859 434.088 319.103 433.344 318.947 432.312H323.831C323.831 430.092 322.739 428.652 320.843 428.652C319.127 428.652 317.747 430.02 317.747 431.88C317.747 433.788 319.211 435.144 320.939 435.144C321.815 435.144 322.895 434.772 323.447 434.184L322.703 433.416C322.331 433.8 321.575 434.088 320.927 434.088ZM320.891 429.708C321.959 429.708 322.547 430.404 322.679 431.364H318.959C319.151 430.356 319.931 429.708 320.891 429.708ZM328.364 428.652C327.524 428.652 326.768 429.084 326.396 429.696V428.796H325.208V435H326.396V430.98C326.492 430.248 327.236 429.684 328.1 429.684C328.94 429.684 329.528 430.332 329.528 431.256V435H330.692V431.052C330.692 429.648 329.732 428.652 328.364 428.652ZM335.295 433.884C335.163 434.016 334.923 434.112 334.659 434.112C334.311 434.112 334.023 433.8 334.023 433.368V429.804H335.487V428.796H334.023V427.092H332.859V428.796H331.923V429.804H332.859V433.452C332.859 434.448 333.531 435.144 334.491 435.144C334.935 435.144 335.391 434.976 335.727 434.7L335.295 433.884ZM339.878 435.144C341.642 435.144 343.13 433.656 343.13 431.892C343.13 430.128 341.642 428.652 339.878 428.652C338.102 428.652 336.602 430.128 336.602 431.892C336.602 433.656 338.102 435.144 339.878 435.144ZM339.878 434.112C338.738 434.112 337.79 433.104 337.79 431.892C337.79 430.692 338.738 429.684 339.878 429.684C340.994 429.684 341.942 430.692 341.942 431.892C341.942 433.104 340.994 434.112 339.878 434.112ZM345.768 429.984V428.796H344.58V435H345.768V431.472C345.876 430.392 346.788 429.684 348.072 429.684V428.652C347.004 428.652 346.164 429.168 345.768 429.984ZM350.323 437.16C351.211 437.148 351.871 436.68 352.315 435.564L355.051 428.796H353.815L351.931 433.692L349.939 428.796H348.667L351.331 435.036L351.019 435.696C350.815 436.056 350.551 436.176 350.167 436.176C349.927 436.176 349.651 436.116 349.411 435.984L349.147 436.896C349.471 437.064 349.903 437.16 350.323 437.16Z" fill="#313131"/>
<g filter="url(#filter3_d)">
<rect x="479" y="214" width="110" height="36" rx="3" fill="white"/>
<rect x="479.5" y="214.5" width="109" height="35" rx="2.5" stroke="#E0DFDF"/>
</g>
<path d="M525.7 236.144C526.876 236.144 527.956 235.64 528.736 234.848L527.884 234.032C527.332 234.632 526.552 235.028 525.7 235.028C524.056 235.028 522.664 233.588 522.664 231.872C522.664 230.168 524.056 228.728 525.7 228.728C526.552 228.728 527.332 229.124 527.884 229.724L528.736 228.908C527.956 228.104 526.876 227.612 525.7 227.612C523.384 227.612 521.416 229.556 521.416 231.872C521.416 234.188 523.384 236.144 525.7 236.144ZM532.859 236.144C534.623 236.144 536.111 234.656 536.111 232.892C536.111 231.128 534.623 229.652 532.859 229.652C531.083 229.652 529.583 231.128 529.583 232.892C529.583 234.656 531.083 236.144 532.859 236.144ZM532.859 235.112C531.719 235.112 530.771 234.104 530.771 232.892C530.771 231.692 531.719 230.684 532.859 230.684C533.975 230.684 534.923 231.692 534.923 232.892C534.923 234.104 533.975 235.112 532.859 235.112ZM539.745 236.144C541.101 236.144 542.097 235.4 542.097 234.224C542.097 232.988 541.005 232.652 539.985 232.352C538.941 232.028 538.557 231.884 538.557 231.404C538.557 230.936 539.037 230.672 539.649 230.672C540.189 230.672 540.813 230.876 541.413 231.248L541.941 230.372C541.269 229.928 540.453 229.652 539.649 229.652C538.329 229.652 537.381 230.396 537.393 231.536C537.393 232.544 538.101 232.952 539.529 233.348C540.297 233.564 540.933 233.744 540.933 234.32C540.933 234.8 540.453 235.124 539.757 235.124C539.025 235.124 538.317 234.848 537.657 234.368L537.093 235.22C537.837 235.82 538.833 236.144 539.745 236.144ZM546.381 234.884C546.249 235.016 546.009 235.112 545.745 235.112C545.397 235.112 545.109 234.8 545.109 234.368V230.804H546.573V229.796H545.109V228.092H543.945V229.796H543.009V230.804H543.945V234.452C543.945 235.448 544.617 236.144 545.577 236.144C546.021 236.144 546.477 235.976 546.813 235.7L546.381 234.884Z" fill="#313131"/>
<g filter="url(#filter4_d)">
<rect x="271" y="76" width="110" height="36" rx="3" fill="white"/>
<rect x="271.5" y="76.5" width="109" height="35" rx="2.5" stroke="#E0DFDF"/>
</g>
<path d="M312.375 98H313.587V95.132H315.843C317.583 95.132 318.903 94.016 318.903 92.444C318.903 90.872 317.583 89.756 315.843 89.756H312.375V98ZM313.587 94.004V90.884H315.675C316.863 90.884 317.667 91.472 317.667 92.444C317.667 93.416 316.863 94.004 315.675 94.004H313.587ZM321.38 92.984V91.796H320.192V98H321.38V94.472C321.488 93.392 322.4 92.684 323.684 92.684V91.652C322.616 91.652 321.776 92.168 321.38 92.984ZM325.431 90.764C325.815 90.764 326.139 90.428 326.139 90.044C326.139 89.672 325.815 89.336 325.431 89.336C325.023 89.336 324.711 89.672 324.711 90.044C324.711 90.428 325.023 90.764 325.431 90.764ZM324.831 98H326.019V91.796H324.831V98ZM330.665 98.144C331.589 98.144 332.393 97.76 332.993 97.148L332.189 96.416C331.805 96.848 331.253 97.112 330.677 97.112C329.537 97.112 328.601 96.104 328.601 94.892C328.601 93.692 329.537 92.684 330.665 92.684C331.241 92.684 331.781 92.936 332.153 93.356L332.957 92.612C332.369 92.024 331.565 91.652 330.677 91.652C328.901 91.652 327.401 93.128 327.401 94.892C327.401 96.656 328.901 98.144 330.665 98.144ZM337.108 97.088C336.04 97.088 335.284 96.344 335.128 95.312H340.012C340.012 93.092 338.92 91.652 337.024 91.652C335.308 91.652 333.928 93.02 333.928 94.88C333.928 96.788 335.392 98.144 337.12 98.144C337.996 98.144 339.076 97.772 339.628 97.184L338.884 96.416C338.512 96.8 337.756 97.088 337.108 97.088ZM337.072 92.708C338.14 92.708 338.728 93.404 338.86 94.364H335.14C335.332 93.356 336.112 92.708 337.072 92.708Z" fill="#313131"/>
<g filter="url(#filter5_d)">
<rect x="65" y="214" width="110" height="36" rx="3" fill="white"/>
<rect x="65.5" y="214.5" width="109" height="35" rx="2.5" stroke="#E0DFDF"/>
</g>
<path d="M83.4645 236H84.6765V233.132H86.9325C88.6725 233.132 89.9925 232.016 89.9925 230.444C89.9925 228.872 88.6725 227.756 86.9325 227.756H83.4645V236ZM84.6765 232.004V228.884H86.7645C87.9525 228.884 88.7565 229.472 88.7565 230.444C88.7565 231.416 87.9525 232.004 86.7645 232.004H84.6765ZM94.0655 235.088C92.9975 235.088 92.2415 234.344 92.0855 233.312H96.9695C96.9695 231.092 95.8775 229.652 93.9815 229.652C92.2655 229.652 90.8855 231.02 90.8855 232.88C90.8855 234.788 92.3495 236.144 94.0775 236.144C94.9535 236.144 96.0335 235.772 96.5855 235.184L95.8415 234.416C95.4695 234.8 94.7135 235.088 94.0655 235.088ZM94.0295 230.708C95.0975 230.708 95.6855 231.404 95.8175 232.364H92.0975C92.2895 231.356 93.0695 230.708 94.0295 230.708ZM99.5945 230.984V229.796H98.4065V236H99.5945V232.472C99.7025 231.392 100.615 230.684 101.899 230.684V229.652C100.831 229.652 99.9905 230.168 99.5945 230.984ZM104.689 229.112C104.689 228.68 104.977 228.368 105.325 228.368C105.589 228.368 105.829 228.464 105.961 228.596L106.393 227.804C106.057 227.528 105.601 227.36 105.157 227.36C104.197 227.36 103.525 228.056 103.525 229.052V229.796H102.589V230.804H103.525V236H104.689V230.804H106.153V229.796H104.689V229.112ZM110.322 236.144C112.086 236.144 113.574 234.656 113.574 232.892C113.574 231.128 112.086 229.652 110.322 229.652C108.546 229.652 107.046 231.128 107.046 232.892C107.046 234.656 108.546 236.144 110.322 236.144ZM110.322 235.112C109.182 235.112 108.234 234.104 108.234 232.892C108.234 231.692 109.182 230.684 110.322 230.684C111.438 230.684 112.386 231.692 112.386 232.892C112.386 234.104 111.438 235.112 110.322 235.112ZM116.212 230.984V229.796H115.024V236H116.212V232.472C116.32 231.392 117.232 230.684 118.516 230.684V229.652C117.448 229.652 116.608 230.168 116.212 230.984ZM126.611 229.652C125.675 229.652 124.883 230.132 124.595 230.9C124.235 230.132 123.503 229.652 122.603 229.652C121.811 229.652 121.163 230.048 120.851 230.66V229.796H119.663V236H120.851V232.124C120.851 231.272 121.475 230.684 122.363 230.684C123.143 230.684 123.683 231.32 123.683 232.232V236H124.847V232.124C124.847 231.272 125.471 230.684 126.359 230.684C127.139 230.684 127.679 231.32 127.679 232.232V236H128.843V232.052C128.843 230.648 127.907 229.652 126.611 229.652ZM133.154 229.652C132.47 229.652 131.69 229.832 130.802 230.276L131.234 231.152C131.774 230.876 132.374 230.636 132.986 230.636C134.222 230.636 134.582 231.464 134.582 232.244V232.436C133.982 232.232 133.322 232.1 132.71 232.1C131.342 232.1 130.226 232.928 130.226 234.164C130.226 235.376 131.198 236.144 132.518 236.144C133.274 236.144 134.126 235.796 134.582 235.148V236H135.746V232.244C135.746 230.708 134.822 229.652 133.154 229.652ZM132.746 235.208C131.966 235.208 131.366 234.8 131.366 234.128C131.366 233.456 132.062 232.988 132.89 232.988C133.502 232.988 134.078 233.072 134.582 233.228V234.056C134.378 234.824 133.514 235.208 132.746 235.208ZM140.62 229.652C139.78 229.652 139.024 230.084 138.652 230.696V229.796H137.464V236H138.652V231.98C138.748 231.248 139.492 230.684 140.356 230.684C141.196 230.684 141.784 231.332 141.784 232.256V236H142.948V232.052C142.948 230.648 141.988 229.652 140.62 229.652ZM147.575 236.144C148.499 236.144 149.303 235.76 149.903 235.148L149.099 234.416C148.715 234.848 148.163 235.112 147.587 235.112C146.447 235.112 145.511 234.104 145.511 232.892C145.511 231.692 146.447 230.684 147.575 230.684C148.151 230.684 148.691 230.936 149.063 231.356L149.867 230.612C149.279 230.024 148.475 229.652 147.587 229.652C145.811 229.652 144.311 231.128 144.311 232.892C144.311 234.656 145.811 236.144 147.575 236.144ZM154.019 235.088C152.951 235.088 152.195 234.344 152.039 233.312H156.923C156.923 231.092 155.831 229.652 153.935 229.652C152.219 229.652 150.839 231.02 150.839 232.88C150.839 234.788 152.303 236.144 154.031 236.144C154.907 236.144 155.987 235.772 156.539 235.184L155.795 234.416C155.423 234.8 154.667 235.088 154.019 235.088ZM153.983 230.708C155.051 230.708 155.639 231.404 155.771 232.364H152.051C152.243 231.356 153.023 230.708 153.983 230.708Z" fill="#313131"/>
<rect x="56" y="209" width="34" height="14" rx="7" fill="#4E4E4E"/>
<path d="M66.9685 218.096C68.3125 218.096 69.1045 217.4 69.1045 216.352C69.1045 215.336 68.3205 214.984 67.1365 214.72C66.2885 214.528 65.9605 214.4 65.9605 214C65.9605 213.672 66.2645 213.408 66.7685 213.408C67.2965 213.408 67.8485 213.624 68.3365 214.016L68.9525 213.168C68.3925 212.688 67.6965 212.408 66.8005 212.408C65.6005 212.408 64.7685 213.104 64.7685 214.12C64.7685 215.184 65.5925 215.512 66.7525 215.776C67.5925 215.968 67.9125 216.088 67.9125 216.48C67.9125 216.824 67.6085 217.096 67.0165 217.096C66.3205 217.096 65.7285 216.824 65.2085 216.376L64.5285 217.184C65.1685 217.776 66.0165 218.096 66.9685 218.096ZM71.895 216.936V212.504H70.711V218H74.631V216.936H71.895ZM80.2237 218H81.5517L79.3117 212.504H77.9917L75.7517 218H77.0717L77.4237 217.136H79.8717L80.2237 218ZM77.8317 216.136L78.6477 214.128L79.4637 216.136H77.8317Z" fill="white"/>
<g filter="url(#filter6_d)">
<rect x="65" y="79" width="110" height="36" rx="3" fill="white"/>
<rect x="65.5" y="79.5" width="109" height="35" rx="2.5" stroke="#E0DFDF"/>
</g>
<path d="M95.7573 101H97.1013L93.5613 92.756H92.2173L88.6773 101H90.0213L90.7413 99.32H95.0373L95.7573 101ZM91.2093 98.228L92.8893 94.316L94.5693 98.228H91.2093ZM100.34 101H101.456L104.072 94.796H102.788L100.892 99.62L98.9602 94.796H97.6762L100.34 101ZM107.349 94.652C106.665 94.652 105.885 94.832 104.997 95.276L105.429 96.152C105.969 95.876 106.569 95.636 107.181 95.636C108.417 95.636 108.777 96.464 108.777 97.244V97.436C108.177 97.232 107.517 97.1 106.905 97.1C105.537 97.1 104.421 97.928 104.421 99.164C104.421 100.376 105.393 101.144 106.713 101.144C107.469 101.144 108.321 100.796 108.777 100.148V101H109.941V97.244C109.941 95.708 109.017 94.652 107.349 94.652ZM106.941 100.208C106.161 100.208 105.561 99.8 105.561 99.128C105.561 98.456 106.257 97.988 107.085 97.988C107.697 97.988 108.273 98.072 108.777 98.228V99.056C108.573 99.824 107.709 100.208 106.941 100.208ZM112.247 93.764C112.631 93.764 112.955 93.428 112.955 93.044C112.955 92.672 112.631 92.336 112.247 92.336C111.839 92.336 111.527 92.672 111.527 93.044C111.527 93.428 111.839 93.764 112.247 93.764ZM111.647 101H112.835V94.796H111.647V101ZM114.554 101H115.73V92.612H114.554V101ZM120.064 94.652C119.38 94.652 118.6 94.832 117.712 95.276L118.144 96.152C118.684 95.876 119.284 95.636 119.896 95.636C121.132 95.636 121.492 96.464 121.492 97.244V97.436C120.892 97.232 120.232 97.1 119.62 97.1C118.252 97.1 117.136 97.928 117.136 99.164C117.136 100.376 118.108 101.144 119.428 101.144C120.184 101.144 121.036 100.796 121.492 100.148V101H122.656V97.244C122.656 95.708 121.732 94.652 120.064 94.652ZM119.656 100.208C118.876 100.208 118.276 99.8 118.276 99.128C118.276 98.456 118.972 97.988 119.8 97.988C120.412 97.988 120.988 98.072 121.492 98.228V99.056C121.288 99.824 120.424 100.208 119.656 100.208ZM127.818 94.652C126.858 94.652 126.09 95.108 125.61 95.864V92.612H124.434V101H125.61V99.92C126.09 100.688 126.858 101.144 127.818 101.144C129.45 101.144 130.674 99.8 130.674 97.892C130.674 95.996 129.45 94.652 127.818 94.652ZM127.53 100.112C126.414 100.112 125.61 99.188 125.61 97.892C125.61 96.596 126.414 95.684 127.53 95.684C128.67 95.684 129.474 96.596 129.474 97.892C129.474 99.188 128.67 100.112 127.53 100.112ZM132.696 93.764C133.08 93.764 133.404 93.428 133.404 93.044C133.404 92.672 133.08 92.336 132.696 92.336C132.288 92.336 131.976 92.672 131.976 93.044C131.976 93.428 132.288 93.764 132.696 93.764ZM132.096 101H133.284V94.796H132.096V101ZM135.003 101H136.179V92.612H135.003V101ZM138.497 93.764C138.881 93.764 139.205 93.428 139.205 93.044C139.205 92.672 138.881 92.336 138.497 92.336C138.089 92.336 137.777 92.672 137.777 93.044C137.777 93.428 138.089 93.764 138.497 93.764ZM137.897 101H139.085V94.796H137.897V101ZM143.708 99.884C143.576 100.016 143.336 100.112 143.072 100.112C142.724 100.112 142.436 99.8 142.436 99.368V95.804H143.9V94.796H142.436V93.092H141.272V94.796H140.336V95.804H141.272V99.452C141.272 100.448 141.944 101.144 142.904 101.144C143.348 101.144 143.804 100.976 144.14 100.7L143.708 99.884ZM146.442 103.16C147.33 103.148 147.99 102.68 148.434 101.564L151.17 94.796H149.934L148.05 99.692L146.058 94.796H144.786L147.45 101.036L147.138 101.696C146.934 102.056 146.67 102.176 146.286 102.176C146.046 102.176 145.77 102.116 145.53 101.984L145.266 102.896C145.59 103.064 146.022 103.16 146.442 103.16Z" fill="#313131"/>
<rect x="56" y="74" width="34" height="14" rx="7" fill="#4E4E4E"/>
<path d="M66.9685 83.096C68.3125 83.096 69.1045 82.4 69.1045 81.352C69.1045 80.336 68.3205 79.984 67.1365 79.72C66.2885 79.528 65.9605 79.4 65.9605 79C65.9605 78.672 66.2645 78.408 66.7685 78.408C67.2965 78.408 67.8485 78.624 68.3365 79.016L68.9525 78.168C68.3925 77.688 67.6965 77.408 66.8005 77.408C65.6005 77.408 64.7685 78.104 64.7685 79.12C64.7685 80.184 65.5925 80.512 66.7525 80.776C67.5925 80.968 67.9125 81.088 67.9125 81.48C67.9125 81.824 67.6085 82.096 67.0165 82.096C66.3205 82.096 65.7285 81.824 65.2085 81.376L64.5285 82.184C65.1685 82.776 66.0165 83.096 66.9685 83.096ZM71.895 81.936V77.504H70.711V83H74.631V81.936H71.895ZM80.2237 83H81.5517L79.3117 77.504H77.9917L75.7517 83H77.0717L77.4237 82.136H79.8717L80.2237 83ZM77.8317 81.136L78.6477 79.128L79.4637 81.136H77.8317Z" fill="white"/>
<g filter="url(#filter7_d)">
<rect x="479" y="352" width="110" height="36" rx="3" fill="white"/>
<rect x="479.5" y="352.5" width="109" height="35" rx="2.5" stroke="#E0DFDF"/>
</g>
<path d="M504.882 374.144C506.058 374.144 507.138 373.64 507.918 372.848L507.066 372.032C506.514 372.632 505.734 373.028 504.882 373.028C503.238 373.028 501.846 371.588 501.846 369.872C501.846 368.168 503.238 366.728 504.882 366.728C505.734 366.728 506.514 367.124 507.066 367.724L507.918 366.908C507.138 366.104 506.058 365.612 504.882 365.612C502.566 365.612 500.598 367.556 500.598 369.872C500.598 372.188 502.566 374.144 504.882 374.144ZM512.04 374.144C513.804 374.144 515.292 372.656 515.292 370.892C515.292 369.128 513.804 367.652 512.04 367.652C510.264 367.652 508.764 369.128 508.764 370.892C508.764 372.656 510.264 374.144 512.04 374.144ZM512.04 373.112C510.9 373.112 509.952 372.104 509.952 370.892C509.952 369.692 510.9 368.684 512.04 368.684C513.156 368.684 514.104 369.692 514.104 370.892C514.104 372.104 513.156 373.112 512.04 373.112ZM523.618 367.652C522.682 367.652 521.89 368.132 521.602 368.9C521.242 368.132 520.51 367.652 519.61 367.652C518.818 367.652 518.17 368.048 517.858 368.66V367.796H516.67V374H517.858V370.124C517.858 369.272 518.482 368.684 519.37 368.684C520.15 368.684 520.69 369.32 520.69 370.232V374H521.854V370.124C521.854 369.272 522.478 368.684 523.366 368.684C524.146 368.684 524.686 369.32 524.686 370.232V374H525.85V370.052C525.85 368.648 524.914 367.652 523.618 367.652ZM531.001 367.652C530.041 367.652 529.273 368.108 528.793 368.864V367.796H527.617V376.064H528.793V372.92C529.273 373.688 530.041 374.144 531.001 374.144C532.633 374.144 533.857 372.8 533.857 370.892C533.857 368.996 532.633 367.652 531.001 367.652ZM530.713 373.112C529.597 373.112 528.793 372.188 528.793 370.892C528.793 369.596 529.597 368.684 530.713 368.684C531.853 368.684 532.657 369.596 532.657 370.892C532.657 372.188 531.853 373.112 530.713 373.112ZM535.292 374H536.468V365.612H535.292V374ZM538.786 366.764C539.17 366.764 539.494 366.428 539.494 366.044C539.494 365.672 539.17 365.336 538.786 365.336C538.378 365.336 538.066 365.672 538.066 366.044C538.066 366.428 538.378 366.764 538.786 366.764ZM538.186 374H539.374V367.796H538.186V374ZM543.697 367.652C543.013 367.652 542.233 367.832 541.345 368.276L541.777 369.152C542.317 368.876 542.917 368.636 543.529 368.636C544.765 368.636 545.125 369.464 545.125 370.244V370.436C544.525 370.232 543.865 370.1 543.253 370.1C541.885 370.1 540.769 370.928 540.769 372.164C540.769 373.376 541.741 374.144 543.061 374.144C543.817 374.144 544.669 373.796 545.125 373.148V374H546.289V370.244C546.289 368.708 545.365 367.652 543.697 367.652ZM543.289 373.208C542.509 373.208 541.909 372.8 541.909 372.128C541.909 371.456 542.605 370.988 543.433 370.988C544.045 370.988 544.621 371.072 545.125 371.228V372.056C544.921 372.824 544.057 373.208 543.289 373.208ZM551.163 367.652C550.323 367.652 549.567 368.084 549.195 368.696V367.796H548.007V374H549.195V369.98C549.291 369.248 550.035 368.684 550.899 368.684C551.739 368.684 552.327 369.332 552.327 370.256V374H553.491V370.052C553.491 368.648 552.531 367.652 551.163 367.652ZM558.118 374.144C559.042 374.144 559.846 373.76 560.446 373.148L559.642 372.416C559.258 372.848 558.706 373.112 558.13 373.112C556.99 373.112 556.054 372.104 556.054 370.892C556.054 369.692 556.99 368.684 558.118 368.684C558.694 368.684 559.234 368.936 559.606 369.356L560.41 368.612C559.822 368.024 559.018 367.652 558.13 367.652C556.354 367.652 554.854 369.128 554.854 370.892C554.854 372.656 556.354 374.144 558.118 374.144ZM564.562 373.088C563.494 373.088 562.738 372.344 562.582 371.312H567.466C567.466 369.092 566.374 367.652 564.478 367.652C562.762 367.652 561.382 369.02 561.382 370.88C561.382 372.788 562.846 374.144 564.574 374.144C565.45 374.144 566.53 373.772 567.082 373.184L566.338 372.416C565.966 372.8 565.21 373.088 564.562 373.088ZM564.526 368.708C565.594 368.708 566.182 369.404 566.314 370.364H562.594C562.786 369.356 563.566 368.708 564.526 368.708Z" fill="#313131"/>
<defs>
<filter id="filter0_d" x="269" y="213" width="114" height="40" filterUnits="userSpaceOnUse" color-interpolation-filters="sRGB">
<feFlood flood-opacity="0" result="BackgroundImageFix"/>
<feColorMatrix in="SourceAlpha" type="matrix" values="0 0 0 0 0 0 0 0 0 0 0 0 0 0 0 0 0 0 127 0"/>
<feOffset dy="1"/>
<feGaussianBlur stdDeviation="1"/>
<feColorMatrix type="matrix" values="0 0 0 0 0 0 0 0 0 0 0 0 0 0 0 0 0 0 0.2 0"/>
<feBlend mode="normal" in2="BackgroundImageFix" result="effect1_dropShadow"/>
<feBlend mode="normal" in="SourceGraphic" in2="effect1_dropShadow" result="shape"/>
</filter>
<filter id="filter1_d" x="271" y="351" width="114" height="40" filterUnits="userSpaceOnUse" color-interpolation-filters="sRGB">
<feFlood flood-opacity="0" result="BackgroundImageFix"/>
<feColorMatrix in="SourceAlpha" type="matrix" values="0 0 0 0 0 0 0 0 0 0 0 0 0 0 0 0 0 0 127 0"/>
<feOffset dy="1"/>
<feGaussianBlur stdDeviation="1"/>
<feColorMatrix type="matrix" values="0 0 0 0 0 0 0 0 0 0 0 0 0 0 0 0 0 0 0.2 0"/>
<feBlend mode="normal" in2="BackgroundImageFix" result="effect1_dropShadow"/>
<feBlend mode="normal" in="SourceGraphic" in2="effect1_dropShadow" result="shape"/>
</filter>
<filter id="filter2_d" x="271" y="412" width="114" height="40" filterUnits="userSpaceOnUse" color-interpolation-filters="sRGB">
<feFlood flood-opacity="0" result="BackgroundImageFix"/>
<feColorMatrix in="SourceAlpha" type="matrix" values="0 0 0 0 0 0 0 0 0 0 0 0 0 0 0 0 0 0 127 0"/>
<feOffset dy="1"/>
<feGaussianBlur stdDeviation="1"/>
<feColorMatrix type="matrix" values="0 0 0 0 0 0 0 0 0 0 0 0 0 0 0 0 0 0 0.2 0"/>
<feBlend mode="normal" in2="BackgroundImageFix" result="effect1_dropShadow"/>
<feBlend mode="normal" in="SourceGraphic" in2="effect1_dropShadow" result="shape"/>
</filter>
<filter id="filter3_d" x="477" y="213" width="114" height="40" filterUnits="userSpaceOnUse" color-interpolation-filters="sRGB">
<feFlood flood-opacity="0" result="BackgroundImageFix"/>
<feColorMatrix in="SourceAlpha" type="matrix" values="0 0 0 0 0 0 0 0 0 0 0 0 0 0 0 0 0 0 127 0"/>
<feOffset dy="1"/>
<feGaussianBlur stdDeviation="1"/>
<feColorMatrix type="matrix" values="0 0 0 0 0 0 0 0 0 0 0 0 0 0 0 0 0 0 0.2 0"/>
<feBlend mode="normal" in2="BackgroundImageFix" result="effect1_dropShadow"/>
<feBlend mode="normal" in="SourceGraphic" in2="effect1_dropShadow" result="shape"/>
</filter>
<filter id="filter4_d" x="269" y="75" width="114" height="40" filterUnits="userSpaceOnUse" color-interpolation-filters="sRGB">
<feFlood flood-opacity="0" result="BackgroundImageFix"/>
<feColorMatrix in="SourceAlpha" type="matrix" values="0 0 0 0 0 0 0 0 0 0 0 0 0 0 0 0 0 0 127 0"/>
<feOffset dy="1"/>
<feGaussianBlur stdDeviation="1"/>
<feColorMatrix type="matrix" values="0 0 0 0 0 0 0 0 0 0 0 0 0 0 0 0 0 0 0.2 0"/>
<feBlend mode="normal" in2="BackgroundImageFix" result="effect1_dropShadow"/>
<feBlend mode="normal" in="SourceGraphic" in2="effect1_dropShadow" result="shape"/>
</filter>
<filter id="filter5_d" x="63" y="213" width="114" height="40" filterUnits="userSpaceOnUse" color-interpolation-filters="sRGB">
<feFlood flood-opacity="0" result="BackgroundImageFix"/>
<feColorMatrix in="SourceAlpha" type="matrix" values="0 0 0 0 0 0 0 0 0 0 0 0 0 0 0 0 0 0 127 0"/>
<feOffset dy="1"/>
<feGaussianBlur stdDeviation="1"/>
<feColorMatrix type="matrix" values="0 0 0 0 0 0 0 0 0 0 0 0 0 0 0 0 0 0 0.2 0"/>
<feBlend mode="normal" in2="BackgroundImageFix" result="effect1_dropShadow"/>
<feBlend mode="normal" in="SourceGraphic" in2="effect1_dropShadow" result="shape"/>
</filter>
<filter id="filter6_d" x="63" y="78" width="114" height="40" filterUnits="userSpaceOnUse" color-interpolation-filters="sRGB">
<feFlood flood-opacity="0" result="BackgroundImageFix"/>
<feColorMatrix in="SourceAlpha" type="matrix" values="0 0 0 0 0 0 0 0 0 0 0 0 0 0 0 0 0 0 127 0"/>
<feOffset dy="1"/>
<feGaussianBlur stdDeviation="1"/>
<feColorMatrix type="matrix" values="0 0 0 0 0 0 0 0 0 0 0 0 0 0 0 0 0 0 0.2 0"/>
<feBlend mode="normal" in2="BackgroundImageFix" result="effect1_dropShadow"/>
<feBlend mode="normal" in="SourceGraphic" in2="effect1_dropShadow" result="shape"/>
</filter>
<filter id="filter7_d" x="477" y="351" width="114" height="40" filterUnits="userSpaceOnUse" color-interpolation-filters="sRGB">
<feFlood flood-opacity="0" result="BackgroundImageFix"/>
<feColorMatrix in="SourceAlpha" type="matrix" values="0 0 0 0 0 0 0 0 0 0 0 0 0 0 0 0 0 0 127 0"/>
<feOffset dy="1"/>
<feGaussianBlur stdDeviation="1"/>
<feColorMatrix type="matrix" values="0 0 0 0 0 0 0 0 0 0 0 0 0 0 0 0 0 0 0.2 0"/>
<feBlend mode="normal" in2="BackgroundImageFix" result="effect1_dropShadow"/>
<feBlend mode="normal" in="SourceGraphic" in2="effect1_dropShadow" result="shape"/>
</filter>
</defs>
</svg>
