<svg width="597" height="368" viewBox="0 0 597 368" fill="none" xmlns="http://www.w3.org/2000/svg">
<path fill-rule="evenodd" clip-rule="evenodd" d="M545.291 229.813C544.65 225.977 543.109 222.35 540.795 219.234C538.482 216.117 535.464 213.6 531.99 211.892C528.516 210.184 524.688 209.333 520.822 209.411C516.956 209.489 513.165 210.494 509.762 212.341C506.474 205.906 501.438 200.541 495.24 196.871C489.041 193.201 481.935 191.376 474.746 191.608C467.557 191.84 460.581 194.12 454.629 198.182C448.677 202.245 443.994 207.923 441.123 214.557C438.236 212.926 434.98 212.07 431.669 212.073C421.379 212.073 412.947 219.621 412.363 229.813H450.967C450.967 229.631 450.967 229.986 450.924 229.813H545.291Z" fill="url(#paint0_linear)"/>
<path d="M388.925 52.4514L159.391 284.278H33.9233L263.162 52.7411L388.925 52.4514Z" fill="url(#paint1_linear)"/>
<path d="M484.43 92.4364L272.322 307.849H87.9297L299.498 92.9869L484.43 92.4364Z" fill="url(#paint2_linear)"/>
<path fill-rule="evenodd" clip-rule="evenodd" d="M165.972 283.952C158.557 283.936 151.257 285.789 144.737 289.341C137.586 275.332 125.959 264.148 111.726 257.589C97.4931 251.03 81.481 249.477 66.2643 253.179C51.0476 256.881 37.5105 265.623 27.8297 277.999C18.1489 290.376 12.8868 305.667 12.8896 321.416H209.977C208.227 310.947 202.847 301.44 194.791 294.581C186.736 287.723 176.526 283.957 165.972 283.952Z" fill="white"/>
<path fill-rule="evenodd" clip-rule="evenodd" d="M498.298 172.45C497.654 168.613 496.109 164.987 493.792 161.871C491.475 158.755 488.452 156.241 484.976 154.536C481.499 152.831 477.668 151.985 473.8 152.068C469.933 152.151 466.142 153.162 462.74 155.014C459.457 148.577 454.424 143.21 448.228 139.536C442.032 135.863 434.927 134.033 427.738 134.261C420.549 134.488 413.572 136.764 407.618 140.822C401.664 144.881 396.977 150.556 394.102 157.188C391.215 155.555 387.959 154.699 384.647 154.703C374.365 154.703 365.961 162.258 365.349 172.45H403.967C403.967 172.269 403.931 172.624 403.917 172.45H498.298Z" fill="white"/>
<path d="M38.6255 226.495H235.331" stroke="#8CDFE9" stroke-width="2.25" stroke-linecap="round" stroke-linejoin="round"/>
<path d="M133.352 216.462C133.405 213.534 132.877 210.624 131.8 207.902C130.722 205.181 129.116 202.703 127.076 200.613C125.035 198.523 122.602 196.863 119.916 195.73C117.231 194.597 114.349 194.013 111.437 194.013C108.525 194.013 105.642 194.597 102.957 195.73C100.272 196.863 97.8378 198.523 95.7975 200.613C93.7572 202.703 92.1513 205.181 91.0736 207.902C89.996 210.624 89.4681 213.534 89.5209 216.462H62.0569" stroke="#8CDFE9" stroke-width="2.25" stroke-linecap="round" stroke-linejoin="round"/>
<path d="M300.131 238.701H505.614" stroke="#8CDFE9" stroke-width="2.25" stroke-linecap="round" stroke-linejoin="round"/>
<path d="M62.4314 238.701H194.257" stroke="#8CDFE9" stroke-width="2.25" stroke-linecap="round" stroke-linejoin="round"/>
<path d="M477.481 321.619C469.473 321.619 456.202 313.412 456.037 302.785C455.914 294.535 461.711 292.572 460.609 281.163C458.701 261.54 470.172 253.956 476.257 253.782C493.294 253.289 488.332 268.957 496.275 279.895C504.621 291.384 500.804 306.48 494.691 313.455C491.141 317.533 486.309 321.619 477.481 321.619Z" fill="#8CDFE9"/>
<path d="M480.267 344.516H476.854L477.524 261.931H479.598L480.267 344.516Z" fill="#8CDFE9"/>
<path d="M498.709 311.738C497.672 308.544 498.046 305.06 498.709 301.757C499.371 298.454 500.214 295.15 500.149 291.789C500.055 287.124 498.176 282.373 499.587 277.903C500.999 273.434 505.564 270.529 510.18 269.827C511.512 269.551 512.894 269.657 514.169 270.131C516.617 271.21 517.611 274.216 517.661 276.911C517.712 279.606 517.114 282.315 517.575 284.966C518.403 289.674 522.313 293.1 524.833 297.15C527.175 300.927 528.332 305.327 528.153 309.775C527.987 313.644 526.504 317.809 523.112 319.634C521.139 320.699 518.792 320.815 516.574 320.699C510.374 320.366 500.927 318.562 498.709 311.738Z" fill="#8CDFE9"/>
<path d="M453.098 293.173C455.417 297.309 456.173 301.749 456.411 306.588C456.656 311.615 458.73 317.62 457.131 322.524C454.251 331.492 441.721 332.122 435.78 326.204C434.134 324.525 432.937 322.454 432.301 320.185C431.666 317.915 431.611 315.52 432.144 313.223C432.749 310.739 434.031 308.472 434.693 305.98C435.665 302.314 435.212 298.425 435.766 294.665C436.321 290.906 438.358 286.893 442.031 285.973C445.826 285.06 449.534 287.9 451.795 291.101C452.266 291.768 452.701 292.46 453.098 293.173Z" fill="#8CDFE9"/>
<path d="M513.953 307.378H512.253V344.516H513.953V307.378Z" fill="#8CDFE9"/>
<path d="M445.581 311.825H443.968V346.993H445.581V311.825Z" fill="#8CDFE9"/>
<path d="M520.211 313.514L512.323 328.737L513.837 329.531L521.725 314.307L520.211 313.514Z" fill="#8CDFE9"/>
<path d="M224.601 267.704L233.026 295.013L254.91 312.209L250.733 315.998L225.696 301.076L215.744 274.187L224.601 267.704Z" fill="#1D428A"/>
<path d="M248.588 305.972C248.588 305.972 243.144 307.986 241.898 312.035L245.088 313.955L253.844 309.696L248.588 305.972Z" fill="#F7C22B"/>
<path d="M249.725 338.279C234.848 338.279 191.398 318.627 164.222 318.584C123.077 318.526 50.5212 352.354 50.5212 352.354H249.725V338.279Z" fill="#8CDFE9"/>
<path d="M264.768 220.048L271.558 220.193L272.141 224.916C272.149 225.535 271.914 226.133 271.487 226.579C271.059 227.025 270.474 227.284 269.859 227.299H264.717L264.35 223.025L264.768 220.048Z" fill="#F7C22B"/>
<path d="M276.051 203.004C270.982 202.854 265.913 202.943 260.843 203.272C239.241 204.67 215.636 196.876 215.226 167.778C214.909 145.221 225.178 139.6 216.112 109.633C207.046 79.6658 226.949 64.657 242.035 60.7599C257.12 56.8628 255.054 44.1574 266.518 33.7772C285.189 16.9067 314.612 40.2965 308.722 66.6272C303.422 90.314 308.47 94.3777 317.586 104.099C327.602 114.783 327.977 135.326 317.139 150.031C308.347 161.968 318.349 177.97 309.37 190.422C301.139 201.867 285.348 203.279 276.051 203.004Z" fill="url(#paint3_linear)"/>
<path style="mix-blend-mode:multiply" d="M308.736 66.6416C314.626 40.2964 285.204 16.9211 266.532 33.7916C255.011 44.1718 257.171 56.8554 242.049 60.7743C226.927 64.6931 207.075 79.673 216.126 109.647C225.178 139.622 214.924 145.235 215.24 167.792C215.24 169.205 215.334 170.559 215.464 171.87L215.996 178.947L306.828 86.4603C306.209 81.7447 306.756 75.5948 308.736 66.6416Z" fill="url(#paint4_linear)"/>
<path d="M294.558 339.663C294.558 339.663 323.303 325.009 360.409 325.009C390.754 325.009 409.678 344.023 430.258 344.023C450.42 344.023 464.454 333.02 484.89 333.02C509.827 333.02 540.517 352.383 540.517 352.383H292.21L294.558 339.663Z" fill="#8CDFE9"/>
<path d="M271.256 308.703H265.013L266.712 82.882H269.556L271.256 308.703Z" fill="url(#paint5_linear)"/>
<path d="M287.681 165.221L268.131 184.88" stroke="url(#paint6_linear)" stroke-width="3.15" stroke-miterlimit="10"/>
<path d="M241.639 169.321L268.188 196.028" stroke="url(#paint7_linear)" stroke-width="3.15" stroke-miterlimit="10"/>
<path d="M304.329 352.462C305.698 346.932 305.797 341.161 304.618 335.586C303.439 330.012 301.013 324.781 297.524 320.29C294.035 315.8 289.575 312.168 284.483 309.67C279.391 307.172 273.8 305.873 268.134 305.873C262.469 305.873 256.877 307.172 251.785 309.67C246.693 312.168 242.233 315.8 238.744 320.29C235.256 324.781 232.83 330.012 231.651 335.586C230.471 341.161 230.57 346.932 231.939 352.462H304.329Z" fill="#4D4D4F"/>
<path d="M392.129 223.735C392.129 223.735 390.595 234.101 389.422 247.936C387.434 253.383 386.75 256.788 387.261 262.742C387.809 269.204 387.895 274.846 387.895 274.846H392.151L396.219 249.653L392.129 223.735Z" fill="#404041"/>
<path d="M387.441 254.926C387.046 257.513 386.981 260.139 387.247 262.742C387.794 269.204 387.88 274.846 387.88 274.846H392.136L395.348 254.926H387.441Z" fill="#D8B690"/>
<path d="M395.398 266.444L396.298 343.611C396.323 344.263 396.184 344.912 395.894 345.496C395.605 346.081 395.174 346.583 394.642 346.957L391.452 349.181C390.938 349.538 390.518 350.015 390.229 350.572C389.939 351.128 389.788 351.747 389.789 352.375H405.631V312.05L412.687 264.379L395.398 266.444Z" fill="url(#paint8_linear)"/>
<path d="M423.121 263.843V343.524C423.117 344.873 423.633 346.171 424.562 347.145L425.771 348.428C426.261 348.949 426.618 349.581 426.813 350.271C427.007 350.961 427.033 351.688 426.887 352.39H416.086L408.064 264.908L423.121 263.843Z" fill="url(#paint9_linear)"/>
<path d="M392.129 223.735L408.655 217.679L426.916 222.975L423.122 263.843L395.398 266.444L392.129 223.735Z" fill="url(#paint10_linear)"/>
<path d="M439.403 247.567L426.916 222.975C426.916 222.975 417.512 221.83 415.28 231.406C415.28 231.406 422.855 241.069 433.462 252.985L439.403 247.567Z" fill="#6D6E70"/>
<path d="M414.329 222.707H403.254V213.956L414.329 209.248V222.707Z" fill="#D8B690"/>
<path d="M406.596 217.607C403.348 217.607 398.963 214.152 398.963 209.929V202.902C398.968 200.868 399.774 198.918 401.205 197.479C402.635 196.041 404.573 195.23 406.596 195.224C408.618 195.23 410.556 196.041 411.987 197.479C413.417 198.918 414.223 200.868 414.228 202.902V209.929C414.228 214.152 409.678 217.607 406.596 217.607Z" fill="#D8B690"/>
<path d="M413.429 210.392C414.527 210.392 415.417 209.186 415.417 207.698C415.417 206.209 414.527 205.003 413.429 205.003C412.331 205.003 411.442 206.209 411.442 207.698C411.442 209.186 412.331 210.392 413.429 210.392Z" fill="#D8B690"/>
<path d="M398.927 204.996L398.991 210.479C398.991 214.717 401.152 217.723 405.054 217.723H405.407C409.325 217.723 412.507 214.282 412.507 210.037V204.996H411.96L410.686 209.719C410.573 210.248 410.286 210.723 409.872 211.069C409.458 211.414 408.941 211.61 408.403 211.624H402.448C401.91 211.61 401.392 211.414 400.978 211.069C400.564 210.723 400.278 210.248 400.165 209.719L398.927 204.996Z" fill="#1F2049"/>
<path d="M406.084 209.595H403.967C402.695 209.595 401.663 210.633 401.663 211.913V212.507C401.663 213.788 402.695 214.825 403.967 214.825H406.084C407.357 214.825 408.388 213.788 408.388 212.507V211.913C408.388 210.633 407.357 209.595 406.084 209.595Z" fill="#1F2049"/>
<path d="M439.402 247.567L413.948 247.161L414.034 251.435C414.034 251.435 422.322 253.608 429.746 255.021C439.69 256.926 439.402 247.567 439.402 247.567Z" fill="#D8B690"/>
<path d="M410.218 245.502L413.948 247.161L406.984 248.204V245.502H410.218Z" fill="#D8B690"/>
<path d="M387.881 274.846L386.484 282.039L389.09 287.668L390.775 287.4L392.136 274.846H387.881Z" fill="#D8B690"/>
<path d="M392.136 274.846L392.993 278.504L392.604 282.431L390.646 282.039L392.136 274.846Z" fill="#D8B690"/>
<path d="M80.8439 281.779C81.3464 281.777 81.8362 281.937 82.2417 282.236C82.6472 282.534 82.9472 282.955 83.0978 283.437L93.3518 316.251H115.617C116.537 316.242 117.432 316.555 118.147 317.139C118.863 317.722 119.353 318.538 119.534 319.446L126.015 352.448L120.657 352.317L113.73 324.313L95.9729 323.104C95.5371 323.105 95.1157 323.261 94.7835 323.545C94.4513 323.828 94.2298 324.221 94.1583 324.654L89.5858 352.448H84.7684L86.3742 322.097L78.5325 284.676C78.4546 284.328 78.4557 283.966 78.5357 283.619C78.6157 283.271 78.7726 282.946 78.9947 282.667C79.2167 282.389 79.4983 282.165 79.8185 282.011C80.1386 281.857 80.4891 281.778 80.8439 281.779Z" fill="#00C1D5"/>
<path d="M35.7595 284.444H80.3399L90.5867 320.337H46.8056L35.7595 284.444Z" fill="#8CDFE9"/>
<path d="M116.697 325.661L116.02 321.583C115.928 321.029 115.644 320.525 115.218 320.162C114.792 319.799 114.252 319.599 113.694 319.598H71.2883L74.5071 325.661H116.697Z" fill="#8CDFE9"/>
<path d="M36.2563 281.779C36.7587 281.777 37.2485 281.937 37.6541 282.236C38.0596 282.534 38.3596 282.955 38.5101 283.437L48.7713 316.251H71.0291C71.9398 316.255 72.8212 316.575 73.5245 317.157C74.2277 317.739 74.7096 318.547 74.8888 319.446L81.3695 352.448L76.0121 352.317L69.0849 325.516H49.8155L44.9981 352.433H40.1735L41.7649 322.111L33.9448 284.676C33.8669 284.328 33.868 283.966 33.948 283.619C34.0281 283.271 34.1849 282.946 34.407 282.667C34.6291 282.389 34.9107 282.165 35.2308 282.011C35.551 281.857 35.9015 281.778 36.2563 281.779Z" fill="#00C1D5"/>
<path fill-rule="evenodd" clip-rule="evenodd" d="M271.191 220.816C280.377 221.633 289.612 221.737 298.813 221.127C308.015 220.488 317.159 219.188 326.177 217.238L318.688 231.392C318.688 231.392 302.349 231.073 290.914 230.124C283.91 229.493 277.032 227.861 270.485 225.278L271.191 220.816Z" fill="#00C1D5"/>
<path d="M337.273 217.31C337.273 217.31 334.105 213.239 335.278 206.097C336.575 198.216 325.413 208.683 325.413 208.683L326.479 218.498L337.273 217.31Z" fill="#775238"/>
<path d="M327.689 213.261C323.138 213.761 319.206 212.232 318.709 207.654L318.133 202.366C317.902 200.165 318.544 197.961 319.92 196.233C321.295 194.505 323.292 193.393 325.478 193.138C327.672 192.904 329.869 193.553 331.589 194.942C333.309 196.332 334.413 198.35 334.659 200.555L335.228 205.843C335.314 206.444 332.233 212.761 327.689 213.261Z" fill="#775238"/>
<path d="M318.342 199.404C317.507 199.085 317.622 196.354 319.566 194.76C321.446 193.151 323.776 192.169 326.234 191.95C332.045 191.312 334.81 195.905 335.365 198.534C335.768 200.958 335.729 203.434 335.25 205.843L327.033 202.823L326.731 200.483C326.683 200.104 326.554 199.74 326.354 199.416C326.154 199.092 325.886 198.815 325.57 198.604C325.254 198.392 324.896 198.253 324.521 198.193C324.146 198.134 323.763 198.156 323.397 198.259L318.356 199.418L318.342 199.404Z" fill="#001559"/>
<path d="M330.481 207.602C331.58 207.481 332.34 206.174 332.178 204.683C332.016 203.191 330.994 202.08 329.895 202.201C328.796 202.322 328.036 203.629 328.198 205.12C328.36 206.611 329.382 207.722 330.481 207.602Z" fill="#775238"/>
<path d="M314.338 264.061L313.121 312.926L314.799 343.712C314.825 344.367 314.685 345.017 314.395 345.603C314.104 346.189 313.671 346.692 313.136 347.066L309.939 349.297C309.423 349.654 309.001 350.132 308.71 350.69C308.419 351.248 308.267 351.869 308.268 352.499H325.154L324.621 311.449L336.69 264.097L314.338 264.061Z" fill="url(#paint11_linear)"/>
<path d="M322.821 264.061L330.929 310.224L337.144 343.676C337.169 344.33 337.03 344.981 336.739 345.567C336.448 346.153 336.015 346.656 335.48 347.03L332.276 349.261C331.761 349.619 331.34 350.097 331.049 350.655C330.758 351.212 330.606 351.833 330.605 352.462H348.312L343.624 307.074L342.04 264.061H322.821Z" fill="#1D428A"/>
<path d="M348.751 222.381C348.751 222.381 342.04 253.347 342.04 263.981H314.338V229.82C314.338 222.772 321.158 217.056 328.164 217.056H335.739L348.751 222.381Z" fill="url(#paint12_linear)"/>
<path d="M362.087 242.786L348.751 222.381C348.751 222.381 336.884 220.997 335.79 231.797L352.179 245.328L362.087 242.786Z" fill="#00C1D5"/>
<path fill-rule="evenodd" clip-rule="evenodd" d="M362.958 253.782L362.087 242.786L351.185 238.73L351.905 243.394L354.44 255.289L362.958 253.782Z" fill="#00C1D5"/>
<path fill-rule="evenodd" clip-rule="evenodd" d="M363.801 270.848L362.901 253.014L358.501 253.738L354.44 255.289L358.775 270.826L363.801 270.848Z" fill="#775238"/>
<path d="M325.212 214.724L323.829 218.875C328.214 218.962 338.094 218.998 338.094 218.998L336.495 214.724H325.212Z" fill="#00C1D5"/>
<path d="M364.024 255.94L363.527 250.37L352.942 251.688L353.979 257.194L364.024 255.94Z" fill="#0091DA"/>
<path d="M267.346 220.425V218.759H270.089C270.359 218.759 270.627 218.812 270.876 218.917C271.126 219.021 271.352 219.173 271.543 219.366C271.734 219.558 271.885 219.787 271.987 220.038C272.09 220.289 272.142 220.559 272.141 220.83V221.359L267.346 220.425Z" fill="#F7C22B"/>
<path d="M267.346 218.751V223.677L269.067 223.04L269.405 220.048L267.346 218.751Z" fill="#F7C22B"/>
<path d="M264.35 219.787H267.54V225.307L266.295 227.299H264.725L263.99 221.946L264.35 219.787Z" fill="#F7C22B"/>
<path fill-rule="evenodd" clip-rule="evenodd" d="M290.662 221.482V230.095C283.751 229.455 276.964 227.84 270.5 225.3L271.22 220.816C277.683 221.399 284.174 221.622 290.662 221.482Z" fill="#775238"/>
<path d="M288.358 230.834L293.506 231.348V220.664H288.358V230.834Z" fill="#0091DA"/>
<path d="M232.926 270.022L229.657 275.535C229.657 275.535 225.804 273.361 224.342 270.862C222.881 268.363 232.926 270.022 232.926 270.022Z" fill="#001559"/>
<path d="M193.091 317.787L197.037 310.087L175.6 279.12H193.703C193.703 279.12 205.008 296.389 206.578 309.008C206.578 309.008 206.578 309.044 206.578 309.058L196.576 341.655H190.671L191.543 322.749C191.621 320.988 192.155 319.277 193.091 317.787Z" fill="url(#paint13_linear)"/>
<path d="M215.262 274.231V299.844L231.061 318.323L226.589 322.829L206.981 303.329L203.309 273.253L215.262 274.231Z" fill="#1D428A"/>
<path d="M185.206 279.12H225.53L224.09 266.045C224.09 266.045 201.58 251.812 177.35 261.149C182.181 271.529 185.206 279.12 185.206 279.12Z" fill="#1D428A"/>
<path d="M177.386 261.149C177.386 261.149 192.414 291.224 194.257 309.862L185.364 310.587L168.5 282.409C167.544 280.808 166.92 279.029 166.666 277.179C166.412 275.329 166.533 273.446 167.021 271.645C167.509 269.843 168.355 268.159 169.508 266.695C170.661 265.231 172.096 264.017 173.727 263.126L177.386 261.149Z" fill="#929497"/>
<path d="M182.073 341.706L194.257 309.833L185.364 310.558L180.194 317.642C179.158 319.066 178.508 320.736 178.307 322.488L176.147 341.662L182.073 341.706Z" fill="#929497"/>
<path d="M230.269 315.44L232.638 318.794L239.291 317.396L238.528 319.301L233.898 321.619L234.747 330.826L233.307 331.673L231.867 327.254L231.039 332.013C230.375 332.062 229.717 331.852 229.202 331.428C228.686 331.003 228.351 330.396 228.267 329.732L227.655 324.915L224.126 321.626C224.545 320.156 225.328 318.816 226.402 317.734C227.477 316.652 228.807 315.863 230.269 315.44Z" fill="#F7C22B"/>
<path d="M201.84 349.181L198.563 346.899C198.015 346.517 197.572 346.002 197.274 345.402C196.975 344.802 196.832 344.136 196.857 343.466L196.929 341.705H189.382L186.725 352.462H203.575C203.572 351.815 203.412 351.178 203.109 350.606C202.807 350.035 202.371 349.546 201.84 349.181Z" fill="#808184"/>
<path d="M187.402 349.181L184.126 346.899C183.578 346.517 183.134 346.002 182.836 345.402C182.538 344.802 182.394 344.136 182.419 343.466L182.498 341.705H174.923L172.266 352.462H189.109C189.11 351.817 188.955 351.182 188.657 350.61C188.36 350.038 187.929 349.548 187.402 349.181Z" fill="#929497"/>
<path d="M216.745 265.35L227.655 257.042L226.539 269.653L222.096 272.76C221.58 273.121 220.996 273.371 220.38 273.494C219.763 273.617 219.128 273.61 218.515 273.474C217.901 273.338 217.322 273.076 216.815 272.703C216.307 272.331 215.881 271.857 215.564 271.312C215.002 270.345 214.812 269.204 215.029 268.105C215.247 267.007 215.858 266.026 216.745 265.35Z" fill="#775238"/>
<path d="M224.301 270.778L222.667 268.698C221.387 267.069 220.803 264.994 221.043 262.932C221.283 260.869 222.328 258.987 223.947 257.699L227.829 254.614C229.448 253.326 231.51 252.738 233.561 252.98C235.611 253.221 237.482 254.272 238.762 255.902C239.396 256.708 239.866 257.633 240.144 258.622C240.423 259.612 240.505 260.647 240.386 261.668C240.268 262.689 239.95 263.677 239.451 264.575C238.953 265.473 238.284 266.263 237.482 266.9L231.527 271.634C230.996 272.057 230.387 272.37 229.736 272.555C229.084 272.741 228.403 272.796 227.731 272.717C227.058 272.637 226.408 272.426 225.817 272.094C225.225 271.762 224.705 271.316 224.285 270.781L224.301 270.778Z" fill="#775238"/>
<path d="M240.688 266.567L229.066 263.409C229.066 263.409 229.217 261.236 227.381 260.917C225.545 260.598 222.693 262.873 223.845 264.466L221.383 269.204C221.383 269.204 218.366 264.633 218.358 261.54C218.358 256.469 223.896 249.581 232.206 250.464C239.464 251.218 244.26 259.374 240.688 266.567Z" fill="#001559"/>
<path d="M389.09 321.133C388.957 321.134 388.823 321.117 388.694 321.083C388.335 320.973 388.033 320.728 387.851 320.398C387.67 320.068 387.623 319.679 387.722 319.315L417.116 216.151C417.263 215.843 417.514 215.597 417.825 215.457C418.135 215.317 418.485 215.292 418.812 215.386C419.139 215.481 419.422 215.689 419.611 215.973C419.8 216.258 419.883 216.601 419.845 216.941L390.451 320.105C390.362 320.4 390.183 320.658 389.938 320.843C389.693 321.028 389.396 321.13 389.09 321.133Z" fill="#000430"/>
<path d="M413.948 247.161L405.588 246.85L405.479 252.985L409.93 253.63C412.183 253.804 413.804 252.949 414.531 251.457L415.165 250.182L413.948 247.161Z" fill="#D8B690"/>
<path d="M414.661 203.272V202.823C414.661 200.671 413.811 198.607 412.298 197.086C410.786 195.564 408.735 194.71 406.596 194.71C404.457 194.712 402.407 195.567 400.895 197.088C399.383 198.609 398.533 200.672 398.531 202.823V203.265H393.685V204.409H414.661V203.265V203.272Z" fill="#001559"/>
<path d="M270.651 220.345V226.002L273.582 226.872L273.826 220.345H270.651Z" fill="#F7C22B"/>
<path d="M363.801 270.848L365.421 278.048L362.325 283.662L360.33 283.394L358.775 270.826L363.801 270.848Z" fill="#F7C22B"/>
<path d="M358.775 270.826L357.752 274.484L358.199 278.41L360.503 278.026L358.775 270.826Z" fill="#F7C22B"/>
<path d="M357.644 268.407L358.775 270.826L363.801 270.848L364.024 267.835L357.644 268.407Z" fill="#F7C22B"/>
<path d="M378.527 327.617H398.206C398.206 327.617 394.174 339.206 392.842 342.647C390.415 348.913 379.038 352.462 379.038 352.462C379.038 352.462 371.743 348.551 373.342 342.828C374.941 337.106 378.527 327.617 378.527 327.617Z" fill="#6D6E70"/>
<path d="M388.125 317.504H391.265L387.909 329.181C387.526 329.182 387.147 329.092 386.804 328.919C386.461 328.746 386.163 328.494 385.934 328.184C385.705 327.875 385.551 327.515 385.485 327.135C385.42 326.754 385.443 326.363 385.555 325.994L388.125 317.504Z" fill="#6D6E70"/>
<path d="M156.921 179.976C170.538 179.976 181.576 168.872 181.576 155.174C181.576 141.476 170.538 130.371 156.921 130.371C143.304 130.371 132.265 141.476 132.265 155.174C132.265 168.872 143.304 179.976 156.921 179.976Z" fill="url(#paint14_linear)"/>
<defs>
<linearGradient id="paint0_linear" x1="412.363" y1="210.726" x2="545.291" y2="210.726" gradientUnits="userSpaceOnUse">
<stop stop-color="#19BFD3" stop-opacity="0"/>
<stop offset="0.3" stop-color="#19BFD3" stop-opacity="0.08"/>
<stop offset="0.7" stop-color="#19BFD3" stop-opacity="0.17"/>
<stop offset="0.99" stop-color="#19BFD3" stop-opacity="0.2"/>
</linearGradient>
<linearGradient id="paint1_linear" x1="211.424" y1="52.4514" x2="211.424" y2="284.278" gradientUnits="userSpaceOnUse">
<stop offset="0.07" stop-color="#F7C22B" stop-opacity="0"/>
<stop offset="0.24" stop-color="#F7C22B" stop-opacity="0.1"/>
<stop offset="0.42" stop-color="#F7C22B" stop-opacity="0.17"/>
<stop offset="0.54" stop-color="#F7C22B" stop-opacity="0.2"/>
<stop offset="0.66" stop-color="#F7C22B" stop-opacity="0.17"/>
<stop offset="0.83" stop-color="#F7C22B" stop-opacity="0.1"/>
<stop offset="1" stop-color="#F7C22B" stop-opacity="0"/>
</linearGradient>
<linearGradient id="paint2_linear" x1="286.176" y1="92.4364" x2="286.176" y2="307.841" gradientUnits="userSpaceOnUse">
<stop offset="0.07" stop-color="#19BFD3" stop-opacity="0"/>
<stop offset="0.19" stop-color="#19BFD3" stop-opacity="0.14"/>
<stop offset="0.33" stop-color="#19BFD3" stop-opacity="0.28"/>
<stop offset="0.45" stop-color="#19BFD3" stop-opacity="0.37"/>
<stop offset="0.54" stop-color="#19BFD3" stop-opacity="0.4"/>
<stop offset="0.63" stop-color="#19BFD3" stop-opacity="0.37"/>
<stop offset="0.75" stop-color="#19BFD3" stop-opacity="0.29"/>
<stop offset="0.88" stop-color="#19BFD3" stop-opacity="0.15"/>
<stop offset="1" stop-color="#19BFD3" stop-opacity="0"/>
</linearGradient>
<linearGradient id="paint3_linear" x1="269.513" y1="28.0692" x2="269.513" y2="203.431" gradientUnits="userSpaceOnUse">
<stop offset="0.31" stop-color="#AADB1E"/>
<stop offset="0.87" stop-color="#85C81A"/>
</linearGradient>
<linearGradient id="paint4_linear" x1="261.671" y1="28.0691" x2="261.671" y2="178.933" gradientUnits="userSpaceOnUse">
<stop offset="0.31" stop-color="#85C81A" stop-opacity="0"/>
<stop offset="0.33" stop-color="#85C81A" stop-opacity="0.02"/>
<stop offset="0.54" stop-color="#85C81A" stop-opacity="0.23"/>
<stop offset="0.72" stop-color="#85C81A" stop-opacity="0.38"/>
<stop offset="0.88" stop-color="#85C81A" stop-opacity="0.47"/>
<stop offset="1" stop-color="#85C81A" stop-opacity="0.5"/>
</linearGradient>
<linearGradient id="paint5_linear" x1="268.138" y1="82.8893" x2="268.138" y2="308.703" gradientUnits="userSpaceOnUse">
<stop stop-color="#4D4D4F" stop-opacity="0"/>
<stop offset="0.06" stop-color="#4D4D4F" stop-opacity="0.18"/>
<stop offset="0.22" stop-color="#4D4D4F" stop-opacity="0.63"/>
<stop offset="0.36" stop-color="#4D4D4F" stop-opacity="0.9"/>
<stop offset="0.45" stop-color="#4D4D4F"/>
</linearGradient>
<linearGradient id="paint6_linear" x1="288.48" y1="175.05" x2="267.331" y2="175.05" gradientUnits="userSpaceOnUse">
<stop offset="0.08" stop-color="#4D4D4F" stop-opacity="0"/>
<stop offset="0.18" stop-color="#4D4D4F" stop-opacity="0.18"/>
<stop offset="0.46" stop-color="#4D4D4F" stop-opacity="0.63"/>
<stop offset="0.68" stop-color="#4D4D4F" stop-opacity="0.9"/>
<stop offset="0.82" stop-color="#4D4D4F"/>
</linearGradient>
<linearGradient id="paint7_linear" x1="9121.11" y1="6904.66" x2="10159.2" y2="6904.66" gradientUnits="userSpaceOnUse">
<stop offset="0.08" stop-color="#4D4D4F" stop-opacity="0"/>
<stop offset="0.18" stop-color="#4D4D4F" stop-opacity="0.18"/>
<stop offset="0.46" stop-color="#4D4D4F" stop-opacity="0.63"/>
<stop offset="0.68" stop-color="#4D4D4F" stop-opacity="0.9"/>
<stop offset="0.82" stop-color="#4D4D4F"/>
</linearGradient>
<linearGradient id="paint8_linear" x1="401.245" y1="352.375" x2="401.245" y2="264.379" gradientUnits="userSpaceOnUse">
<stop offset="0.32" stop-color="#1E4489"/>
<stop offset="0.93" stop-color="#218FCF"/>
</linearGradient>
<linearGradient id="paint9_linear" x1="11375.6" y1="43338.2" x2="11375.6" y2="32516.1" gradientUnits="userSpaceOnUse">
<stop offset="0.32" stop-color="#1E4489"/>
<stop offset="0.93" stop-color="#218FCF"/>
</linearGradient>
<linearGradient id="paint10_linear" x1="409.526" y1="266.444" x2="409.526" y2="217.679" gradientUnits="userSpaceOnUse">
<stop offset="0.07" stop-color="#404041"/>
<stop offset="0.25" stop-color="#444445"/>
<stop offset="0.44" stop-color="#505052"/>
<stop offset="0.64" stop-color="#646566"/>
<stop offset="0.71" stop-color="#6D6E70"/>
</linearGradient>
<linearGradient id="paint11_linear" x1="322.475" y1="352.462" x2="322.475" y2="264.061" gradientUnits="userSpaceOnUse">
<stop offset="0.23" stop-color="#1D2055"/>
<stop offset="0.83" stop-color="#1E4489"/>
</linearGradient>
<linearGradient id="paint12_linear" x1="313.95" y1="225.466" x2="347.335" y2="258.662" gradientUnits="userSpaceOnUse">
<stop offset="0.44" stop-color="#19BFD3"/>
<stop offset="0.6" stop-color="#1BB4D2"/>
<stop offset="0.88" stop-color="#2096D0"/>
<stop offset="0.93" stop-color="#218FCF"/>
</linearGradient>
<linearGradient id="paint13_linear" x1="191.096" y1="341.706" x2="191.096" y2="279.12" gradientUnits="userSpaceOnUse">
<stop stop-color="#808184"/>
<stop offset="0.47" stop-color="#757679"/>
<stop offset="0.74" stop-color="#6D6E70"/>
</linearGradient>
<linearGradient id="paint14_linear" x1="132.265" y1="155.174" x2="181.576" y2="155.174" gradientUnits="userSpaceOnUse">
<stop offset="0.1" stop-color="#F7C22B"/>
<stop offset="0.21" stop-color="#F7C22B" stop-opacity="0.96"/>
<stop offset="0.4" stop-color="#F7C22B" stop-opacity="0.86"/>
<stop offset="0.64" stop-color="#F7C22B" stop-opacity="0.7"/>
<stop offset="0.91" stop-color="#F7C22B" stop-opacity="0.48"/>
<stop offset="1" stop-color="#F7C22B" stop-opacity="0.4"/>
</linearGradient>
</defs>
</svg>
