<svg width="763" height="536" viewBox="0 0 763 536" fill="none" xmlns="http://www.w3.org/2000/svg">
<g filter="url(#filter0_d)">
<rect x="64" y="43" width="231" height="36" rx="3" fill="#C6E5EF"/>
<rect x="64.5" y="43.5" width="230" height="35" rx="2.5" stroke="#90C8DA"/>
</g>
<path d="M160.854 65.132C162.798 65.132 163.854 64.076 163.854 62.684C163.854 61.208 162.714 60.656 161.07 60.272C159.714 59.948 159.006 59.684 159.006 58.916C159.006 58.256 159.654 57.668 160.578 57.668C161.418 57.668 162.246 58.04 162.942 58.676L163.638 57.764C162.846 57.068 161.898 56.6 160.626 56.6C158.97 56.6 157.77 57.644 157.77 59.024C157.77 60.512 158.886 61.016 160.566 61.412C161.946 61.724 162.63 62.024 162.63 62.804C162.63 63.464 162.042 64.064 160.902 64.064C159.786 64.064 158.922 63.608 158.19 62.912L157.458 63.812C158.334 64.652 159.474 65.132 160.854 65.132ZM168.211 63.884C168.079 64.016 167.839 64.112 167.575 64.112C167.227 64.112 166.939 63.8 166.939 63.368V59.804H168.403V58.796H166.939V57.092H165.775V58.796H164.839V59.804H165.775V63.452C165.775 64.448 166.447 65.144 167.407 65.144C167.851 65.144 168.307 64.976 168.643 64.7L168.211 63.884ZM172.794 65.144C174.558 65.144 176.046 63.656 176.046 61.892C176.046 60.128 174.558 58.652 172.794 58.652C171.018 58.652 169.518 60.128 169.518 61.892C169.518 63.656 171.018 65.144 172.794 65.144ZM172.794 64.112C171.654 64.112 170.706 63.104 170.706 61.892C170.706 60.692 171.654 59.684 172.794 59.684C173.91 59.684 174.858 60.692 174.858 61.892C174.858 63.104 173.91 64.112 172.794 64.112ZM178.684 59.984V58.796H177.496V65H178.684V61.472C178.792 60.392 179.704 59.684 180.988 59.684V58.652C179.92 58.652 179.08 59.168 178.684 59.984ZM184.751 58.652C184.067 58.652 183.287 58.832 182.399 59.276L182.831 60.152C183.371 59.876 183.971 59.636 184.583 59.636C185.819 59.636 186.179 60.464 186.179 61.244V61.436C185.579 61.232 184.919 61.1 184.307 61.1C182.939 61.1 181.823 61.928 181.823 63.164C181.823 64.376 182.795 65.144 184.115 65.144C184.871 65.144 185.723 64.796 186.179 64.148V65H187.343V61.244C187.343 59.708 186.419 58.652 184.751 58.652ZM184.343 64.208C183.563 64.208 182.963 63.8 182.963 63.128C182.963 62.456 183.659 61.988 184.487 61.988C185.099 61.988 185.675 62.072 186.179 62.228V63.056C185.975 63.824 185.111 64.208 184.343 64.208ZM193.777 58.796V59.792C193.309 59.096 192.517 58.652 191.581 58.652C189.949 58.652 188.761 59.864 188.761 61.592C188.761 63.32 189.949 64.544 191.581 64.544C192.517 64.544 193.285 64.124 193.777 63.416V64.316C193.777 65.396 192.973 66.032 191.641 66.032C190.897 66.032 190.153 65.78 189.697 65.348L189.229 66.236C189.817 66.716 190.777 67.064 191.821 67.064C193.657 67.064 194.965 65.936 194.965 64.34V58.796H193.777ZM191.881 63.512C190.777 63.512 189.997 62.72 189.997 61.592C189.997 60.476 190.777 59.684 191.881 59.684C192.985 59.684 193.777 60.476 193.777 61.592C193.777 62.72 192.985 63.512 191.881 63.512ZM199.581 64.088C198.513 64.088 197.757 63.344 197.601 62.312H202.485C202.485 60.092 201.393 58.652 199.497 58.652C197.781 58.652 196.401 60.02 196.401 61.88C196.401 63.788 197.865 65.144 199.593 65.144C200.469 65.144 201.549 64.772 202.101 64.184L201.357 63.416C200.985 63.8 200.229 64.088 199.581 64.088ZM199.545 59.708C200.613 59.708 201.201 60.404 201.333 61.364H197.613C197.805 60.356 198.585 59.708 199.545 59.708Z" fill="#313131"/>
<g filter="url(#filter1_d)">
<rect x="362" y="43" width="103" height="36" rx="3" fill="#FFCD97"/>
<rect x="362.5" y="43.5" width="102" height="35" rx="2.5" stroke="#FFCD97"/>
</g>
<path d="M386.316 65H389.16C391.824 65 393.72 63.284 393.72 60.872C393.72 58.46 391.824 56.756 389.16 56.756H386.316V65ZM387.528 63.896V57.86H389.232C391.14 57.86 392.472 59.108 392.472 60.872C392.472 62.648 391.14 63.896 389.232 63.896H387.528ZM397.88 58.652C397.196 58.652 396.416 58.832 395.528 59.276L395.96 60.152C396.5 59.876 397.1 59.636 397.712 59.636C398.948 59.636 399.308 60.464 399.308 61.244V61.436C398.708 61.232 398.048 61.1 397.436 61.1C396.068 61.1 394.952 61.928 394.952 63.164C394.952 64.376 395.924 65.144 397.244 65.144C398 65.144 398.852 64.796 399.308 64.148V65H400.472V61.244C400.472 59.708 399.548 58.652 397.88 58.652ZM397.472 64.208C396.692 64.208 396.092 63.8 396.092 63.128C396.092 62.456 396.788 61.988 397.616 61.988C398.228 61.988 398.804 62.072 399.308 62.228V63.056C399.104 63.824 398.24 64.208 397.472 64.208ZM405.094 63.884C404.962 64.016 404.722 64.112 404.458 64.112C404.11 64.112 403.822 63.8 403.822 63.368V59.804H405.286V58.796H403.822V57.092H402.658V58.796H401.722V59.804H402.658V63.452C402.658 64.448 403.33 65.144 404.29 65.144C404.734 65.144 405.19 64.976 405.526 64.7L405.094 63.884ZM409.341 58.652C408.657 58.652 407.877 58.832 406.989 59.276L407.421 60.152C407.961 59.876 408.561 59.636 409.173 59.636C410.409 59.636 410.769 60.464 410.769 61.244V61.436C410.169 61.232 409.509 61.1 408.897 61.1C407.529 61.1 406.413 61.928 406.413 63.164C406.413 64.376 407.385 65.144 408.705 65.144C409.461 65.144 410.313 64.796 410.769 64.148V65H411.933V61.244C411.933 59.708 411.009 58.652 409.341 58.652ZM408.933 64.208C408.153 64.208 407.553 63.8 407.553 63.128C407.553 62.456 408.249 61.988 409.077 61.988C409.689 61.988 410.265 62.072 410.769 62.228V63.056C410.565 63.824 409.701 64.208 408.933 64.208ZM415.895 65.144C417.251 65.144 418.247 64.4 418.247 63.224C418.247 61.988 417.155 61.652 416.135 61.352C415.091 61.028 414.707 60.884 414.707 60.404C414.707 59.936 415.187 59.672 415.799 59.672C416.339 59.672 416.963 59.876 417.563 60.248L418.091 59.372C417.419 58.928 416.603 58.652 415.799 58.652C414.479 58.652 413.531 59.396 413.543 60.536C413.543 61.544 414.251 61.952 415.679 62.348C416.447 62.564 417.083 62.744 417.083 63.32C417.083 63.8 416.603 64.124 415.907 64.124C415.175 64.124 414.467 63.848 413.807 63.368L413.243 64.22C413.987 64.82 414.983 65.144 415.895 65.144ZM422.532 63.884C422.4 64.016 422.16 64.112 421.896 64.112C421.548 64.112 421.26 63.8 421.26 63.368V59.804H422.724V58.796H421.26V57.092H420.096V58.796H419.16V59.804H420.096V63.452C420.096 64.448 420.768 65.144 421.728 65.144C422.172 65.144 422.628 64.976 422.964 64.7L422.532 63.884ZM427.115 65.144C428.879 65.144 430.367 63.656 430.367 61.892C430.367 60.128 428.879 58.652 427.115 58.652C425.339 58.652 423.839 60.128 423.839 61.892C423.839 63.656 425.339 65.144 427.115 65.144ZM427.115 64.112C425.975 64.112 425.027 63.104 425.027 61.892C425.027 60.692 425.975 59.684 427.115 59.684C428.231 59.684 429.179 60.692 429.179 61.892C429.179 63.104 428.231 64.112 427.115 64.112ZM433.005 59.984V58.796H431.817V65H433.005V61.472C433.113 60.392 434.025 59.684 435.309 59.684V58.652C434.241 58.652 433.401 59.168 433.005 59.984ZM439.312 64.088C438.244 64.088 437.488 63.344 437.332 62.312H442.216C442.216 60.092 441.124 58.652 439.228 58.652C437.512 58.652 436.132 60.02 436.132 61.88C436.132 63.788 437.596 65.144 439.324 65.144C440.2 65.144 441.28 64.772 441.832 64.184L441.088 63.416C440.716 63.8 439.96 64.088 439.312 64.088ZM439.276 59.708C440.344 59.708 440.932 60.404 441.064 61.364H437.344C437.536 60.356 438.316 59.708 439.276 59.708Z" fill="#313131"/>
<g filter="url(#filter2_d)">
<rect x="362" y="226" width="103" height="36" rx="3" fill="#49AFD9"/>
<rect x="362.5" y="226.5" width="102" height="35" rx="2.5" stroke="#0095D3"/>
</g>
<path d="M383.927 239.756V243.236H379.427V239.756H378.215V248H379.427V244.364H383.927V248H385.139V239.756H383.927ZM389.837 248.144C391.601 248.144 393.089 246.656 393.089 244.892C393.089 243.128 391.601 241.652 389.837 241.652C388.061 241.652 386.561 243.128 386.561 244.892C386.561 246.656 388.061 248.144 389.837 248.144ZM389.837 247.112C388.697 247.112 387.749 246.104 387.749 244.892C387.749 243.692 388.697 242.684 389.837 242.684C390.953 242.684 391.901 243.692 391.901 244.892C391.901 246.104 390.953 247.112 389.837 247.112ZM396.723 248.144C398.079 248.144 399.075 247.4 399.075 246.224C399.075 244.988 397.983 244.652 396.963 244.352C395.919 244.028 395.535 243.884 395.535 243.404C395.535 242.936 396.015 242.672 396.627 242.672C397.167 242.672 397.791 242.876 398.391 243.248L398.919 242.372C398.247 241.928 397.431 241.652 396.627 241.652C395.307 241.652 394.359 242.396 394.371 243.536C394.371 244.544 395.079 244.952 396.507 245.348C397.275 245.564 397.911 245.744 397.911 246.32C397.911 246.8 397.431 247.124 396.735 247.124C396.003 247.124 395.295 246.848 394.635 246.368L394.071 247.22C394.815 247.82 395.811 248.144 396.723 248.144ZM403.36 246.884C403.228 247.016 402.988 247.112 402.724 247.112C402.376 247.112 402.088 246.8 402.088 246.368V242.804H403.552V241.796H402.088V240.092H400.924V241.796H399.988V242.804H400.924V246.452C400.924 247.448 401.596 248.144 402.556 248.144C403 248.144 403.456 247.976 403.792 247.7L403.36 246.884ZM411.424 248.132C413.368 248.132 414.424 247.076 414.424 245.684C414.424 244.208 413.284 243.656 411.64 243.272C410.284 242.948 409.576 242.684 409.576 241.916C409.576 241.256 410.224 240.668 411.148 240.668C411.988 240.668 412.816 241.04 413.512 241.676L414.208 240.764C413.416 240.068 412.468 239.6 411.196 239.6C409.54 239.6 408.34 240.644 408.34 242.024C408.34 243.512 409.456 244.016 411.136 244.412C412.516 244.724 413.2 245.024 413.2 245.804C413.2 246.464 412.612 247.064 411.472 247.064C410.356 247.064 409.492 246.608 408.76 245.912L408.028 246.812C408.904 247.652 410.044 248.132 411.424 248.132ZM416.97 250.16C417.858 250.148 418.518 249.68 418.962 248.564L421.698 241.796H420.462L418.578 246.692L416.586 241.796H415.314L417.978 248.036L417.666 248.696C417.462 249.056 417.198 249.176 416.814 249.176C416.574 249.176 416.298 249.116 416.058 248.984L415.794 249.896C416.118 250.064 416.55 250.16 416.97 250.16ZM425.27 248.144C426.626 248.144 427.622 247.4 427.622 246.224C427.622 244.988 426.53 244.652 425.51 244.352C424.466 244.028 424.082 243.884 424.082 243.404C424.082 242.936 424.562 242.672 425.174 242.672C425.714 242.672 426.338 242.876 426.938 243.248L427.466 242.372C426.794 241.928 425.978 241.652 425.174 241.652C423.854 241.652 422.906 242.396 422.918 243.536C422.918 244.544 423.626 244.952 425.054 245.348C425.822 245.564 426.458 245.744 426.458 246.32C426.458 246.8 425.978 247.124 425.282 247.124C424.55 247.124 423.842 246.848 423.182 246.368L422.618 247.22C423.362 247.82 424.358 248.144 425.27 248.144ZM431.907 246.884C431.775 247.016 431.535 247.112 431.271 247.112C430.923 247.112 430.635 246.8 430.635 246.368V242.804H432.099V241.796H430.635V240.092H429.471V241.796H428.535V242.804H429.471V246.452C429.471 247.448 430.143 248.144 431.103 248.144C431.547 248.144 432.003 247.976 432.339 247.7L431.907 246.884ZM436.394 247.088C435.326 247.088 434.57 246.344 434.414 245.312H439.298C439.298 243.092 438.206 241.652 436.31 241.652C434.594 241.652 433.214 243.02 433.214 244.88C433.214 246.788 434.678 248.144 436.406 248.144C437.282 248.144 438.362 247.772 438.914 247.184L438.17 246.416C437.798 246.8 437.042 247.088 436.394 247.088ZM436.358 242.708C437.426 242.708 438.014 243.404 438.146 244.364H434.426C434.618 243.356 435.398 242.708 436.358 242.708ZM447.611 241.652C446.675 241.652 445.883 242.132 445.595 242.9C445.235 242.132 444.503 241.652 443.603 241.652C442.811 241.652 442.163 242.048 441.851 242.66V241.796H440.663V248H441.851V244.124C441.851 243.272 442.475 242.684 443.363 242.684C444.143 242.684 444.683 243.32 444.683 244.232V248H445.847V244.124C445.847 243.272 446.471 242.684 447.359 242.684C448.139 242.684 448.679 243.32 448.679 244.232V248H449.843V244.052C449.843 242.648 448.907 241.652 447.611 241.652Z" fill="white"/>
<g filter="url(#filter3_d)">
<rect x="499" y="225" width="164" height="36" rx="3" fill="#49AFD9"/>
<rect x="499.5" y="225.5" width="163" height="35" rx="2.5" stroke="#0095D3"/>
</g>
<path d="M518.811 247.144C519.987 247.144 521.067 246.64 521.847 245.848L520.995 245.032C520.443 245.632 519.663 246.028 518.811 246.028C517.167 246.028 515.775 244.588 515.775 242.872C515.775 241.168 517.167 239.728 518.811 239.728C519.663 239.728 520.443 240.124 520.995 240.724L521.847 239.908C521.067 239.104 519.987 238.612 518.811 238.612C516.495 238.612 514.527 240.556 514.527 242.872C514.527 245.188 516.495 247.144 518.811 247.144ZM523.03 247H524.206V238.612H523.03V247ZM530.208 240.796V244.816C530.112 245.548 529.368 246.112 528.504 246.112C527.664 246.112 527.076 245.464 527.076 244.54V240.796H525.912V244.744C525.912 246.148 526.872 247.144 528.24 247.144C529.08 247.144 529.836 246.712 530.208 246.1V247H531.396V240.796H530.208ZM535.364 247.144C536.72 247.144 537.716 246.4 537.716 245.224C537.716 243.988 536.624 243.652 535.604 243.352C534.56 243.028 534.176 242.884 534.176 242.404C534.176 241.936 534.656 241.672 535.268 241.672C535.808 241.672 536.432 241.876 537.032 242.248L537.56 241.372C536.888 240.928 536.072 240.652 535.268 240.652C533.948 240.652 533 241.396 533.012 242.536C533.012 243.544 533.72 243.952 535.148 244.348C535.916 244.564 536.552 244.744 536.552 245.32C536.552 245.8 536.072 246.124 535.376 246.124C534.644 246.124 533.936 245.848 533.276 245.368L532.712 246.22C533.456 246.82 534.452 247.144 535.364 247.144ZM542 245.884C541.868 246.016 541.628 246.112 541.364 246.112C541.016 246.112 540.728 245.8 540.728 245.368V241.804H542.192V240.796H540.728V239.092H539.564V240.796H538.628V241.804H539.564V245.452C539.564 246.448 540.236 247.144 541.196 247.144C541.64 247.144 542.096 246.976 542.432 246.7L542 245.884ZM546.487 246.088C545.419 246.088 544.663 245.344 544.507 244.312H549.391C549.391 242.092 548.299 240.652 546.403 240.652C544.687 240.652 543.307 242.02 543.307 243.88C543.307 245.788 544.771 247.144 546.499 247.144C547.375 247.144 548.455 246.772 549.007 246.184L548.263 245.416C547.891 245.8 547.135 246.088 546.487 246.088ZM546.451 241.708C547.519 241.708 548.107 242.404 548.239 243.364H544.519C544.711 242.356 545.491 241.708 546.451 241.708ZM552.016 241.984V240.796H550.828V247H552.016V243.472C552.124 242.392 553.036 241.684 554.32 241.684V240.652C553.252 240.652 552.412 241.168 552.016 241.984ZM561.517 240.652C560.833 240.652 560.053 240.832 559.165 241.276L559.597 242.152C560.137 241.876 560.737 241.636 561.349 241.636C562.585 241.636 562.945 242.464 562.945 243.244V243.436C562.345 243.232 561.685 243.1 561.073 243.1C559.705 243.1 558.589 243.928 558.589 245.164C558.589 246.376 559.561 247.144 560.881 247.144C561.637 247.144 562.489 246.796 562.945 246.148V247H564.109V243.244C564.109 241.708 563.185 240.652 561.517 240.652ZM561.109 246.208C560.329 246.208 559.729 245.8 559.729 245.128C559.729 244.456 560.425 243.988 561.253 243.988C561.865 243.988 562.441 244.072 562.945 244.228V245.056C562.741 245.824 561.877 246.208 561.109 246.208ZM568.983 240.652C568.143 240.652 567.387 241.084 567.015 241.696V240.796H565.827V247H567.015V242.98C567.111 242.248 567.855 241.684 568.719 241.684C569.559 241.684 570.147 242.332 570.147 243.256V247H571.311V243.052C571.311 241.648 570.351 240.652 568.983 240.652ZM577.786 238.612V241.864C577.306 241.108 576.538 240.652 575.578 240.652C573.946 240.652 572.722 241.996 572.722 243.892C572.722 245.8 573.946 247.144 575.578 247.144C576.538 247.144 577.306 246.688 577.786 245.92V247H578.962V238.612H577.786ZM575.866 246.112C574.726 246.112 573.922 245.188 573.922 243.892C573.922 242.596 574.726 241.684 575.866 241.684C576.982 241.684 577.786 242.596 577.786 243.892C577.786 245.188 576.982 246.112 575.866 246.112ZM584.358 247H587.202C589.866 247 591.762 245.284 591.762 242.872C591.762 240.46 589.866 238.756 587.202 238.756H584.358V247ZM585.57 245.896V239.86H587.274C589.182 239.86 590.514 241.108 590.514 242.872C590.514 244.648 589.182 245.896 587.274 245.896H585.57ZM595.923 240.652C595.239 240.652 594.459 240.832 593.571 241.276L594.003 242.152C594.543 241.876 595.143 241.636 595.755 241.636C596.991 241.636 597.351 242.464 597.351 243.244V243.436C596.751 243.232 596.091 243.1 595.479 243.1C594.111 243.1 592.995 243.928 592.995 245.164C592.995 246.376 593.967 247.144 595.287 247.144C596.043 247.144 596.895 246.796 597.351 246.148V247H598.515V243.244C598.515 241.708 597.591 240.652 595.923 240.652ZM595.515 246.208C594.735 246.208 594.135 245.8 594.135 245.128C594.135 244.456 594.831 243.988 595.659 243.988C596.271 243.988 596.847 244.072 597.351 244.228V245.056C597.147 245.824 596.283 246.208 595.515 246.208ZM603.137 245.884C603.005 246.016 602.765 246.112 602.501 246.112C602.153 246.112 601.865 245.8 601.865 245.368V241.804H603.329V240.796H601.865V239.092H600.701V240.796H599.765V241.804H600.701V245.452C600.701 246.448 601.373 247.144 602.333 247.144C602.777 247.144 603.233 246.976 603.569 246.7L603.137 245.884ZM607.384 240.652C606.7 240.652 605.92 240.832 605.032 241.276L605.464 242.152C606.004 241.876 606.604 241.636 607.216 241.636C608.452 241.636 608.812 242.464 608.812 243.244V243.436C608.212 243.232 607.552 243.1 606.94 243.1C605.572 243.1 604.456 243.928 604.456 245.164C604.456 246.376 605.428 247.144 606.748 247.144C607.504 247.144 608.356 246.796 608.812 246.148V247H609.976V243.244C609.976 241.708 609.052 240.652 607.384 240.652ZM606.976 246.208C606.196 246.208 605.596 245.8 605.596 245.128C605.596 244.456 606.292 243.988 607.12 243.988C607.732 243.988 608.308 244.072 608.812 244.228V245.056C608.608 245.824 607.744 246.208 606.976 246.208ZM614.622 247.144C615.546 247.144 616.35 246.76 616.95 246.148L616.146 245.416C615.762 245.848 615.21 246.112 614.634 246.112C613.494 246.112 612.558 245.104 612.558 243.892C612.558 242.692 613.494 241.684 614.622 241.684C615.198 241.684 615.738 241.936 616.11 242.356L616.914 241.612C616.326 241.024 615.522 240.652 614.634 240.652C612.858 240.652 611.358 242.128 611.358 243.892C611.358 245.656 612.858 247.144 614.622 247.144ZM621.065 246.088C619.997 246.088 619.241 245.344 619.085 244.312H623.969C623.969 242.092 622.877 240.652 620.981 240.652C619.265 240.652 617.885 242.02 617.885 243.88C617.885 245.788 619.349 247.144 621.077 247.144C621.953 247.144 623.033 246.772 623.585 246.184L622.841 245.416C622.469 245.8 621.713 246.088 621.065 246.088ZM621.029 241.708C622.097 241.708 622.685 242.404 622.817 243.364H619.097C619.289 242.356 620.069 241.708 621.029 241.708ZM628.502 240.652C627.662 240.652 626.906 241.084 626.534 241.696V240.796H625.346V247H626.534V242.98C626.63 242.248 627.374 241.684 628.238 241.684C629.078 241.684 629.666 242.332 629.666 243.256V247H630.83V243.052C630.83 241.648 629.87 240.652 628.502 240.652ZM635.434 245.884C635.302 246.016 635.062 246.112 634.798 246.112C634.45 246.112 634.162 245.8 634.162 245.368V241.804H635.626V240.796H634.162V239.092H632.998V240.796H632.062V241.804H632.998V245.452C632.998 246.448 633.67 247.144 634.63 247.144C635.074 247.144 635.53 246.976 635.866 246.7L635.434 245.884ZM639.921 246.088C638.853 246.088 638.097 245.344 637.941 244.312H642.825C642.825 242.092 641.733 240.652 639.837 240.652C638.121 240.652 636.741 242.02 636.741 243.88C636.741 245.788 638.205 247.144 639.933 247.144C640.809 247.144 641.889 246.772 642.441 246.184L641.697 245.416C641.325 245.8 640.569 246.088 639.921 246.088ZM639.885 241.708C640.953 241.708 641.541 242.404 641.673 243.364H637.953C638.145 242.356 638.925 241.708 639.885 241.708ZM645.45 241.984V240.796H644.262V247H645.45V243.472C645.558 242.392 646.47 241.684 647.754 241.684V240.652C646.686 240.652 645.846 241.168 645.45 241.984Z" fill="white"/>
<g filter="url(#filter4_d)">
<rect x="499" y="457" width="164" height="36" rx="3" fill="#00AB9A"/>
<rect x="499.5" y="457.5" width="163" height="35" rx="2.5" stroke="#2F8400"/>
</g>
<path d="M543.509 470.756L540.641 477.44L537.773 470.756H536.429L539.969 479H541.313L544.853 470.756H543.509ZM546.616 471.764C547 471.764 547.324 471.428 547.324 471.044C547.324 470.672 547 470.336 546.616 470.336C546.208 470.336 545.896 470.672 545.896 471.044C545.896 471.428 546.208 471.764 546.616 471.764ZM546.016 479H547.204V472.796H546.016V479ZM550.171 473.984V472.796H548.983V479H550.171V475.472C550.279 474.392 551.191 473.684 552.475 473.684V472.652C551.407 472.652 550.567 473.168 550.171 473.984ZM556.538 477.884C556.406 478.016 556.166 478.112 555.902 478.112C555.554 478.112 555.266 477.8 555.266 477.368V473.804H556.73V472.796H555.266V471.092H554.102V472.796H553.166V473.804H554.102V477.452C554.102 478.448 554.774 479.144 555.734 479.144C556.178 479.144 556.634 478.976 556.97 478.7L556.538 477.884ZM562.452 472.796V476.816C562.356 477.548 561.612 478.112 560.748 478.112C559.908 478.112 559.32 477.464 559.32 476.54V472.796H558.156V476.744C558.156 478.148 559.116 479.144 560.484 479.144C561.324 479.144 562.08 478.712 562.452 478.1V479H563.64V472.796H562.452ZM567.968 472.652C567.284 472.652 566.504 472.832 565.616 473.276L566.048 474.152C566.588 473.876 567.188 473.636 567.8 473.636C569.036 473.636 569.396 474.464 569.396 475.244V475.436C568.796 475.232 568.136 475.1 567.524 475.1C566.156 475.1 565.04 475.928 565.04 477.164C565.04 478.376 566.012 479.144 567.332 479.144C568.088 479.144 568.94 478.796 569.396 478.148V479H570.56V475.244C570.56 473.708 569.636 472.652 567.968 472.652ZM567.56 478.208C566.78 478.208 566.18 477.8 566.18 477.128C566.18 476.456 566.876 475.988 567.704 475.988C568.316 475.988 568.892 476.072 569.396 476.228V477.056C569.192 477.824 568.328 478.208 567.56 478.208ZM572.278 479H573.454V470.612H572.278V479ZM578.798 479H580.01V473.132L582.902 478.52L585.794 473.132V479H587.006V470.756H585.794L582.902 476.144L580.01 470.756H578.798V479ZM591.523 472.652C590.839 472.652 590.059 472.832 589.171 473.276L589.603 474.152C590.143 473.876 590.743 473.636 591.355 473.636C592.591 473.636 592.951 474.464 592.951 475.244V475.436C592.351 475.232 591.691 475.1 591.079 475.1C589.711 475.1 588.595 475.928 588.595 477.164C588.595 478.376 589.567 479.144 590.887 479.144C591.643 479.144 592.495 478.796 592.951 478.148V479H594.115V475.244C594.115 473.708 593.191 472.652 591.523 472.652ZM591.115 478.208C590.335 478.208 589.735 477.8 589.735 477.128C589.735 476.456 590.431 475.988 591.259 475.988C591.871 475.988 592.447 476.072 592.951 476.228V477.056C592.747 477.824 591.883 478.208 591.115 478.208ZM598.761 479.144C599.685 479.144 600.489 478.76 601.089 478.148L600.285 477.416C599.901 477.848 599.349 478.112 598.773 478.112C597.633 478.112 596.697 477.104 596.697 475.892C596.697 474.692 597.633 473.684 598.761 473.684C599.337 473.684 599.877 473.936 600.249 474.356L601.053 473.612C600.465 473.024 599.661 472.652 598.773 472.652C596.997 472.652 595.497 474.128 595.497 475.892C595.497 477.656 596.997 479.144 598.761 479.144ZM605.516 472.652C604.664 472.652 603.908 473.096 603.536 473.72V470.612H602.36V479H603.536V475.148C603.536 474.344 604.316 473.684 605.252 473.684C606.092 473.684 606.68 474.332 606.68 475.256V479H607.844V475.052C607.844 473.648 606.884 472.652 605.516 472.652ZM610.132 471.764C610.516 471.764 610.84 471.428 610.84 471.044C610.84 470.672 610.516 470.336 610.132 470.336C609.724 470.336 609.412 470.672 609.412 471.044C609.412 471.428 609.724 471.764 610.132 471.764ZM609.532 479H610.72V472.796H609.532V479ZM615.594 472.652C614.754 472.652 613.998 473.084 613.626 473.696V472.796H612.438V479H613.626V474.98C613.722 474.248 614.466 473.684 615.33 473.684C616.17 473.684 616.758 474.332 616.758 475.256V479H617.922V475.052C617.922 473.648 616.962 472.652 615.594 472.652ZM622.466 478.088C621.398 478.088 620.642 477.344 620.486 476.312H625.37C625.37 474.092 624.278 472.652 622.382 472.652C620.666 472.652 619.286 474.02 619.286 475.88C619.286 477.788 620.75 479.144 622.478 479.144C623.354 479.144 624.434 478.772 624.986 478.184L624.242 477.416C623.87 477.8 623.114 478.088 622.466 478.088ZM622.43 473.708C623.498 473.708 624.086 474.404 624.218 475.364H620.498C620.69 474.356 621.47 473.708 622.43 473.708Z" fill="white"/>
<g filter="url(#filter5_d)">
<rect x="64" y="89" width="231" height="36" rx="3" fill="#C6E5EF"/>
<rect x="64.5" y="89.5" width="230" height="35" rx="2.5" stroke="#90C8DA"/>
</g>
<path d="M164.538 111.132C166.482 111.132 167.538 110.076 167.538 108.684C167.538 107.208 166.398 106.656 164.754 106.272C163.398 105.948 162.69 105.684 162.69 104.916C162.69 104.256 163.338 103.668 164.262 103.668C165.102 103.668 165.93 104.04 166.626 104.676L167.322 103.764C166.53 103.068 165.582 102.6 164.31 102.6C162.654 102.6 161.454 103.644 161.454 105.024C161.454 106.512 162.57 107.016 164.25 107.412C165.63 107.724 166.314 108.024 166.314 108.804C166.314 109.464 165.726 110.064 164.586 110.064C163.47 110.064 162.606 109.608 161.874 108.912L161.142 109.812C162.018 110.652 163.158 111.132 164.538 111.132ZM171.835 110.088C170.767 110.088 170.011 109.344 169.855 108.312H174.739C174.739 106.092 173.647 104.652 171.751 104.652C170.035 104.652 168.655 106.02 168.655 107.88C168.655 109.788 170.119 111.144 171.847 111.144C172.723 111.144 173.803 110.772 174.355 110.184L173.611 109.416C173.239 109.8 172.483 110.088 171.835 110.088ZM171.799 105.708C172.867 105.708 173.455 106.404 173.587 107.364H169.867C170.059 106.356 170.839 105.708 171.799 105.708ZM177.364 105.984V104.796H176.176V111H177.364V107.472C177.472 106.392 178.384 105.684 179.668 105.684V104.652C178.6 104.652 177.76 105.168 177.364 105.984ZM182.891 111H184.007L186.623 104.796H185.339L183.443 109.62L181.511 104.796H180.227L182.891 111ZM190.187 110.088C189.119 110.088 188.363 109.344 188.207 108.312H193.091C193.091 106.092 191.999 104.652 190.103 104.652C188.387 104.652 187.007 106.02 187.007 107.88C187.007 109.788 188.471 111.144 190.199 111.144C191.075 111.144 192.155 110.772 192.707 110.184L191.963 109.416C191.591 109.8 190.835 110.088 190.187 110.088ZM190.151 105.708C191.219 105.708 191.807 106.404 191.939 107.364H188.219C188.411 106.356 189.191 105.708 190.151 105.708ZM195.716 105.984V104.796H194.528V111H195.716V107.472C195.824 106.392 196.736 105.684 198.02 105.684V104.652C196.952 104.652 196.112 105.168 195.716 105.984Z" fill="#313131"/>
<g filter="url(#filter6_d)">
<rect x="64" y="135" width="231" height="36" rx="3" fill="#C6E5EF"/>
<rect x="64.5" y="135.5" width="230" height="35" rx="2.5" stroke="#90C8DA"/>
</g>
<path d="M157.682 148.756V152.236H153.182V148.756H151.97V157H153.182V153.364H157.682V157H158.894V148.756H157.682ZM163.257 150.652C162.573 150.652 161.793 150.832 160.905 151.276L161.337 152.152C161.877 151.876 162.477 151.636 163.089 151.636C164.325 151.636 164.685 152.464 164.685 153.244V153.436C164.085 153.232 163.425 153.1 162.813 153.1C161.445 153.1 160.329 153.928 160.329 155.164C160.329 156.376 161.301 157.144 162.621 157.144C163.377 157.144 164.229 156.796 164.685 156.148V157H165.849V153.244C165.849 151.708 164.925 150.652 163.257 150.652ZM162.849 156.208C162.069 156.208 161.469 155.8 161.469 155.128C161.469 154.456 162.165 153.988 162.993 153.988C163.605 153.988 164.181 154.072 164.685 154.228V155.056C164.481 155.824 163.617 156.208 162.849 156.208ZM168.815 151.984V150.796H167.627V157H168.815V153.472C168.923 152.392 169.835 151.684 171.119 151.684V150.652C170.051 150.652 169.211 151.168 168.815 151.984ZM177.054 148.612V151.864C176.574 151.108 175.806 150.652 174.846 150.652C173.214 150.652 171.99 151.996 171.99 153.892C171.99 155.8 173.214 157.144 174.846 157.144C175.806 157.144 176.574 156.688 177.054 155.92V157H178.23V148.612H177.054ZM175.134 156.112C173.994 156.112 173.19 155.188 173.19 153.892C173.19 152.596 173.994 151.684 175.134 151.684C176.25 151.684 177.054 152.596 177.054 153.892C177.054 155.188 176.25 156.112 175.134 156.112ZM181.584 157H182.676L184.176 152.392L185.664 157H186.756L188.844 150.796H187.632L186.216 155.416L184.68 150.796H183.672L182.136 155.416L180.708 150.796H179.496L181.584 157ZM192.648 150.652C191.964 150.652 191.184 150.832 190.296 151.276L190.728 152.152C191.268 151.876 191.868 151.636 192.48 151.636C193.716 151.636 194.076 152.464 194.076 153.244V153.436C193.476 153.232 192.816 153.1 192.204 153.1C190.836 153.1 189.72 153.928 189.72 155.164C189.72 156.376 190.692 157.144 192.012 157.144C192.768 157.144 193.62 156.796 194.076 156.148V157H195.24V153.244C195.24 151.708 194.316 150.652 192.648 150.652ZM192.24 156.208C191.46 156.208 190.86 155.8 190.86 155.128C190.86 154.456 191.556 153.988 192.384 153.988C192.996 153.988 193.572 154.072 194.076 154.228V155.056C193.872 155.824 193.008 156.208 192.24 156.208ZM198.206 151.984V150.796H197.018V157H198.206V153.472C198.314 152.392 199.226 151.684 200.51 151.684V150.652C199.442 150.652 198.602 151.168 198.206 151.984ZM204.513 156.088C203.445 156.088 202.689 155.344 202.533 154.312H207.417C207.417 152.092 206.325 150.652 204.429 150.652C202.713 150.652 201.333 152.02 201.333 153.88C201.333 155.788 202.797 157.144 204.525 157.144C205.401 157.144 206.481 156.772 207.033 156.184L206.289 155.416C205.917 155.8 205.161 156.088 204.513 156.088ZM204.477 151.708C205.545 151.708 206.133 152.404 206.265 153.364H202.545C202.737 152.356 203.517 151.708 204.477 151.708Z" fill="#313131"/>
<g filter="url(#filter7_d)">
<rect x="64" y="181" width="231" height="36" rx="3" fill="#C6E5EF"/>
<rect x="64.5" y="181.5" width="230" height="35" rx="2.5" stroke="#90C8DA"/>
</g>
<path d="M161.417 195.884V194.756H155.357V203H156.581V199.412H160.949V198.284H156.581V195.884H161.417ZM165.331 196.652C164.647 196.652 163.867 196.832 162.979 197.276L163.411 198.152C163.951 197.876 164.551 197.636 165.163 197.636C166.399 197.636 166.759 198.464 166.759 199.244V199.436C166.159 199.232 165.499 199.1 164.887 199.1C163.519 199.1 162.403 199.928 162.403 201.164C162.403 202.376 163.375 203.144 164.695 203.144C165.451 203.144 166.303 202.796 166.759 202.148V203H167.923V199.244C167.923 197.708 166.999 196.652 165.331 196.652ZM164.923 202.208C164.143 202.208 163.543 201.8 163.543 201.128C163.543 200.456 164.239 199.988 165.067 199.988C165.679 199.988 166.255 200.072 166.759 200.228V201.056C166.555 201.824 165.691 202.208 164.923 202.208ZM172.569 203.144C173.493 203.144 174.297 202.76 174.897 202.148L174.093 201.416C173.709 201.848 173.157 202.112 172.581 202.112C171.441 202.112 170.505 201.104 170.505 199.892C170.505 198.692 171.441 197.684 172.569 197.684C173.145 197.684 173.685 197.936 174.057 198.356L174.861 197.612C174.273 197.024 173.469 196.652 172.581 196.652C170.805 196.652 169.305 198.128 169.305 199.892C169.305 201.656 170.805 203.144 172.569 203.144ZM176.757 195.764C177.141 195.764 177.465 195.428 177.465 195.044C177.465 194.672 177.141 194.336 176.757 194.336C176.349 194.336 176.037 194.672 176.037 195.044C176.037 195.428 176.349 195.764 176.757 195.764ZM176.157 203H177.345V196.796H176.157V203ZM179.063 203H180.239V194.612H179.063V203ZM182.557 195.764C182.941 195.764 183.265 195.428 183.265 195.044C183.265 194.672 182.941 194.336 182.557 194.336C182.149 194.336 181.837 194.672 181.837 195.044C181.837 195.428 182.149 195.764 182.557 195.764ZM181.957 203H183.145V196.796H181.957V203ZM187.768 201.884C187.636 202.016 187.396 202.112 187.132 202.112C186.784 202.112 186.496 201.8 186.496 201.368V197.804H187.96V196.796H186.496V195.092H185.332V196.796H184.396V197.804H185.332V201.452C185.332 202.448 186.004 203.144 186.964 203.144C187.408 203.144 187.864 202.976 188.2 202.7L187.768 201.884ZM189.999 195.764C190.383 195.764 190.707 195.428 190.707 195.044C190.707 194.672 190.383 194.336 189.999 194.336C189.591 194.336 189.279 194.672 189.279 195.044C189.279 195.428 189.591 195.764 189.999 195.764ZM189.399 203H190.587V196.796H189.399V203ZM195.149 202.088C194.081 202.088 193.325 201.344 193.169 200.312H198.053C198.053 198.092 196.961 196.652 195.065 196.652C193.349 196.652 191.969 198.02 191.969 199.88C191.969 201.788 193.433 203.144 195.161 203.144C196.037 203.144 197.117 202.772 197.669 202.184L196.925 201.416C196.553 201.8 195.797 202.088 195.149 202.088ZM195.113 197.708C196.181 197.708 196.769 198.404 196.901 199.364H193.181C193.373 198.356 194.153 197.708 195.113 197.708ZM201.674 203.144C203.03 203.144 204.026 202.4 204.026 201.224C204.026 199.988 202.934 199.652 201.914 199.352C200.87 199.028 200.486 198.884 200.486 198.404C200.486 197.936 200.966 197.672 201.578 197.672C202.118 197.672 202.742 197.876 203.342 198.248L203.87 197.372C203.198 196.928 202.382 196.652 201.578 196.652C200.258 196.652 199.31 197.396 199.322 198.536C199.322 199.544 200.03 199.952 201.458 200.348C202.226 200.564 202.862 200.744 202.862 201.32C202.862 201.8 202.382 202.124 201.686 202.124C200.954 202.124 200.246 201.848 199.586 201.368L199.022 202.22C199.766 202.82 200.762 203.144 201.674 203.144Z" fill="#313131"/>
<g filter="url(#filter8_d)">
<rect x="64" y="227" width="231" height="36" rx="3" fill="#C6E5EF"/>
<rect x="64.5" y="227.5" width="230" height="35" rx="2.5" stroke="#90C8DA"/>
</g>
<path d="M155.735 249H156.947V242.748L161.687 249H162.899V240.756H161.687V247.008L156.947 240.756H155.735V249ZM167.657 248.088C166.589 248.088 165.833 247.344 165.677 246.312H170.561C170.561 244.092 169.469 242.652 167.573 242.652C165.857 242.652 164.477 244.02 164.477 245.88C164.477 247.788 165.941 249.144 167.669 249.144C168.545 249.144 169.625 248.772 170.177 248.184L169.433 247.416C169.061 247.8 168.305 248.088 167.657 248.088ZM167.621 243.708C168.689 243.708 169.277 244.404 169.409 245.364H165.689C165.881 244.356 166.661 243.708 167.621 243.708ZM174.842 247.884C174.71 248.016 174.47 248.112 174.206 248.112C173.858 248.112 173.57 247.8 173.57 247.368V243.804H175.034V242.796H173.57V241.092H172.406V242.796H171.47V243.804H172.406V247.452C172.406 248.448 173.078 249.144 174.038 249.144C174.482 249.144 174.938 248.976 175.274 248.7L174.842 247.884ZM178.057 249H179.149L180.649 244.392L182.137 249H183.229L185.317 242.796H184.105L182.689 247.416L181.153 242.796H180.145L178.609 247.416L177.181 242.796H175.969L178.057 249ZM189.199 249.144C190.963 249.144 192.451 247.656 192.451 245.892C192.451 244.128 190.963 242.652 189.199 242.652C187.423 242.652 185.923 244.128 185.923 245.892C185.923 247.656 187.423 249.144 189.199 249.144ZM189.199 248.112C188.059 248.112 187.111 247.104 187.111 245.892C187.111 244.692 188.059 243.684 189.199 243.684C190.315 243.684 191.263 244.692 191.263 245.892C191.263 247.104 190.315 248.112 189.199 248.112ZM195.089 243.984V242.796H193.901V249H195.089V245.472C195.197 244.392 196.109 243.684 197.393 243.684V242.652C196.325 242.652 195.485 243.168 195.089 243.984ZM204.192 242.796H202.752L199.716 245.964V240.612H198.54V249H199.716V247.404L200.712 246.396L202.656 249H204.072L201.516 245.604L204.192 242.796Z" fill="#313131"/>
<g filter="url(#filter9_d)">
<rect x="64" y="273" width="231" height="36" rx="3" fill="#C6E5EF"/>
<rect x="64.5" y="273.5" width="230" height="35" rx="2.5" stroke="#90C8DA"/>
</g>
<path d="M142.296 295H143.64L140.1 286.756H138.756L135.216 295H136.56L137.28 293.32H141.576L142.296 295ZM137.748 292.228L139.428 288.316L141.108 292.228H137.748ZM149.591 286.612V289.864C149.111 289.108 148.343 288.652 147.383 288.652C145.751 288.652 144.527 289.996 144.527 291.892C144.527 293.8 145.751 295.144 147.383 295.144C148.343 295.144 149.111 294.688 149.591 293.92V295H150.767V286.612H149.591ZM147.671 294.112C146.531 294.112 145.727 293.188 145.727 291.892C145.727 290.596 146.531 289.684 147.671 289.684C148.787 289.684 149.591 290.596 149.591 291.892C149.591 293.188 148.787 294.112 147.671 294.112ZM157.326 286.612V289.864C156.846 289.108 156.078 288.652 155.118 288.652C153.486 288.652 152.262 289.996 152.262 291.892C152.262 293.8 153.486 295.144 155.118 295.144C156.078 295.144 156.846 294.688 157.326 293.92V295H158.502V286.612H157.326ZM155.406 294.112C154.266 294.112 153.462 293.188 153.462 291.892C153.462 290.596 154.266 289.684 155.406 289.684C156.522 289.684 157.326 290.596 157.326 291.892C157.326 293.188 156.522 294.112 155.406 294.112ZM160.872 287.764C161.256 287.764 161.58 287.428 161.58 287.044C161.58 286.672 161.256 286.336 160.872 286.336C160.464 286.336 160.152 286.672 160.152 287.044C160.152 287.428 160.464 287.764 160.872 287.764ZM160.272 295H161.46V288.796H160.272V295ZM166.082 293.884C165.95 294.016 165.71 294.112 165.446 294.112C165.098 294.112 164.81 293.8 164.81 293.368V289.804H166.274V288.796H164.81V287.092H163.646V288.796H162.71V289.804H163.646V293.452C163.646 294.448 164.318 295.144 165.278 295.144C165.722 295.144 166.178 294.976 166.514 294.7L166.082 293.884ZM168.313 287.764C168.697 287.764 169.021 287.428 169.021 287.044C169.021 286.672 168.697 286.336 168.313 286.336C167.905 286.336 167.593 286.672 167.593 287.044C167.593 287.428 167.905 287.764 168.313 287.764ZM167.713 295H168.901V288.796H167.713V295ZM173.56 295.144C175.324 295.144 176.812 293.656 176.812 291.892C176.812 290.128 175.324 288.652 173.56 288.652C171.784 288.652 170.284 290.128 170.284 291.892C170.284 293.656 171.784 295.144 173.56 295.144ZM173.56 294.112C172.42 294.112 171.472 293.104 171.472 291.892C171.472 290.692 172.42 289.684 173.56 289.684C174.676 289.684 175.624 290.692 175.624 291.892C175.624 293.104 174.676 294.112 173.56 294.112ZM181.358 288.652C180.518 288.652 179.762 289.084 179.39 289.696V288.796H178.202V295H179.39V290.98C179.486 290.248 180.23 289.684 181.094 289.684C181.934 289.684 182.522 290.332 182.522 291.256V295H183.686V291.052C183.686 289.648 182.726 288.652 181.358 288.652ZM187.989 288.652C187.305 288.652 186.525 288.832 185.637 289.276L186.069 290.152C186.609 289.876 187.209 289.636 187.821 289.636C189.057 289.636 189.417 290.464 189.417 291.244V291.436C188.817 291.232 188.157 291.1 187.545 291.1C186.177 291.1 185.061 291.928 185.061 293.164C185.061 294.376 186.033 295.144 187.353 295.144C188.109 295.144 188.961 294.796 189.417 294.148V295H190.581V291.244C190.581 289.708 189.657 288.652 187.989 288.652ZM187.581 294.208C186.801 294.208 186.201 293.8 186.201 293.128C186.201 292.456 186.897 291.988 187.725 291.988C188.337 291.988 188.913 292.072 189.417 292.228V293.056C189.213 293.824 188.349 294.208 187.581 294.208ZM192.3 295H193.476V286.612H192.3V295ZM202.635 295.144C203.811 295.144 204.891 294.64 205.671 293.848L204.819 293.032C204.267 293.632 203.487 294.028 202.635 294.028C200.991 294.028 199.599 292.588 199.599 290.872C199.599 289.168 200.991 287.728 202.635 287.728C203.487 287.728 204.267 288.124 204.819 288.724L205.671 287.908C204.891 287.104 203.811 286.612 202.635 286.612C200.319 286.612 198.351 288.556 198.351 290.872C198.351 293.188 200.319 295.144 202.635 295.144ZM209.794 295.144C211.558 295.144 213.046 293.656 213.046 291.892C213.046 290.128 211.558 288.652 209.794 288.652C208.018 288.652 206.518 290.128 206.518 291.892C206.518 293.656 208.018 295.144 209.794 295.144ZM209.794 294.112C208.654 294.112 207.706 293.104 207.706 291.892C207.706 290.692 208.654 289.684 209.794 289.684C210.91 289.684 211.858 290.692 211.858 291.892C211.858 293.104 210.91 294.112 209.794 294.112ZM216.68 295.144C218.036 295.144 219.032 294.4 219.032 293.224C219.032 291.988 217.94 291.652 216.92 291.352C215.876 291.028 215.492 290.884 215.492 290.404C215.492 289.936 215.972 289.672 216.584 289.672C217.124 289.672 217.748 289.876 218.348 290.248L218.876 289.372C218.204 288.928 217.388 288.652 216.584 288.652C215.264 288.652 214.316 289.396 214.328 290.536C214.328 291.544 215.036 291.952 216.464 292.348C217.232 292.564 217.868 292.744 217.868 293.32C217.868 293.8 217.388 294.124 216.692 294.124C215.96 294.124 215.252 293.848 214.592 293.368L214.028 294.22C214.772 294.82 215.768 295.144 216.68 295.144ZM223.317 293.884C223.185 294.016 222.945 294.112 222.681 294.112C222.333 294.112 222.045 293.8 222.045 293.368V289.804H223.509V288.796H222.045V287.092H220.881V288.796H219.945V289.804H220.881V293.452C220.881 294.448 221.553 295.144 222.513 295.144C222.957 295.144 223.413 294.976 223.749 294.7L223.317 293.884Z" fill="#313131"/>
<g filter="url(#filter10_d)">
<rect x="64" y="319" width="231" height="36" rx="3" fill="#C6E5EF"/>
<rect x="64.5" y="319.5" width="230" height="35" rx="2.5" stroke="#90C8DA"/>
</g>
<path d="M164.664 338.872V331.756H163.44V340H169.032V338.872H164.664ZM172.878 333.652C172.194 333.652 171.414 333.832 170.526 334.276L170.958 335.152C171.498 334.876 172.098 334.636 172.71 334.636C173.946 334.636 174.306 335.464 174.306 336.244V336.436C173.706 336.232 173.046 336.1 172.434 336.1C171.066 336.1 169.95 336.928 169.95 338.164C169.95 339.376 170.922 340.144 172.242 340.144C172.998 340.144 173.85 339.796 174.306 339.148V340H175.47V336.244C175.47 334.708 174.546 333.652 172.878 333.652ZM172.47 339.208C171.69 339.208 171.09 338.8 171.09 338.128C171.09 337.456 171.786 336.988 172.614 336.988C173.226 336.988 173.802 337.072 174.306 337.228V338.056C174.102 338.824 173.238 339.208 172.47 339.208ZM180.632 333.652C179.672 333.652 178.904 334.108 178.424 334.864V331.612H177.248V340H178.424V338.92C178.904 339.688 179.672 340.144 180.632 340.144C182.264 340.144 183.488 338.8 183.488 336.892C183.488 334.996 182.264 333.652 180.632 333.652ZM180.344 339.112C179.228 339.112 178.424 338.188 178.424 336.892C178.424 335.596 179.228 334.684 180.344 334.684C181.484 334.684 182.288 335.596 182.288 336.892C182.288 338.188 181.484 339.112 180.344 339.112ZM187.863 340.144C189.627 340.144 191.115 338.656 191.115 336.892C191.115 335.128 189.627 333.652 187.863 333.652C186.087 333.652 184.587 335.128 184.587 336.892C184.587 338.656 186.087 340.144 187.863 340.144ZM187.863 339.112C186.723 339.112 185.775 338.104 185.775 336.892C185.775 335.692 186.723 334.684 187.863 334.684C188.979 334.684 189.927 335.692 189.927 336.892C189.927 338.104 188.979 339.112 187.863 339.112ZM193.753 334.984V333.796H192.565V340H193.753V336.472C193.861 335.392 194.773 334.684 196.057 334.684V333.652C194.989 333.652 194.149 334.168 193.753 334.984Z" fill="#313131"/>
<g filter="url(#filter11_d)">
<rect x="64" y="365" width="231" height="36" rx="3" fill="#C6E5EF"/>
<rect x="64.5" y="365.5" width="230" height="35" rx="2.5" stroke="#90C8DA"/>
</g>
<path d="M143.595 387H144.807V381.132L147.699 386.52L150.591 381.132V387H151.803V378.756H150.591L147.699 384.144L144.807 378.756H143.595V387ZM156.32 380.652C155.636 380.652 154.856 380.832 153.968 381.276L154.4 382.152C154.94 381.876 155.54 381.636 156.152 381.636C157.388 381.636 157.748 382.464 157.748 383.244V383.436C157.148 383.232 156.488 383.1 155.876 383.1C154.508 383.1 153.392 383.928 153.392 385.164C153.392 386.376 154.364 387.144 155.684 387.144C156.44 387.144 157.292 386.796 157.748 386.148V387H158.912V383.244C158.912 381.708 157.988 380.652 156.32 380.652ZM155.912 386.208C155.132 386.208 154.532 385.8 154.532 385.128C154.532 384.456 155.228 383.988 156.056 383.988C156.668 383.988 157.244 384.072 157.748 384.228V385.056C157.544 385.824 156.68 386.208 155.912 386.208ZM161.218 379.764C161.602 379.764 161.926 379.428 161.926 379.044C161.926 378.672 161.602 378.336 161.218 378.336C160.81 378.336 160.498 378.672 160.498 379.044C160.498 379.428 160.81 379.764 161.218 379.764ZM160.618 387H161.806V380.796H160.618V387ZM166.68 380.652C165.84 380.652 165.084 381.084 164.712 381.696V380.796H163.524V387H164.712V382.98C164.808 382.248 165.552 381.684 166.416 381.684C167.256 381.684 167.844 382.332 167.844 383.256V387H169.008V383.052C169.008 381.648 168.048 380.652 166.68 380.652ZM173.612 385.884C173.48 386.016 173.24 386.112 172.976 386.112C172.628 386.112 172.34 385.8 172.34 385.368V381.804H173.804V380.796H172.34V379.092H171.176V380.796H170.24V381.804H171.176V385.452C171.176 386.448 171.848 387.144 172.808 387.144C173.252 387.144 173.708 386.976 174.044 386.7L173.612 385.884ZM178.099 386.088C177.031 386.088 176.275 385.344 176.119 384.312H181.003C181.003 382.092 179.911 380.652 178.015 380.652C176.299 380.652 174.919 382.02 174.919 383.88C174.919 385.788 176.383 387.144 178.111 387.144C178.987 387.144 180.067 386.772 180.619 386.184L179.875 385.416C179.503 385.8 178.747 386.088 178.099 386.088ZM178.063 381.708C179.131 381.708 179.719 382.404 179.851 383.364H176.131C176.323 382.356 177.103 381.708 178.063 381.708ZM185.536 380.652C184.696 380.652 183.94 381.084 183.568 381.696V380.796H182.38V387H183.568V382.98C183.664 382.248 184.408 381.684 185.272 381.684C186.112 381.684 186.7 382.332 186.7 383.256V387H187.864V383.052C187.864 381.648 186.904 380.652 185.536 380.652ZM192.167 380.652C191.483 380.652 190.703 380.832 189.815 381.276L190.247 382.152C190.787 381.876 191.387 381.636 191.999 381.636C193.235 381.636 193.595 382.464 193.595 383.244V383.436C192.995 383.232 192.335 383.1 191.723 383.1C190.355 383.1 189.239 383.928 189.239 385.164C189.239 386.376 190.211 387.144 191.531 387.144C192.287 387.144 193.139 386.796 193.595 386.148V387H194.759V383.244C194.759 381.708 193.835 380.652 192.167 380.652ZM191.759 386.208C190.979 386.208 190.379 385.8 190.379 385.128C190.379 384.456 191.075 383.988 191.903 383.988C192.515 383.988 193.091 384.072 193.595 384.228V385.056C193.391 385.824 192.527 386.208 191.759 386.208ZM199.633 380.652C198.793 380.652 198.037 381.084 197.665 381.696V380.796H196.477V387H197.665V382.98C197.761 382.248 198.505 381.684 199.369 381.684C200.209 381.684 200.797 382.332 200.797 383.256V387H201.961V383.052C201.961 381.648 201.001 380.652 199.633 380.652ZM206.589 387.144C207.513 387.144 208.317 386.76 208.917 386.148L208.113 385.416C207.729 385.848 207.177 386.112 206.601 386.112C205.461 386.112 204.525 385.104 204.525 383.892C204.525 382.692 205.461 381.684 206.589 381.684C207.165 381.684 207.705 381.936 208.077 382.356L208.881 381.612C208.293 381.024 207.489 380.652 206.601 380.652C204.825 380.652 203.325 382.128 203.325 383.892C203.325 385.656 204.825 387.144 206.589 387.144ZM213.032 386.088C211.964 386.088 211.208 385.344 211.052 384.312H215.936C215.936 382.092 214.844 380.652 212.948 380.652C211.232 380.652 209.852 382.02 209.852 383.88C209.852 385.788 211.316 387.144 213.044 387.144C213.92 387.144 215 386.772 215.552 386.184L214.808 385.416C214.436 385.8 213.68 386.088 213.032 386.088ZM212.996 381.708C214.064 381.708 214.652 382.404 214.784 383.364H211.064C211.256 382.356 212.036 381.708 212.996 381.708Z" fill="#313131"/>
<g filter="url(#filter12_d)">
<rect x="64" y="411" width="231" height="36" rx="3" fill="#C6E5EF"/>
<rect x="64.5" y="411.5" width="230" height="35" rx="2.5" stroke="#90C8DA"/>
</g>
<path d="M159.719 432.872V425.756H158.495V434H164.087V432.872H159.719ZM165.917 426.764C166.301 426.764 166.625 426.428 166.625 426.044C166.625 425.672 166.301 425.336 165.917 425.336C165.509 425.336 165.197 425.672 165.197 426.044C165.197 426.428 165.509 426.764 165.917 426.764ZM165.317 434H166.505V427.796H165.317V434ZM171.151 434.144C172.075 434.144 172.879 433.76 173.479 433.148L172.675 432.416C172.291 432.848 171.739 433.112 171.163 433.112C170.023 433.112 169.087 432.104 169.087 430.892C169.087 429.692 170.023 428.684 171.151 428.684C171.727 428.684 172.267 428.936 172.639 429.356L173.443 428.612C172.855 428.024 172.051 427.652 171.163 427.652C169.387 427.652 167.887 429.128 167.887 430.892C167.887 432.656 169.387 434.144 171.151 434.144ZM177.595 433.088C176.527 433.088 175.771 432.344 175.615 431.312H180.499C180.499 429.092 179.407 427.652 177.511 427.652C175.795 427.652 174.415 429.02 174.415 430.88C174.415 432.788 175.879 434.144 177.607 434.144C178.483 434.144 179.563 433.772 180.115 433.184L179.371 432.416C178.999 432.8 178.243 433.088 177.595 433.088ZM177.559 428.708C178.627 428.708 179.215 429.404 179.347 430.364H175.627C175.819 429.356 176.599 428.708 177.559 428.708ZM185.032 427.652C184.192 427.652 183.436 428.084 183.064 428.696V427.796H181.876V434H183.064V429.98C183.16 429.248 183.904 428.684 184.768 428.684C185.608 428.684 186.196 429.332 186.196 430.256V434H187.36V430.052C187.36 428.648 186.4 427.652 185.032 427.652ZM191.303 434.144C192.659 434.144 193.655 433.4 193.655 432.224C193.655 430.988 192.563 430.652 191.543 430.352C190.499 430.028 190.115 429.884 190.115 429.404C190.115 428.936 190.595 428.672 191.207 428.672C191.747 428.672 192.371 428.876 192.971 429.248L193.499 428.372C192.827 427.928 192.011 427.652 191.207 427.652C189.887 427.652 188.939 428.396 188.951 429.536C188.951 430.544 189.659 430.952 191.087 431.348C191.855 431.564 192.491 431.744 192.491 432.32C192.491 432.8 192.011 433.124 191.315 433.124C190.583 433.124 189.875 432.848 189.215 432.368L188.651 433.22C189.395 433.82 190.391 434.144 191.303 434.144ZM197.88 433.088C196.812 433.088 196.056 432.344 195.9 431.312H200.784C200.784 429.092 199.692 427.652 197.796 427.652C196.08 427.652 194.7 429.02 194.7 430.88C194.7 432.788 196.164 434.144 197.892 434.144C198.768 434.144 199.848 433.772 200.4 433.184L199.656 432.416C199.284 432.8 198.528 433.088 197.88 433.088ZM197.844 428.708C198.912 428.708 199.5 429.404 199.632 430.364H195.912C196.104 429.356 196.884 428.708 197.844 428.708Z" fill="#313131"/>
<g filter="url(#filter13_d)">
<rect x="64" y="456" width="231" height="36" rx="3" fill="#C6E5EF"/>
<rect x="64.5" y="456.5" width="230" height="35" rx="2.5" stroke="#90C8DA"/>
</g>
<path d="M147.392 478H148.736L145.196 469.756H143.852L140.312 478H141.656L142.376 476.32H146.672L147.392 478ZM142.844 475.228L144.524 471.316L146.204 475.228H142.844ZM153.355 471.652C152.395 471.652 151.627 472.108 151.147 472.864V471.796H149.971V480.064H151.147V476.92C151.627 477.688 152.395 478.144 153.355 478.144C154.987 478.144 156.211 476.8 156.211 474.892C156.211 472.996 154.987 471.652 153.355 471.652ZM153.067 477.112C151.951 477.112 151.147 476.188 151.147 474.892C151.147 473.596 151.951 472.684 153.067 472.684C154.207 472.684 155.011 473.596 155.011 474.892C155.011 476.188 154.207 477.112 153.067 477.112ZM161.089 471.652C160.129 471.652 159.361 472.108 158.881 472.864V471.796H157.705V480.064H158.881V476.92C159.361 477.688 160.129 478.144 161.089 478.144C162.721 478.144 163.945 476.8 163.945 474.892C163.945 472.996 162.721 471.652 161.089 471.652ZM160.801 477.112C159.685 477.112 158.881 476.188 158.881 474.892C158.881 473.596 159.685 472.684 160.801 472.684C161.941 472.684 162.745 473.596 162.745 474.892C162.745 476.188 161.941 477.112 160.801 477.112ZM165.38 478H166.556V469.612H165.38V478ZM168.874 470.764C169.258 470.764 169.582 470.428 169.582 470.044C169.582 469.672 169.258 469.336 168.874 469.336C168.466 469.336 168.154 469.672 168.154 470.044C168.154 470.428 168.466 470.764 168.874 470.764ZM168.274 478H169.462V471.796H168.274V478ZM174.108 478.144C175.032 478.144 175.836 477.76 176.436 477.148L175.632 476.416C175.248 476.848 174.696 477.112 174.12 477.112C172.98 477.112 172.044 476.104 172.044 474.892C172.044 473.692 172.98 472.684 174.108 472.684C174.684 472.684 175.224 472.936 175.596 473.356L176.4 472.612C175.812 472.024 175.008 471.652 174.12 471.652C172.344 471.652 170.844 473.128 170.844 474.892C170.844 476.656 172.344 478.144 174.108 478.144ZM180.312 471.652C179.628 471.652 178.848 471.832 177.96 472.276L178.392 473.152C178.932 472.876 179.532 472.636 180.144 472.636C181.38 472.636 181.74 473.464 181.74 474.244V474.436C181.14 474.232 180.48 474.1 179.868 474.1C178.5 474.1 177.384 474.928 177.384 476.164C177.384 477.376 178.356 478.144 179.676 478.144C180.432 478.144 181.284 477.796 181.74 477.148V478H182.904V474.244C182.904 472.708 181.98 471.652 180.312 471.652ZM179.904 477.208C179.124 477.208 178.524 476.8 178.524 476.128C178.524 475.456 179.22 474.988 180.048 474.988C180.66 474.988 181.236 475.072 181.74 475.228V476.056C181.536 476.824 180.672 477.208 179.904 477.208ZM187.526 476.884C187.394 477.016 187.154 477.112 186.89 477.112C186.542 477.112 186.254 476.8 186.254 476.368V472.804H187.718V471.796H186.254V470.092H185.09V471.796H184.154V472.804H185.09V476.452C185.09 477.448 185.762 478.144 186.722 478.144C187.166 478.144 187.622 477.976 187.958 477.7L187.526 476.884ZM189.757 470.764C190.141 470.764 190.465 470.428 190.465 470.044C190.465 469.672 190.141 469.336 189.757 469.336C189.349 469.336 189.037 469.672 189.037 470.044C189.037 470.428 189.349 470.764 189.757 470.764ZM189.157 478H190.345V471.796H189.157V478ZM195.003 478.144C196.767 478.144 198.255 476.656 198.255 474.892C198.255 473.128 196.767 471.652 195.003 471.652C193.227 471.652 191.727 473.128 191.727 474.892C191.727 476.656 193.227 478.144 195.003 478.144ZM195.003 477.112C193.863 477.112 192.915 476.104 192.915 474.892C192.915 473.692 193.863 472.684 195.003 472.684C196.119 472.684 197.067 473.692 197.067 474.892C197.067 476.104 196.119 477.112 195.003 477.112ZM202.801 471.652C201.961 471.652 201.205 472.084 200.833 472.696V471.796H199.645V478H200.833V473.98C200.929 473.248 201.673 472.684 202.537 472.684C203.377 472.684 203.965 473.332 203.965 474.256V478H205.129V474.052C205.129 472.648 204.169 471.652 202.801 471.652ZM209.073 478.144C210.429 478.144 211.425 477.4 211.425 476.224C211.425 474.988 210.333 474.652 209.313 474.352C208.269 474.028 207.885 473.884 207.885 473.404C207.885 472.936 208.365 472.672 208.977 472.672C209.517 472.672 210.141 472.876 210.741 473.248L211.269 472.372C210.597 471.928 209.781 471.652 208.977 471.652C207.657 471.652 206.709 472.396 206.721 473.536C206.721 474.544 207.429 474.952 208.857 475.348C209.625 475.564 210.261 475.744 210.261 476.32C210.261 476.8 209.781 477.124 209.085 477.124C208.353 477.124 207.645 476.848 206.985 476.368L206.421 477.22C207.165 477.82 208.161 478.144 209.073 478.144Z" fill="#313131"/>
<path d="M461 244H493" stroke="#A9B6BE" stroke-width="4"/>
<path d="M295 63H351" stroke="#FFCD97" stroke-width="4" stroke-linecap="round"/>
<path d="M357 63L346.5 56.9378L346.5 69.0622L357 63Z" fill="#FFCD97"/>
<path d="M410 79L403.938 89.5L416.062 89.5L410 79Z" fill="#FFCD97"/>
<path d="M499 244L488.5 237.938L488.5 250.062L499 244Z" fill="#A9B6BE"/>
<path d="M462 60H670C686.569 60 700 73.4315 700 90V467C700 472.523 695.523 477 690 477H663.5" stroke="#AADB1E" stroke-width="4" stroke-linecap="round"/>
<path d="M656 476L666.5 482.062L666.5 469.938L656 476Z" fill="#AADB1E"/>
<path d="M663 242L699 242" stroke="#AADB1E" stroke-width="4" stroke-linecap="round"/>
<rect x="553.697" y="54" width="78.303" height="14" rx="7" fill="#AADB1E"/>
<path d="M572.357 63H575.245C576.293 63 577.045 62.392 577.045 61.512C577.045 60.904 576.677 60.392 576.037 60.104C576.525 59.848 576.805 59.44 576.805 58.88C576.805 58.08 576.125 57.504 575.141 57.504H572.357V63ZM573.533 59.72V58.512H574.845C575.285 58.512 575.597 58.768 575.597 59.112C575.597 59.464 575.285 59.72 574.845 59.72H573.533ZM573.533 61.992V60.648H575.029C575.501 60.648 575.837 60.928 575.837 61.32C575.837 61.712 575.501 61.992 575.029 61.992H573.533ZM580.519 58.768C579.943 58.768 579.375 58.928 578.791 59.224L579.183 60C579.511 59.832 579.871 59.704 580.255 59.704C580.935 59.704 581.207 60.088 581.207 60.528V60.608C580.855 60.472 580.487 60.4 580.151 60.4C579.191 60.4 578.431 60.96 578.431 61.776C578.431 62.568 579.111 63.096 579.991 63.096C580.439 63.096 580.911 62.92 581.207 62.584V63H582.335V60.528C582.335 59.448 581.599 58.768 580.519 58.768ZM580.255 62.288C579.855 62.288 579.559 62.08 579.559 61.744C579.559 61.408 579.895 61.16 580.319 61.16C580.639 61.16 580.943 61.216 581.207 61.312V61.696C581.127 62.08 580.703 62.288 580.255 62.288ZM585.671 63.096C586.687 63.096 587.351 62.576 587.351 61.76C587.351 60.856 586.559 60.616 585.847 60.432C585.287 60.28 585.119 60.216 585.119 59.992C585.119 59.848 585.319 59.744 585.607 59.744C585.959 59.744 586.391 59.88 586.767 60.112L587.239 59.28C586.783 58.976 586.199 58.768 585.607 58.768C584.631 58.768 583.983 59.328 583.991 60.112C583.999 60.928 584.655 61.16 585.503 61.368C585.927 61.48 586.231 61.56 586.231 61.816C586.231 62 586.007 62.128 585.695 62.128C585.143 62.128 584.679 61.928 584.311 61.664L583.807 62.472C584.303 62.872 585.007 63.096 585.671 63.096ZM590.887 62.064C590.399 62.064 590.039 61.76 589.903 61.312H592.887C592.887 59.752 592.127 58.768 590.831 58.768C589.623 58.768 588.703 59.672 588.703 60.92C588.703 62.192 589.663 63.096 590.895 63.096C591.503 63.096 592.215 62.84 592.583 62.456L591.839 61.696C591.615 61.912 591.215 62.064 590.887 62.064ZM590.879 59.8C591.351 59.8 591.655 60.064 591.767 60.472H589.919C590.071 60.056 590.439 59.8 590.879 59.8ZM598.679 59.632V58.864H597.511V63H598.679V61.024C598.679 60.248 599.231 59.752 600.095 59.752V58.768C599.463 58.768 598.951 59.096 598.679 59.632ZM603.417 58.768C602.841 58.768 602.273 58.928 601.689 59.224L602.081 60C602.409 59.832 602.769 59.704 603.153 59.704C603.833 59.704 604.105 60.088 604.105 60.528V60.608C603.753 60.472 603.385 60.4 603.049 60.4C602.089 60.4 601.329 60.96 601.329 61.776C601.329 62.568 602.009 63.096 602.889 63.096C603.337 63.096 603.809 62.92 604.105 62.584V63H605.233V60.528C605.233 59.448 604.497 58.768 603.417 58.768ZM603.153 62.288C602.753 62.288 602.457 62.08 602.457 61.744C602.457 61.408 602.793 61.16 603.217 61.16C603.537 61.16 603.841 61.216 604.105 61.312V61.696C604.025 62.08 603.601 62.288 603.153 62.288ZM609.193 61.976C609.113 62.056 608.953 62.112 608.793 62.112C608.577 62.112 608.401 61.92 608.401 61.648V59.808H609.297V58.864H608.401V57.728H607.281V58.864H606.713V59.808H607.281V61.832C607.281 62.576 607.793 63.096 608.521 63.096C608.857 63.096 609.233 62.952 609.473 62.736L609.193 61.976ZM612.957 62.064C612.469 62.064 612.109 61.76 611.973 61.312H614.957C614.957 59.752 614.197 58.768 612.901 58.768C611.693 58.768 610.773 59.672 610.773 60.92C610.773 62.192 611.733 63.096 612.965 63.096C613.573 63.096 614.285 62.84 614.653 62.456L613.909 61.696C613.685 61.912 613.285 62.064 612.957 62.064ZM612.949 59.8C613.421 59.8 613.725 60.064 613.837 60.472H611.989C612.141 60.056 612.509 59.8 612.949 59.8Z" fill="#313131"/>
<path d="M410 225V81" stroke="#FFCD97" stroke-width="4" stroke-linecap="round"/>
<path d="M294 105.5L358.5 242.5M294 154.5L358.5 245.5M294 200.5L358.5 248.5M358.5 248.5L295.5 339M358.5 248.5L294 386M295.5 247H356.484M295.5 293.5L357 249.5M295.5 430L361 249.5" stroke="#A9B6BE" stroke-width="4" stroke-linecap="round" stroke-linejoin="round"/>
<path d="M296.5 476H497" stroke="#266900" stroke-width="4" stroke-linecap="round"/>
<circle cx="360" cy="244" r="9" fill="#A9B6BE"/>
<path d="M507 476L496.5 469.938L496.5 482.062L507 476Z" fill="#266900"/>
<path d="M294 433.5L485 476L294 336M294 291L495.5 475.5" stroke="#266900" stroke-width="4" stroke-linecap="round"/>
<rect x="331.697" y="470" width="78.303" height="14" rx="7" fill="#266900"/>
<path d="M346.135 480H348.103C349.951 480 351.263 478.856 351.263 477.248C351.263 475.64 349.951 474.504 348.103 474.504H346.135V480ZM347.311 478.928V475.576H348.255C349.303 475.576 350.047 476.272 350.047 477.248C350.047 478.232 349.303 478.928 348.255 478.928H347.311ZM353.525 475.296C353.869 475.296 354.149 475.008 354.149 474.656C354.149 474.328 353.869 474.032 353.525 474.032C353.165 474.032 352.885 474.328 352.885 474.656C352.885 475.008 353.165 475.296 353.525 475.296ZM352.933 480H354.101V475.864H352.933V480ZM357.089 476.632V475.864H355.921V480H357.089V478.024C357.089 477.248 357.641 476.752 358.505 476.752V475.768C357.873 475.768 357.361 476.096 357.089 476.632ZM361.93 479.064C361.442 479.064 361.082 478.76 360.946 478.312H363.93C363.93 476.752 363.17 475.768 361.874 475.768C360.666 475.768 359.746 476.672 359.746 477.92C359.746 479.192 360.706 480.096 361.938 480.096C362.546 480.096 363.258 479.84 363.626 479.456L362.882 478.696C362.658 478.912 362.258 479.064 361.93 479.064ZM361.922 476.8C362.394 476.8 362.698 477.064 362.81 477.472H360.962C361.114 477.056 361.482 476.8 361.922 476.8ZM367.545 480.096C368.233 480.096 368.793 479.816 369.201 479.368L368.425 478.712C368.209 478.952 367.873 479.112 367.553 479.112C366.937 479.112 366.425 478.568 366.425 477.92C366.425 477.288 366.937 476.752 367.545 476.752C367.865 476.752 368.193 476.904 368.401 477.136L369.177 476.472C368.777 476.04 368.225 475.768 367.553 475.768C366.329 475.768 365.289 476.752 365.289 477.928C365.289 479.104 366.321 480.096 367.545 480.096ZM372.879 478.976C372.799 479.056 372.639 479.112 372.479 479.112C372.263 479.112 372.087 478.92 372.087 478.648V476.808H372.983V475.864H372.087V474.728H370.967V475.864H370.399V476.808H370.967V478.832C370.967 479.576 371.479 480.096 372.207 480.096C372.543 480.096 372.919 479.952 373.159 479.736L372.879 478.976ZM380.461 480.096C381.293 480.096 382.061 479.736 382.597 479.176L381.741 478.408C381.421 478.776 380.965 479.024 380.461 479.024C379.541 479.024 378.757 478.208 378.757 477.248C378.757 476.296 379.541 475.48 380.461 475.48C380.965 475.48 381.421 475.728 381.741 476.096L382.597 475.328C382.061 474.76 381.293 474.408 380.461 474.408C378.885 474.408 377.541 475.704 377.541 477.248C377.541 478.792 378.885 480.096 380.461 480.096ZM386.128 480.096C387.352 480.096 388.376 479.104 388.376 477.928C388.376 476.752 387.352 475.768 386.128 475.768C384.896 475.768 383.864 476.752 383.864 477.928C383.864 479.104 384.896 480.096 386.128 480.096ZM386.128 479.112C385.504 479.112 384.984 478.568 384.984 477.928C384.984 477.288 385.504 476.752 386.128 476.752C386.744 476.752 387.264 477.288 387.264 477.928C387.264 478.568 386.744 479.112 386.128 479.112ZM391.518 480.096C392.534 480.096 393.198 479.576 393.198 478.76C393.198 477.856 392.406 477.616 391.694 477.432C391.134 477.28 390.966 477.216 390.966 476.992C390.966 476.848 391.166 476.744 391.454 476.744C391.806 476.744 392.238 476.88 392.614 477.112L393.086 476.28C392.63 475.976 392.046 475.768 391.454 475.768C390.478 475.768 389.83 476.328 389.838 477.112C389.846 477.928 390.502 478.16 391.35 478.368C391.774 478.48 392.078 478.56 392.078 478.816C392.078 479 391.854 479.128 391.542 479.128C390.99 479.128 390.526 478.928 390.158 478.664L389.654 479.472C390.15 479.872 390.854 480.096 391.518 480.096ZM396.958 478.976C396.878 479.056 396.718 479.112 396.558 479.112C396.342 479.112 396.166 478.92 396.166 478.648V476.808H397.062V475.864H396.166V474.728H395.046V475.864H394.478V476.808H395.046V478.832C395.046 479.576 395.558 480.096 396.286 480.096C396.622 480.096 396.998 479.952 397.238 479.736L396.958 478.976Z" fill="white"/>
<defs>
<filter id="filter0_d" x="62" y="42" width="235" height="40" filterUnits="userSpaceOnUse" color-interpolation-filters="sRGB">
<feFlood flood-opacity="0" result="BackgroundImageFix"/>
<feColorMatrix in="SourceAlpha" type="matrix" values="0 0 0 0 0 0 0 0 0 0 0 0 0 0 0 0 0 0 127 0"/>
<feOffset dy="1"/>
<feGaussianBlur stdDeviation="1"/>
<feColorMatrix type="matrix" values="0 0 0 0 0 0 0 0 0 0 0 0 0 0 0 0 0 0 0.2 0"/>
<feBlend mode="normal" in2="BackgroundImageFix" result="effect1_dropShadow"/>
<feBlend mode="normal" in="SourceGraphic" in2="effect1_dropShadow" result="shape"/>
</filter>
<filter id="filter1_d" x="360" y="42" width="107" height="40" filterUnits="userSpaceOnUse" color-interpolation-filters="sRGB">
<feFlood flood-opacity="0" result="BackgroundImageFix"/>
<feColorMatrix in="SourceAlpha" type="matrix" values="0 0 0 0 0 0 0 0 0 0 0 0 0 0 0 0 0 0 127 0"/>
<feOffset dy="1"/>
<feGaussianBlur stdDeviation="1"/>
<feColorMatrix type="matrix" values="0 0 0 0 0 0 0 0 0 0 0 0 0 0 0 0 0 0 0.2 0"/>
<feBlend mode="normal" in2="BackgroundImageFix" result="effect1_dropShadow"/>
<feBlend mode="normal" in="SourceGraphic" in2="effect1_dropShadow" result="shape"/>
</filter>
<filter id="filter2_d" x="360" y="225" width="107" height="40" filterUnits="userSpaceOnUse" color-interpolation-filters="sRGB">
<feFlood flood-opacity="0" result="BackgroundImageFix"/>
<feColorMatrix in="SourceAlpha" type="matrix" values="0 0 0 0 0 0 0 0 0 0 0 0 0 0 0 0 0 0 127 0"/>
<feOffset dy="1"/>
<feGaussianBlur stdDeviation="1"/>
<feColorMatrix type="matrix" values="0 0 0 0 0 0 0 0 0 0 0 0 0 0 0 0 0 0 0.2 0"/>
<feBlend mode="normal" in2="BackgroundImageFix" result="effect1_dropShadow"/>
<feBlend mode="normal" in="SourceGraphic" in2="effect1_dropShadow" result="shape"/>
</filter>
<filter id="filter3_d" x="497" y="224" width="168" height="40" filterUnits="userSpaceOnUse" color-interpolation-filters="sRGB">
<feFlood flood-opacity="0" result="BackgroundImageFix"/>
<feColorMatrix in="SourceAlpha" type="matrix" values="0 0 0 0 0 0 0 0 0 0 0 0 0 0 0 0 0 0 127 0"/>
<feOffset dy="1"/>
<feGaussianBlur stdDeviation="1"/>
<feColorMatrix type="matrix" values="0 0 0 0 0 0 0 0 0 0 0 0 0 0 0 0 0 0 0.2 0"/>
<feBlend mode="normal" in2="BackgroundImageFix" result="effect1_dropShadow"/>
<feBlend mode="normal" in="SourceGraphic" in2="effect1_dropShadow" result="shape"/>
</filter>
<filter id="filter4_d" x="497" y="456" width="168" height="40" filterUnits="userSpaceOnUse" color-interpolation-filters="sRGB">
<feFlood flood-opacity="0" result="BackgroundImageFix"/>
<feColorMatrix in="SourceAlpha" type="matrix" values="0 0 0 0 0 0 0 0 0 0 0 0 0 0 0 0 0 0 127 0"/>
<feOffset dy="1"/>
<feGaussianBlur stdDeviation="1"/>
<feColorMatrix type="matrix" values="0 0 0 0 0 0 0 0 0 0 0 0 0 0 0 0 0 0 0.2 0"/>
<feBlend mode="normal" in2="BackgroundImageFix" result="effect1_dropShadow"/>
<feBlend mode="normal" in="SourceGraphic" in2="effect1_dropShadow" result="shape"/>
</filter>
<filter id="filter5_d" x="62" y="88" width="235" height="40" filterUnits="userSpaceOnUse" color-interpolation-filters="sRGB">
<feFlood flood-opacity="0" result="BackgroundImageFix"/>
<feColorMatrix in="SourceAlpha" type="matrix" values="0 0 0 0 0 0 0 0 0 0 0 0 0 0 0 0 0 0 127 0"/>
<feOffset dy="1"/>
<feGaussianBlur stdDeviation="1"/>
<feColorMatrix type="matrix" values="0 0 0 0 0 0 0 0 0 0 0 0 0 0 0 0 0 0 0.2 0"/>
<feBlend mode="normal" in2="BackgroundImageFix" result="effect1_dropShadow"/>
<feBlend mode="normal" in="SourceGraphic" in2="effect1_dropShadow" result="shape"/>
</filter>
<filter id="filter6_d" x="62" y="134" width="235" height="40" filterUnits="userSpaceOnUse" color-interpolation-filters="sRGB">
<feFlood flood-opacity="0" result="BackgroundImageFix"/>
<feColorMatrix in="SourceAlpha" type="matrix" values="0 0 0 0 0 0 0 0 0 0 0 0 0 0 0 0 0 0 127 0"/>
<feOffset dy="1"/>
<feGaussianBlur stdDeviation="1"/>
<feColorMatrix type="matrix" values="0 0 0 0 0 0 0 0 0 0 0 0 0 0 0 0 0 0 0.2 0"/>
<feBlend mode="normal" in2="BackgroundImageFix" result="effect1_dropShadow"/>
<feBlend mode="normal" in="SourceGraphic" in2="effect1_dropShadow" result="shape"/>
</filter>
<filter id="filter7_d" x="62" y="180" width="235" height="40" filterUnits="userSpaceOnUse" color-interpolation-filters="sRGB">
<feFlood flood-opacity="0" result="BackgroundImageFix"/>
<feColorMatrix in="SourceAlpha" type="matrix" values="0 0 0 0 0 0 0 0 0 0 0 0 0 0 0 0 0 0 127 0"/>
<feOffset dy="1"/>
<feGaussianBlur stdDeviation="1"/>
<feColorMatrix type="matrix" values="0 0 0 0 0 0 0 0 0 0 0 0 0 0 0 0 0 0 0.2 0"/>
<feBlend mode="normal" in2="BackgroundImageFix" result="effect1_dropShadow"/>
<feBlend mode="normal" in="SourceGraphic" in2="effect1_dropShadow" result="shape"/>
</filter>
<filter id="filter8_d" x="62" y="226" width="235" height="40" filterUnits="userSpaceOnUse" color-interpolation-filters="sRGB">
<feFlood flood-opacity="0" result="BackgroundImageFix"/>
<feColorMatrix in="SourceAlpha" type="matrix" values="0 0 0 0 0 0 0 0 0 0 0 0 0 0 0 0 0 0 127 0"/>
<feOffset dy="1"/>
<feGaussianBlur stdDeviation="1"/>
<feColorMatrix type="matrix" values="0 0 0 0 0 0 0 0 0 0 0 0 0 0 0 0 0 0 0.2 0"/>
<feBlend mode="normal" in2="BackgroundImageFix" result="effect1_dropShadow"/>
<feBlend mode="normal" in="SourceGraphic" in2="effect1_dropShadow" result="shape"/>
</filter>
<filter id="filter9_d" x="62" y="272" width="235" height="40" filterUnits="userSpaceOnUse" color-interpolation-filters="sRGB">
<feFlood flood-opacity="0" result="BackgroundImageFix"/>
<feColorMatrix in="SourceAlpha" type="matrix" values="0 0 0 0 0 0 0 0 0 0 0 0 0 0 0 0 0 0 127 0"/>
<feOffset dy="1"/>
<feGaussianBlur stdDeviation="1"/>
<feColorMatrix type="matrix" values="0 0 0 0 0 0 0 0 0 0 0 0 0 0 0 0 0 0 0.2 0"/>
<feBlend mode="normal" in2="BackgroundImageFix" result="effect1_dropShadow"/>
<feBlend mode="normal" in="SourceGraphic" in2="effect1_dropShadow" result="shape"/>
</filter>
<filter id="filter10_d" x="62" y="318" width="235" height="40" filterUnits="userSpaceOnUse" color-interpolation-filters="sRGB">
<feFlood flood-opacity="0" result="BackgroundImageFix"/>
<feColorMatrix in="SourceAlpha" type="matrix" values="0 0 0 0 0 0 0 0 0 0 0 0 0 0 0 0 0 0 127 0"/>
<feOffset dy="1"/>
<feGaussianBlur stdDeviation="1"/>
<feColorMatrix type="matrix" values="0 0 0 0 0 0 0 0 0 0 0 0 0 0 0 0 0 0 0.2 0"/>
<feBlend mode="normal" in2="BackgroundImageFix" result="effect1_dropShadow"/>
<feBlend mode="normal" in="SourceGraphic" in2="effect1_dropShadow" result="shape"/>
</filter>
<filter id="filter11_d" x="62" y="364" width="235" height="40" filterUnits="userSpaceOnUse" color-interpolation-filters="sRGB">
<feFlood flood-opacity="0" result="BackgroundImageFix"/>
<feColorMatrix in="SourceAlpha" type="matrix" values="0 0 0 0 0 0 0 0 0 0 0 0 0 0 0 0 0 0 127 0"/>
<feOffset dy="1"/>
<feGaussianBlur stdDeviation="1"/>
<feColorMatrix type="matrix" values="0 0 0 0 0 0 0 0 0 0 0 0 0 0 0 0 0 0 0.2 0"/>
<feBlend mode="normal" in2="BackgroundImageFix" result="effect1_dropShadow"/>
<feBlend mode="normal" in="SourceGraphic" in2="effect1_dropShadow" result="shape"/>
</filter>
<filter id="filter12_d" x="62" y="410" width="235" height="40" filterUnits="userSpaceOnUse" color-interpolation-filters="sRGB">
<feFlood flood-opacity="0" result="BackgroundImageFix"/>
<feColorMatrix in="SourceAlpha" type="matrix" values="0 0 0 0 0 0 0 0 0 0 0 0 0 0 0 0 0 0 127 0"/>
<feOffset dy="1"/>
<feGaussianBlur stdDeviation="1"/>
<feColorMatrix type="matrix" values="0 0 0 0 0 0 0 0 0 0 0 0 0 0 0 0 0 0 0.2 0"/>
<feBlend mode="normal" in2="BackgroundImageFix" result="effect1_dropShadow"/>
<feBlend mode="normal" in="SourceGraphic" in2="effect1_dropShadow" result="shape"/>
</filter>
<filter id="filter13_d" x="62" y="455" width="235" height="40" filterUnits="userSpaceOnUse" color-interpolation-filters="sRGB">
<feFlood flood-opacity="0" result="BackgroundImageFix"/>
<feColorMatrix in="SourceAlpha" type="matrix" values="0 0 0 0 0 0 0 0 0 0 0 0 0 0 0 0 0 0 127 0"/>
<feOffset dy="1"/>
<feGaussianBlur stdDeviation="1"/>
<feColorMatrix type="matrix" values="0 0 0 0 0 0 0 0 0 0 0 0 0 0 0 0 0 0 0.2 0"/>
<feBlend mode="normal" in2="BackgroundImageFix" result="effect1_dropShadow"/>
<feBlend mode="normal" in="SourceGraphic" in2="effect1_dropShadow" result="shape"/>
</filter>
</defs>
</svg>
